<svg width="321" height="104" viewBox="0 0 321 104" fill="none" xmlns="http://www.w3.org/2000/svg">
<path fill-rule="evenodd" clip-rule="evenodd" d="M32.9887 65.0019C36.5602 68.5976 42.3507 68.5976 45.9222 65.0019C46.1463 64.7763 46.3564 64.5418 46.5524 64.2997L76.4249 70.3147C77.9107 70.6139 79.3561 69.6437 79.6533 68.1478C79.9505 66.6519 78.9869 65.1967 77.501 64.8975L48.5825 59.0746C48.7421 56.5278 47.8553 53.927 45.9222 51.9808C43.9891 50.0346 41.4059 49.1418 38.8764 49.3024L33.0928 20.1882C32.7956 18.6923 31.3502 17.7222 29.8644 18.0214C28.3785 18.3205 27.4149 19.7757 27.7121 21.2716L33.6865 51.3461C33.4459 51.5435 33.2129 51.755 32.9887 51.9808C29.4172 55.5765 29.4172 61.4062 32.9887 65.0019ZM34.5957 55.9229C33.5079 58.0075 33.8345 60.645 35.5754 62.3977C37.7183 64.5551 41.1926 64.5551 43.3355 62.3977C45.4784 60.2403 45.4784 56.7424 43.3355 54.585C41.9962 53.2366 40.1368 52.731 38.4074 53.0681C38.1886 53.1107 37.9718 53.1669 37.7584 53.2365C36.9603 53.4972 36.2098 53.9466 35.5758 54.5849C35.1737 54.9898 34.8469 55.4413 34.5957 55.9229Z" fill="url(#paint0_linear_864_1250)"/>
<path fill-rule="evenodd" clip-rule="evenodd" d="M55.622 26.5897L73.729 8.35999C84.8006 -2.78666 102.751 -2.78666 113.823 8.35999C124.894 19.5066 124.894 37.5789 113.823 48.7256L91.8577 70.8396L91.8417 70.8236C91.4445 73.6956 90.1491 76.4658 87.9556 78.6742L64.6753 102.112C62.1752 104.629 58.1219 104.629 55.6218 102.112L7.76797 53.934C-2.58933 43.5064 -2.58932 26.6001 7.76797 16.1726C18.1253 5.74508 34.9178 5.74508 45.2751 16.1726L55.622 26.5897ZM81.4891 16.1727C88.2749 9.34087 99.2769 9.34087 106.063 16.1727C112.849 23.0045 112.849 34.0811 106.063 40.9129L87.9557 59.1426L63.3821 34.4024L81.4891 16.1727ZM11.648 20.0789C19.8624 11.8089 33.1806 11.8088 41.395 20.0789L84.0755 63.0488C87.2898 66.2849 87.2898 71.5317 84.0755 74.7678L60.7952 98.2059C60.4381 98.5655 59.859 98.5655 59.5019 98.2059L11.648 50.0276C3.43361 41.7575 3.43361 28.349 11.648 20.0789Z" fill="url(#paint1_linear_864_1250)"/>
<path d="M158.401 36.7059V18.9198H161.222L164.67 27.0849L168.118 18.8913H170.939V36.7059H168.146V24.2871L165.354 30.8248H163.787L161.165 24.3156V36.7059H158.401Z" fill="url(#paint2_linear_864_1250)"/>
<path d="M190.288 37.0199C189.015 37.0199 187.875 36.7535 186.868 36.2205C185.881 35.6876 185.102 34.9073 184.532 33.8795C183.962 32.8518 183.677 31.6146 183.677 30.1682C183.677 28.6836 183.952 27.4179 184.503 26.3711C185.073 25.3243 185.824 24.525 186.754 23.973C187.704 23.402 188.759 23.1165 189.918 23.1165C190.943 23.1165 191.884 23.3545 192.739 23.8303C193.613 24.3061 194.306 25.0293 194.819 26C195.351 26.9516 195.617 28.1412 195.617 29.5686C195.617 29.7589 195.607 29.9873 195.588 30.2538C195.588 30.5203 195.579 30.7486 195.56 30.939H186.783C186.821 31.7764 187.02 32.4616 187.381 32.9945C187.742 33.5084 188.189 33.889 188.721 34.1365C189.253 34.3839 189.823 34.5076 190.43 34.5076C191.019 34.5076 191.58 34.4124 192.112 34.2221C192.644 34.0318 193.138 33.7082 193.594 33.2514L195.246 34.8502C194.6 35.6115 193.86 36.1634 193.024 36.506C192.188 36.8486 191.276 37.0199 190.288 37.0199ZM186.84 28.5123H192.482C192.482 27.5797 192.245 26.866 191.77 26.3711C191.295 25.8763 190.63 25.6289 189.775 25.6289C189.034 25.6289 188.388 25.8668 187.837 26.3426C187.286 26.7994 186.954 27.5226 186.84 28.5123Z" fill="url(#paint3_linear_864_1250)"/>
<path d="M208.497 36.7059V23.4306H211.204V24.4012C211.527 23.9445 211.888 23.6209 212.287 23.4306C212.686 23.2212 213.094 23.1165 213.512 23.1165C213.987 23.1165 214.424 23.2403 214.823 23.4877C215.241 23.7351 215.555 24.1443 215.764 24.7153C216.353 23.6495 217.283 23.1165 218.556 23.1165C219.525 23.1165 220.218 23.4591 220.636 24.1443C221.073 24.8104 221.282 25.7335 221.263 26.9136V36.7059H218.471V27.5987C218.471 26.7423 218.404 26.1713 218.271 25.8858C218.138 25.5813 217.939 25.429 217.673 25.429C217.293 25.429 216.951 25.686 216.647 26.1998C216.343 26.6947 216.191 27.3608 216.191 28.1983V36.7059H213.569V27.6844C213.569 26.7708 213.503 26.1618 213.37 25.8572C213.237 25.5527 212.99 25.4005 212.629 25.4005C212.287 25.4005 211.974 25.6289 211.689 26.0856C211.423 26.5234 211.29 27.1705 211.29 28.027V36.7059H208.497Z" fill="url(#paint4_linear_864_1250)"/>
<path d="M239.814 36.9914C238.637 36.9914 237.563 36.7059 236.594 36.1349C235.644 35.5449 234.894 34.736 234.343 33.7082C233.792 32.6614 233.517 31.4433 233.517 30.054C233.517 28.7407 233.792 27.5607 234.343 26.5139C234.894 25.4671 235.644 24.6392 236.594 24.0301C237.563 23.4211 238.637 23.1165 239.814 23.1165C241.011 23.1165 242.085 23.4211 243.034 24.0301C244.003 24.6392 244.763 25.4671 245.314 26.5139C245.884 27.5607 246.169 28.7407 246.169 30.054C246.169 31.4243 245.884 32.6329 245.314 33.6797C244.763 34.7265 244.003 35.5449 243.034 36.1349C242.085 36.7059 241.011 36.9914 239.814 36.9914ZM239.814 34.422C240.726 34.422 241.477 34.0223 242.066 33.2229C242.654 32.4045 242.949 31.3482 242.949 30.054C242.949 28.7217 242.654 27.6654 242.066 26.885C241.477 26.1047 240.726 25.7145 239.814 25.7145C238.94 25.7145 238.209 26.1047 237.62 26.885C237.031 27.6654 236.737 28.7217 236.737 30.054C236.737 31.3482 237.022 32.4045 237.592 33.2229C238.181 34.0223 238.921 34.422 239.814 34.422Z" fill="url(#paint5_linear_864_1250)"/>
<path d="M260.332 23.4306H263.666L263.637 25.5718C263.998 24.8105 264.53 24.2109 265.233 23.7732C265.936 23.3354 266.677 23.1165 267.456 23.1165C268.937 23.1165 270.163 23.6209 271.132 24.6296L269.764 27.3418L269.678 27.5702L269.422 27.456C269.365 27.3037 269.308 27.1515 269.251 26.9992C269.194 26.8279 269.051 26.6376 268.823 26.4282C268.557 26.2189 268.273 26.0571 267.969 25.9429C267.684 25.8287 267.37 25.7716 267.028 25.7716C266.116 25.7716 265.318 26.0856 264.635 26.7137C263.951 27.3418 263.609 28.3505 263.609 29.7399V36.7059H260.332V23.4306Z" fill="url(#paint6_linear_864_1250)"/>
<path d="M286.463 41.7305C285.817 41.7305 285.247 41.6258 284.753 41.4165C284.259 41.2071 283.774 40.9026 283.3 40.5029L284.411 38.2761L284.525 38.0191L284.781 38.1333C284.838 38.2856 284.905 38.4283 284.981 38.5616C285.057 38.6948 285.228 38.8471 285.494 39.0183C285.779 39.1706 286.102 39.2467 286.463 39.2467C287.033 39.2467 287.488 39.0088 287.83 38.533C288.191 38.0572 288.552 37.3054 288.913 36.2776L283.755 23.4306H286.976L290.367 32.1951L291.791 28.1412C292.076 27.3228 292.314 26.5329 292.504 25.7716C292.694 25.0103 292.817 24.23 292.874 23.4306H295.866C295.79 24.2871 295.591 25.1911 295.268 26.1427C294.945 27.0944 294.622 27.9984 294.299 28.8549L291.022 37.8764C290.49 39.2848 289.844 40.2745 289.084 40.8455C288.343 41.4355 287.47 41.7305 286.463 41.7305Z" fill="url(#paint7_linear_864_1250)"/>
<path d="M165.411 81.2315C164.119 81.2315 162.96 80.9365 161.934 80.3465C160.908 79.7564 160.092 78.9475 159.484 77.9198C158.895 76.873 158.6 75.6834 158.6 74.3512C158.6 73.0379 158.895 71.8484 159.484 70.7825C160.092 69.7167 160.908 68.8697 161.934 68.2417C162.96 67.6136 164.129 67.2996 165.439 67.2996C166.655 67.2996 167.719 67.5279 168.631 67.9847C169.543 68.4415 170.265 69.0696 170.797 69.869L169.001 71.8388L168.83 72.0387L168.602 71.8674C168.602 71.6961 168.583 71.5438 168.545 71.4106C168.507 71.2584 168.384 71.0585 168.175 70.8111C167.814 70.4685 167.406 70.2306 166.95 70.0974C166.513 69.9641 166.019 69.8975 165.468 69.8975C164.841 69.8975 164.252 70.0688 163.701 70.4114C163.15 70.754 162.704 71.2583 162.362 71.9245C162.039 72.5906 161.877 73.3995 161.877 74.3512C161.877 75.2076 162.048 75.9594 162.39 76.6065C162.732 77.2346 163.179 77.7295 163.73 78.0911C164.299 78.4337 164.907 78.605 165.553 78.605C166.142 78.605 166.722 78.4813 167.292 78.2338C167.862 77.9864 168.393 77.5582 168.887 76.9491L170.683 79.0046C169.98 79.785 169.163 80.356 168.232 80.7176C167.301 81.0602 166.361 81.2315 165.411 81.2315Z" fill="url(#paint8_linear_864_1250)"/>
<path d="M188.208 81.2315C186.745 81.2315 185.605 80.8889 184.788 80.2037C183.99 79.5185 183.591 78.6145 183.591 77.4916C183.591 76.0831 184.218 74.9221 185.472 74.0086C186.745 73.076 188.588 72.6097 191 72.6097C191.133 72.6097 191.304 72.6097 191.513 72.6097C191.741 72.6097 191.979 72.6192 192.226 72.6382C192.093 71.5343 191.779 70.792 191.285 70.4114C190.791 70.0117 190.127 69.8119 189.291 69.8119C188.683 69.8119 188.113 69.9165 187.581 70.1259C187.049 70.3162 186.517 70.6779 185.985 71.2108L184.218 69.2694C184.978 68.5652 185.805 68.0609 186.697 67.7563C187.59 67.4518 188.502 67.2996 189.433 67.2996C190.535 67.2996 191.542 67.4804 192.454 67.842C193.366 68.1846 194.087 68.7936 194.619 69.6691C195.151 70.5256 195.417 71.7151 195.417 73.2377V80.8889H192.083V79.4614C191.589 80.1276 191.019 80.5939 190.373 80.8603C189.728 81.1078 189.006 81.2315 188.208 81.2315ZM186.811 77.0919C186.811 77.7009 187.001 78.1291 187.381 78.3766C187.78 78.605 188.265 78.7192 188.835 78.7192C189.861 78.7192 190.658 78.4146 191.228 77.8056C191.798 77.1775 192.14 76.1973 192.254 74.865C192.007 74.865 191.77 74.865 191.542 74.865C191.314 74.846 191.114 74.8365 190.943 74.8365C189.424 74.8365 188.35 75.0459 187.723 75.4646C187.115 75.8833 186.811 76.4257 186.811 77.0919Z" fill="url(#paint9_linear_864_1250)"/>
<path d="M209.01 85.6566L208.981 67.585H212.173V69.4407C212.591 68.6985 213.123 68.156 213.769 67.8134C214.415 67.4708 215.127 67.2996 215.906 67.2996C216.875 67.2996 217.749 67.566 218.528 68.0989C219.326 68.6128 219.962 69.3931 220.437 70.4399C220.912 71.4677 221.149 72.7524 221.149 74.2941C221.149 75.8547 220.902 77.149 220.408 78.1767C219.915 79.2045 219.259 79.9753 218.442 80.4892C217.644 80.9841 216.78 81.2315 215.849 81.2315C215.146 81.2315 214.472 81.1078 213.826 80.8603C213.18 80.6129 212.667 80.2418 212.287 79.7469V85.6566H209.01ZM214.966 78.7192C215.517 78.7192 216.02 78.5764 216.476 78.2909C216.932 78.0054 217.293 77.5296 217.559 76.8635C217.825 76.1973 217.958 75.2838 217.958 74.1228C217.958 72.8095 217.701 71.7722 217.188 71.0109C216.694 70.2496 216.011 69.8594 215.137 69.8404C214.225 69.8214 213.512 70.183 212.999 70.9253C212.506 71.6485 212.259 72.8381 212.259 74.4939C212.297 77.3107 213.199 78.7192 214.966 78.7192Z" fill="url(#paint10_linear_864_1250)"/>
<path d="M240.099 81.2029C238.883 81.2029 237.763 81.0411 236.737 80.7176C235.711 80.394 234.799 79.8516 234.001 79.0903L235.426 76.4638L235.54 76.2354L235.768 76.3781C235.825 76.5114 235.882 76.6636 235.939 76.8349C235.996 76.9872 236.138 77.168 236.366 77.3774C236.841 77.777 237.373 78.0911 237.962 78.3195C238.57 78.5479 239.301 78.6621 240.156 78.6621C240.954 78.6621 241.572 78.5288 242.009 78.2624C242.446 77.9959 242.664 77.6438 242.664 77.2061C242.664 76.7683 242.417 76.4162 241.923 76.1497C241.448 75.8833 240.66 75.5883 239.558 75.2647C238.114 74.8841 236.965 74.3702 236.11 73.7231C235.255 73.076 234.828 72.21 234.828 71.1251C234.828 70.0403 235.293 69.1362 236.224 68.413C237.174 67.6707 238.447 67.2996 240.042 67.2996C242.227 67.2996 244.003 67.9752 245.371 69.3265L243.804 71.5248L243.604 71.7532L243.405 71.5819C243.386 71.4296 243.338 71.2869 243.262 71.1537C243.205 71.0204 243.063 70.8396 242.835 70.6112C242.455 70.3448 242.018 70.1449 241.524 70.0117C241.049 69.8594 240.574 69.7833 240.099 69.7833C239.453 69.7833 238.893 69.888 238.418 70.0974C237.962 70.3067 237.734 70.6303 237.734 71.068C237.734 71.4487 237.981 71.7722 238.475 72.0387C238.969 72.3051 239.814 72.5906 241.011 72.8952C242.607 73.2948 243.766 73.8278 244.488 74.4939C245.21 75.141 245.571 75.9785 245.571 77.0062C245.571 77.7675 245.362 78.4717 244.944 79.1188C244.526 79.7469 243.908 80.2513 243.091 80.6319C242.294 81.0126 241.296 81.2029 240.099 81.2029Z" fill="url(#paint11_linear_864_1250)"/>
<path d="M263.837 81.2315C262.488 81.2315 261.376 80.7747 260.503 79.8611C259.629 78.9476 259.192 77.463 259.192 75.4075V67.6136H262.44V75.4075C262.44 76.5875 262.63 77.4249 263.01 77.9198C263.409 78.3956 263.903 78.6335 264.492 78.6335C265.29 78.6335 265.936 78.348 266.43 77.777C266.943 77.2061 267.199 76.3401 267.199 75.1791V67.6136H270.419V78.7763C270.419 79.195 270.429 79.5756 270.448 79.9182C270.486 80.2418 270.571 80.5653 270.704 80.8889H267.769C267.617 80.6034 267.532 80.3179 267.513 80.0324C267.494 79.7469 267.484 79.4614 267.484 79.1759C267.085 79.8611 266.553 80.375 265.888 80.7176C265.242 81.0602 264.559 81.2315 263.837 81.2315Z" fill="url(#paint12_linear_864_1250)"/>
<path d="M284.667 80.8889V78.348H288.4V64.2734H284.838V61.7325H291.649V78.348H295.353V80.8889H284.667Z" fill="url(#paint13_linear_864_1250)"/>
<path d="M315.671 81.2029C314.398 81.2029 313.259 80.9365 312.252 80.4036C311.264 79.8706 310.485 79.0903 309.915 78.0625C309.345 77.0348 309.06 75.7976 309.06 74.3512C309.06 72.8666 309.336 71.6009 309.887 70.5541C310.456 69.5073 311.207 68.708 312.138 68.156C313.088 67.585 314.142 67.2996 315.301 67.2996C316.327 67.2996 317.267 67.5375 318.122 68.0133C318.996 68.4891 319.689 69.2123 320.202 70.183C320.734 71.1346 321 72.3242 321 73.7516C321 73.942 320.99 74.1704 320.971 74.4368C320.971 74.7033 320.962 74.9317 320.943 75.122H312.166C312.204 75.9594 312.404 76.6446 312.765 77.1775C313.126 77.6914 313.572 78.072 314.104 78.3195C314.636 78.5669 315.206 78.6906 315.814 78.6906C316.403 78.6906 316.963 78.5954 317.495 78.4051C318.027 78.2148 318.521 77.8912 318.977 77.4345L320.63 79.0332C319.984 79.7945 319.243 80.3465 318.407 80.689C317.571 81.0316 316.659 81.2029 315.671 81.2029ZM312.223 72.6953H317.865C317.865 71.7627 317.628 71.049 317.153 70.5541C316.678 70.0593 316.013 69.8119 315.158 69.8119C314.417 69.8119 313.771 70.0498 313.221 70.5256C312.67 70.9824 312.337 71.7056 312.223 72.6953Z" fill="url(#paint14_linear_864_1250)"/>
<defs>
<linearGradient id="paint0_linear_864_1250" x1="1.13706e-06" y1="50.9804" x2="321" y2="50.9804" gradientUnits="userSpaceOnUse">
<stop stop-color="#FF9F9F"/>
<stop offset="1" stop-color="#FF599F"/>
</linearGradient>
<linearGradient id="paint1_linear_864_1250" x1="1.13706e-06" y1="50.9804" x2="321" y2="50.9804" gradientUnits="userSpaceOnUse">
<stop stop-color="#FF9F9F"/>
<stop offset="1" stop-color="#FF599F"/>
</linearGradient>
<linearGradient id="paint2_linear_864_1250" x1="1.13706e-06" y1="50.9804" x2="321" y2="50.9804" gradientUnits="userSpaceOnUse">
<stop stop-color="#FF9F9F"/>
<stop offset="1" stop-color="#FF599F"/>
</linearGradient>
<linearGradient id="paint3_linear_864_1250" x1="1.13706e-06" y1="50.9804" x2="321" y2="50.9804" gradientUnits="userSpaceOnUse">
<stop stop-color="#FF9F9F"/>
<stop offset="1" stop-color="#FF599F"/>
</linearGradient>
<linearGradient id="paint4_linear_864_1250" x1="1.13706e-06" y1="50.9804" x2="321" y2="50.9804" gradientUnits="userSpaceOnUse">
<stop stop-color="#FF9F9F"/>
<stop offset="1" stop-color="#FF599F"/>
</linearGradient>
<linearGradient id="paint5_linear_864_1250" x1="1.13706e-06" y1="50.9804" x2="321" y2="50.9804" gradientUnits="userSpaceOnUse">
<stop stop-color="#FF9F9F"/>
<stop offset="1" stop-color="#FF599F"/>
</linearGradient>
<linearGradient id="paint6_linear_864_1250" x1="1.13706e-06" y1="50.9804" x2="321" y2="50.9804" gradientUnits="userSpaceOnUse">
<stop stop-color="#FF9F9F"/>
<stop offset="1" stop-color="#FF599F"/>
</linearGradient>
<linearGradient id="paint7_linear_864_1250" x1="1.13706e-06" y1="50.9804" x2="321" y2="50.9804" gradientUnits="userSpaceOnUse">
<stop stop-color="#FF9F9F"/>
<stop offset="1" stop-color="#FF599F"/>
</linearGradient>
<linearGradient id="paint8_linear_864_1250" x1="1.13706e-06" y1="50.9804" x2="321" y2="50.9804" gradientUnits="userSpaceOnUse">
<stop stop-color="#FF9F9F"/>
<stop offset="1" stop-color="#FF599F"/>
</linearGradient>
<linearGradient id="paint9_linear_864_1250" x1="1.13706e-06" y1="50.9804" x2="321" y2="50.9804" gradientUnits="userSpaceOnUse">
<stop stop-color="#FF9F9F"/>
<stop offset="1" stop-color="#FF599F"/>
</linearGradient>
<linearGradient id="paint10_linear_864_1250" x1="1.13706e-06" y1="50.9804" x2="321" y2="50.9804" gradientUnits="userSpaceOnUse">
<stop stop-color="#FF9F9F"/>
<stop offset="1" stop-color="#FF599F"/>
</linearGradient>
<linearGradient id="paint11_linear_864_1250" x1="1.13706e-06" y1="50.9804" x2="321" y2="50.9804" gradientUnits="userSpaceOnUse">
<stop stop-color="#FF9F9F"/>
<stop offset="1" stop-color="#FF599F"/>
</linearGradient>
<linearGradient id="paint12_linear_864_1250" x1="1.13706e-06" y1="50.9804" x2="321" y2="50.9804" gradientUnits="userSpaceOnUse">
<stop stop-color="#FF9F9F"/>
<stop offset="1" stop-color="#FF599F"/>
</linearGradient>
<linearGradient id="paint13_linear_864_1250" x1="1.13706e-06" y1="50.9804" x2="321" y2="50.9804" gradientUnits="userSpaceOnUse">
<stop stop-color="#FF9F9F"/>
<stop offset="1" stop-color="#FF599F"/>
</linearGradient>
<linearGradient id="paint14_linear_864_1250" x1="1.13706e-06" y1="50.9804" x2="321" y2="50.9804" gradientUnits="userSpaceOnUse">
<stop stop-color="#FF9F9F"/>
<stop offset="1" stop-color="#FF599F"/>
</linearGradient>
</defs>
</svg>
