<svg width="322" height="104" viewBox="0 0 322 104" fill="none" xmlns="http://www.w3.org/2000/svg">
<path fill-rule="evenodd" clip-rule="evenodd" d="M33.8735 65.0019C37.445 68.5976 43.2355 68.5976 46.8069 65.0019C47.0311 64.7763 47.2412 64.5418 47.4372 64.2997L77.3097 70.3147C78.7955 70.6139 80.2409 69.6437 80.5381 68.1478C80.8352 66.6519 79.8716 65.1967 78.3858 64.8975L49.4673 59.0746C49.6269 56.5279 48.7401 53.927 46.8069 51.9808C44.8739 50.0346 42.2907 49.1418 39.7612 49.3024L33.9775 20.1882C33.6804 18.6923 32.235 17.7222 30.7491 18.0214C29.2633 18.3205 28.2997 19.7757 28.5969 21.2716L34.5713 51.3461C34.3307 51.5435 34.0977 51.755 33.8735 51.9808C30.302 55.5765 30.302 61.4062 33.8735 65.0019ZM35.4805 55.9229C34.3927 58.0075 34.7192 60.645 36.4602 62.3977C38.6031 64.5551 42.0774 64.5551 44.2203 62.3977C46.3631 60.2403 46.3632 56.7424 44.2203 54.585C42.8809 53.2366 41.0216 52.731 39.2922 53.0681C39.0733 53.1107 38.8566 53.1669 38.6432 53.2365C37.8451 53.4972 37.0946 53.9466 36.4606 54.5849C36.0584 54.9898 35.7317 55.4413 35.4805 55.9229Z" fill="white"/>
<path fill-rule="evenodd" clip-rule="evenodd" d="M56.5068 26.5897L74.6138 8.35999C85.6854 -2.78666 103.636 -2.78666 114.708 8.35999C125.779 19.5066 125.779 37.5789 114.708 48.7256L92.7424 70.8396L92.7265 70.8236C92.3292 73.6956 91.0338 76.4658 88.8403 78.6742L65.5601 102.112C63.06 104.629 59.0066 104.629 56.5066 102.112L8.65274 53.934C-1.70456 43.5064 -1.70456 26.6001 8.65274 16.1726C19.01 5.74508 35.8025 5.74508 46.1598 16.1726L56.5068 26.5897ZM82.3739 16.1727C89.1597 9.34087 100.162 9.34087 106.947 16.1727C113.733 23.0045 113.733 34.0811 106.947 40.9129L88.8405 59.1426L64.2669 34.4024L82.3739 16.1727ZM12.5328 20.0789C20.7472 11.8089 34.0654 11.8088 42.2798 20.0789L84.9603 63.0488C88.1746 66.2849 88.1746 71.5317 84.9603 74.7678L61.68 98.2059C61.3229 98.5655 60.7438 98.5655 60.3867 98.2059L12.5328 50.0276C4.31837 41.7575 4.31837 28.349 12.5328 20.0789Z" fill="white"/>
<path d="M159.286 36.7059V18.9198H162.107L165.555 27.0849L169.003 18.8913H171.824V36.7059H169.031V24.2871L166.239 30.8248H164.671L162.05 24.3156V36.7059H159.286Z" fill="white"/>
<path d="M191.173 37.0199C189.9 37.0199 188.76 36.7535 187.753 36.2205C186.765 35.6876 185.986 34.9073 185.417 33.8795C184.847 32.8518 184.562 31.6146 184.562 30.1682C184.562 28.6836 184.837 27.4179 185.388 26.3711C185.958 25.3243 186.708 24.525 187.639 23.973C188.589 23.402 189.643 23.1165 190.802 23.1165C191.828 23.1165 192.769 23.3545 193.623 23.8303C194.497 24.3061 195.191 25.0293 195.704 26C196.236 26.9516 196.502 28.1412 196.502 29.5686C196.502 29.7589 196.492 29.9873 196.473 30.2538C196.473 30.5203 196.464 30.7486 196.445 30.939H187.668C187.706 31.7764 187.905 32.4616 188.266 32.9945C188.627 33.5084 189.074 33.889 189.605 34.1365C190.137 34.3839 190.707 34.5076 191.315 34.5076C191.904 34.5076 192.465 34.4124 192.997 34.2221C193.528 34.0318 194.022 33.7082 194.478 33.2514L196.131 34.8502C195.485 35.6115 194.744 36.1634 193.908 36.506C193.073 36.8486 192.161 37.0199 191.173 37.0199ZM187.725 28.5123H193.367C193.367 27.5797 193.13 26.866 192.655 26.3711C192.18 25.8763 191.515 25.6289 190.66 25.6289C189.919 25.6289 189.273 25.8668 188.722 26.3426C188.171 26.7994 187.839 27.5226 187.725 28.5123Z" fill="white"/>
<path d="M209.382 36.7059V23.4306H212.089V24.4012C212.412 23.9445 212.773 23.6209 213.172 23.4306C213.571 23.2212 213.979 23.1165 214.397 23.1165C214.872 23.1165 215.309 23.2403 215.708 23.4877C216.126 23.7351 216.439 24.1443 216.648 24.7153C217.237 23.6495 218.168 23.1165 219.441 23.1165C220.41 23.1165 221.103 23.4591 221.521 24.1443C221.958 24.8105 222.167 25.7335 222.148 26.9136V36.7059H219.355V27.5987C219.355 26.7423 219.289 26.1713 219.156 25.8858C219.023 25.5813 218.824 25.429 218.558 25.429C218.178 25.429 217.836 25.686 217.532 26.1998C217.228 26.6947 217.076 27.3608 217.076 28.1983V36.7059H214.454V27.6844C214.454 26.7708 214.388 26.1618 214.255 25.8572C214.122 25.5527 213.875 25.4005 213.514 25.4005C213.172 25.4005 212.858 25.6289 212.573 26.0856C212.307 26.5234 212.174 27.1705 212.174 28.027V36.7059H209.382Z" fill="white"/>
<path d="M240.699 36.9914C239.521 36.9914 238.448 36.7059 237.479 36.1349C236.529 35.5449 235.779 34.736 235.228 33.7082C234.677 32.6614 234.401 31.4433 234.401 30.054C234.401 28.7407 234.677 27.5607 235.228 26.5139C235.779 25.4671 236.529 24.6392 237.479 24.0301C238.448 23.4211 239.521 23.1165 240.699 23.1165C241.896 23.1165 242.969 23.4211 243.919 24.0301C244.888 24.6392 245.648 25.4671 246.199 26.5139C246.769 27.5607 247.054 28.7407 247.054 30.054C247.054 31.4243 246.769 32.6329 246.199 33.6797C245.648 34.7265 244.888 35.5449 243.919 36.1349C242.969 36.7059 241.896 36.9914 240.699 36.9914ZM240.699 34.422C241.611 34.422 242.361 34.0223 242.95 33.2229C243.539 32.4045 243.834 31.3482 243.834 30.054C243.834 28.7217 243.539 27.6654 242.95 26.885C242.361 26.1047 241.611 25.7145 240.699 25.7145C239.825 25.7145 239.094 26.1047 238.505 26.885C237.916 27.6654 237.622 28.7217 237.622 30.054C237.622 31.3482 237.907 32.4045 238.476 33.2229C239.065 34.0223 239.806 34.422 240.699 34.422Z" fill="white"/>
<path d="M261.216 23.4306H264.55L264.522 25.5718C264.883 24.8105 265.415 24.2109 266.118 23.7732C266.821 23.3354 267.562 23.1165 268.34 23.1165C269.822 23.1165 271.048 23.6209 272.016 24.6296L270.649 27.3418L270.563 27.5702L270.307 27.456C270.25 27.3037 270.193 27.1515 270.136 26.9992C270.079 26.8279 269.936 26.6376 269.708 26.4282C269.442 26.2189 269.157 26.0571 268.853 25.9429C268.568 25.8287 268.255 25.7716 267.913 25.7716C267.001 25.7716 266.203 26.0856 265.519 26.7137C264.835 27.3418 264.493 28.3505 264.493 29.7399V36.7059H261.216V23.4306Z" fill="white"/>
<path d="M287.347 41.7305C286.702 41.7305 286.132 41.6258 285.638 41.4165C285.144 41.2071 284.659 40.9026 284.184 40.5029L285.296 38.2761L285.41 38.0191L285.666 38.1333C285.723 38.2856 285.79 38.4283 285.866 38.5616C285.942 38.6948 286.113 38.8471 286.379 39.0183C286.663 39.1706 286.986 39.2467 287.347 39.2467C287.917 39.2467 288.373 39.0088 288.715 38.533C289.076 38.0572 289.437 37.3054 289.798 36.2776L284.64 23.4306H287.86L291.251 32.1951L292.676 28.1412C292.961 27.3228 293.199 26.5329 293.389 25.7716C293.579 25.0103 293.702 24.23 293.759 23.4306H296.751C296.675 24.2871 296.476 25.1911 296.153 26.1427C295.83 27.0944 295.507 27.9984 295.184 28.8549L291.907 37.8764C291.375 39.2848 290.729 40.2745 289.969 40.8455C289.228 41.4355 288.354 41.7305 287.347 41.7305Z" fill="white"/>
<path d="M166.296 81.2315C165.004 81.2315 163.845 80.9365 162.819 80.3465C161.793 79.7564 160.976 78.9475 160.368 77.9198C159.779 76.873 159.485 75.6834 159.485 74.3512C159.485 73.0379 159.779 71.8484 160.368 70.7825C160.976 69.7167 161.793 68.8697 162.819 68.2417C163.845 67.6136 165.013 67.2996 166.324 67.2996C167.54 67.2996 168.604 67.5279 169.516 67.9847C170.428 68.4415 171.149 69.0696 171.681 69.869L169.886 71.8388L169.715 72.0387L169.487 71.8674C169.487 71.6961 169.468 71.5438 169.43 71.4106C169.392 71.2583 169.269 71.0585 169.06 70.8111C168.699 70.4685 168.29 70.2306 167.834 70.0974C167.397 69.9641 166.904 69.8975 166.353 69.8975C165.726 69.8975 165.137 70.0688 164.586 70.4114C164.035 70.754 163.588 71.2583 163.247 71.9245C162.924 72.5906 162.762 73.3995 162.762 74.3512C162.762 75.2076 162.933 75.9594 163.275 76.6065C163.617 77.2346 164.063 77.7295 164.614 78.0911C165.184 78.4337 165.792 78.605 166.438 78.605C167.027 78.605 167.606 78.4813 168.176 78.2338C168.746 77.9864 169.278 77.5582 169.772 76.9491L171.567 79.0046C170.865 79.785 170.048 80.356 169.117 80.7176C168.186 81.0602 167.245 81.2315 166.296 81.2315Z" fill="white"/>
<path d="M189.093 81.2315C187.63 81.2315 186.49 80.8889 185.673 80.2037C184.875 79.5185 184.476 78.6145 184.476 77.4916C184.476 76.0831 185.103 74.9221 186.357 74.0086C187.63 73.076 189.473 72.6097 191.885 72.6097C192.018 72.6097 192.189 72.6097 192.398 72.6097C192.626 72.6097 192.864 72.6192 193.111 72.6382C192.978 71.5343 192.664 70.792 192.17 70.4114C191.676 70.0117 191.011 69.8119 190.175 69.8119C189.567 69.8119 188.998 69.9165 188.466 70.1259C187.934 70.3162 187.402 70.6779 186.87 71.2108L185.103 69.2694C185.863 68.5652 186.689 68.0609 187.582 67.7563C188.475 67.4518 189.387 67.2996 190.318 67.2996C191.42 67.2996 192.427 67.4804 193.338 67.842C194.25 68.1846 194.972 68.7936 195.504 69.6691C196.036 70.5256 196.302 71.7151 196.302 73.2377V80.8889H192.968V79.4614C192.474 80.1276 191.904 80.5939 191.258 80.8603C190.612 81.1078 189.89 81.2315 189.093 81.2315ZM187.696 77.0919C187.696 77.7009 187.886 78.1292 188.266 78.3766C188.665 78.605 189.15 78.7192 189.719 78.7192C190.745 78.7192 191.543 78.4146 192.113 77.8056C192.683 77.1775 193.025 76.1973 193.139 74.865C192.892 74.865 192.655 74.865 192.427 74.865C192.199 74.846 191.999 74.8365 191.828 74.8365C190.308 74.8365 189.235 75.0459 188.608 75.4646C188 75.8833 187.696 76.4257 187.696 77.0919Z" fill="white"/>
<path d="M209.895 85.6566L209.866 67.585H213.058V69.4407C213.476 68.6985 214.008 68.156 214.654 67.8134C215.3 67.4708 216.012 67.2996 216.791 67.2996C217.76 67.2996 218.634 67.566 219.412 68.0989C220.21 68.6128 220.847 69.3931 221.322 70.4399C221.797 71.4677 222.034 72.7524 222.034 74.2941C222.034 75.8547 221.787 77.149 221.293 78.1767C220.799 79.2045 220.144 79.9753 219.327 80.4892C218.529 80.9841 217.665 81.2315 216.734 81.2315C216.031 81.2315 215.357 81.1078 214.711 80.8603C214.065 80.6129 213.552 80.2418 213.172 79.7469V85.6566H209.895ZM215.85 78.7192C216.401 78.7192 216.905 78.5764 217.361 78.2909C217.817 78.0054 218.178 77.5296 218.444 76.8635C218.71 76.1973 218.843 75.2838 218.843 74.1228C218.843 72.8095 218.586 71.7722 218.073 71.0109C217.579 70.2496 216.895 69.8595 216.021 69.8404C215.11 69.8214 214.397 70.183 213.884 70.9253C213.39 71.6485 213.143 72.8381 213.143 74.4939C213.181 77.3107 214.084 78.7192 215.85 78.7192Z" fill="white"/>
<path d="M240.984 81.2029C239.768 81.2029 238.647 81.0411 237.622 80.7176C236.596 80.394 235.684 79.8516 234.886 79.0903L236.311 76.4638L236.425 76.2354L236.653 76.3781C236.71 76.5114 236.767 76.6636 236.824 76.8349C236.881 76.9872 237.023 77.168 237.251 77.3774C237.726 77.777 238.258 78.0911 238.847 78.3195C239.455 78.5479 240.186 78.6621 241.041 78.6621C241.839 78.6621 242.456 78.5288 242.893 78.2624C243.33 77.9959 243.549 77.6438 243.549 77.2061C243.549 76.7683 243.302 76.4162 242.808 76.1497C242.333 75.8833 241.545 75.5883 240.443 75.2647C238.999 74.8841 237.85 74.3702 236.995 73.7231C236.14 73.076 235.712 72.21 235.712 71.1251C235.712 70.0403 236.178 69.1362 237.109 68.413C238.058 67.6707 239.331 67.2996 240.927 67.2996C243.112 67.2996 244.888 67.9752 246.256 69.3265L244.689 71.5248L244.489 71.7532L244.29 71.5819C244.271 71.4296 244.223 71.2869 244.147 71.1537C244.09 71.0204 243.948 70.8396 243.72 70.6112C243.34 70.3448 242.903 70.1449 242.409 70.0117C241.934 69.8595 241.459 69.7833 240.984 69.7833C240.338 69.7833 239.778 69.888 239.303 70.0974C238.847 70.3067 238.619 70.6303 238.619 71.068C238.619 71.4487 238.866 71.7722 239.36 72.0387C239.854 72.3052 240.699 72.5906 241.896 72.8952C243.492 73.2948 244.651 73.8278 245.373 74.4939C246.094 75.141 246.455 75.9785 246.455 77.0062C246.455 77.7675 246.246 78.4717 245.828 79.1188C245.411 79.7469 244.793 80.2513 243.976 80.6319C243.178 81.0126 242.181 81.2029 240.984 81.2029Z" fill="white"/>
<path d="M264.721 81.2315C263.373 81.2315 262.261 80.7747 261.387 79.8611C260.513 78.9476 260.077 77.463 260.077 75.4075V67.6136H263.325V75.4075C263.325 76.5875 263.515 77.4249 263.895 77.9198C264.294 78.3956 264.788 78.6335 265.377 78.6335C266.175 78.6335 266.821 78.348 267.315 77.777C267.827 77.2061 268.084 76.3401 268.084 75.1791V67.6136H271.304V78.7763C271.304 79.195 271.314 79.5756 271.333 79.9182C271.371 80.2418 271.456 80.5653 271.589 80.8889H268.654C268.502 80.6034 268.416 80.3179 268.397 80.0324C268.378 79.7469 268.369 79.4614 268.369 79.1759C267.97 79.8611 267.438 80.375 266.773 80.7176C266.127 81.0602 265.443 81.2315 264.721 81.2315Z" fill="white"/>
<path d="M285.552 80.8889V78.348H289.285V64.2734H285.723V61.7325H292.534V78.348H296.238V80.8889H285.552Z" fill="white"/>
<path d="M316.556 81.2029C315.283 81.2029 314.143 80.9365 313.136 80.4036C312.149 79.8706 311.37 79.0903 310.8 78.0625C310.23 77.0348 309.945 75.7976 309.945 74.3512C309.945 72.8666 310.22 71.6009 310.771 70.5541C311.341 69.5073 312.092 68.708 313.022 68.156C313.972 67.585 315.027 67.2996 316.186 67.2996C317.211 67.2996 318.152 67.5375 319.007 68.0133C319.881 68.4891 320.574 69.2123 321.087 70.183C321.619 71.1346 321.885 72.3242 321.885 73.7516C321.885 73.942 321.875 74.1703 321.856 74.4368C321.856 74.7033 321.847 74.9317 321.828 75.122H313.051C313.089 75.9594 313.288 76.6446 313.649 77.1775C314.01 77.6914 314.457 78.0721 314.989 78.3195C315.521 78.5669 316.091 78.6906 316.698 78.6906C317.287 78.6906 317.848 78.5955 318.38 78.4051C318.912 78.2148 319.406 77.8912 319.862 77.4345L321.514 79.0332C320.868 79.7945 320.128 80.3465 319.292 80.689C318.456 81.0316 317.544 81.2029 316.556 81.2029ZM313.108 72.6953H318.75C318.75 71.7627 318.513 71.049 318.038 70.5541C317.563 70.0593 316.898 69.8119 316.043 69.8119C315.302 69.8119 314.656 70.0498 314.105 70.5256C313.554 70.9824 313.222 71.7056 313.108 72.6953Z" fill="white"/>
</svg>
