<svg width="46" height="46" viewBox="0 0 46 46" fill="none" xmlns="http://www.w3.org/2000/svg">
<path fill-rule="evenodd" clip-rule="evenodd" d="M4.47022 45.1985C2.37083 45.1985 0.668945 43.6579 0.668945 41.7574L0.668944 4.01188C0.668943 2.11144 2.37083 0.570833 4.47022 0.570833C6.5696 0.570832 8.27149 2.11144 8.27149 4.01188L8.27149 41.7574C8.27149 43.6579 6.5696 45.1985 4.47022 45.1985Z" fill="white"/>
<path fill-rule="evenodd" clip-rule="evenodd" d="M22.9839 45.1985C20.8845 45.1985 19.1826 43.6579 19.1826 41.7574L19.1826 4.01188C19.1826 2.11144 20.8845 0.570833 22.9839 0.570833C25.0833 0.570832 26.7852 2.11144 26.7852 4.01188L26.7852 41.7574C26.7852 43.6579 25.0833 45.1985 22.9839 45.1985Z" fill="white"/>
<path fill-rule="evenodd" clip-rule="evenodd" d="M41.4976 45.1985C39.3982 45.1985 37.6963 43.6579 37.6963 41.7574L37.6963 4.01188C37.6963 2.11144 39.3982 0.570833 41.4976 0.570833C43.5969 0.570832 45.2988 2.11144 45.2988 4.01188L45.2988 41.7574C45.2988 43.6579 43.5969 45.1985 41.4976 45.1985Z" fill="white"/>
</svg>
