<svg width="53" height="53" viewBox="0 0 53 53" fill="none" xmlns="http://www.w3.org/2000/svg">
<path fill-rule="evenodd" clip-rule="evenodd" d="M11.9274 19.059C14.9806 13.3631 23.22 13.3011 26.3606 18.9504L26.4996 19.2005L26.6386 18.9504C29.7792 13.3011 38.0186 13.3631 41.0718 19.059C41.6975 20.2263 42.0246 21.527 42.0246 22.8478V24.1358C42.0246 28.2431 40.1009 32.1194 36.8138 34.6354L27.7401 41.5808C27.0099 42.1397 25.9893 42.1397 25.2592 41.5808L16.1854 34.6354C12.8984 32.1194 10.9746 28.2431 10.9746 24.1358V22.8478C10.9746 21.527 11.3017 20.2263 11.9274 19.059ZM15.5068 20.9305C15.1901 21.5212 15.0246 22.1794 15.0246 22.8478V24.1358C15.0246 27.0063 16.3691 29.7154 18.6663 31.4738L26.4996 37.4696L34.3329 31.4738C36.6301 29.7154 37.9746 27.0063 37.9746 24.1358V22.8478C37.9746 22.1794 37.8091 21.5212 37.4924 20.9305C35.9474 18.0482 31.778 18.0168 30.1887 20.8756L28.2746 24.3185C27.919 24.9583 27.2386 25.356 26.4996 25.356C25.7606 25.356 25.0803 24.9583 24.7246 24.3185L22.8105 20.8756C21.2213 18.0168 17.0518 18.0482 15.5068 20.9305Z" fill="#FFEFEE"/>
</svg>
