<svg width="100" height="100" viewBox="0 0 100 100" fill="none" xmlns="http://www.w3.org/2000/svg">
<path fill-rule="evenodd" clip-rule="evenodd" d="M31.7212 67.367C31.6581 67.3114 31.5965 67.2536 31.5366 67.1937L11.3123 46.9694C1.4659 37.123 1.4659 21.1589 11.3123 11.3125C21.1586 1.46615 37.1227 1.46613 46.9691 11.3125L67.1935 31.5369C67.2538 31.5972 67.312 31.6592 67.368 31.7228C67.5229 31.8702 67.6764 32.0199 67.8284 32.1719L87.8284 52.172C97.6748 62.0183 97.6748 77.9824 87.8284 87.8288C77.9821 97.6752 62.018 97.6752 52.1716 87.8288L32.1716 67.8288C32.0191 67.6763 31.869 67.5224 31.7212 67.367ZM40.0219 64.3654L57.8284 82.172C64.5506 88.8941 75.4494 88.8941 82.1716 82.172C88.8938 75.4498 88.8938 64.551 82.1716 57.8288L64.365 40.0222L40.0219 64.3654Z" fill="#FF599F"/>
<path fill-rule="evenodd" clip-rule="evenodd" d="M31.721 67.367C31.6578 67.3114 31.5963 67.2536 31.5364 67.1937L11.312 46.9694C1.46566 37.123 1.46565 21.1589 11.312 11.3125C21.1584 1.46615 37.1225 1.46613 46.9689 11.3125L67.1932 31.5369C67.2535 31.5972 67.3117 31.6592 67.3677 31.7228C67.5226 31.8702 67.6761 32.0199 67.8282 32.1719L87.8282 52.172C97.6746 62.0183 97.6746 77.9824 87.8282 87.8288C77.9818 97.6752 62.0177 97.6752 52.1713 87.8288L32.1713 67.8288C32.0189 67.6763 31.8688 67.5224 31.721 67.367ZM40.0216 64.3654L57.8282 82.172C64.5504 88.8941 75.4492 88.8941 82.1713 82.172C88.8935 75.4498 88.8935 64.551 82.1713 57.8288L64.3647 40.0222L40.0216 64.3654Z" fill="#FF9F9F"/>
</svg>
