<svg width="1000" height="1000" viewBox="0 0 1000 1000" fill="none" xmlns="http://www.w3.org/2000/svg">
<path fill-rule="evenodd" clip-rule="evenodd" d="M500 948C747.424 948 948 747.424 948 500C948 252.576 747.424 52 500 52C252.576 52 52 252.576 52 500C52 747.424 252.576 948 500 948ZM500 1000C776.142 1000 1000 776.142 1000 500C1000 223.858 776.142 0 500 0C223.858 0 0 223.858 0 500C0 776.142 223.858 1000 500 1000Z" fill="#FF599F"/>
<path fill-rule="evenodd" clip-rule="evenodd" d="M604.598 279.29C516.415 286.592 439.557 321.56 404.932 359.741C307.879 466.76 250.236 550.833 230.135 623.009C220.193 658.708 219.508 691.284 227.695 722.37C235.909 753.557 253.298 784.163 280.879 815.461C377.498 925.104 451.351 949.983 514.998 948.291C547.634 947.424 578.585 939.567 610.438 930.652C613.794 929.713 617.165 928.76 620.552 927.802C648.813 919.814 678.161 911.518 708.36 908.399C716.326 907.577 723.45 913.368 724.273 921.333C725.095 929.299 719.304 936.424 711.339 937.246C683.797 940.09 656.952 947.666 628.348 955.738C625.009 956.68 621.646 957.63 618.254 958.579C586.316 967.518 552.322 976.309 515.769 977.281C441.04 979.268 359.543 948.591 259.121 834.634C229.352 800.853 209.286 766.339 199.651 729.755C189.989 693.069 191.061 655.221 202.198 615.229C224.257 536.024 286.057 447.653 383.45 340.259C424.634 294.845 509.518 258.064 602.205 250.389C695.511 242.663 799.995 264.13 879.943 339.446C885.772 344.937 886.046 354.114 880.554 359.943C875.063 365.772 865.886 366.045 860.057 360.554C787.68 292.371 692.164 272.04 604.598 279.29Z" fill="#FF599F"/>
<path fill-rule="evenodd" clip-rule="evenodd" d="M713.701 207.572C722.304 227.366 725.322 250.333 724.339 270.699C723.953 278.698 717.155 284.869 709.156 284.483C701.158 284.097 694.986 277.299 695.373 269.301C696.189 252.397 693.581 234.032 687.104 219.133C680.659 204.305 671.085 194.277 658.452 190.519C645.647 186.709 626.103 188.255 597.485 204.515C568.909 220.752 532.864 250.823 488.367 300.944C483.051 306.933 473.886 307.477 467.897 302.161C461.909 296.844 461.364 287.68 466.68 281.691C512.247 230.364 550.724 197.73 583.159 179.301C615.553 160.896 643.509 155.817 666.721 162.723C690.105 169.679 705.065 187.706 713.701 207.572Z" fill="#FF599F"/>
<path fill-rule="evenodd" clip-rule="evenodd" d="M639.701 171.926C644.054 177.283 643.241 185.156 637.884 189.51C628.862 196.842 615.358 210.99 605.096 225.96C599.98 233.424 595.987 240.637 593.688 246.933C591.291 253.494 591.318 257.454 591.93 259.412C593.991 266.001 590.32 273.012 583.731 275.073C577.142 277.134 570.13 273.463 568.07 266.874C565.063 257.26 567.03 247.049 570.205 238.356C573.477 229.397 578.687 220.27 584.475 211.826C596.023 194.979 611.138 179.031 622.116 170.109C627.474 165.755 635.347 166.569 639.701 171.926Z" fill="#FF599F"/>
<path fill-rule="evenodd" clip-rule="evenodd" d="M574.47 624.362C577.584 612.617 589.63 605.621 601.374 608.735C631.613 616.753 677.242 629.732 719.531 641.775L722.634 642.659C763.992 654.438 801.451 665.105 818.503 669.459C830.276 672.465 837.383 684.445 834.377 696.218C831.371 707.99 819.391 715.097 807.618 712.091C789.963 707.584 752.144 696.813 711.499 685.238L707.48 684.093C665.035 672.005 619.858 659.156 590.097 651.265C578.353 648.151 571.356 636.106 574.47 624.362Z" fill="#FF599F"/>
<path fill-rule="evenodd" clip-rule="evenodd" d="M302.298 500.161C307.732 489.294 320.947 484.889 331.814 490.323C365.461 507.146 390.182 520.188 406.546 529.056C414.728 533.49 420.82 536.88 424.895 539.179C426.932 540.328 428.465 541.204 429.502 541.8C430.021 542.099 430.416 542.327 430.688 542.485C430.824 542.564 430.929 542.626 431.003 542.669L431.093 542.722L431.133 542.745C431.135 542.746 431.136 542.747 420 561.72L431.136 542.747C441.615 548.897 445.124 562.378 438.973 572.856C432.824 583.334 419.346 586.843 408.868 580.696C408.868 580.696 408.867 580.696 408.867 580.695C408.867 580.695 408.867 580.696 408.867 580.695C408.866 580.695 408.865 580.694 408.864 580.694L408.814 580.664C408.786 580.648 408.747 580.625 408.697 580.597C408.663 580.577 408.624 580.554 408.58 580.528C408.363 580.402 408.023 580.205 407.559 579.938C406.631 579.404 405.208 578.591 403.279 577.503C399.423 575.328 393.547 572.057 385.582 567.74C369.65 559.107 345.359 546.288 312.137 529.677C301.269 524.244 296.864 511.029 302.298 500.161Z" fill="#FF599F"/>
<path d="M447.571 621.908C444.692 602.031 457.2 597.618 465.699 608.356C469.516 613.177 478.006 616.478 491.384 616.387C513.667 616.235 507.353 629.276 503.629 634.544C484.943 652.206 452.638 656.896 447.571 621.908Z" fill="#FF599F"/>
<path fill-rule="evenodd" clip-rule="evenodd" d="M452.115 603.22C456.258 600.791 461.77 602.586 466.091 608.046C469.761 612.682 478.051 615.977 491.381 615.887C496.989 615.849 500.865 616.638 503.451 617.975C506.061 619.324 507.349 621.228 507.75 623.339C508.146 625.42 507.67 627.642 506.886 629.645C506.099 631.655 504.983 633.494 504.037 634.832C504.018 634.859 503.996 634.884 503.972 634.907C494.559 643.805 481.676 649.477 470.448 648.468C464.821 647.962 459.606 645.775 455.479 641.473C451.356 637.175 448.354 630.801 447.076 621.98C445.628 611.982 448.013 605.626 452.115 603.22ZM452.621 604.083C449.064 606.168 446.635 611.957 448.066 621.836C449.322 630.509 452.258 636.67 456.201 640.781C460.14 644.888 465.12 646.985 470.538 647.472C481.386 648.447 493.98 642.959 503.249 634.214C504.158 632.923 505.214 631.173 505.954 629.281C506.705 627.362 507.113 625.345 506.768 623.526C506.428 621.738 505.348 620.081 502.992 618.863C500.611 617.633 496.92 616.849 491.388 616.887C477.962 616.978 469.27 613.673 465.307 608.666C461.129 603.388 456.137 602.021 452.621 604.083Z" fill="#FF599F"/>
<path fill-rule="evenodd" clip-rule="evenodd" d="M479.845 685.995C501.709 691.371 525.694 703.406 537.229 722.92C539.576 726.892 557.743 762.925 568.986 798.159C574.55 815.595 578.861 834.139 577.988 848.833C577.55 856.213 575.74 863.908 570.857 869.906C565.615 876.345 558.026 879.395 549.237 879.395C546.846 879.395 544.224 879.42 541.395 879.448C503.375 879.816 427.912 880.546 370.448 824.907C363.119 817.811 360.221 807.747 360.013 797.462C359.802 787.101 362.257 775.465 366.818 763.581C375.954 739.774 394.145 713.383 420.385 691.46C427.408 685.592 437.445 683.224 447.19 682.64C457.275 682.035 468.656 683.244 479.845 685.995ZM448.386 702.604C440.294 703.089 435.387 704.988 433.208 706.808C409.391 726.706 393.319 750.346 385.49 770.747C381.568 780.967 379.865 789.979 380.008 797.056C380.154 804.208 382.123 808.372 384.361 810.539C435.662 860.212 503.173 859.716 541.552 859.434C544.264 859.414 546.832 859.395 549.237 859.395C553.152 859.395 554.569 858.234 555.346 857.279C556.482 855.884 557.705 853.001 558.023 847.647C558.663 836.871 555.382 821.318 549.932 804.239C544.582 787.473 537.527 770.383 531.524 757.003C528.531 750.332 525.82 744.628 523.745 740.406C522.708 738.294 521.835 736.565 521.173 735.281C520.841 734.638 520.568 734.12 520.358 733.729C520.254 733.534 520.17 733.38 520.106 733.264C520.038 733.142 520.009 733.094 520.012 733.098C512.474 720.345 494.748 710.255 475.069 705.417C465.487 703.06 456.138 702.139 448.386 702.604Z" fill="#FF599F"/>
<path fill-rule="evenodd" clip-rule="evenodd" d="M662.024 330.452C618.572 353.588 571.625 387.698 543.01 439.344C535.114 453.596 517.161 458.748 502.909 450.852C488.658 442.956 483.506 425.002 491.402 410.751C527.867 344.937 586.078 304.047 634.294 278.374C658.553 265.457 680.896 256.077 697.265 249.334C698.606 248.782 699.888 248.254 701.116 247.749C707.635 245.069 712.6 243.028 716.444 241.289C718.658 240.288 719.854 239.673 720.382 239.373C719.721 239.811 718.136 240.978 716.434 242.923L760.836 281.775C756.73 286.467 751.877 289.331 749.655 290.599C746.789 292.235 743.664 293.732 740.756 295.047C735.89 297.248 729.758 299.768 723.305 302.419C722.125 302.904 720.933 303.394 719.737 303.886C703.716 310.486 683.598 318.964 662.024 330.452ZM720.409 239.358C720.401 239.363 720.391 239.368 720.382 239.373C720.776 239.113 720.842 239.111 720.409 239.358ZM737.552 408.187C700.328 431.83 664.359 461.594 641.078 485.37C629.679 497.011 611.002 497.207 599.361 485.808C587.72 474.409 587.524 455.732 598.922 444.091C625.461 416.989 664.98 384.387 705.919 358.384C726.44 345.35 747.881 333.612 768.704 325.051C789.175 316.633 810.916 310.5 831.492 310.5C847.785 310.5 860.992 323.708 860.992 340C860.992 356.292 847.785 369.5 831.492 369.5C821.811 369.5 808.213 372.598 791.141 379.618C774.419 386.493 756.111 396.399 737.552 408.187Z" fill="#FF599F"/>
<path fill-rule="evenodd" clip-rule="evenodd" d="M331.083 580.153C336.521 583.433 338.271 590.501 334.99 595.94L304.831 645.94C301.551 651.378 294.483 653.128 289.044 649.847C283.606 646.567 281.856 639.499 285.137 634.06L315.296 584.06C318.576 578.622 325.644 576.872 331.083 580.153ZM297.374 581.175C302.247 585.247 302.897 592.5 298.825 597.374L278.825 621.31C274.753 626.184 267.5 626.834 262.626 622.761C257.753 618.689 257.103 611.437 261.175 606.563L281.175 582.626C285.247 577.753 292.5 577.103 297.374 581.175ZM366.183 595.51C371.538 598.925 373.111 606.034 369.696 611.389L353.887 636.183C350.472 641.538 343.363 643.111 338.008 639.696C332.652 636.282 331.079 629.172 334.494 623.817L350.304 599.023C353.718 593.668 360.828 592.095 366.183 595.51ZM690.799 686.872C696.034 690.469 697.361 697.629 693.763 702.863L663.763 746.514C660.166 751.748 653.006 753.075 647.772 749.477C642.538 745.88 641.211 738.721 644.808 733.486L674.808 689.836C678.406 684.601 685.565 683.274 690.799 686.872ZM725.143 699.714C730.824 702.555 733.126 709.462 730.286 715.143L710.286 755.143C707.445 760.824 700.538 763.126 694.857 760.286C689.176 757.445 686.874 750.538 689.714 744.857L709.714 704.857C712.555 699.176 719.462 696.874 725.143 699.714ZM763.414 713.272C769.479 715.158 772.867 721.603 770.982 727.668L756.759 773.414C754.874 779.479 748.429 782.867 742.364 780.982C736.299 779.096 732.911 772.651 734.796 766.586L749.018 720.84C750.904 714.775 757.349 711.387 763.414 713.272Z" fill="#FF599F"/>
<path fill-rule="evenodd" clip-rule="evenodd" d="M448.798 703.309C450.689 707.906 448.495 713.166 443.898 715.056C422.586 723.82 387.164 755.598 387.165 813.164C387.165 818.134 383.135 822.164 378.165 822.164C373.194 822.164 369.165 818.135 369.165 813.164C369.164 747.533 409.73 709.644 437.051 698.409C441.648 696.518 446.908 698.712 448.798 703.309Z" fill="#FF599F"/>
<path fill-rule="evenodd" clip-rule="evenodd" d="M456.776 687.82C461.118 690.24 462.677 695.721 460.258 700.063C457.541 704.939 454.536 712.58 453.998 719.474C453.471 726.226 455.268 729.961 459.237 731.969C467.867 736.336 478.795 737.232 487.9 734.551C496.843 731.918 502.977 726.269 504.703 718.132C505.735 713.27 510.513 710.165 515.375 711.196C520.237 712.228 523.343 717.005 522.311 721.868C518.879 738.048 506.56 747.821 492.984 751.818C479.569 755.768 463.909 754.506 451.111 748.031C437.937 741.366 435.237 728.522 436.052 718.073C436.857 707.767 441.034 697.584 444.534 691.302C446.953 686.96 452.434 685.401 456.776 687.82Z" fill="#FF599F"/>
<path fill-rule="evenodd" clip-rule="evenodd" d="M168.649 774.435C180.853 755.655 204.128 750.721 220.157 751.001C225.127 751.088 229.086 755.188 228.999 760.157C228.912 765.127 224.812 769.086 219.843 768.999C206.222 768.76 190.915 773.204 183.742 784.243C176.932 794.722 174.684 815.689 197.784 855.482C200.279 859.78 198.817 865.288 194.518 867.784C190.22 870.279 184.712 868.817 182.216 864.518C158.154 823.066 156.081 793.774 168.649 774.435Z" fill="#FF599F"/>
<path fill-rule="evenodd" clip-rule="evenodd" d="M64.5911 574.066C64.4954 573.88 64.4053 573.691 64.321 573.499L35.8466 508.529C21.9837 476.898 36.3875 440.018 68.0183 426.155C99.6492 412.293 136.529 426.696 150.392 458.327L178.867 523.297C178.951 523.49 179.03 523.686 179.102 523.884C179.327 524.364 179.546 524.848 179.76 525.337L207.919 589.586C221.782 621.216 207.378 658.096 175.747 671.959C144.116 685.822 107.236 671.419 93.3733 639.788L65.2148 575.539C65.0002 575.049 64.7923 574.558 64.5911 574.066ZM86.4753 574.621L111.546 631.823C121.01 653.418 146.188 663.251 167.783 653.787C189.377 644.323 199.211 619.145 189.747 597.55L164.676 540.347L86.4753 574.621Z" fill="#FF599F"/>
<path fill-rule="evenodd" clip-rule="evenodd" d="M282.268 300.29C285.625 298.06 290.154 298.973 292.384 302.33L318.479 341.61C320.709 344.967 319.796 349.496 316.439 351.726C313.083 353.956 308.554 353.042 306.324 349.686L280.228 310.406C277.998 307.049 278.911 302.52 282.268 300.29ZM309.011 282.523C312.367 280.293 316.896 281.207 319.126 284.563L345.222 323.843C347.452 327.2 346.539 331.729 343.182 333.959C339.825 336.189 335.296 335.276 333.066 331.919L306.971 292.639C304.741 289.282 305.654 284.753 309.011 282.523ZM335.753 264.757C339.11 262.527 343.639 263.44 345.869 266.797L371.965 306.077C374.195 309.433 373.282 313.962 369.925 316.192C366.568 318.422 362.039 317.509 359.809 314.152L333.713 274.872C331.483 271.516 332.397 266.987 335.753 264.757Z" fill="#FF599F"/>
<path fill-rule="evenodd" clip-rule="evenodd" d="M237.519 188.099C235.289 184.742 236.202 180.213 239.559 177.983C270.226 157.609 311.858 172.724 322.312 208.026L322.461 208.528C341.026 183.526 378.797 184.496 396.046 210.459L397.34 212.407C413.493 236.721 401.429 269.725 373.404 277.891C369.535 279.018 365.484 276.795 364.357 272.926C363.23 269.057 365.452 265.007 369.322 263.88C387.894 258.468 395.889 236.596 385.184 220.483L383.89 218.535C372.219 200.967 346.639 200.337 334.117 217.31L328.601 224.787C323.749 231.364 313.468 229.558 311.147 221.722L308.319 212.17C300.653 186.282 270.124 175.199 247.635 190.139C244.278 192.369 239.749 191.456 237.519 188.099Z" fill="#FF599F"/>
<path fill-rule="evenodd" clip-rule="evenodd" d="M249.675 180.023C247.445 176.667 242.916 175.753 239.559 177.983C208.892 198.357 206.69 242.592 235.181 265.912L235.586 266.243C205.343 273.668 191.598 308.863 208.847 334.826L210.141 336.774C226.293 361.087 261.394 362.758 279.783 340.088C282.322 336.958 281.843 332.363 278.713 329.824C275.583 327.285 270.988 327.765 268.449 330.894C256.263 345.918 233.001 344.811 222.296 328.698L221.002 326.75C209.331 309.182 218.665 285.358 239.164 280.393L248.195 278.205C256.138 276.281 258.458 266.104 252.133 260.928L244.424 254.618C223.531 237.518 225.146 205.079 247.635 190.139C250.992 187.909 251.905 183.38 249.675 180.023Z" fill="#FF599F"/>
<path fill-rule="evenodd" clip-rule="evenodd" d="M233.212 188.35C213.175 209.077 214.179 243.635 237.675 262.865L244.178 268.188L236.525 270.067C208.929 276.841 196.387 308.956 212.126 332.647L213.42 334.595C228.103 356.696 260.01 358.215 276.725 337.608C277.894 336.167 277.674 334.051 276.233 332.882C274.792 331.713 272.676 331.933 271.507 333.375C257.647 350.461 231.192 349.202 219.017 330.876L217.723 328.929C204.54 309.085 215.082 282.174 238.237 276.566L247.268 274.379C252.051 273.22 253.448 267.092 249.64 263.974L241.931 257.665C221.742 241.141 220.692 211.575 237.557 193.536C236.273 192.719 235.136 191.627 234.24 190.278C233.828 189.658 233.486 189.012 233.212 188.35ZM237.381 174.704C206.335 195.329 202.503 238.769 227.899 264.59C199.799 275.895 188.145 310.78 205.567 337.005L206.861 338.952C224.484 365.478 262.778 367.301 282.841 342.568C286.749 337.75 286.012 330.675 281.193 326.767C276.375 322.858 269.3 323.596 265.392 328.414C254.878 341.375 234.811 340.42 225.576 326.519L224.282 324.572C214.122 309.279 222.247 288.541 240.09 284.219L249.122 282.032C260.224 279.342 263.467 265.117 254.627 257.881L246.918 251.572C228.075 236.149 229.531 206.893 249.814 193.418C270.096 179.944 297.63 189.94 304.544 213.288L307.372 222.84C310.616 233.793 324.987 236.317 331.769 227.125L337.286 219.647C348.185 204.873 370.452 205.421 380.611 220.714L381.905 222.661C391.14 236.562 384.243 255.431 368.22 260.1C362.264 261.835 358.842 268.071 360.577 274.028C362.313 279.984 368.548 283.406 374.505 281.671C405.08 272.762 418.242 236.755 400.619 210.228L399.326 208.281C381.903 182.056 345.228 179.279 323.916 200.801C309.956 167.382 268.427 154.078 237.381 174.704ZM251.576 176.149C278.449 165.713 309.916 180.032 318.537 209.144L320.923 217.202L325.621 210.875C342.562 188.062 377.028 188.947 392.767 212.638L394.061 214.586C408.744 236.687 397.778 266.688 372.303 274.111C370.521 274.63 368.656 273.607 368.137 271.825C367.618 270.044 368.641 268.178 370.423 267.659C391.545 261.505 400.638 236.629 388.464 218.304L387.17 216.357C373.986 196.513 345.093 195.801 330.949 214.972L325.433 222.45C322.511 226.41 316.32 225.323 314.922 220.604L312.094 211.052C304.686 186.037 277.838 173.61 254.673 182.165C254.417 180.666 253.85 179.194 252.954 177.845C252.543 177.225 252.08 176.659 251.576 176.149ZM241.738 181.263C240.192 182.289 239.772 184.375 240.798 185.92C241.825 187.466 243.911 187.887 245.456 186.86C247.002 185.833 247.423 183.748 246.396 182.202C245.369 180.656 243.283 180.236 241.738 181.263ZM276.948 312.584C273.515 307.417 274.921 300.444 280.089 297.011C285.257 293.577 292.23 294.983 295.663 300.151L321.759 339.431C325.192 344.599 323.786 351.572 318.618 355.005C313.45 358.438 306.477 357.032 303.044 351.864L276.948 312.584ZM284.446 303.569C282.901 304.596 282.48 306.681 283.507 308.227L309.603 347.507C310.63 349.053 312.715 349.473 314.261 348.446C315.806 347.42 316.227 345.334 315.2 343.789L289.104 304.509C288.077 302.963 285.992 302.542 284.446 303.569ZM303.691 294.818C300.258 289.65 301.664 282.677 306.832 279.244C312 275.811 318.972 277.217 322.406 282.385L348.501 321.665C351.935 326.832 350.529 333.805 345.361 337.238C340.193 340.672 333.22 339.265 329.787 334.098L303.691 294.818ZM311.189 285.803C309.644 286.829 309.223 288.915 310.25 290.46L336.346 329.74C337.372 331.286 339.458 331.707 341.003 330.68C342.549 329.653 342.97 327.567 341.943 326.022L315.847 286.742C314.82 285.196 312.735 284.776 311.189 285.803ZM330.434 277.051C327.001 271.883 328.407 264.911 333.575 261.477C338.743 258.044 345.715 259.45 349.149 264.618L375.244 303.898C378.678 309.066 377.271 316.038 372.104 319.472C366.936 322.905 359.963 321.499 356.53 316.331L330.434 277.051ZM337.932 268.036C336.386 269.063 335.966 271.148 336.993 272.694L363.088 311.974C364.115 313.519 366.201 313.94 367.746 312.913C369.292 311.886 369.712 309.801 368.686 308.255L342.59 268.975C341.563 267.43 339.478 267.009 337.932 268.036Z" fill="#FF599F"/>
</svg>
