<svg width="1000" height="1000" viewBox="0 0 1000 1000" fill="none" xmlns="http://www.w3.org/2000/svg">
<path fill-rule="evenodd" clip-rule="evenodd" d="M500 948C747.424 948 948 747.424 948 500C948 252.576 747.424 52 500 52C252.576 52 52 252.576 52 500C52 747.424 252.576 948 500 948ZM500 1000C776.142 1000 1000 776.142 1000 500C1000 223.858 776.142 0 500 0C223.858 0 0 223.858 0 500C0 776.142 223.858 1000 500 1000Z" fill="#FF599F"/>
<path fill-rule="evenodd" clip-rule="evenodd" d="M604.598 279.29C516.415 286.592 439.557 321.56 404.932 359.741C307.879 466.76 250.236 550.833 230.135 623.009C220.193 658.708 219.508 691.284 227.695 722.369C235.909 753.557 253.298 784.163 280.879 815.461C377.498 925.104 451.35 949.983 514.998 948.291C547.633 947.424 578.585 939.567 610.438 930.652C613.794 929.713 617.165 928.759 620.552 927.802C648.813 919.813 678.161 911.518 708.36 908.399C716.326 907.577 723.45 913.367 724.273 921.333C725.095 929.299 719.304 936.423 711.339 937.246C683.797 940.09 656.952 947.666 628.348 955.738C625.009 956.68 621.646 957.629 618.254 958.578C586.316 967.518 552.322 976.309 515.769 977.281C441.04 979.267 359.543 948.591 259.121 834.634C229.352 800.853 209.286 766.339 199.651 729.755C189.989 693.069 191.061 655.22 202.198 615.229C224.257 536.024 286.057 447.653 383.45 340.259C424.634 294.845 509.517 258.063 602.205 250.389C695.511 242.663 799.995 264.13 879.943 339.446C885.772 344.937 886.046 354.114 880.554 359.943C875.063 365.772 865.886 366.045 860.057 360.554C787.68 292.37 692.164 272.039 604.598 279.29Z" fill="#FF599F"/>
<path fill-rule="evenodd" clip-rule="evenodd" d="M713.7 207.572C722.304 227.366 725.322 250.333 724.339 270.699C723.953 278.698 717.155 284.869 709.156 284.483C701.158 284.097 694.986 277.299 695.373 269.301C696.189 252.397 693.581 234.032 687.104 219.133C680.659 204.305 671.085 194.277 658.452 190.519C645.647 186.709 626.103 188.255 597.485 204.515C568.909 220.752 532.864 250.823 488.367 300.944C483.051 306.933 473.886 307.477 467.897 302.161C461.909 296.844 461.364 287.68 466.68 281.691C512.247 230.364 550.724 197.73 583.159 179.301C615.553 160.896 643.509 155.817 666.721 162.723C690.105 169.679 705.065 187.706 713.7 207.572Z" fill="#FF599F"/>
<path fill-rule="evenodd" clip-rule="evenodd" d="M639.701 171.926C644.055 177.284 643.241 185.156 637.884 189.51C628.862 196.842 615.358 210.99 605.096 225.961C599.98 233.425 595.987 240.637 593.688 246.933C591.291 253.495 591.318 257.454 591.93 259.412C593.991 266.001 590.32 273.013 583.731 275.073C577.142 277.134 570.13 273.463 568.07 266.874C565.063 257.261 567.03 247.05 570.205 238.357C573.477 229.397 578.687 220.271 584.475 211.826C596.023 194.979 611.138 179.031 622.117 170.109C627.474 165.756 635.347 166.569 639.701 171.926Z" fill="#FF599F"/>
<path fill-rule="evenodd" clip-rule="evenodd" d="M875.377 366.961C841.034 365.774 803.449 374.809 780.266 383.564C772.774 386.394 764.407 382.614 761.578 375.122C758.749 367.631 762.528 359.264 770.02 356.435C795.705 346.735 837.189 336.624 876.379 337.978C915.117 339.316 956.929 352.352 973.503 394.717C991.18 439.9 992.269 481.245 980.517 513.426C968.7 545.785 943.857 568.496 911.843 574.269C903.962 575.691 896.421 570.454 895 562.573C893.579 554.692 898.815 547.151 906.696 545.73C927.318 542.011 944.539 527.405 953.277 503.478C962.08 479.373 962.217 445.465 946.497 405.282C936.353 379.355 910.171 368.163 875.377 366.961Z" fill="#FF599F"/>
<path fill-rule="evenodd" clip-rule="evenodd" d="M882.167 456.037C871.443 458.985 858.548 461.467 846.816 457.806C840.226 455.749 836.551 448.74 838.607 442.149C840.664 435.559 847.674 431.884 854.264 433.941C858.553 435.28 865.255 434.758 875.541 431.931C880.434 430.586 885.559 428.899 891.081 427.073L891.52 426.928C896.801 425.181 902.437 423.316 908.026 421.747C919.166 418.62 932.218 416.005 944.457 418.776C957.952 421.83 968.492 430.907 974.824 446.547C977.415 452.946 974.328 460.234 967.929 462.825C961.53 465.416 954.243 462.328 951.652 455.93C947.984 446.871 943.442 444.178 938.938 443.159C933.177 441.855 925.313 442.861 914.783 445.817C909.753 447.229 904.587 448.938 899.127 450.744L898.931 450.809C893.512 452.601 887.78 454.494 882.167 456.037Z" fill="#FF599F"/>
<path d="M447.571 621.908C444.692 602.031 457.2 597.619 465.699 608.357C469.516 613.178 478.006 616.478 491.384 616.387C513.667 616.236 507.353 629.276 503.629 634.544C484.943 652.206 452.638 656.897 447.571 621.908Z" fill="#FF599F"/>
<path fill-rule="evenodd" clip-rule="evenodd" d="M452.115 603.22C456.258 600.79 461.77 602.586 466.091 608.045C469.761 612.682 478.051 615.977 491.381 615.886C496.989 615.848 500.865 616.638 503.451 617.975C506.061 619.324 507.349 621.228 507.75 623.339C508.146 625.42 507.67 627.642 506.886 629.645C506.099 631.655 504.983 633.493 504.037 634.832C504.018 634.859 503.996 634.884 503.972 634.907C494.559 643.805 481.676 649.477 470.448 648.468C464.821 647.962 459.606 645.775 455.479 641.473C451.356 637.174 448.354 630.801 447.076 621.979C445.628 611.982 448.013 605.625 452.115 603.22ZM452.621 604.082C449.064 606.168 446.635 611.956 448.066 621.836C449.322 630.509 452.258 636.67 456.201 640.78C460.14 644.887 465.12 646.984 470.538 647.472C481.386 648.447 493.98 642.959 503.249 634.214C504.158 632.922 505.214 631.173 505.954 629.28C506.705 627.362 507.113 625.345 506.768 623.526C506.428 621.737 505.348 620.081 502.992 618.863C500.611 617.632 496.92 616.849 491.388 616.886C477.962 616.978 469.27 613.672 465.307 608.666C461.129 603.388 456.137 602.021 452.621 604.082Z" fill="#FF599F"/>
<path fill-rule="evenodd" clip-rule="evenodd" d="M469.614 691.64C486.565 694.52 504.435 704.011 518.386 719.563C519.664 720.987 520.588 722.735 521.1 723.738C521.755 725.022 522.446 726.547 523.15 728.215C524.563 731.569 526.196 735.903 527.901 740.871C531.312 750.815 535.136 763.664 538.161 776.926C541.167 790.102 543.487 804.12 543.678 816.251C543.774 822.313 543.347 828.294 542.009 833.636C540.688 838.906 538.262 844.409 533.7 848.446C524.75 856.367 507.152 864.92 486.762 867.439C465.989 870.006 441.379 866.412 419.434 848.582C405.984 837.656 396.916 814.734 396.008 789.377C395.076 763.365 402.56 732.875 424.641 705.428C435.252 692.238 452.937 688.806 469.614 691.64ZM466.264 711.357C453.701 709.223 444.645 712.469 440.224 717.964C421.419 741.34 415.22 767.015 415.995 788.661C416.794 810.962 424.822 827.192 432.045 833.059C448.912 846.763 467.736 849.638 484.31 847.59C501.267 845.495 514.93 838.351 520.445 833.469C520.861 833.101 521.826 831.895 522.608 828.774C523.373 825.725 523.76 821.635 523.681 816.566C523.521 806.435 521.532 793.954 518.662 781.374C515.812 768.879 512.192 756.713 508.983 747.361C507.377 742.681 505.906 738.797 504.72 735.985C504.124 734.57 503.641 733.526 503.286 732.83C503.212 732.685 503.151 732.569 503.102 732.48C492.091 720.4 478.406 713.421 466.264 711.357Z" fill="#FF599F"/>
<path fill-rule="evenodd" clip-rule="evenodd" d="M662.024 330.452C618.572 353.588 571.625 387.699 543.01 439.345C535.114 453.596 517.161 458.748 502.909 450.852C488.658 442.956 483.506 425.002 491.402 410.751C527.867 344.937 586.078 304.048 634.294 278.374C658.553 265.457 680.896 256.078 697.265 249.334C698.606 248.782 699.888 248.255 701.116 247.75C707.635 245.069 712.6 243.028 716.444 241.29C718.658 240.288 719.854 239.673 720.382 239.374C719.721 239.811 718.136 240.978 716.434 242.924L760.836 281.776C756.73 286.468 751.877 289.332 749.655 290.6C746.789 292.236 743.664 293.733 740.756 295.048C735.89 297.248 729.758 299.768 723.305 302.42C722.125 302.905 720.933 303.394 719.737 303.887C703.716 310.487 683.598 318.965 662.024 330.452ZM720.409 239.358C720.4 239.363 720.391 239.369 720.382 239.374C720.776 239.113 720.842 239.112 720.409 239.358ZM737.552 408.188C700.328 431.831 664.359 461.594 641.078 485.37C629.679 497.011 611.002 497.207 599.361 485.809C587.72 474.41 587.524 455.732 598.922 444.092C625.461 416.989 664.98 384.387 705.919 358.385C726.44 345.35 747.881 333.613 768.704 325.051C789.175 316.634 810.916 310.5 831.492 310.5C847.785 310.5 860.992 323.708 860.992 340C860.992 356.293 847.785 369.5 831.492 369.5C821.811 369.5 808.213 372.599 791.141 379.618C774.419 386.494 756.111 396.399 737.552 408.188Z" fill="#FF599F"/>
<path fill-rule="evenodd" clip-rule="evenodd" d="M291.386 606.389C296.26 610.462 296.91 617.714 292.837 622.588L272.837 646.524C268.765 651.398 261.512 652.048 256.639 647.976C251.765 643.903 251.115 636.651 255.187 631.777L275.187 607.841C279.26 602.967 286.512 602.317 291.386 606.389ZM326.633 611.905C331.821 615.568 333.058 622.744 329.395 627.932L298.391 671.847C294.728 677.035 287.552 678.272 282.364 674.609C277.175 670.946 275.939 663.77 279.602 658.582L310.605 614.667C314.268 609.478 321.444 608.242 326.633 611.905ZM360.195 629.454C365.55 632.869 367.123 639.978 363.709 645.334L347.899 670.127C344.484 675.482 337.375 677.056 332.02 673.641C326.665 670.226 325.092 663.117 328.506 657.761L344.316 632.968C347.73 627.613 354.84 626.039 360.195 629.454ZM670.799 731.361C676.034 734.958 677.361 742.118 673.763 747.352L643.763 791.003C640.166 796.237 633.006 797.564 627.772 793.967C622.538 790.369 621.211 783.21 624.808 777.975L654.808 734.325C658.406 729.09 665.565 727.763 670.799 731.361ZM705.143 744.203C710.824 747.044 713.126 753.951 710.286 759.632L690.286 799.632C687.446 805.313 680.538 807.615 674.857 804.775C669.176 801.935 666.874 795.027 669.714 789.346L689.714 749.346C692.555 743.665 699.462 741.363 705.143 744.203ZM743.414 757.762C749.479 759.647 752.867 766.092 750.982 772.157L736.759 817.903C734.874 823.968 728.429 827.356 722.364 825.471C716.299 823.585 712.911 817.14 714.796 811.075L729.018 765.329C730.904 759.264 737.349 755.876 743.414 757.762Z" fill="#FF599F"/>
<path fill-rule="evenodd" clip-rule="evenodd" d="M446.621 712.736C449.82 716.541 449.33 722.218 445.525 725.417C443.968 726.726 440.819 730.773 437.129 737.919C433.601 744.753 429.999 753.597 427.167 763.613C421.461 783.792 419.159 807.706 425.797 829.111C427.269 833.858 424.614 838.9 419.867 840.372C415.119 841.845 410.077 839.189 408.605 834.442C400.574 808.545 403.592 780.835 409.846 758.715C412.994 747.582 417.033 737.608 421.136 729.661C425.077 722.027 429.552 715.331 433.941 711.64C437.745 708.441 443.423 708.932 446.621 712.736Z" fill="#FF599F"/>
<path fill-rule="evenodd" clip-rule="evenodd" d="M451.595 696.651C455.938 699.07 457.496 704.551 455.077 708.894C452.36 713.77 449.355 721.41 448.817 728.305C448.29 735.056 450.087 738.792 454.056 740.8C462.686 745.166 473.614 746.063 482.719 743.382C491.662 740.748 497.796 735.1 499.522 726.963C500.554 722.101 505.332 718.995 510.194 720.027C515.056 721.058 518.162 725.836 517.13 730.699C513.698 746.879 501.379 756.651 487.803 760.649C474.388 764.599 458.728 763.337 445.93 756.862C432.756 750.197 430.056 737.353 430.871 726.904C431.676 716.597 435.853 706.415 439.353 700.133C441.772 695.791 447.253 694.232 451.595 696.651Z" fill="#FF599F"/>
<path fill-rule="evenodd" clip-rule="evenodd" d="M168.649 774.435C180.853 755.655 204.128 750.721 220.157 751.001C225.127 751.088 229.086 755.188 228.999 760.157C228.912 765.127 224.812 769.086 219.843 768.999C206.222 768.76 190.915 773.204 183.742 784.243C176.932 794.722 174.684 815.689 197.784 855.482C200.279 859.78 198.817 865.288 194.518 867.784C190.22 870.279 184.712 868.817 182.216 864.518C158.154 823.066 156.081 793.774 168.649 774.435Z" fill="#FF599F"/>
<path fill-rule="evenodd" clip-rule="evenodd" d="M64.5911 574.066C64.4954 573.881 64.4053 573.692 64.321 573.499L35.8466 508.53C21.9837 476.899 36.3875 440.019 68.0183 426.156C99.6492 412.293 136.529 426.697 150.392 458.327L178.867 523.297C178.951 523.491 179.03 523.687 179.102 523.884C179.327 524.364 179.546 524.849 179.76 525.337L207.919 589.586C221.782 621.217 207.378 658.097 175.747 671.96C144.116 685.823 107.236 671.419 93.3733 639.788L65.2148 575.539C65.0002 575.049 64.7923 574.558 64.5911 574.066ZM86.4753 574.621L111.546 631.824C121.01 653.418 146.188 663.252 167.783 653.787C189.377 644.323 199.211 619.145 189.747 597.55L164.676 540.348L86.4753 574.621Z" fill="#FF599F"/>
<path fill-rule="evenodd" clip-rule="evenodd" d="M771.982 664.486C755.859 711.714 706.141 736.717 660.935 720.332C615.728 703.948 592.15 652.38 608.273 605.152C624.396 557.924 674.114 532.921 719.321 549.306C764.528 565.69 788.105 617.258 771.982 664.486ZM661.501 624.433C654.87 631.413 644.744 634.237 635.296 630.813C622.247 626.083 615.432 611.227 620.074 597.63C624.716 584.032 639.057 576.844 652.106 581.573C655.748 582.893 658.904 585.002 661.461 587.652C670.898 563.115 697.41 550.397 721.61 559.168C746.412 568.157 759.394 596.313 750.605 622.057C741.817 647.801 714.586 661.383 689.784 652.393C676.381 647.536 666.43 637.08 661.501 624.433Z" fill="#FF599F"/>
<path fill-rule="evenodd" clip-rule="evenodd" d="M423.983 588.761C391.367 620.587 347.24 621.509 325.423 590.82C303.606 560.131 312.36 509.453 344.976 477.626C377.592 445.8 421.718 444.878 443.535 475.567C465.353 506.256 456.598 556.935 423.983 588.761ZM369.494 513.112C362.706 516.419 354.958 515.249 349.752 509.347C342.563 501.196 342.945 487.106 350.607 477.878C358.268 468.649 370.308 467.775 377.497 475.926C379.504 478.201 380.92 480.938 381.754 483.903C396.292 467.606 418.357 466.444 431.691 481.561C445.356 497.053 444.674 523.778 430.169 541.251C415.663 558.724 392.827 560.33 379.161 544.837C371.777 536.465 368.582 524.812 369.494 513.112Z" fill="#FF599F"/>
<path fill-rule="evenodd" clip-rule="evenodd" d="M369.663 148.235C374.925 145.797 381.167 148.086 383.605 153.348C389.467 166 404.475 171.504 417.127 165.642L420.985 163.854C426.247 161.416 432.489 163.705 434.927 168.967C437.364 174.229 435.075 180.47 429.814 182.908C415.031 189.758 408.6 207.294 415.449 222.077C417.887 227.338 415.598 233.58 410.336 236.018C405.075 238.456 398.833 236.167 396.395 230.905C389.546 216.122 372.009 209.691 357.227 216.541C351.965 218.978 345.723 216.689 343.285 211.428C340.848 206.166 343.137 199.924 348.398 197.486L352.257 195.699C364.908 189.837 370.413 174.828 364.551 162.177C362.113 156.915 364.402 150.673 369.663 148.235Z" fill="#FF599F"/>
<path fill-rule="evenodd" clip-rule="evenodd" d="M184.783 276.489C187.588 268.401 196.419 264.119 204.506 266.924L211.572 269.375C227.226 274.805 244.317 266.517 249.747 250.863L254.263 237.843C257.068 229.755 265.899 225.473 273.987 228.278C282.074 231.083 286.356 239.914 283.551 248.002L279.035 261.022C273.605 276.675 281.894 293.767 297.547 299.196L310.567 303.713C318.655 306.518 322.937 315.348 320.132 323.436C317.327 331.524 308.496 335.806 300.408 333.001L287.388 328.485C271.735 323.055 254.643 331.343 249.214 346.997L244.697 360.017C241.892 368.105 233.062 372.387 224.974 369.582C216.886 366.776 212.604 357.946 215.409 349.858L219.926 336.838C225.355 321.184 217.067 304.093 201.413 298.663L194.347 296.212C186.26 293.407 181.977 284.577 184.783 276.489Z" fill="#FF599F"/>
</svg>
