<svg width="1000" height="1000" viewBox="0 0 1000 1000" fill="none" xmlns="http://www.w3.org/2000/svg">
<path fill-rule="evenodd" clip-rule="evenodd" d="M500 948C747.424 948 948 747.424 948 500C948 252.576 747.424 52 500 52C252.576 52 52 252.576 52 500C52 747.424 252.576 948 500 948ZM500 1000C776.142 1000 1000 776.142 1000 500C1000 223.858 776.142 0 500 0C223.858 0 0 223.858 0 500C0 776.142 223.858 1000 500 1000Z" fill="#FF599F"/>
<path fill-rule="evenodd" clip-rule="evenodd" d="M604.598 279.29C516.415 286.592 439.557 321.56 404.932 359.741C307.879 466.76 250.236 550.833 230.135 623.009C220.193 658.708 219.508 691.284 227.695 722.37C235.909 753.557 253.298 784.163 280.879 815.461C377.498 925.104 451.351 949.983 514.998 948.291C547.634 947.424 578.585 939.567 610.438 930.652C613.794 929.713 617.165 928.76 620.552 927.802C648.813 919.814 678.161 911.518 708.36 908.399C716.326 907.577 723.45 913.368 724.273 921.333C725.095 929.299 719.304 936.424 711.339 937.246C683.797 940.09 656.952 947.666 628.348 955.738C625.009 956.68 621.646 957.63 618.254 958.579C586.316 967.518 552.322 976.309 515.769 977.281C441.04 979.268 359.543 948.591 259.121 834.634C229.352 800.853 209.286 766.339 199.651 729.755C189.989 693.069 191.061 655.221 202.198 615.229C224.257 536.024 286.057 447.653 383.45 340.259C424.634 294.845 509.518 258.064 602.205 250.389C695.511 242.663 799.995 264.13 879.943 339.446C885.772 344.937 886.046 354.114 880.554 359.943C875.063 365.772 865.886 366.045 860.057 360.554C787.68 292.371 692.164 272.04 604.598 279.29Z" fill="#FF599F"/>
<path fill-rule="evenodd" clip-rule="evenodd" d="M713.701 207.572C722.304 227.366 725.322 250.333 724.339 270.699C723.953 278.698 717.155 284.869 709.156 284.483C701.158 284.097 694.986 277.299 695.373 269.301C696.189 252.397 693.581 234.032 687.104 219.133C680.659 204.305 671.085 194.277 658.452 190.519C645.647 186.709 626.103 188.255 597.485 204.515C568.909 220.752 532.864 250.823 488.367 300.944C483.051 306.933 473.886 307.477 467.897 302.161C461.909 296.844 461.364 287.68 466.68 281.691C512.247 230.364 550.724 197.73 583.159 179.301C615.553 160.896 643.509 155.817 666.721 162.723C690.105 169.679 705.065 187.706 713.701 207.572Z" fill="#FF599F"/>
<path fill-rule="evenodd" clip-rule="evenodd" d="M639.701 171.926C644.054 177.283 643.241 185.156 637.884 189.51C628.862 196.842 615.358 210.99 605.096 225.96C599.98 233.424 595.987 240.637 593.688 246.933C591.291 253.494 591.318 257.454 591.93 259.412C593.991 266.001 590.32 273.012 583.731 275.073C577.142 277.134 570.13 273.463 568.07 266.874C565.063 257.26 567.03 247.049 570.205 238.356C573.477 229.397 578.687 220.27 584.475 211.826C596.023 194.979 611.138 179.031 622.116 170.109C627.474 165.755 635.347 166.569 639.701 171.926Z" fill="#FF599F"/>
<path fill-rule="evenodd" clip-rule="evenodd" d="M875.377 366.961C841.034 365.775 803.449 374.81 780.266 383.565C772.774 386.394 764.407 382.615 761.578 375.123C758.749 367.631 762.528 359.264 770.02 356.435C795.705 346.735 837.189 336.624 876.378 337.978C915.116 339.317 956.929 352.353 973.503 394.717C991.18 439.9 992.269 481.246 980.517 513.426C968.699 545.785 943.857 568.496 911.843 574.27C903.962 575.691 896.421 570.454 895 562.573C893.579 554.692 898.815 547.151 906.696 545.73C927.318 542.011 944.539 527.405 953.277 503.478C962.08 479.373 962.217 445.465 946.497 405.283C936.353 379.355 910.171 368.163 875.377 366.961Z" fill="#FF599F"/>
<path fill-rule="evenodd" clip-rule="evenodd" d="M882.167 456.037C871.443 458.984 858.548 461.467 846.816 457.806C840.226 455.749 836.551 448.739 838.607 442.149C840.664 435.559 847.674 431.884 854.264 433.941C858.553 435.279 865.255 434.758 875.541 431.931C880.434 430.586 885.559 428.899 891.081 427.073L891.52 426.928C896.801 425.18 902.437 423.316 908.026 421.747C919.166 418.62 932.218 416.005 944.457 418.775C957.952 421.83 968.492 430.907 974.824 446.547C977.415 452.946 974.328 460.234 967.929 462.824C961.53 465.415 954.243 462.328 951.652 455.929C947.984 446.871 943.442 444.178 938.938 443.158C933.177 441.854 925.313 442.861 914.783 445.817C909.753 447.229 904.587 448.937 899.127 450.743L898.931 450.808C893.512 452.601 887.78 454.494 882.167 456.037Z" fill="#FF599F"/>
<path fill-rule="evenodd" clip-rule="evenodd" d="M699.176 622.795C660.968 614.539 624.376 625.889 602.835 638.851C592.424 645.115 578.906 641.754 572.642 631.343C566.377 620.932 569.739 607.414 580.149 601.15C609.063 583.752 657.017 568.67 708.469 579.788C761.212 591.185 813.639 629.23 851.45 710.742C856.562 721.765 851.772 734.845 840.75 739.957C829.728 745.07 816.648 740.28 811.535 729.258C778.438 657.907 736.092 630.772 699.176 622.795Z" fill="#FF599F"/>
<path fill-rule="evenodd" clip-rule="evenodd" d="M444.985 522.491C450.688 536.952 452.887 552.866 451.092 566.908C449.552 578.96 438.534 587.482 426.481 585.942C414.429 584.402 405.907 573.384 407.447 561.331C408.209 555.374 407.32 546.919 404.053 538.631C400.81 530.409 395.91 524.033 390.201 520.354C381.681 514.862 359.646 509.029 316.029 547.426C306.909 555.455 293.008 554.57 284.979 545.45C276.951 536.331 277.835 522.429 286.955 514.4C336.196 471.052 380.605 461.822 414.038 483.37C429.305 493.21 439.257 507.964 444.985 522.491Z" fill="#FF599F"/>
<path d="M447.571 621.908C444.692 602.031 457.2 597.618 465.699 608.356C469.516 613.177 478.006 616.478 491.384 616.387C513.667 616.235 507.353 629.276 503.629 634.544C484.943 652.206 452.638 656.896 447.571 621.908Z" fill="#FF599F"/>
<path fill-rule="evenodd" clip-rule="evenodd" d="M452.115 603.22C456.258 600.791 461.77 602.586 466.091 608.046C469.761 612.682 478.051 615.977 491.381 615.887C496.989 615.849 500.865 616.638 503.451 617.975C506.061 619.324 507.349 621.228 507.75 623.339C508.146 625.42 507.67 627.642 506.886 629.645C506.099 631.655 504.983 633.494 504.037 634.832C504.018 634.859 503.996 634.884 503.972 634.907C494.559 643.805 481.676 649.477 470.448 648.468C464.821 647.962 459.606 645.775 455.479 641.473C451.356 637.175 448.354 630.801 447.076 621.98C445.628 611.982 448.013 605.626 452.115 603.22ZM452.621 604.083C449.064 606.168 446.635 611.957 448.066 621.836C449.322 630.509 452.258 636.67 456.201 640.781C460.14 644.888 465.12 646.985 470.538 647.472C481.386 648.447 493.98 642.959 503.249 634.214C504.158 632.923 505.214 631.173 505.954 629.281C506.705 627.362 507.113 625.345 506.768 623.526C506.428 621.738 505.348 620.081 502.992 618.863C500.611 617.633 496.92 616.849 491.388 616.887C477.962 616.978 469.27 613.673 465.307 608.666C461.129 603.388 456.137 602.021 452.621 604.083Z" fill="#FF599F"/>
<path fill-rule="evenodd" clip-rule="evenodd" d="M578.34 723.841C584.336 728.178 589.731 733.182 593.112 738.903C593.121 738.918 593.165 738.968 593.238 739.051C594.23 740.177 600.651 747.461 599.936 758.543C599.242 769.296 592.768 784.119 576.722 807.675C560.928 830.86 541.257 857.956 517.117 871.366C504.655 878.289 490.642 881.793 475.328 879.084C460.167 876.401 444.89 867.832 429.358 852.794C423.628 847.246 416.208 837.17 409.146 824.977C401.995 812.629 394.836 797.463 389.917 781.405C380.307 750.038 378.222 711.181 408.124 686.198C412.906 682.203 419.659 680.862 425.422 680.33C431.696 679.752 439.133 679.964 447.122 680.725C463.152 682.251 482.622 686.107 501.925 691.426C521.231 696.746 540.752 703.635 556.827 711.377C564.862 715.246 572.229 719.421 578.34 723.841ZM420.998 701.536C420.931 701.565 420.917 701.572 420.947 701.546C400.792 718.385 400.029 746.134 409.04 775.547C413.43 789.88 419.906 803.649 426.453 814.954C433.091 826.414 439.433 834.71 443.27 838.425C456.905 851.627 468.729 857.605 478.813 859.39C488.745 861.147 498.122 859.039 507.404 853.883C526.753 843.134 543.986 820.207 560.192 796.415C576.146 772.994 579.663 762.12 579.977 757.255C580.122 755.009 579.992 754.847 579.023 753.644C578.391 752.858 577.4 751.627 575.895 749.08C574.509 746.735 571.59 743.642 566.619 740.046C561.761 736.533 555.505 732.938 548.149 729.396C533.441 722.313 515.113 715.805 496.612 710.707C478.107 705.608 459.812 702.023 445.227 700.635C437.909 699.938 431.828 699.825 427.258 700.246C423.022 700.637 421.336 701.385 420.998 701.536Z" fill="#FF599F"/>
<path fill-rule="evenodd" clip-rule="evenodd" d="M662.024 330.452C618.572 353.588 571.625 387.698 543.01 439.344C535.114 453.596 517.161 458.748 502.909 450.852C488.658 442.956 483.506 425.002 491.402 410.751C527.867 344.937 586.078 304.047 634.294 278.374C658.553 265.457 680.896 256.077 697.265 249.334C698.606 248.782 699.888 248.254 701.116 247.749C707.635 245.069 712.6 243.028 716.444 241.289C718.658 240.288 719.854 239.673 720.382 239.373C719.721 239.811 718.136 240.978 716.434 242.923L760.836 281.775C756.73 286.467 751.877 289.331 749.655 290.599C746.789 292.235 743.664 293.732 740.756 295.047C735.89 297.248 729.758 299.768 723.305 302.419C722.125 302.904 720.933 303.394 719.737 303.886C703.716 310.486 683.598 318.964 662.024 330.452ZM720.409 239.358C720.401 239.363 720.391 239.368 720.382 239.373C720.776 239.113 720.842 239.111 720.409 239.358ZM737.552 408.187C700.328 431.83 664.359 461.594 641.078 485.37C629.679 497.011 611.002 497.207 599.361 485.808C587.72 474.409 587.524 455.732 598.922 444.091C625.461 416.989 664.98 384.387 705.919 358.384C726.44 345.35 747.881 333.612 768.704 325.051C789.175 316.633 810.916 310.5 831.492 310.5C847.785 310.5 860.992 323.708 860.992 340C860.992 356.292 847.785 369.5 831.492 369.5C821.811 369.5 808.213 372.598 791.141 379.618C774.419 386.493 756.111 396.399 737.552 408.187Z" fill="#FF599F"/>
<path fill-rule="evenodd" clip-rule="evenodd" d="M184.384 212.62C192.729 212.109 200.511 216.843 203.894 224.489L277.529 390.88C282 400.981 277.435 412.793 267.334 417.263C257.233 421.733 245.421 417.169 240.951 407.068L189.114 289.932L183.983 306.854C180.777 317.424 169.61 323.394 159.039 320.189C148.469 316.984 142.498 305.816 145.704 295.246L166.466 226.779C168.892 218.778 176.039 213.13 184.384 212.62Z" fill="#FF599F"/>
<path fill-rule="evenodd" clip-rule="evenodd" d="M359.299 198.208C372.304 221.074 380.889 251.273 380.031 274.977C378.345 321.589 348.86 350.668 320.14 354.212C306.973 355.836 290.07 353.8 274.651 338.507C260.609 324.578 249.65 301.378 241.482 265.829C234.468 235.303 237.065 211.082 248.441 192.57C259.656 174.321 277.12 165.411 291.563 160.441C307.595 154.923 322.389 159.77 333.485 167.732C344.166 175.396 352.745 186.684 359.299 198.208ZM304.628 198.246C304.611 198.252 304.595 198.258 304.58 198.263C294.149 201.853 286.778 206.583 282.52 213.513C278.423 220.18 274.908 232.678 280.466 256.872C288.015 289.723 296.76 304.097 302.82 310.108C307.505 314.754 311.101 315.024 315.242 314.513C321.136 313.786 338.953 304.056 340.057 273.531C340.595 258.668 334.637 235.755 324.529 217.983C319.526 209.186 314.405 203.273 310.165 200.231C306.477 197.584 305.092 198.08 304.628 198.246Z" fill="#FF599F"/>
<path fill-rule="evenodd" clip-rule="evenodd" d="M384.594 239.174C375.633 217.273 371.473 188.729 374.555 166.596C380.476 124.073 407.293 96.0561 433.382 91.9889C438.987 91.1152 446.271 90.8127 454.117 93.2234C462.213 95.7111 469.507 100.66 475.577 108.103C486.964 122.066 493.905 144.608 497.234 177.792C500.134 206.711 495.375 229.05 484.365 245.937C473.399 262.757 457.946 271.521 444.727 276.648C429.238 282.655 414.993 277.939 404.811 269.293C395.533 261.414 389.053 250.074 384.594 239.174ZM431.017 239.058C430.922 238.985 430.817 238.9 430.702 238.802C428.369 236.821 424.933 232.137 421.615 224.027C415.019 207.906 412.172 186.48 414.173 172.112C418.417 141.634 435.757 132.102 439.544 131.512C441.408 131.221 442.159 131.395 442.368 131.459C442.463 131.488 442.628 131.547 442.905 131.738C443.196 131.939 443.778 132.401 444.578 133.382C448.277 137.918 454.302 150.56 457.433 181.784C459.701 204.392 455.552 216.89 450.857 224.092C446.253 231.153 439.47 235.675 431.017 239.058Z" fill="#FF599F"/>
<path fill-rule="evenodd" clip-rule="evenodd" d="M331.083 580.153C336.521 583.433 338.271 590.501 334.99 595.94L304.831 645.94C301.551 651.378 294.483 653.128 289.044 649.847C283.606 646.567 281.856 639.499 285.137 634.06L315.296 584.06C318.576 578.622 325.644 576.872 331.083 580.153ZM297.374 581.175C302.247 585.247 302.897 592.5 298.825 597.374L278.825 621.31C274.753 626.184 267.5 626.834 262.626 622.761C257.753 618.689 257.103 611.437 261.175 606.563L281.175 582.626C285.247 577.753 292.5 577.103 297.374 581.175ZM366.183 595.51C371.538 598.925 373.111 606.034 369.696 611.389L353.887 636.183C350.472 641.538 343.363 643.111 338.008 639.696C332.652 636.282 331.079 629.172 334.494 623.817L350.304 599.023C353.718 593.668 360.828 592.095 366.183 595.51ZM690.799 686.872C696.034 690.469 697.361 697.629 693.763 702.863L663.763 746.514C660.166 751.748 653.006 753.075 647.772 749.477C642.538 745.88 641.211 738.721 644.808 733.486L674.808 689.836C678.406 684.601 685.565 683.274 690.799 686.872ZM725.143 699.714C730.824 702.555 733.126 709.462 730.286 715.143L710.286 755.143C707.445 760.824 700.538 763.126 694.857 760.286C689.176 757.445 686.874 750.538 689.714 744.857L709.714 704.857C712.555 699.176 719.462 696.874 725.143 699.714ZM763.414 713.272C769.479 715.158 772.867 721.603 770.982 727.668L756.759 773.414C754.874 779.479 748.429 782.867 742.364 780.982C736.299 779.096 732.911 772.651 734.796 766.586L749.018 720.84C750.904 714.775 757.349 711.387 763.414 713.272Z" fill="#FF599F"/>
<path fill-rule="evenodd" clip-rule="evenodd" d="M445.292 685.883C448.513 689.67 448.054 695.35 444.268 698.57C437.081 704.682 425.545 715.061 419.635 733.602C413.75 752.067 413.015 780.094 430.664 822.161C432.587 826.744 430.431 832.019 425.847 833.942C421.264 835.865 415.989 833.708 414.066 829.125C395.22 784.207 394.981 751.683 402.485 728.136C409.966 704.666 424.713 691.572 432.606 684.859C436.392 681.638 442.072 682.097 445.292 685.883Z" fill="#FF599F"/>
<path fill-rule="evenodd" clip-rule="evenodd" d="M477.539 687.82C481.881 690.239 483.44 695.721 481.021 700.063C478.304 704.939 475.299 712.579 474.76 719.474C474.233 726.226 476.03 729.961 479.999 731.969C488.63 736.336 499.558 737.232 508.662 734.551C517.606 731.918 523.74 726.269 525.466 718.132C526.497 713.27 531.275 710.164 536.138 711.196C541 712.227 544.105 717.005 543.074 721.868C539.641 738.048 527.323 747.821 513.747 751.818C500.331 755.768 484.672 754.506 471.874 748.031C458.7 741.366 455.999 728.522 456.815 718.073C457.619 707.766 461.797 697.584 465.297 691.302C467.716 686.96 473.197 685.401 477.539 687.82Z" fill="#FF599F"/>
<path fill-rule="evenodd" clip-rule="evenodd" d="M168.649 774.435C180.853 755.655 204.128 750.721 220.157 751.001C225.127 751.088 229.086 755.188 228.999 760.157C228.912 765.127 224.812 769.086 219.843 768.999C206.222 768.76 190.915 773.204 183.742 784.243C176.932 794.722 174.684 815.689 197.784 855.482C200.279 859.78 198.817 865.288 194.518 867.784C190.22 870.279 184.712 868.817 182.216 864.518C158.154 823.066 156.081 793.774 168.649 774.435Z" fill="#FF599F"/>
<path fill-rule="evenodd" clip-rule="evenodd" d="M64.5911 574.066C64.4954 573.88 64.4053 573.691 64.321 573.499L35.8466 508.529C21.9837 476.898 36.3875 440.018 68.0183 426.155C99.6492 412.293 136.529 426.696 150.392 458.327L178.867 523.297C178.951 523.49 179.03 523.686 179.102 523.884C179.327 524.364 179.546 524.848 179.76 525.337L207.919 589.586C221.782 621.216 207.378 658.096 175.747 671.959C144.116 685.822 107.236 671.419 93.3733 639.788L65.2148 575.539C65.0002 575.049 64.7923 574.558 64.5911 574.066ZM86.4753 574.621L111.546 631.823C121.01 653.418 146.188 663.251 167.783 653.787C189.377 644.323 199.211 619.145 189.747 597.55L164.676 540.347L86.4753 574.621Z" fill="#FF599F"/>
</svg>
