<svg width="1000" height="1000" viewBox="0 0 1000 1000" fill="none" xmlns="http://www.w3.org/2000/svg">
<path fill-rule="evenodd" clip-rule="evenodd" d="M500 948C747.424 948 948 747.424 948 500C948 252.576 747.424 52 500 52C252.576 52 52 252.576 52 500C52 747.424 252.576 948 500 948ZM500 1000C776.142 1000 1000 776.142 1000 500C1000 223.858 776.142 0 500 0C223.858 0 0 223.858 0 500C0 776.142 223.858 1000 500 1000Z" fill="#FF599F"/>
<path fill-rule="evenodd" clip-rule="evenodd" d="M604.598 279.29C516.415 286.592 439.557 321.56 404.932 359.741C307.879 466.76 250.236 550.833 230.135 623.009C220.193 658.708 219.508 691.284 227.695 722.37C235.909 753.557 253.298 784.163 280.879 815.461C377.498 925.104 451.351 949.983 514.998 948.291C547.634 947.424 578.585 939.567 610.438 930.652C613.794 929.713 617.165 928.76 620.552 927.802C648.813 919.814 678.161 911.518 708.36 908.399C716.326 907.577 723.45 913.368 724.273 921.333C725.095 929.299 719.304 936.424 711.339 937.246C683.797 940.09 656.952 947.666 628.348 955.738C625.009 956.68 621.646 957.63 618.254 958.579C586.316 967.518 552.322 976.309 515.769 977.281C441.04 979.268 359.543 948.591 259.121 834.634C229.352 800.853 209.286 766.339 199.651 729.755C189.989 693.069 191.061 655.221 202.198 615.229C224.257 536.024 286.057 447.653 383.45 340.259C424.634 294.845 509.518 258.064 602.205 250.389C695.511 242.663 799.995 264.13 879.943 339.446C885.772 344.937 886.046 354.114 880.554 359.943C875.063 365.772 865.886 366.045 860.057 360.554C787.68 292.371 692.164 272.04 604.598 279.29Z" fill="#FF599F"/>
<path fill-rule="evenodd" clip-rule="evenodd" d="M713.701 207.572C722.304 227.366 725.322 250.333 724.339 270.699C723.953 278.698 717.155 284.869 709.156 284.483C701.158 284.097 694.986 277.299 695.373 269.301C696.189 252.397 693.581 234.032 687.104 219.133C680.659 204.305 671.085 194.277 658.452 190.519C645.647 186.709 626.103 188.255 597.485 204.515C568.909 220.752 532.864 250.823 488.367 300.944C483.051 306.933 473.886 307.477 467.897 302.161C461.909 296.844 461.364 287.68 466.68 281.691C512.247 230.364 550.724 197.73 583.159 179.301C615.553 160.896 643.509 155.817 666.721 162.723C690.105 169.679 705.065 187.706 713.701 207.572Z" fill="#FF599F"/>
<path fill-rule="evenodd" clip-rule="evenodd" d="M639.701 171.926C644.054 177.283 643.241 185.156 637.884 189.51C628.862 196.842 615.358 210.99 605.096 225.96C599.98 233.424 595.987 240.637 593.688 246.933C591.291 253.494 591.318 257.454 591.93 259.412C593.991 266.001 590.32 273.012 583.731 275.073C577.142 277.134 570.13 273.463 568.07 266.874C565.063 257.26 567.03 247.049 570.205 238.356C573.477 229.397 578.687 220.27 584.475 211.826C596.023 194.979 611.138 179.031 622.116 170.109C627.474 165.755 635.347 166.569 639.701 171.926Z" fill="#FF599F"/>
<path fill-rule="evenodd" clip-rule="evenodd" d="M875.377 366.961C841.034 365.775 803.449 374.81 780.266 383.565C772.774 386.394 764.407 382.615 761.578 375.123C758.749 367.631 762.528 359.264 770.02 356.435C795.705 346.735 837.189 336.624 876.378 337.978C915.116 339.317 956.929 352.353 973.503 394.717C991.18 439.9 992.269 481.246 980.517 513.426C968.699 545.785 943.857 568.496 911.843 574.27C903.962 575.691 896.421 570.454 895 562.573C893.579 554.692 898.815 547.151 906.696 545.73C927.318 542.011 944.539 527.405 953.277 503.478C962.08 479.373 962.217 445.465 946.497 405.283C936.353 379.355 910.171 368.163 875.377 366.961Z" fill="#FF599F"/>
<path fill-rule="evenodd" clip-rule="evenodd" d="M882.167 456.037C871.443 458.984 858.548 461.467 846.816 457.806C840.226 455.749 836.551 448.739 838.607 442.149C840.664 435.559 847.674 431.884 854.264 433.941C858.553 435.279 865.255 434.758 875.541 431.931C880.434 430.586 885.559 428.899 891.081 427.073L891.52 426.928C896.801 425.18 902.437 423.316 908.026 421.747C919.166 418.62 932.218 416.005 944.457 418.775C957.952 421.83 968.492 430.907 974.824 446.547C977.415 452.946 974.328 460.234 967.929 462.824C961.53 465.415 954.243 462.328 951.652 455.929C947.984 446.871 943.442 444.178 938.938 443.158C933.177 441.854 925.313 442.861 914.783 445.817C909.753 447.229 904.587 448.937 899.127 450.743L898.931 450.808C893.512 452.601 887.78 454.494 882.167 456.037Z" fill="#FF599F"/>
<path fill-rule="evenodd" clip-rule="evenodd" d="M702.76 653.169C674.614 639.266 661.248 624.531 649.875 600.567C644.666 589.59 631.544 584.915 620.567 590.125C609.59 595.334 604.915 608.456 610.125 619.433C625.736 652.326 646.234 674.322 683.274 692.618C718.327 709.933 768.954 724.278 844.577 743.512C856.353 746.507 868.326 739.389 871.321 727.613C874.316 715.838 867.198 703.864 855.423 700.869C778.774 681.375 732.892 668.053 702.76 653.169Z" fill="#FF599F"/>
<path fill-rule="evenodd" clip-rule="evenodd" d="M317.239 557.946C361.734 571.491 401.316 583.539 448.656 561.919C459.708 556.871 464.576 543.82 459.529 532.768C454.481 521.716 441.43 516.848 430.377 521.895C399.008 536.222 376.374 529.502 330.528 515.891C324.103 513.984 317.223 511.941 309.798 509.802C298.123 506.438 285.931 513.175 282.567 524.851C279.203 536.526 285.941 548.718 297.616 552.082C304.285 554.003 310.813 555.99 317.239 557.946Z" fill="#FF599F"/>
<path d="M447.571 621.908C444.692 602.031 457.2 597.618 465.699 608.356C469.516 613.177 478.006 616.478 491.384 616.387C513.667 616.235 507.353 629.276 503.629 634.544C484.943 652.206 452.638 656.896 447.571 621.908Z" fill="#FF599F"/>
<path fill-rule="evenodd" clip-rule="evenodd" d="M452.115 603.22C456.258 600.791 461.77 602.586 466.091 608.046C469.761 612.682 478.051 615.977 491.381 615.887C496.989 615.849 500.865 616.638 503.451 617.975C506.061 619.324 507.349 621.228 507.75 623.339C508.146 625.42 507.67 627.642 506.886 629.645C506.099 631.655 504.983 633.494 504.037 634.832C504.018 634.859 503.996 634.884 503.972 634.907C494.559 643.805 481.676 649.477 470.448 648.468C464.821 647.962 459.606 645.775 455.479 641.473C451.356 637.175 448.354 630.801 447.076 621.98C445.628 611.982 448.013 605.626 452.115 603.22ZM452.621 604.083C449.064 606.168 446.635 611.957 448.066 621.836C449.322 630.509 452.258 636.67 456.201 640.781C460.14 644.888 465.12 646.985 470.538 647.472C481.386 648.447 493.98 642.959 503.249 634.214C504.158 632.923 505.214 631.173 505.954 629.281C506.705 627.362 507.113 625.345 506.768 623.526C506.428 621.738 505.348 620.081 502.992 618.863C500.611 617.633 496.92 616.849 491.388 616.887C477.962 616.978 469.27 613.673 465.307 608.666C461.129 603.388 456.137 602.021 452.621 604.083Z" fill="#FF599F"/>
<path fill-rule="evenodd" clip-rule="evenodd" d="M662.024 330.452C618.572 353.588 571.625 387.698 543.01 439.344C535.114 453.596 517.161 458.748 502.909 450.852C488.658 442.956 483.506 425.002 491.402 410.751C527.867 344.937 586.078 304.047 634.294 278.374C658.553 265.457 680.896 256.077 697.265 249.334C698.606 248.782 699.888 248.254 701.116 247.749C707.635 245.069 712.6 243.028 716.444 241.289C718.658 240.288 719.854 239.673 720.382 239.373C719.721 239.811 718.136 240.978 716.434 242.923L760.836 281.775C756.73 286.467 751.877 289.331 749.655 290.599C746.789 292.235 743.664 293.732 740.756 295.047C735.89 297.248 729.758 299.768 723.305 302.419C722.125 302.904 720.933 303.394 719.737 303.886C703.716 310.486 683.598 318.964 662.024 330.452ZM720.409 239.358C720.401 239.363 720.391 239.368 720.382 239.373C720.776 239.113 720.842 239.111 720.409 239.358ZM737.552 408.187C700.328 431.83 664.359 461.594 641.078 485.37C629.679 497.011 611.002 497.207 599.361 485.808C587.72 474.409 587.524 455.732 598.922 444.091C625.461 416.989 664.98 384.387 705.919 358.384C726.44 345.35 747.881 333.612 768.704 325.051C789.175 316.633 810.916 310.5 831.492 310.5C847.785 310.5 860.992 323.708 860.992 340C860.992 356.292 847.785 369.5 831.492 369.5C821.811 369.5 808.213 372.598 791.141 379.618C774.419 386.493 756.111 396.399 737.552 408.187Z" fill="#FF599F"/>
<path fill-rule="evenodd" clip-rule="evenodd" d="M412.977 836.633C407.528 832.835 402.625 828.451 399.552 823.44C396.848 819.033 391.774 805.59 391.028 788.082C390.267 770.218 393.975 747.472 409.826 725.046C425.299 703.154 445.492 688.479 470.252 687.247C494.757 686.028 521.004 698.142 548.376 723.684C553.583 728.544 560.327 737.369 566.745 748.048C573.245 758.864 579.751 772.148 584.221 786.213C592.954 813.688 594.85 847.722 567.674 869.604C563.328 873.104 557.191 874.279 551.953 874.744C546.251 875.251 539.492 875.065 532.231 874.399C517.663 873.062 499.968 869.685 482.425 865.026C464.879 860.366 447.138 854.332 432.529 847.551C425.227 844.161 418.531 840.505 412.977 836.633ZM555.973 856.171C556.035 856.144 556.047 856.139 556.02 856.161C574.337 841.412 575.031 817.107 566.842 791.344C562.851 778.79 556.966 766.729 551.016 756.828C544.984 746.79 539.22 739.524 535.732 736.269C510.089 712.34 488.519 703.88 471.189 704.742C454.115 705.591 438.458 715.652 424.848 734.908C411.617 753.629 408.555 772.47 409.189 787.364C409.508 794.834 410.758 801.277 412.11 806.13C412.786 808.554 413.477 810.547 414.07 812.039C414.367 812.784 414.629 813.381 414.841 813.828C414.947 814.05 415.034 814.222 415.101 814.348C415.162 814.464 415.195 814.52 415.199 814.526C416.459 816.581 419.111 819.289 423.63 822.439C428.044 825.516 433.73 828.665 440.416 831.768C453.782 837.972 470.44 843.672 487.254 848.137C504.071 852.604 520.699 855.743 533.954 856.96C540.604 857.57 546.132 857.669 550.284 857.3C554.134 856.958 555.666 856.302 555.973 856.171Z" fill="#FF599F"/>
<path fill-rule="evenodd" clip-rule="evenodd" d="M472.154 706.905C473.734 710.984 471.584 715.524 467.352 717.047C459.32 719.937 446.25 725.043 435.462 738.55C424.718 752.002 415.415 774.864 417.478 814.772C417.702 819.12 414.227 822.821 409.715 823.038C405.203 823.254 401.364 819.905 401.139 815.556C398.937 772.943 408.798 746.087 422.498 728.933C436.154 711.836 452.808 705.451 461.631 702.277C465.863 700.754 470.574 702.826 472.154 706.905Z" fill="#FF599F"/>
<path fill-rule="evenodd" clip-rule="evenodd" d="M478.742 696.624C482.689 698.743 484.105 703.544 481.907 707.348C479.438 711.619 476.706 718.311 476.217 724.35C475.738 730.263 477.371 733.535 480.979 735.294C488.822 739.119 498.754 739.904 507.028 737.556C515.156 735.249 520.731 730.302 522.3 723.175C523.237 718.916 527.579 716.196 531.998 717.099C536.417 718.003 539.24 722.188 538.302 726.446C535.183 740.619 523.987 749.178 511.649 752.68C499.457 756.14 485.225 755.034 473.594 749.362C461.621 743.525 459.167 732.275 459.908 723.123C460.639 714.095 464.435 705.177 467.616 699.674C469.815 695.871 474.796 694.505 478.742 696.624Z" fill="#FF599F"/>
<path fill-rule="evenodd" clip-rule="evenodd" d="M337.724 535.381C340.275 539.647 338.885 545.173 334.619 547.724C316.663 558.462 289.379 580.507 267.015 611.229C244.693 641.894 227.651 680.657 228.996 725.093C229.146 730.061 225.241 734.211 220.272 734.361C215.304 734.511 211.155 730.606 211.004 725.637C209.505 676.105 228.537 633.503 252.463 600.636C276.346 567.826 305.485 544.173 325.381 532.276C329.647 529.725 335.173 531.115 337.724 535.381ZM403.501 564.258C406.673 568.085 406.141 573.759 402.314 576.93C378.877 596.35 344.793 632.564 319.451 677.502C294.091 722.473 278.022 775.193 288.819 828.204C289.811 833.074 286.667 837.827 281.796 838.819C276.926 839.811 272.173 836.667 271.181 831.796C259.197 772.96 277.239 715.711 303.773 668.66C330.324 621.576 365.917 583.713 390.829 563.07C394.656 559.899 400.33 560.43 403.501 564.258ZM657.831 644.408C662.655 643.21 667.537 646.15 668.735 650.974C675.496 678.207 684.57 724.367 689.949 774.787C695.315 825.082 697.084 880.322 688.854 925.395C687.961 930.284 683.273 933.524 678.383 932.631C673.494 931.739 670.253 927.051 671.146 922.161C678.916 879.615 677.352 826.389 672.051 776.697C666.763 727.131 657.837 681.782 651.265 655.312C650.068 650.487 653.007 645.606 657.831 644.408ZM778.284 691.165C783.164 690.218 787.887 693.405 788.835 698.284C793.153 720.522 798.835 755.752 801.865 789.332C803.38 806.115 804.248 822.657 803.92 837.042C803.598 851.132 802.124 864.22 798.319 873.435C796.422 878.029 791.16 880.216 786.565 878.319C781.971 876.422 779.784 871.16 781.681 866.565C784.137 860.618 785.611 850.38 785.924 836.631C786.231 823.178 785.42 807.372 783.938 790.949C780.975 758.118 775.397 723.509 771.165 701.716C770.218 696.836 773.405 692.113 778.284 691.165Z" fill="#FF599F"/>
<path fill-rule="evenodd" clip-rule="evenodd" d="M460.191 153.748C464.523 153.665 468.949 153.783 473.457 154.131C482.267 154.812 489.961 148.221 490.642 139.411C491.322 130.601 484.732 122.907 475.922 122.226C460.238 121.015 445.432 122.072 431.888 124.514C415.333 127.5 400.616 132.563 388.375 138.142C373.655 144.851 362.083 152.505 354.955 158.679C348.276 164.464 347.55 174.568 353.335 181.248C359.12 187.928 369.225 188.653 375.905 182.868C377.607 181.394 379.947 179.6 382.875 177.631L390.916 226.806C392.342 235.527 400.568 241.441 409.289 240.015C418.009 238.588 423.923 230.363 422.497 221.642L412.855 162.683C417.118 161.136 421.636 159.711 426.377 158.474L452.032 205.999C456.23 213.775 465.937 216.676 473.712 212.478C481.488 208.28 484.389 198.574 480.191 190.798L460.191 153.748ZM285.097 216.994C287.02 210.258 293.101 205.557 300.104 205.391L346.218 204.299C355.052 204.09 362.383 211.082 362.592 219.916C362.801 228.75 355.809 236.081 346.975 236.29L312.635 237.103L303.054 270.666C300.628 279.163 291.773 284.085 283.276 281.659C274.779 279.233 269.857 270.378 272.283 261.881L285.097 216.994ZM244.957 239.699C249.75 247.123 247.617 257.027 240.193 261.819C238.67 262.802 237.076 263.948 235.42 265.247L284.242 311.113C290.683 317.163 290.999 327.289 284.948 333.729C278.898 340.17 268.772 340.486 262.332 334.436L212.841 287.942C208.318 293.295 203.888 298.947 199.7 304.585L241.382 358.715C246.774 365.717 245.468 375.763 238.467 381.154C231.466 386.546 221.42 385.24 216.028 378.239L180.717 332.382C179.403 334.486 178.223 336.427 177.195 338.164C172.692 345.767 162.878 348.281 155.275 343.778C147.672 339.276 145.158 329.462 149.66 321.859C153.707 315.025 159.62 305.748 166.644 295.72C176.179 282.108 188.085 266.648 200.437 253.952C207.483 246.71 215.085 239.939 222.837 234.935C230.261 230.142 240.164 232.275 244.957 239.699Z" fill="#FF599F"/>
<path fill-rule="evenodd" clip-rule="evenodd" d="M238.94 758.966C239.512 763.903 235.972 768.369 231.034 768.94C222.17 769.966 209.183 774.664 199.742 785.141C190.661 795.22 183.929 811.67 188.851 838.368C189.752 843.256 186.52 847.95 181.632 848.851C176.744 849.752 172.05 846.52 171.149 841.632C165.354 810.196 173.055 787.869 186.37 773.092C199.326 758.714 216.698 752.479 228.966 751.06C233.903 750.488 238.369 754.028 238.94 758.966Z" fill="#FF599F"/>
<path fill-rule="evenodd" clip-rule="evenodd" d="M64.5911 574.066C64.4953 573.88 64.4052 573.691 64.3209 573.499L35.8466 508.529C21.9836 476.898 36.3874 440.018 68.0183 426.156C99.6491 412.293 136.529 426.696 150.392 458.327L178.866 523.297C178.951 523.491 179.03 523.686 179.102 523.884C179.327 524.364 179.546 524.848 179.76 525.337L207.919 589.586C221.782 621.217 207.378 658.097 175.747 671.96C144.116 685.822 107.236 671.419 93.3732 639.788L65.2148 575.539C65.0001 575.049 64.7922 574.558 64.5911 574.066ZM86.4752 574.621L111.546 631.823C121.01 653.418 146.188 663.252 167.783 653.787C189.377 644.323 199.211 619.145 189.746 597.55L164.676 540.347L86.4752 574.621Z" fill="#FF599F"/>
</svg>
