<svg width="1000" height="1000" viewBox="0 0 1000 1000" fill="none" xmlns="http://www.w3.org/2000/svg">
<path fill-rule="evenodd" clip-rule="evenodd" d="M500 948C747.424 948 948 747.424 948 500C948 252.576 747.424 52 500 52C252.576 52 52 252.576 52 500C52 747.424 252.576 948 500 948ZM500 1000C776.142 1000 1000 776.142 1000 500C1000 223.858 776.142 0 500 0C223.858 0 0 223.858 0 500C0 776.142 223.858 1000 500 1000Z" fill="#FF599F"/>
<path fill-rule="evenodd" clip-rule="evenodd" d="M604.598 279.29C516.415 286.592 439.557 321.56 404.932 359.741C307.879 466.76 250.236 550.833 230.135 623.009C220.193 658.708 219.508 691.284 227.695 722.37C235.909 753.557 253.298 784.163 280.879 815.461C377.498 925.104 451.351 949.983 514.998 948.291C547.634 947.424 578.585 939.567 610.438 930.652C613.794 929.713 617.165 928.76 620.552 927.802C648.813 919.814 678.161 911.518 708.36 908.399C716.326 907.577 723.45 913.368 724.273 921.333C725.095 929.299 719.304 936.424 711.339 937.246C683.797 940.09 656.952 947.666 628.348 955.738C625.009 956.68 621.646 957.63 618.254 958.579C586.316 967.518 552.322 976.309 515.769 977.281C441.04 979.268 359.543 948.591 259.121 834.634C229.352 800.853 209.286 766.339 199.651 729.755C189.989 693.069 191.061 655.221 202.198 615.229C224.257 536.024 286.057 447.653 383.45 340.259C424.634 294.845 509.518 258.064 602.205 250.389C695.511 242.663 799.995 264.13 879.943 339.446C885.772 344.937 886.046 354.114 880.554 359.943C875.063 365.772 865.886 366.045 860.057 360.554C787.68 292.371 692.164 272.04 604.598 279.29Z" fill="#FF599F"/>
<path fill-rule="evenodd" clip-rule="evenodd" d="M713.701 207.572C722.304 227.366 725.322 250.333 724.339 270.699C723.953 278.698 717.155 284.869 709.156 284.483C701.158 284.097 694.986 277.299 695.373 269.301C696.189 252.397 693.581 234.032 687.104 219.133C680.659 204.305 671.085 194.277 658.452 190.519C645.647 186.709 626.103 188.255 597.485 204.515C568.909 220.752 532.864 250.823 488.367 300.944C483.051 306.933 473.886 307.477 467.897 302.161C461.909 296.844 461.364 287.68 466.68 281.691C512.247 230.364 550.724 197.73 583.159 179.301C615.553 160.896 643.509 155.817 666.721 162.723C690.105 169.679 705.065 187.706 713.701 207.572Z" fill="#FF599F"/>
<path fill-rule="evenodd" clip-rule="evenodd" d="M639.701 171.926C644.054 177.283 643.241 185.156 637.884 189.51C628.862 196.842 615.358 210.99 605.096 225.96C599.98 233.424 595.987 240.637 593.688 246.933C591.291 253.494 591.318 257.454 591.93 259.412C593.991 266.001 590.32 273.012 583.731 275.073C577.142 277.134 570.13 273.463 568.07 266.874C565.063 257.26 567.03 247.049 570.205 238.356C573.477 229.397 578.687 220.27 584.475 211.826C596.023 194.979 611.138 179.031 622.116 170.109C627.474 165.755 635.347 166.569 639.701 171.926Z" fill="#FF599F"/>
<path fill-rule="evenodd" clip-rule="evenodd" d="M875.377 366.961C841.034 365.775 803.449 374.81 780.266 383.565C772.774 386.394 764.407 382.615 761.578 375.123C758.749 367.631 762.528 359.264 770.02 356.435C795.705 346.735 837.189 336.624 876.378 337.978C915.116 339.317 956.929 352.353 973.503 394.717C991.18 439.9 992.269 481.246 980.517 513.426C968.699 545.785 943.857 568.496 911.843 574.27C903.962 575.691 896.421 570.454 895 562.573C893.579 554.692 898.815 547.151 906.696 545.73C927.318 542.011 944.539 527.405 953.277 503.478C962.08 479.373 962.217 445.465 946.497 405.283C936.353 379.355 910.171 368.163 875.377 366.961Z" fill="#FF599F"/>
<path fill-rule="evenodd" clip-rule="evenodd" d="M882.167 456.037C871.443 458.984 858.548 461.467 846.816 457.806C840.226 455.749 836.551 448.739 838.607 442.149C840.664 435.559 847.674 431.884 854.264 433.941C858.553 435.279 865.255 434.758 875.541 431.931C880.434 430.586 885.559 428.899 891.081 427.073L891.52 426.928C896.801 425.18 902.437 423.316 908.026 421.747C919.166 418.62 932.218 416.005 944.457 418.775C957.952 421.83 968.492 430.907 974.824 446.547C977.415 452.946 974.328 460.234 967.929 462.824C961.53 465.415 954.243 462.328 951.652 455.929C947.984 446.871 943.442 444.178 938.938 443.158C933.177 441.854 925.313 442.861 914.783 445.817C909.753 447.229 904.587 448.937 899.127 450.743L898.931 450.808C893.512 452.601 887.78 454.494 882.167 456.037Z" fill="#FF599F"/>
<path fill-rule="evenodd" clip-rule="evenodd" d="M842.611 618.536C843.419 630.659 834.247 641.143 822.124 641.951C716.536 648.993 652.166 648.994 590.006 648.994H590C577.85 648.994 568 639.144 568 626.994C568 614.844 577.85 604.994 590 604.994H590.02C651.84 604.994 715.071 604.993 819.196 598.049C831.319 597.24 841.802 606.413 842.611 618.536Z" fill="#FF599F"/>
<path fill-rule="evenodd" clip-rule="evenodd" d="M337.92 449.495C348.239 443.081 361.805 446.246 368.219 456.565C371.065 461.144 373.749 465.464 376.284 469.544C397.337 503.431 408.105 520.763 416.082 532.096C424.215 543.65 428.836 548.154 440.655 559.353C449.475 567.71 449.849 581.635 441.492 590.455C433.135 599.274 419.21 599.649 410.391 591.292C397.946 579.499 390.788 572.604 380.102 557.422C371.345 544.982 359.809 526.41 339.242 493.299C336.598 489.044 333.806 484.548 330.85 479.794C324.436 469.475 327.601 455.91 337.92 449.495Z" fill="#FF599F"/>
<path d="M447.571 621.908C444.692 602.031 457.2 597.618 465.699 608.356C469.516 613.177 478.006 616.478 491.384 616.387C513.667 616.235 507.353 629.276 503.629 634.544C484.943 652.206 452.638 656.896 447.571 621.908Z" fill="#FF599F"/>
<path fill-rule="evenodd" clip-rule="evenodd" d="M452.115 603.22C456.258 600.791 461.77 602.586 466.091 608.046C469.761 612.682 478.051 615.977 491.381 615.887C496.989 615.849 500.865 616.638 503.451 617.975C506.061 619.324 507.349 621.228 507.75 623.339C508.146 625.42 507.67 627.642 506.886 629.645C506.099 631.655 504.983 633.494 504.037 634.832C504.018 634.859 503.996 634.884 503.972 634.907C494.559 643.805 481.676 649.477 470.448 648.468C464.821 647.962 459.606 645.775 455.479 641.473C451.356 637.175 448.354 630.801 447.076 621.98C445.628 611.982 448.013 605.626 452.115 603.22ZM452.621 604.083C449.064 606.168 446.635 611.957 448.066 621.836C449.322 630.509 452.258 636.67 456.201 640.781C460.14 644.888 465.12 646.985 470.538 647.472C481.386 648.447 493.98 642.959 503.249 634.214C504.158 632.923 505.214 631.173 505.954 629.281C506.705 627.362 507.113 625.345 506.768 623.526C506.428 621.738 505.348 620.081 502.992 618.863C500.611 617.633 496.92 616.849 491.388 616.887C477.962 616.978 469.27 613.673 465.307 608.666C461.129 603.388 456.137 602.021 452.621 604.083Z" fill="#FF599F"/>
<path fill-rule="evenodd" clip-rule="evenodd" d="M578.34 723.841C584.336 728.178 589.731 733.182 593.112 738.903C593.911 740.254 594.549 741.969 594.966 743.136C595.483 744.584 596.062 746.376 596.675 748.425C597.905 752.535 599.347 757.925 600.786 764.14C603.656 776.535 606.59 792.535 607.756 808.461C608.902 824.122 608.438 840.878 603.664 854.127C601.233 860.873 597.484 867.274 591.719 872.008C585.801 876.868 578.451 879.395 570 879.395C567.609 879.395 564.987 879.421 562.158 879.448C524.138 879.816 448.674 880.546 391.211 824.908C379.142 813.222 370.16 789.756 370.405 764.437C370.657 738.463 380.575 709.215 408.124 686.198C412.906 682.203 419.659 680.862 425.422 680.33C431.696 679.752 439.133 679.964 447.122 680.725C463.152 682.251 482.622 686.107 501.925 691.426C521.231 696.746 540.752 703.635 556.827 711.377C564.862 715.246 572.229 719.421 578.34 723.841ZM420.998 701.536C420.931 701.565 420.917 701.572 420.947 701.546C398.44 720.351 390.606 743.765 390.404 764.63C390.196 786.149 398.058 803.698 405.123 810.539C456.425 860.212 523.935 859.716 562.314 859.434C565.027 859.414 567.594 859.395 570 859.395C574.252 859.395 577.005 858.212 579.027 856.552C581.202 854.766 583.23 851.838 584.848 847.347C588.172 838.124 588.896 824.778 587.809 809.921C586.741 795.328 584.02 780.393 581.301 768.651C579.946 762.797 578.61 757.818 577.515 754.16C576.965 752.324 576.495 750.882 576.13 749.859C575.918 749.267 575.787 748.945 575.736 748.819C574.292 746.507 571.408 743.51 566.619 740.046C561.761 736.533 555.505 732.938 548.149 729.396C533.441 722.313 515.113 715.805 496.612 710.707C478.107 705.608 459.812 702.023 445.227 700.635C437.909 699.938 431.828 699.825 427.258 700.246C423.022 700.637 421.336 701.385 420.998 701.536Z" fill="#FF599F"/>
<path fill-rule="evenodd" clip-rule="evenodd" d="M662.024 330.452C618.572 353.588 571.625 387.698 543.01 439.344C535.114 453.596 517.161 458.748 502.909 450.852C488.658 442.956 483.506 425.002 491.402 410.751C527.867 344.937 586.078 304.047 634.294 278.374C658.553 265.457 680.896 256.077 697.265 249.334C698.606 248.782 699.888 248.254 701.116 247.749C707.635 245.069 712.6 243.028 716.444 241.289C718.658 240.288 719.854 239.673 720.382 239.373C719.721 239.811 718.136 240.978 716.434 242.923L760.836 281.775C756.73 286.467 751.877 289.331 749.655 290.599C746.789 292.235 743.664 293.732 740.756 295.047C735.89 297.248 729.758 299.768 723.305 302.419C722.125 302.904 720.933 303.394 719.737 303.886C703.716 310.486 683.598 318.964 662.024 330.452ZM720.409 239.358C720.401 239.363 720.391 239.368 720.382 239.373C720.776 239.113 720.842 239.111 720.409 239.358ZM737.552 408.187C700.328 431.83 664.359 461.594 641.078 485.37C629.679 497.011 611.002 497.207 599.361 485.808C587.72 474.409 587.524 455.732 598.922 444.091C625.461 416.989 664.98 384.387 705.919 358.384C726.44 345.35 747.881 333.612 768.704 325.051C789.175 316.633 810.916 310.5 831.492 310.5C847.785 310.5 860.992 323.708 860.992 340C860.992 356.292 847.785 369.5 831.492 369.5C821.811 369.5 808.213 372.598 791.141 379.618C774.419 386.493 756.111 396.399 737.552 408.187Z" fill="#FF599F"/>
<path fill-rule="evenodd" clip-rule="evenodd" d="M331.083 580.153C336.521 583.433 338.271 590.501 334.99 595.94L304.831 645.94C301.551 651.378 294.483 653.128 289.044 649.847C283.606 646.567 281.856 639.499 285.137 634.06L315.296 584.06C318.576 578.622 325.644 576.872 331.083 580.153ZM297.374 581.175C302.247 585.247 302.897 592.5 298.825 597.374L278.825 621.31C274.753 626.184 267.5 626.834 262.626 622.761C257.753 618.689 257.103 611.437 261.175 606.563L281.175 582.626C285.247 577.753 292.5 577.103 297.374 581.175ZM366.183 595.51C371.538 598.925 373.111 606.034 369.696 611.389L353.887 636.183C350.472 641.538 343.363 643.111 338.008 639.696C332.652 636.282 331.079 629.172 334.494 623.817L350.304 599.023C353.718 593.668 360.828 592.095 366.183 595.51ZM690.799 686.872C696.034 690.469 697.361 697.629 693.763 702.863L663.763 746.514C660.166 751.748 653.006 753.075 647.772 749.477C642.538 745.88 641.211 738.721 644.808 733.486L674.808 689.836C678.406 684.601 685.565 683.274 690.799 686.872ZM725.143 699.714C730.824 702.555 733.126 709.462 730.286 715.143L710.286 755.143C707.445 760.824 700.538 763.126 694.857 760.286C689.176 757.445 686.874 750.538 689.714 744.857L709.714 704.857C712.555 699.176 719.462 696.874 725.143 699.714ZM763.414 713.272C769.479 715.158 772.867 721.603 770.982 727.668L756.759 773.414C754.874 779.479 748.429 782.867 742.364 780.982C736.299 779.096 732.911 772.651 734.796 766.586L749.018 720.84C750.904 714.775 757.349 711.387 763.414 713.272Z" fill="#FF599F"/>
<path fill-rule="evenodd" clip-rule="evenodd" d="M452.843 686.577C454.734 691.174 452.54 696.433 447.943 698.323C436.903 702.863 422.12 711.791 412.427 728.635C402.838 745.296 397.447 771.068 407.646 810.933C408.878 815.749 405.973 820.651 401.158 821.883C396.342 823.115 391.44 820.21 390.208 815.395C379.13 772.096 384.378 741.286 396.826 719.656C409.169 698.209 427.82 687.136 441.097 681.676C445.694 679.786 450.953 681.98 452.843 686.577Z" fill="#FF599F"/>
<path fill-rule="evenodd" clip-rule="evenodd" d="M477.539 687.82C481.881 690.239 483.44 695.721 481.021 700.063C478.304 704.939 475.299 712.579 474.76 719.474C474.233 726.226 476.03 729.961 479.999 731.969C488.63 736.336 499.558 737.232 508.662 734.551C517.606 731.918 523.74 726.269 525.466 718.132C526.497 713.27 531.275 710.164 536.138 711.196C541 712.227 544.105 717.005 543.074 721.868C539.641 738.048 527.323 747.821 513.747 751.818C500.331 755.768 484.672 754.506 471.874 748.031C458.7 741.366 455.999 728.522 456.815 718.073C457.619 707.766 461.797 697.584 465.297 691.302C467.716 686.96 473.197 685.401 477.539 687.82Z" fill="#FF599F"/>
<path fill-rule="evenodd" clip-rule="evenodd" d="M168.649 774.435C180.853 755.655 204.128 750.721 220.157 751.001C225.127 751.088 229.086 755.188 228.999 760.157C228.912 765.127 224.812 769.086 219.843 768.999C206.222 768.76 190.915 773.204 183.742 784.243C176.932 794.722 174.684 815.689 197.784 855.482C200.279 859.78 198.817 865.288 194.518 867.784C190.22 870.279 184.712 868.817 182.216 864.518C158.154 823.066 156.081 793.774 168.649 774.435Z" fill="#FF599F"/>
<path fill-rule="evenodd" clip-rule="evenodd" d="M64.5911 574.066C64.4954 573.88 64.4053 573.691 64.321 573.499L35.8466 508.529C21.9837 476.898 36.3875 440.018 68.0183 426.155C99.6492 412.293 136.529 426.696 150.392 458.327L178.867 523.297C178.951 523.49 179.03 523.686 179.102 523.884C179.327 524.364 179.546 524.848 179.76 525.337L207.919 589.586C221.782 621.216 207.378 658.096 175.747 671.959C144.116 685.822 107.236 671.419 93.3733 639.788L65.2148 575.539C65.0002 575.049 64.7923 574.558 64.5911 574.066ZM86.4753 574.621L111.546 631.823C121.01 653.418 146.188 663.251 167.783 653.787C189.377 644.323 199.211 619.145 189.747 597.55L164.676 540.347L86.4753 574.621Z" fill="#FF599F"/>
<path fill-rule="evenodd" clip-rule="evenodd" d="M221.155 403.169C223.186 400.392 227.083 399.788 229.859 401.819L262.348 425.587C265.124 427.618 265.728 431.515 263.697 434.292C261.666 437.068 257.769 437.672 254.992 435.641L222.504 411.873C219.728 409.842 219.124 405.945 221.155 403.169ZM237.336 381.05C239.367 378.273 243.265 377.669 246.041 379.7L278.529 403.468C281.306 405.499 281.91 409.396 279.879 412.173C277.848 414.949 273.95 415.553 271.174 413.522L238.686 389.754C235.909 387.723 235.305 383.826 237.336 381.05ZM253.518 358.931C255.549 356.154 259.446 355.55 262.223 357.581L294.711 381.349C297.487 383.38 298.091 387.277 296.06 390.054C294.029 392.83 290.132 393.434 287.356 391.403L254.867 367.635C252.091 365.604 251.487 361.707 253.518 358.931Z" fill="#FF599F"/>
<path fill-rule="evenodd" clip-rule="evenodd" d="M152.221 326.499C149.444 324.468 148.84 320.571 150.871 317.794C169.427 292.43 207.233 292.258 226.019 317.453L226.286 317.811C233.784 292.308 264.325 281.945 285.8 297.655L287.41 298.833C307.52 313.545 307.591 343.541 287.551 358.347C284.784 360.391 280.884 359.805 278.84 357.039C276.795 354.272 277.381 350.372 280.148 348.328C293.429 338.515 293.382 318.637 280.055 308.887L278.444 307.709C263.914 297.079 243.238 304.119 238.214 321.407L236 329.024C234.053 335.723 225.285 337.309 221.115 331.716L216.032 324.899C202.256 306.423 174.533 306.549 160.925 325.15C158.894 327.926 154.997 328.53 152.221 326.499Z" fill="#FF599F"/>
<path fill-rule="evenodd" clip-rule="evenodd" d="M159.576 316.445C156.799 314.414 152.902 315.018 150.871 317.794C132.315 343.159 143.597 379.242 173.298 389.519L173.72 389.665C151.684 404.532 151.054 436.778 172.528 452.488L174.139 453.666C194.249 468.378 222.858 459.364 230.902 435.781C232.013 432.525 230.274 428.985 227.018 427.875C223.762 426.764 220.222 428.503 219.112 431.759C213.781 447.388 194.822 453.362 181.494 443.612L179.884 442.434C165.353 431.803 165.803 409.966 180.759 399.943L187.348 395.528C193.143 391.644 191.999 382.807 185.407 380.526L177.371 377.746C155.591 370.21 147.318 343.75 160.925 325.15C162.956 322.373 162.352 318.476 159.576 316.445Z" fill="#FF599F"/>
<path fill-rule="evenodd" clip-rule="evenodd" d="M148.844 327.97C138.908 350.483 149.904 377.868 174.396 386.343L181.176 388.688L175.6 392.451C155.493 406.016 154.918 435.44 174.513 449.775L176.123 450.954C194.404 464.327 220.41 456.133 227.721 434.696C228.233 433.197 227.432 431.567 225.933 431.056C224.434 430.544 222.804 431.345 222.293 432.844C216.23 450.619 194.667 457.413 179.51 446.324L177.899 445.146C161.487 433.139 161.994 408.473 178.888 397.152L185.477 392.736C188.967 390.397 188.278 385.076 184.308 383.702L176.272 380.922C155.227 373.64 145.665 350.267 153.854 330.843C152.585 330.567 151.352 330.028 150.236 329.211C149.724 328.836 149.259 328.42 148.844 327.97ZM148.159 315.81C129.373 341.488 139.116 377.414 167.075 390.608C147.9 407.951 148.854 439.332 170.544 455.2L172.155 456.378C194.095 472.429 225.307 462.594 234.083 436.866C235.793 431.853 233.115 426.404 228.103 424.694C223.09 422.984 217.641 425.662 215.931 430.674C211.332 444.157 194.976 449.311 183.479 440.9L181.868 439.721C169.22 430.468 169.611 411.46 182.63 402.735L189.219 398.319C197.319 392.891 195.721 380.539 186.506 377.35L178.47 374.57C158.827 367.774 151.365 343.909 163.638 327.134C175.91 310.358 200.913 310.245 213.338 326.908L218.421 333.725C224.25 341.542 236.506 339.326 239.227 329.962L241.441 322.345C245.814 307.296 263.812 301.168 276.46 310.421L278.071 311.6C289.568 320.011 289.609 337.16 278.151 345.625C273.891 348.772 272.99 354.776 276.137 359.036C279.284 363.295 285.288 364.197 289.548 361.05C311.412 344.896 311.335 312.171 289.395 296.121L287.784 294.943C266.094 279.074 235.897 287.666 225.173 311.192C204.134 288.54 166.944 290.132 148.159 315.81ZM159.956 312.781C178.404 296.495 207.833 298.684 223.325 319.462L227.613 325.213L229.51 318.759C236.352 295.488 264.221 286.032 283.815 300.367L285.426 301.546C303.706 314.919 303.77 342.185 285.554 355.644C284.28 356.585 282.484 356.316 281.543 355.042C280.601 353.768 280.871 351.972 282.145 351.031C297.25 339.871 297.196 317.263 282.039 306.175L280.429 304.997C264.016 292.989 240.662 300.941 234.986 320.469L232.773 328.086C231.6 332.12 226.32 333.075 223.809 329.707L218.726 322.89C205.415 305.037 180.244 303.001 164.211 316.687C163.564 315.561 162.676 314.549 161.56 313.733C161.048 313.358 160.51 313.041 159.956 312.781ZM153.584 319.779C152.648 321.057 152.926 322.852 154.205 323.787C155.483 324.722 157.278 324.444 158.213 323.165C159.148 321.887 158.87 320.093 157.592 319.157C156.313 318.222 154.519 318.5 153.584 319.779ZM220.52 414.586C216.245 411.459 215.315 405.459 218.442 401.184C221.569 396.91 227.569 395.98 231.844 399.107L264.332 422.875C268.606 426.002 269.536 432.002 266.409 436.276C263.282 440.55 257.283 441.48 253.008 438.353L220.52 414.586ZM223.867 405.153C222.932 406.431 223.21 408.226 224.488 409.161L256.977 432.929C258.255 433.864 260.05 433.586 260.985 432.307C261.92 431.029 261.642 429.234 260.363 428.299L227.875 404.532C226.597 403.596 224.802 403.875 223.867 405.153ZM236.701 392.467C232.427 389.34 231.497 383.34 234.624 379.066C237.751 374.791 243.751 373.861 248.025 376.988L280.514 400.756C284.788 403.883 285.718 409.883 282.591 414.157C279.464 418.431 273.464 419.361 269.19 416.234L236.701 392.467ZM240.049 383.034C239.113 384.312 239.391 386.107 240.67 387.042L273.158 410.81C274.437 411.745 276.231 411.467 277.166 410.188C278.102 408.91 277.823 407.116 276.545 406.18L244.057 382.413C242.778 381.477 240.984 381.756 240.049 383.034ZM252.883 370.348C248.609 367.221 247.679 361.221 250.806 356.947C253.932 352.672 259.932 351.742 264.207 354.869L296.695 378.637C300.97 381.764 301.9 387.764 298.773 392.038C295.646 396.312 289.646 397.242 285.371 394.115L252.883 370.348ZM256.23 360.915C255.295 362.193 255.573 363.988 256.852 364.923L289.34 388.691C290.618 389.626 292.413 389.348 293.348 388.069C294.283 386.791 294.005 384.997 292.727 384.061L260.238 360.294C258.96 359.359 257.165 359.637 256.23 360.915Z" fill="#FF599F"/>
<path fill-rule="evenodd" clip-rule="evenodd" d="M349.649 233.339C353.522 232.225 357.565 234.461 358.679 238.334L371.722 283.652C372.837 287.525 370.601 291.568 366.728 292.683C362.855 293.797 358.812 291.561 357.697 287.689L344.655 242.37C343.54 238.497 345.776 234.454 349.649 233.339ZM380.503 224.46C384.376 223.345 388.419 225.581 389.533 229.454L402.576 274.773C403.691 278.645 401.455 282.688 397.582 283.803C393.709 284.918 389.666 282.682 388.551 278.809L375.509 233.49C374.394 229.617 376.63 225.574 380.503 224.46ZM411.357 215.58C415.23 214.465 419.273 216.701 420.388 220.574L433.43 265.893C434.545 269.766 432.309 273.809 428.436 274.923C424.563 276.038 420.52 273.802 419.406 269.929L406.363 224.61C405.248 220.738 407.484 216.695 411.357 215.58Z" fill="#FF599F"/>
<path fill-rule="evenodd" clip-rule="evenodd" d="M340.797 112.878C339.682 109.006 341.918 104.962 345.791 103.848C381.173 93.665 416.313 120.625 415.64 157.436L415.631 157.96C440.869 139.717 476.591 152.026 485.212 181.981L485.859 184.228C493.932 212.28 472.481 240.113 443.298 239.452C439.269 239.36 436.077 236.02 436.168 231.991C436.259 227.962 439.6 224.77 443.629 224.861C462.968 225.3 477.184 206.854 471.834 188.264L471.187 186.017C465.354 165.748 441.154 157.438 424.098 169.847L416.584 175.313C409.976 180.122 400.717 175.301 400.867 167.13L401.049 157.17C401.542 130.175 375.773 110.405 349.827 117.872C345.955 118.987 341.912 116.751 340.797 112.878Z" fill="#FF599F"/>
<path fill-rule="evenodd" clip-rule="evenodd" d="M354.822 108.842C353.707 104.969 349.664 102.733 345.791 103.848C310.409 114.031 294.976 155.545 315.114 186.368L315.4 186.806C284.326 184.769 260.612 214.184 269.233 244.139L269.879 246.386C277.952 274.438 310.917 286.611 335.284 270.538C338.648 268.319 339.576 263.793 337.357 260.429C335.138 257.065 330.612 256.136 327.248 258.355C311.1 269.007 289.254 260.94 283.904 242.35L283.257 240.103C277.424 219.834 293.504 199.931 314.547 201.375L323.817 202.012C331.97 202.572 337.25 193.567 332.78 186.725L327.331 178.385C312.564 155.783 323.881 125.34 349.827 117.872C353.7 116.758 355.936 112.715 354.822 108.842Z" fill="#FF599F"/>
<path fill-rule="evenodd" clip-rule="evenodd" d="M336.614 111.819C311.262 125.543 301.803 158.796 318.41 184.214L323.007 191.25L315.143 190.735C286.788 188.876 265.15 215.717 273.016 243.05L273.663 245.297C281.001 270.797 310.967 281.862 333.116 267.251C334.665 266.23 335.093 264.146 334.071 262.597C333.049 261.048 330.965 260.62 329.416 261.642C311.051 273.756 286.205 264.582 280.12 243.439L279.474 241.192C272.885 218.297 291.048 195.816 314.816 197.448L324.087 198.084C328.997 198.421 332.176 192.998 329.484 188.878L324.035 180.539C309.766 158.698 317.676 130.191 339.194 118.074C338.217 116.908 337.461 115.524 337.014 113.967C336.808 113.252 336.676 112.533 336.614 111.819ZM344.702 100.064C308.883 110.373 292.137 150.637 308.569 182.912C278.368 185.222 256.741 214.972 265.449 245.228L266.096 247.475C274.904 278.079 310.868 291.36 337.452 273.824C342.631 270.408 344.06 263.44 340.644 258.261C337.228 253.082 330.26 251.653 325.08 255.069C311.149 264.258 292.303 257.299 287.687 241.261L287.041 239.014C281.963 221.371 295.96 204.046 314.277 205.303L323.547 205.94C334.944 206.722 342.324 194.135 336.076 184.572L330.627 176.232C317.309 155.847 327.516 128.391 350.916 121.656C374.317 114.921 397.557 132.752 397.112 157.098L396.93 167.058C396.721 178.48 409.663 185.218 418.901 178.497L426.415 173.03C441.261 162.229 462.326 169.463 467.404 187.106L468.05 189.353C472.666 205.391 460.402 221.304 443.718 220.925C437.515 220.785 432.373 225.699 432.232 231.902C432.091 238.105 437.006 243.247 443.209 243.388C475.047 244.109 498.45 213.743 489.642 183.139L488.995 180.892C480.288 150.636 446.156 136.933 419.347 151.031C416.109 114.958 380.521 89.7557 344.702 100.064ZM357.801 105.721C386.571 103.87 412.258 127.007 411.704 157.364L411.55 165.767L417.937 161.151C440.966 144.504 473.562 155.737 481.428 183.07L482.075 185.317C489.414 210.816 469.915 236.117 443.387 235.516C441.532 235.474 440.062 233.936 440.104 232.08C440.146 230.225 441.684 228.755 443.539 228.797C465.535 229.296 481.702 208.318 475.617 187.175L474.971 184.928C468.382 162.034 441.047 152.647 421.782 166.663L414.268 172.13C410.289 175.025 404.713 172.122 404.803 167.202L404.985 157.242C405.462 131.157 383.608 111.216 358.941 112.391C359.15 110.884 359.053 109.31 358.605 107.753C358.399 107.038 358.129 106.359 357.801 105.721ZM346.88 107.631C345.097 108.145 344.067 110.006 344.581 111.789C345.094 113.573 346.955 114.602 348.739 114.089C350.522 113.576 351.551 111.714 351.038 109.931C350.525 108.148 348.663 107.118 346.88 107.631ZM340.871 243.459C339.155 237.496 342.598 231.272 348.56 229.556C354.522 227.84 360.747 231.282 362.463 237.245L375.505 282.564C377.221 288.526 373.779 294.75 367.817 296.466C361.854 298.182 355.63 294.74 353.914 288.778L340.871 243.459ZM350.738 237.123C348.954 237.636 347.925 239.498 348.438 241.281L361.481 286.6C361.994 288.383 363.856 289.413 365.639 288.899C367.422 288.386 368.452 286.525 367.938 284.741L354.896 239.423C354.383 237.639 352.521 236.61 350.738 237.123ZM371.725 234.579C370.009 228.617 373.452 222.392 379.414 220.676C385.376 218.96 391.601 222.403 393.317 228.365L406.36 273.684C408.076 279.646 404.633 285.871 398.671 287.587C392.708 289.302 386.484 285.86 384.768 279.898L371.725 234.579ZM381.592 228.243C379.809 228.756 378.779 230.618 379.292 232.401L392.335 277.72C392.848 279.503 394.71 280.533 396.493 280.02C398.276 279.506 399.306 277.645 398.793 275.861L385.75 230.543C385.237 228.76 383.375 227.73 381.592 228.243ZM402.58 225.699C400.864 219.737 404.306 213.512 410.268 211.796C416.231 210.08 422.455 213.523 424.171 219.485L437.214 264.804C438.93 270.766 435.487 276.991 429.525 278.707C423.563 280.423 417.338 276.98 415.622 271.018L402.58 225.699ZM412.446 219.363C410.663 219.877 409.633 221.738 410.147 223.521L423.189 268.84C423.702 270.623 425.564 271.653 427.347 271.14C429.13 270.627 430.16 268.765 429.647 266.982L416.604 221.663C416.091 219.88 414.229 218.85 412.446 219.363Z" fill="#FF599F"/>
</svg>
