<svg width="1000" height="1000" viewBox="0 0 1000 1000" fill="none" xmlns="http://www.w3.org/2000/svg">
<path fill-rule="evenodd" clip-rule="evenodd" d="M500 948C747.424 948 948 747.424 948 500C948 252.576 747.424 52 500 52C252.576 52 52 252.576 52 500C52 747.424 252.576 948 500 948ZM500 1000C776.142 1000 1000 776.142 1000 500C1000 223.858 776.142 0 500 0C223.858 0 0 223.858 0 500C0 776.142 223.858 1000 500 1000Z" fill="#FF599F"/>
<path fill-rule="evenodd" clip-rule="evenodd" d="M604.598 279.29C516.415 286.592 439.557 321.56 404.932 359.741C307.879 466.76 250.236 550.833 230.135 623.009C220.193 658.708 219.508 691.284 227.695 722.37C235.909 753.557 253.298 784.163 280.879 815.461C377.498 925.104 451.351 949.983 514.998 948.291C547.634 947.424 578.585 939.567 610.438 930.652C613.794 929.713 617.165 928.76 620.552 927.802C648.813 919.814 678.161 911.518 708.36 908.399C716.326 907.577 723.45 913.368 724.273 921.333C725.095 929.299 719.304 936.424 711.339 937.246C683.797 940.09 656.952 947.666 628.348 955.738C625.009 956.68 621.646 957.63 618.254 958.579C586.316 967.518 552.322 976.309 515.769 977.281C441.04 979.268 359.543 948.591 259.121 834.634C229.352 800.853 209.286 766.339 199.651 729.755C189.989 693.069 191.061 655.221 202.198 615.229C224.257 536.024 286.057 447.653 383.45 340.259C424.634 294.845 509.518 258.064 602.205 250.389C695.511 242.663 799.995 264.13 879.943 339.446C885.772 344.937 886.046 354.114 880.554 359.943C875.063 365.772 865.886 366.045 860.057 360.554C787.68 292.371 692.164 272.04 604.598 279.29Z" fill="#FF599F"/>
<path fill-rule="evenodd" clip-rule="evenodd" d="M713.701 207.572C722.304 227.366 725.322 250.333 724.339 270.699C723.953 278.698 717.155 284.869 709.156 284.483C701.158 284.097 694.986 277.299 695.373 269.301C696.189 252.397 693.581 234.032 687.104 219.133C680.659 204.305 671.085 194.277 658.452 190.519C645.647 186.709 626.103 188.255 597.485 204.515C568.909 220.752 532.864 250.823 488.367 300.944C483.051 306.933 473.886 307.477 467.897 302.161C461.909 296.844 461.364 287.68 466.68 281.691C512.247 230.364 550.724 197.73 583.159 179.301C615.553 160.896 643.509 155.817 666.721 162.723C690.105 169.679 705.065 187.706 713.701 207.572Z" fill="#FF599F"/>
<path fill-rule="evenodd" clip-rule="evenodd" d="M639.701 171.926C644.054 177.283 643.241 185.156 637.884 189.51C628.862 196.842 615.358 210.99 605.096 225.96C599.98 233.424 595.987 240.637 593.688 246.933C591.291 253.494 591.318 257.454 591.93 259.412C593.991 266.001 590.32 273.012 583.731 275.073C577.142 277.134 570.13 273.463 568.07 266.874C565.063 257.26 567.03 247.049 570.205 238.356C573.477 229.397 578.687 220.27 584.475 211.826C596.023 194.979 611.138 179.031 622.116 170.109C627.474 165.755 635.347 166.569 639.701 171.926Z" fill="#FF599F"/>
<path fill-rule="evenodd" clip-rule="evenodd" d="M875.377 366.961C841.034 365.775 803.449 374.81 780.266 383.565C772.774 386.394 764.407 382.615 761.578 375.123C758.749 367.631 762.528 359.264 770.02 356.435C795.705 346.735 837.189 336.624 876.378 337.978C915.116 339.317 956.929 352.353 973.503 394.717C991.18 439.9 992.269 481.246 980.517 513.426C968.699 545.785 943.857 568.496 911.843 574.27C903.962 575.691 896.421 570.454 895 562.573C893.579 554.692 898.815 547.151 906.696 545.73C927.318 542.011 944.539 527.405 953.277 503.478C962.08 479.373 962.217 445.465 946.497 405.283C936.353 379.355 910.171 368.163 875.377 366.961Z" fill="#FF599F"/>
<path fill-rule="evenodd" clip-rule="evenodd" d="M882.167 456.037C871.443 458.984 858.548 461.467 846.816 457.806C840.226 455.749 836.551 448.739 838.607 442.149C840.664 435.559 847.674 431.884 854.264 433.941C858.553 435.279 865.255 434.758 875.541 431.931C880.434 430.586 885.559 428.899 891.081 427.073L891.52 426.928C896.801 425.18 902.437 423.316 908.026 421.747C919.166 418.62 932.218 416.005 944.457 418.775C957.952 421.83 968.492 430.907 974.824 446.547C977.415 452.946 974.328 460.234 967.929 462.824C961.53 465.415 954.243 462.328 951.652 455.929C947.984 446.871 943.442 444.178 938.938 443.158C933.177 441.854 925.313 442.861 914.783 445.817C909.753 447.229 904.587 448.937 899.127 450.743L898.931 450.808C893.512 452.601 887.78 454.494 882.167 456.037Z" fill="#FF599F"/>
<path fill-rule="evenodd" clip-rule="evenodd" d="M283.139 585.525C283.415 573.378 293.486 563.755 305.633 564.031L305.134 586.025L304.634 608.019C292.487 607.743 282.863 597.672 283.139 585.525ZM305.134 586.025C304.634 608.019 304.634 608.019 304.634 608.019L305.017 608.028C305.275 608.034 305.661 608.043 306.168 608.055C307.184 608.08 308.689 608.116 310.635 608.165C314.527 608.263 320.186 608.411 327.238 608.611C341.344 609.009 361.01 609.612 383.248 610.429C427.83 612.067 482.36 614.552 523.152 617.949C599.958 624.345 679.79 638.445 734.138 648.044C751.035 651.029 765.469 653.578 776.583 655.325C788.586 657.213 799.846 649.012 801.733 637.01C803.62 625.007 795.42 613.747 783.417 611.859C773.31 610.27 759.716 607.868 743.522 605.006C689.302 595.423 605.946 580.691 526.803 574.101C484.929 570.614 429.537 568.1 384.864 566.458C362.474 565.636 342.679 565.029 328.48 564.628C321.38 564.428 315.676 564.278 311.744 564.179C309.778 564.13 308.254 564.093 307.22 564.068C306.703 564.055 306.309 564.046 306.042 564.04L305.636 564.031C305.636 564.031 305.633 564.031 305.134 586.025Z" fill="#FF599F"/>
<path fill-rule="evenodd" clip-rule="evenodd" d="M328.948 480.421C334.513 469.62 347.781 465.376 358.582 470.942L348.505 490.498C358.582 470.942 358.583 470.942 358.585 470.943L358.892 471.102C359.084 471.202 359.365 471.347 359.73 471.537C360.46 471.917 361.527 472.475 362.901 473.197C365.649 474.643 369.625 476.75 374.585 479.423C384.5 484.767 398.369 492.383 414.229 501.494C445.787 519.622 485.866 544.032 518.348 568.436C559.798 599.576 614.918 645.998 659.369 684.346C681.662 703.578 701.392 720.884 715.55 733.383C722.629 739.633 728.319 744.684 732.241 748.175C734.203 749.921 735.723 751.277 736.755 752.199C737.271 752.659 737.664 753.011 737.93 753.249L738.336 753.612C738.336 753.612 738.338 753.614 723.658 770C708.978 786.386 708.977 786.385 708.977 786.385L708.973 786.381L708.595 786.043C708.338 785.813 707.953 785.469 707.446 785.016C706.432 784.111 704.931 782.771 702.989 781.043C699.105 777.587 693.461 772.575 686.429 766.368C672.365 753.951 652.765 736.759 630.628 717.661C586.219 679.35 532.076 633.784 491.919 603.614C461.606 580.841 423.37 557.488 392.313 539.647C376.865 530.773 363.351 523.352 353.71 518.156C348.891 515.559 345.046 513.521 342.417 512.138C341.103 511.447 340.093 510.919 339.418 510.568C339.08 510.392 338.826 510.261 338.66 510.175L338.428 510.055L338.426 510.054C327.627 504.488 323.383 491.221 328.948 480.421ZM723.658 770L708.978 786.386C718.027 794.493 731.936 793.73 740.044 784.68C748.151 775.63 747.388 761.722 738.338 753.614L723.658 770Z" fill="#FF599F"/>
<path fill-rule="evenodd" clip-rule="evenodd" d="M210.918 316.958C207.104 314.221 206.231 308.91 208.967 305.096L215.873 310.052L222.779 315.007C220.043 318.821 214.732 319.695 210.918 316.958ZM215.873 310.052L222.779 315.007L222.985 314.721C223.122 314.531 223.325 314.248 223.589 313.883C224.116 313.152 224.885 312.089 225.845 310.766C227.766 308.12 230.454 304.436 233.519 300.289C239.673 291.962 247.258 281.887 253.203 274.576C264.385 260.827 277.363 247.564 286.33 238.399C289.154 235.512 291.581 233.033 293.428 231.072C296.647 227.656 296.487 222.276 293.07 219.057C289.654 215.837 284.274 215.997 281.055 219.414C279.478 221.088 277.281 223.332 274.649 226.021C265.716 235.148 251.768 249.398 240.015 263.85C233.804 271.486 226.022 281.83 219.847 290.185C216.747 294.38 214.03 298.103 212.088 300.779C211.117 302.117 210.338 303.194 209.802 303.937C209.534 304.309 209.326 304.597 209.185 304.793L208.967 305.096C208.967 305.096 208.967 305.096 215.873 310.052Z" fill="#FF599F"/>
<path fill-rule="evenodd" clip-rule="evenodd" d="M191.884 277.334C190.489 272.852 192.991 268.087 197.473 266.691L200 274.806C197.473 266.691 197.474 266.69 197.474 266.69L197.556 266.665L197.773 266.598C197.96 266.541 198.232 266.458 198.583 266.352C199.283 266.14 200.295 265.838 201.563 265.469C204.098 264.73 207.664 263.722 211.809 262.636C220.029 260.482 230.797 257.949 240.357 256.666C252.415 255.049 269.201 253.743 282.811 252.845C289.65 252.394 295.748 252.042 300.138 251.802C302.333 251.683 304.102 251.591 305.324 251.53C305.935 251.499 306.41 251.475 306.732 251.46L307.229 251.436C307.229 251.436 307.23 251.436 307.572 258.686L307.229 251.436C311.919 251.214 315.9 254.836 316.121 259.526C316.343 264.215 312.721 268.195 308.031 268.417L308.001 267.768C308.031 268.417 308.031 268.417 308.031 268.417L307.56 268.439C307.247 268.455 306.782 268.478 306.181 268.508C304.979 268.569 303.233 268.659 301.063 268.777C296.721 269.014 290.689 269.362 283.93 269.808C270.342 270.704 254.056 271.981 242.618 273.515C234.097 274.659 224.122 276.983 216.118 279.081C212.151 280.12 208.736 281.086 206.316 281.79C205.108 282.142 204.15 282.429 203.5 282.625C203.174 282.723 202.926 282.799 202.762 282.85L202.579 282.906L202.527 282.922M191.884 277.334C193.28 281.816 198.045 284.318 202.527 282.922L191.884 277.334Z" fill="#FF599F"/>
<path fill-rule="evenodd" clip-rule="evenodd" d="M662.024 330.452C618.572 353.588 571.625 387.698 543.01 439.344C535.114 453.596 517.161 458.748 502.909 450.852C488.658 442.956 483.506 425.002 491.402 410.751C527.867 344.937 586.078 304.047 634.294 278.374C658.553 265.457 680.896 256.077 697.265 249.334C698.606 248.782 699.888 248.254 701.116 247.749C707.635 245.069 712.6 243.028 716.444 241.289C718.658 240.288 719.854 239.673 720.382 239.373C719.721 239.811 718.136 240.978 716.434 242.923L760.836 281.775C756.73 286.467 751.877 289.331 749.655 290.599C746.789 292.235 743.664 293.732 740.756 295.047C735.89 297.248 729.758 299.768 723.305 302.419C722.125 302.904 720.933 303.394 719.737 303.886C703.716 310.486 683.598 318.964 662.024 330.452ZM720.409 239.358C720.401 239.363 720.391 239.368 720.382 239.373C720.776 239.113 720.842 239.111 720.409 239.358ZM737.552 408.187C700.328 431.83 664.359 461.594 641.078 485.37C629.679 497.011 611.002 497.207 599.361 485.808C587.72 474.409 587.524 455.732 598.922 444.091C625.461 416.989 664.98 384.387 705.919 358.384C726.44 345.35 747.881 333.612 768.704 325.051C789.175 316.633 810.916 310.5 831.492 310.5C847.785 310.5 860.992 323.708 860.992 340C860.992 356.292 847.785 369.5 831.492 369.5C821.811 369.5 808.213 372.598 791.141 379.618C774.419 386.493 756.111 396.399 737.552 408.187Z" fill="#FF599F"/>
<path fill-rule="evenodd" clip-rule="evenodd" d="M433.269 722.138C437.611 724.557 439.17 730.038 436.751 734.38C435.808 736.072 434.361 739.98 433.054 745.582C431.793 750.991 430.813 757.331 430.507 763.535C430.196 769.823 430.604 775.482 431.796 779.764C433.016 784.145 434.646 785.738 435.73 786.287C444.36 790.653 455.288 791.549 464.392 788.869C473.212 786.272 479.299 780.743 481.122 772.787L484.885 742.844C485.505 737.913 490.005 734.417 494.937 735.037C499.869 735.657 503.364 740.157 502.744 745.089L498.93 775.44C498.898 775.69 498.856 775.939 498.804 776.185C495.371 792.366 483.053 802.138 469.477 806.136C456.061 810.086 440.402 808.823 427.604 802.348C420.116 798.56 416.335 791.341 414.456 784.593C412.549 777.745 412.168 769.959 412.529 762.647C412.894 755.25 414.046 747.835 415.525 741.493C416.959 735.344 418.861 729.507 421.027 725.62C423.446 721.278 428.927 719.719 433.269 722.138Z" fill="#FF599F"/>
<path fill-rule="evenodd" clip-rule="evenodd" d="M401.478 712.197C403.077 707.491 408.188 704.971 412.894 706.569C432.95 713.381 452.318 719.61 469.759 725.205C470.558 725.461 471.354 725.716 472.145 725.97C488.577 731.241 503.283 735.958 515.001 740.023C519.697 741.652 522.184 746.779 520.555 751.475C518.926 756.171 513.798 758.658 509.102 757.029C497.591 753.036 483.07 748.378 466.527 743.072C465.776 742.831 465.02 742.588 464.261 742.345C446.823 736.751 427.323 730.479 407.106 723.613C402.399 722.015 399.88 716.904 401.478 712.197Z" fill="#FF599F"/>
<path fill-rule="evenodd" clip-rule="evenodd" d="M256.775 307.518C259.136 306.554 261.832 307.687 262.796 310.048C263.171 310.968 264.273 312.801 266.098 315.12C267.86 317.36 270.086 319.785 272.473 321.896C274.893 324.036 277.29 325.687 279.388 326.582C281.534 327.498 282.695 327.356 283.262 327.098C287.778 325.04 291.641 320.95 293.485 316.443C295.273 312.078 295.009 307.867 292.406 304.586L281.618 293.479C279.841 291.65 279.883 288.726 281.713 286.949C283.542 285.172 286.466 285.215 288.243 287.044L299.178 298.302C299.268 298.395 299.355 298.492 299.437 298.592C304.818 305.154 304.784 313.222 302.033 319.942C299.314 326.583 293.788 332.451 287.091 335.502C283.173 337.287 279.069 336.488 275.763 335.077C272.409 333.646 269.168 331.302 266.354 328.814C263.508 326.296 260.906 323.457 258.84 320.832C256.837 318.286 255.108 315.652 254.245 313.539C253.281 311.177 254.414 308.482 256.775 307.518Z" fill="#FF599F"/>
<path fill-rule="evenodd" clip-rule="evenodd" d="M242.601 317.067C241.228 314.917 241.857 312.062 244.006 310.689C253.165 304.838 261.869 299.077 269.702 293.883C270.061 293.645 270.418 293.409 270.774 293.173C278.153 288.28 284.758 283.901 290.143 280.51C292.301 279.151 295.152 279.799 296.511 281.957C297.87 284.115 297.222 286.966 295.064 288.325C289.774 291.656 283.253 295.98 275.824 300.906C275.486 301.13 275.147 301.355 274.806 301.581C266.974 306.773 258.211 312.574 248.979 318.472C246.829 319.845 243.974 319.216 242.601 317.067Z" fill="#FF599F"/>
<path fill-rule="evenodd" clip-rule="evenodd" d="M168.649 774.435C180.853 755.655 204.128 750.721 220.157 751.001C225.127 751.088 229.086 755.188 228.999 760.157C228.912 765.127 224.812 769.086 219.843 768.999C206.222 768.76 190.915 773.204 183.742 784.243C176.932 794.722 174.684 815.689 197.784 855.482C200.279 859.78 198.817 865.288 194.518 867.784C190.22 870.279 184.712 868.817 182.216 864.518C158.154 823.066 156.081 793.774 168.649 774.435Z" fill="#FF599F"/>
<path fill-rule="evenodd" clip-rule="evenodd" d="M64.5911 574.066C64.4954 573.88 64.4053 573.691 64.321 573.499L35.8466 508.529C21.9837 476.898 36.3875 440.018 68.0183 426.155C99.6492 412.293 136.529 426.696 150.392 458.327L178.867 523.297C178.951 523.49 179.03 523.686 179.102 523.884C179.327 524.364 179.546 524.848 179.76 525.337L207.919 589.586C221.782 621.216 207.378 658.096 175.747 671.959C144.116 685.822 107.236 671.419 93.3733 639.788L65.2148 575.539C65.0002 575.049 64.7923 574.558 64.5911 574.066ZM86.4753 574.621L111.546 631.823C121.01 653.418 146.188 663.251 167.783 653.787C189.377 644.323 199.211 619.145 189.747 597.55L164.676 540.347L86.4753 574.621Z" fill="#FF599F"/>
<path fill-rule="evenodd" clip-rule="evenodd" d="M260 353.276C303.63 353.276 339 317.907 339 274.276C339 230.646 303.63 195.276 260 195.276C216.37 195.276 181 230.646 181 274.276C181 317.907 216.37 353.276 260 353.276ZM260 374.276C315.228 374.276 360 329.505 360 274.276C360 219.048 315.228 174.276 260 174.276C204.772 174.276 160 219.048 160 274.276C160 329.505 204.772 374.276 260 374.276Z" fill="#FF599F"/>
</svg>
