<svg width="148" height="411" viewBox="0 0 148 411" fill="none" xmlns="http://www.w3.org/2000/svg">
<path d="M6 7.99999C6 3.58171 9.58172 0 14 0H125C129.418 0 133 3.58172 133 8V392C133 396.418 129.418 400 125 400H14C9.58172 400 6 396.418 6 392V7.99999Z" fill="#FFA0B0"/>
<path d="M15 50C15 45.5817 18.5817 42 23 42H116C120.418 42 124 45.5817 124 50V178C124 182.418 120.418 186 116 186H23C18.5817 186 15 182.418 15 178V50Z" fill="#FFC7CF"/>
<path d="M15 245C15 240.582 18.5817 237 23 237H116C120.418 237 124 240.582 124 245V371C124 375.418 120.418 379 116 379H23C18.5817 379 15 375.418 15 371V245Z" fill="#FFC7CF"/>
<path d="M6 194C6 189.582 9.58172 186 14 186H125C129.418 186 133 189.582 133 194V201C133 205.418 129.418 209 125 209H14C9.58172 209 6 205.418 6 201V194Z" fill="#D87381"/>
<path d="M6 197.5C6 193.358 9.35786 190 13.5 190H140.5C144.642 190 148 193.358 148 197.5C148 201.642 144.642 205 140.5 205H13.5C9.35787 205 6 201.642 6 197.5Z" fill="#FFC7CF"/>
<path d="M0 324C0 319.582 3.58172 316 8 316H132C136.418 316 140 319.582 140 324V403C140 407.418 136.418 411 132 411H8C3.58172 411 0 407.418 0 403V324Z" fill="#D87381"/>
<path d="M8 330C8 325.582 11.5817 322 16 322H124C128.418 322 132 325.582 132 330V356C132 360.418 128.418 364 124 364H16C11.5817 364 8 360.418 8 356V330Z" fill="#ECABB1"/>
<path d="M0 400C0 395.582 3.58172 392 8 392H132C136.418 392 140 395.582 140 400V403C140 407.418 136.418 411 132 411H8C3.58172 411 0 407.418 0 403V400Z" fill="#CC556A"/>
</svg>
