<svg width="50" height="40" viewBox="0 0 50 40" fill="none" xmlns="http://www.w3.org/2000/svg">
<path fill-rule="evenodd" clip-rule="evenodd" d="M21.4403 38.4977C20.5041 37.1819 20.8151 35.3585 22.1351 34.4252L41.7333 20.5673L22.1017 6.26868C20.795 5.31699 20.5097 3.48951 21.4643 2.18688C22.4189 0.884252 24.252 0.59976 25.5587 1.55145L48.4768 18.2437C49.2378 18.798 49.6849 19.6833 49.6783 20.6228C49.6717 21.5624 49.2122 22.4414 48.4434 22.9849L25.5253 39.1904C24.2054 40.1237 22.3765 39.8136 21.4403 38.4977Z" fill="#FCF9F6"/>
<path fill-rule="evenodd" clip-rule="evenodd" d="M0.540362 38.4977C-0.395829 37.1819 -0.0847613 35.3585 1.23515 34.4252L20.8334 20.5673L1.20178 6.26868C-0.104863 5.31699 -0.390234 3.48951 0.564391 2.18688C1.51901 0.884252 3.35213 0.59976 4.65878 1.55145L27.5769 18.2437C28.3379 18.798 28.785 19.6833 28.7784 20.6228C28.7718 21.5624 28.3123 22.4414 27.5435 22.9849L4.6254 39.1904C3.30549 40.1237 1.47655 39.8136 0.540362 38.4977Z" fill="#FCF9F6"/>
</svg>
