<svg width="50" height="39" viewBox="0 0 50 39" fill="none" xmlns="http://www.w3.org/2000/svg">
<path fill-rule="evenodd" clip-rule="evenodd" d="M21.4403 37.5089C20.5041 36.193 20.8151 34.3697 22.1351 33.4364L41.7333 19.5784L22.1017 5.27985C20.795 4.32816 20.5097 2.50068 21.4643 1.19805C22.4189 -0.104579 24.252 -0.38907 25.5587 0.562618L48.4768 17.2549C49.2378 17.8092 49.6849 18.6945 49.6783 19.634C49.6717 20.5735 49.2122 21.4525 48.4434 21.9961L25.5253 38.2015C24.2054 39.1348 22.3765 38.8247 21.4403 37.5089Z" fill="#FF8CA1"/>
<path fill-rule="evenodd" clip-rule="evenodd" d="M0.540362 37.5089C-0.395829 36.193 -0.0847613 34.3697 1.23515 33.4364L20.8334 19.5784L1.20178 5.27985C-0.104863 4.32816 -0.390234 2.50068 0.564391 1.19805C1.51901 -0.104579 3.35213 -0.38907 4.65878 0.562618L27.5769 17.2549C28.3379 17.8092 28.785 18.6945 28.7784 19.634C28.7718 20.5735 28.3123 21.4525 27.5435 21.9961L4.6254 38.2015C3.30549 39.1348 1.47655 38.8247 0.540362 37.5089Z" fill="#FF8CA1"/>
</svg>
