<svg width="50" height="39" viewBox="0 0 50 39" fill="none" xmlns="http://www.w3.org/2000/svg">
<path fill-rule="evenodd" clip-rule="evenodd" d="M28.238 1.23135C29.1741 2.54721 28.8631 4.37052 27.5432 5.30383L7.94489 19.1618L27.5765 33.4604C28.8832 34.4121 29.1686 36.2396 28.2139 37.5422C27.2593 38.8448 25.4262 39.1293 24.1195 38.1776L1.2014 21.4853C0.440422 20.9311 -0.00668128 20.0457 -6.80893e-05 19.1062C0.0065451 18.1667 0.466066 17.2877 1.23477 16.7441L24.1529 0.538702C25.4728 -0.394611 27.3018 -0.0845026 28.238 1.23135Z" fill="#FF8CA1"/>
<path fill-rule="evenodd" clip-rule="evenodd" d="M49.1379 1.23135C50.074 2.54721 49.763 4.37052 48.4431 5.30383L28.8448 19.1618L48.4764 33.4604C49.7831 34.4121 50.0685 36.2396 49.1138 37.5422C48.1592 38.8448 46.3261 39.1293 45.0194 38.1776L22.1013 21.4853C21.3403 20.9311 20.8932 20.0457 20.8998 19.1062C20.9064 18.1667 21.366 17.2877 22.1347 16.7441L45.0528 0.538702C46.3727 -0.394611 48.2017 -0.0845026 49.1379 1.23135Z" fill="#FF8CA1"/>
</svg>
