<svg width="37" height="37" viewBox="0 0 37 37" fill="none" xmlns="http://www.w3.org/2000/svg">
<path fill-rule="evenodd" clip-rule="evenodd" d="M18.3998 0.641846C19.8673 0.641846 21.057 1.83149 21.057 3.29899V16.1418H33.8998C35.3673 16.1418 36.557 17.3315 36.557 18.799C36.557 20.2665 35.3673 21.4561 33.8998 21.4561H21.057V34.299C21.057 35.7665 19.8673 36.9561 18.3998 36.9561C16.9323 36.9561 15.7427 35.7665 15.7427 34.299V21.4561H2.89982C1.43232 21.4561 0.242676 20.2665 0.242676 18.799C0.242676 17.3315 1.43232 16.1418 2.89982 16.1418H15.7427V3.29899C15.7427 1.83149 16.9323 0.641846 18.3998 0.641846Z" fill="white"/>
</svg>
