<svg width="33" height="33" viewBox="0 0 33 33" fill="none" xmlns="http://www.w3.org/2000/svg">
<path fill-rule="evenodd" clip-rule="evenodd" d="M13.125 21.75C17.8885 21.75 21.75 17.8885 21.75 13.125C21.75 8.36154 17.8885 4.5 13.125 4.5C8.36154 4.5 4.5 8.36154 4.5 13.125C4.5 17.8885 8.36154 21.75 13.125 21.75ZM13.125 26.25C20.3737 26.25 26.25 20.3737 26.25 13.125C26.25 5.87626 20.3737 0 13.125 0C5.87626 0 0 5.87626 0 13.125C0 20.3737 5.87626 26.25 13.125 26.25Z" fill="white"/>
<path fill-rule="evenodd" clip-rule="evenodd" d="M20.909 20.909C21.7877 20.0303 23.2123 20.0303 24.091 20.909L31.591 28.409C32.4697 29.2877 32.4697 30.7123 31.591 31.591C30.7123 32.4697 29.2877 32.4697 28.409 31.591L20.909 24.091C20.0303 23.2123 20.0303 21.7877 20.909 20.909Z" fill="white"/>
</svg>
