<svg width="60" height="84" viewBox="0 0 60 84" fill="none" xmlns="http://www.w3.org/2000/svg">
<path d="M2.76548 83.8403C2.21327 83.8403 1.69224 83.7601 1.20238 83.5998C0.721429 83.4306 0.320635 83.1768 0 82.8383L0.734789 81.5958L0.788228 81.489L0.908467 81.5558C0.92628 81.627 0.948546 81.6983 0.975266 81.7695C1.01089 81.8319 1.08214 81.912 1.18902 82.01C1.41169 82.1792 1.65662 82.3173 1.92381 82.4242C2.19991 82.531 2.49828 82.5845 2.81892 82.5845C3.23753 82.5845 3.57597 82.4954 3.83426 82.3173C4.10146 82.1302 4.23506 81.8586 4.23506 81.5023C4.23506 81.3242 4.19498 81.1594 4.11482 81.008C4.03466 80.8477 3.87434 80.6874 3.63387 80.5271C3.4023 80.3667 3.05494 80.1797 2.5918 79.966C2.02178 79.7166 1.56755 79.4672 1.2291 79.2178C0.89956 78.9595 0.663537 78.6834 0.521032 78.3895C0.378528 78.0867 0.307275 77.7482 0.307275 77.3742C0.307275 76.9645 0.418607 76.5993 0.641271 76.2786C0.87284 75.958 1.18902 75.7042 1.58982 75.5171C1.99061 75.3301 2.4493 75.2366 2.96588 75.2366C3.99013 75.2366 4.83179 75.5928 5.49088 76.3054L4.60913 77.3207L4.52897 77.4142L4.4221 77.3341C4.41319 77.2628 4.39538 77.196 4.36866 77.1337C4.35084 77.0624 4.29295 76.9734 4.19498 76.8665C4.02575 76.7062 3.84317 76.5993 3.64723 76.5458C3.46019 76.4924 3.23753 76.4657 2.97924 76.4657C2.61407 76.4657 2.32461 76.5503 2.11085 76.7195C1.89709 76.8887 1.79021 77.0847 1.79021 77.3074C1.79021 77.4855 1.83029 77.6458 1.91045 77.7883C1.99061 77.9308 2.15093 78.0822 2.3914 78.2425C2.64079 78.4029 3.01932 78.5943 3.52699 78.817C4.0881 79.0753 4.52897 79.3291 4.84961 79.5785C5.17024 79.819 5.39291 80.0862 5.5176 80.3801C5.6512 80.674 5.718 81.0169 5.718 81.4088C5.718 81.8096 5.61557 82.197 5.41072 82.5711C5.20587 82.9452 4.88523 83.2525 4.44881 83.4929C4.01239 83.7245 3.45128 83.8403 2.76548 83.8403Z" fill="#454545"/>
<path d="M17.8888 83.6933L17.3143 81.7562H15.1367L14.5488 83.6933H13.0525L15.8714 75.3167H16.5929L19.4118 83.6933H17.8888ZM16.2322 78.1089L15.4573 80.674H16.9937L16.2322 78.1089Z" fill="#454545"/>
<path d="M26.7463 75.3702H28.3228L31.1417 80.8477L31.0615 75.3702H32.5311V75.4904C32.4866 75.5439 32.4554 75.6062 32.4376 75.6775C32.4287 75.7398 32.4242 75.8422 32.4242 75.9847V83.6933H31.0215L28.109 77.8551V83.6933H26.7463V75.3702Z" fill="#454545"/>
<path d="M42.1635 83.6933V76.6394H39.9191V75.3702H45.9711V76.6394H43.6064V83.6933H42.1635Z" fill="#454545"/>
<path d="M57.9682 83.6933L57.3937 81.7562H55.2161L54.6282 83.6933H53.1319L55.9509 75.3167H56.6723L59.4912 83.6933H57.9682ZM56.3116 78.1089L55.5367 80.674H57.0731L56.3116 78.1089Z" fill="#454545"/>
<path fill-rule="evenodd" clip-rule="evenodd" d="M8.40828 42.8354C2.85849 39.2949 -0.585532 32.4798 0.261852 24.5787C1.59038 12.1915 12.3083 0.954112 25.8719 0.954102C36.5475 0.954091 46.0956 8.32427 49.099 18.4344C52.1163 17.8662 55.3357 18.9811 57.3266 21.5874C60.1398 25.2701 59.435 30.5361 55.7522 33.3493C54.554 34.2646 53.1881 34.8075 51.7937 34.9965C53.6134 38.494 54.5787 42.7386 54.5787 46.9949C54.5787 53.6964 52.0556 58.2141 48.4493 61.0919C44.9471 63.8865 40.6424 64.9634 37.262 65.3319C34.0018 65.6873 29.1609 65.9421 24.5436 65.8524C22.2331 65.8075 19.9422 65.6757 17.9125 65.4186C15.9257 65.1669 14.0193 64.7758 12.5761 64.1354C9.72004 62.8679 6.60738 60.6752 5.09174 57.2492C3.51216 53.6786 3.90935 49.3414 6.97616 44.4119C7.11435 44.1897 7.27052 43.9812 7.43472 43.7931C7.73727 43.4465 8.06299 43.1269 8.40828 42.8354ZM26.3133 47.6543L26.5283 47.699C28.9483 48.2246 31.034 47.1361 32.4733 45.9062C33.9324 44.6594 35.0655 43.0024 35.7703 41.5769C36.3214 40.4623 35.8645 39.1119 34.7499 38.5608C33.6352 38.0097 32.2849 38.4665 31.7338 39.5812C31.229 40.602 30.4374 41.7229 29.548 42.4829C28.6415 43.2575 27.9598 43.4031 27.4804 43.2979L27.4683 43.2952L23.6203 42.4946L16.0404 40.9085C15.9061 40.8804 15.7717 40.8554 15.6372 40.8336L15.1541 40.7331L15.1267 40.7281C9.48673 39.6998 3.76679 34.1248 4.7391 25.0589C5.89654 14.2669 15.2447 5.45703 25.8719 5.45702C36.3682 5.45702 45.5722 14.3044 45.5722 25.1573C45.5722 26.4008 46.5802 27.4088 47.8237 27.4088C49.0671 27.4088 50.0751 26.4008 50.0751 25.1573C50.0751 23.9955 49.9903 22.8532 49.8269 21.7356C51.6005 21.439 53.4753 22.109 54.6429 23.6375C56.3238 25.838 55.9027 28.9845 53.7021 30.6655C52.4637 31.6115 50.9257 31.8917 49.5179 31.5637C49.1127 31.0828 48.6847 30.6303 48.2343 30.2096C46.1489 28.262 43.5478 26.9752 40.5572 26.836C37.5752 26.6972 34.4537 27.7103 31.3289 29.9098C30.3121 30.6255 30.068 32.03 30.7838 33.0468C31.4995 34.0636 32.904 34.3077 33.9208 33.592C36.4247 31.8295 38.5803 31.2518 40.3479 31.334C42.1069 31.4159 43.7278 32.1621 45.1608 33.5005C48.099 36.2447 50.0758 41.3635 50.0758 46.9949C50.0758 52.417 48.1074 55.6038 45.6407 57.5722C43.0699 59.6236 39.72 60.5343 36.7739 60.8555C33.7076 61.1898 29.059 61.4364 24.6311 61.3503C22.4189 61.3073 20.2982 61.1819 18.4783 60.9514C16.6155 60.7154 15.2342 60.3886 14.4026 60.0195C12.0695 58.9841 10.0921 57.4221 9.20969 55.4274C8.39118 53.5772 8.28785 50.8278 10.7996 46.7905C10.8037 46.7838 10.814 46.7692 10.827 46.7543C11.8288 45.6067 13.3399 45.0519 14.8351 45.2661L22.6994 46.9024L26.1764 47.6299C26.2221 47.6395 26.2677 47.6476 26.3133 47.6543Z" fill="#454545"/>
</svg>
