<svg width="42" height="31" viewBox="0 0 42 31" fill="none" xmlns="http://www.w3.org/2000/svg">
<path fill-rule="evenodd" clip-rule="evenodd" d="M13.4999 16.5782C16.8569 16.5782 19.5782 13.8569 19.5782 10.5C19.5782 7.14308 16.8569 4.42176 13.4999 4.42176C10.143 4.42176 7.42171 7.14308 7.42171 10.5C7.42171 13.8569 10.143 16.5782 13.4999 16.5782ZM13.4999 21C19.2989 21 23.9999 16.299 23.9999 10.5C23.9999 4.70101 19.2989 0 13.4999 0C7.70096 0 2.99994 4.70101 2.99994 10.5C2.99994 16.299 7.70096 21 13.4999 21Z" fill="white"/>
<path fill-rule="evenodd" clip-rule="evenodd" d="M11.3888 26.7976C8.83108 26.7976 6.37464 27.7971 4.54355 29.5828C3.66939 30.4353 2.26964 30.4178 1.41713 29.5436C0.564627 28.6694 0.582181 27.2697 1.45634 26.4172C4.11327 23.8261 7.67756 22.3758 11.3888 22.3758H15.5366C19.2651 22.3758 22.8485 23.821 25.5338 26.4077C26.4132 27.2548 26.4393 28.6544 25.5922 29.5338C24.7451 30.4132 23.3455 30.4394 22.4661 29.5923C20.6048 27.7993 18.121 26.7976 15.5366 26.7976H11.3888Z" fill="white"/>
<path fill-rule="evenodd" clip-rule="evenodd" d="M28.0576 16.0003C28.0576 15.4322 28.4797 14.9717 29.0005 14.9717L33.5576 14.9717V10.0003C33.5576 9.43219 33.9797 8.97168 34.5005 8.97168C35.0212 8.97168 35.4433 9.43219 35.4433 10.0003L35.4433 14.9717H40.0005C40.5212 14.9717 40.9433 15.4322 40.9433 16.0002C40.9433 16.5683 40.5212 17.0288 40.0005 17.0288H35.4433L35.4433 22.0002C35.4433 22.5683 35.0212 23.0288 34.5005 23.0288C33.9797 23.0288 33.5576 22.5683 33.5576 22.0002V17.0288L29.0005 17.0288C28.4797 17.0288 28.0576 16.5683 28.0576 16.0003Z" fill="white"/>
<path fill-rule="evenodd" clip-rule="evenodd" d="M27.5576 16.0003C27.5576 15.1979 28.1635 14.4717 29.0005 14.4717L33.0576 14.4717V10.0003C33.0576 9.19789 33.6635 8.47168 34.5005 8.47168C35.3374 8.47168 35.9433 9.19789 35.9433 10.0003V14.4717H40.0005C40.8374 14.4717 41.4433 15.1979 41.4433 16.0002C41.4433 16.8026 40.8374 17.5288 40.0005 17.5288H35.9433L35.9433 22.0002C35.9433 22.8026 35.3374 23.5288 34.5005 23.5288C33.6635 23.5288 33.0576 22.8026 33.0576 22.0002V17.5288L29.0005 17.5288C28.1635 17.5288 27.5576 16.8026 27.5576 16.0003ZM29.0005 14.9717C28.4797 14.9717 28.0576 15.4322 28.0576 16.0003C28.0576 16.5683 28.4797 17.0288 29.0005 17.0288L33.5576 17.0288V22.0002C33.5576 22.5683 33.9797 23.0288 34.5005 23.0288C35.0212 23.0288 35.4433 22.5683 35.4433 22.0002L35.4433 17.0288H40.0005C40.5212 17.0288 40.9433 16.5683 40.9433 16.0002C40.9433 15.4322 40.5212 14.9717 40.0005 14.9717H35.4433L35.4433 10.0003C35.4433 9.43219 35.0212 8.97168 34.5005 8.97168C33.9797 8.97168 33.5576 9.43219 33.5576 10.0003V14.9717L29.0005 14.9717Z" fill="white"/>
</svg>
