<svg width="169" height="169" viewBox="0 0 169 169" fill="none" xmlns="http://www.w3.org/2000/svg">
<path fill-rule="evenodd" clip-rule="evenodd" d="M105.923 65.1835C113.696 57.4108 126.298 57.4108 134.071 65.1835C141.843 72.9562 141.843 85.5582 134.071 93.3309L113.331 114.071L85.1831 85.9237L105.923 65.1835ZM76.2944 77.0351L97.0347 56.2948C109.716 43.6131 130.278 43.6131 142.959 56.2948C155.641 68.9766 155.641 89.5378 142.959 102.22L117.8 127.379L117.782 127.361C117.327 130.629 115.843 133.78 113.331 136.293L86.6646 162.959C83.8009 165.822 79.1581 165.822 76.2944 162.959L21.481 108.145C9.61746 96.2818 9.61746 77.0471 21.481 65.1835C33.3446 53.3199 52.5793 53.3199 64.4429 65.1835L76.2944 77.0351ZM25.9254 69.6278C35.3344 60.2188 50.5895 60.2188 59.9986 69.6278L108.886 118.515C112.568 122.197 112.568 128.167 108.886 131.848L82.2202 158.514C81.8111 158.924 81.1479 158.924 80.7388 158.514L25.9254 103.701C16.5163 94.292 16.5163 79.0369 25.9254 69.6278ZM50.3692 120.738C54.4601 124.829 61.0927 124.829 65.1836 120.738C65.4403 120.481 65.6809 120.214 65.9054 119.939L100.122 126.782C101.824 127.123 103.479 126.019 103.82 124.317C104.16 122.615 103.057 120.959 101.355 120.619L68.2309 113.994C68.4137 111.097 67.398 108.138 65.1836 105.923C62.9693 103.709 60.0102 102.693 57.1127 102.876L50.4879 69.7523C50.1475 68.0503 48.4919 66.9466 46.79 67.287C45.0881 67.6274 43.9844 69.283 44.3247 70.9849L51.1681 105.201C50.8926 105.426 50.6259 105.666 50.3692 105.923C46.2783 110.014 46.2783 116.647 50.3692 120.738ZM60.6993 118.897C61.2467 118.609 61.7605 118.235 62.2207 117.775C62.2303 117.765 62.2399 117.756 62.2494 117.746C63.5006 116.479 64.1039 114.812 64.0594 113.16C64.0175 111.609 63.4046 110.07 62.2207 108.886C61.0368 107.702 59.4982 107.089 57.947 107.047C57.8901 107.046 57.8333 107.045 57.7764 107.045C56.1679 107.045 54.5594 107.659 53.3321 108.886C52.8715 109.347 52.4973 109.861 52.2096 110.409C50.964 112.781 51.3381 115.781 53.3321 117.775C55.326 119.769 58.3263 120.143 60.6979 118.897C60.6984 118.897 60.6988 118.897 60.6993 118.897Z" fill="url(#paint0_linear_728_37)"/>
<defs>
<linearGradient id="paint0_linear_728_37" x1="40.7398" y1="127.404" x2="127.404" y2="40.7397" gradientUnits="userSpaceOnUse">
<stop stop-color="#FF5A9E"/>
<stop offset="1" stop-color="#FF9E9E"/>
</linearGradient>
</defs>
</svg>
