<svg width="21" height="21" viewBox="0 0 21 21" fill="none" xmlns="http://www.w3.org/2000/svg">
<path fill-rule="evenodd" clip-rule="evenodd" d="M0.97398 0.974262C1.74387 0.204371 2.99211 0.204372 3.762 0.974262L10.4997 7.71198L17.2374 0.974262C18.0073 0.204372 19.2556 0.204371 20.0255 0.974262C20.7953 1.74415 20.7953 2.99239 20.0255 3.76228L13.2877 10.5L20.0255 17.2377C20.7953 18.0076 20.7953 19.2558 20.0255 20.0257C19.2556 20.7956 18.0073 20.7956 17.2374 20.0257L10.4997 13.288L3.762 20.0257C2.99211 20.7956 1.74387 20.7956 0.97398 20.0257C0.204089 19.2558 0.204089 18.0076 0.97398 17.2377L7.7117 10.5L0.97398 3.76228C0.204089 2.99239 0.204089 1.74415 0.97398 0.974262Z" fill="white"/>
</svg>
