<svg width="145" height="145" viewBox="0 0 145 145" fill="none" xmlns="http://www.w3.org/2000/svg">
<path fill-rule="evenodd" clip-rule="evenodd" d="M72.0198 86.7904C82.5765 86.7904 91.1344 78.2325 91.1344 67.6759C91.1344 57.1192 82.5765 48.5613 72.0198 48.5613C61.4632 48.5613 52.9053 57.1192 52.9053 67.6759C52.9053 78.2325 61.4632 86.7904 72.0198 86.7904ZM72.0198 100.696C90.2562 100.696 105.04 85.9122 105.04 67.6759C105.04 49.4395 90.2562 34.656 72.0198 34.656C53.7835 34.656 39 49.4395 39 67.6759C39 85.9122 53.7835 100.696 72.0198 100.696Z" fill="white"/>
<path fill-rule="evenodd" clip-rule="evenodd" d="M65.3807 118.928C57.3374 118.928 49.6126 122.071 43.8542 127.686C41.1052 130.367 36.7034 130.312 34.0224 127.563C31.3415 124.814 31.3967 120.412 34.1457 117.731C42.5011 109.583 53.7099 105.022 65.3807 105.022H78.4247C90.1499 105.022 101.419 109.567 109.863 117.702C112.629 120.366 112.711 124.767 110.047 127.532C107.383 130.298 102.982 130.38 100.216 127.716C94.3629 122.078 86.552 118.928 78.4247 118.928H65.3807Z" fill="white"/>
<path fill-rule="evenodd" clip-rule="evenodd" d="M105.001 23.385C106.918 20.6521 105.146 18.138 102.443 16.1996L96.1116 16.2493L105.001 10.9657C107.676 8.98919 108.261 5.19368 106.306 2.48824C104.351 -0.2172 100.597 -0.808063 97.9215 1.1685L77.5299 16.2493C75.9716 17.4005 75.0561 19.2392 75.0696 21.1905C75.0832 23.1418 76.0241 24.9674 77.5983 26.0963L95.5005 26.0963C99.5005 26.0963 103.083 26.1179 105.001 23.385Z" fill="white"/>
<path fill-rule="evenodd" clip-rule="evenodd" d="M105.001 23.385C106.918 20.6521 105.146 18.138 102.443 16.1996L96.1116 16.2493L105.001 10.9657C107.676 8.98919 108.261 5.19368 106.306 2.48824C104.351 -0.2172 100.597 -0.808063 97.9215 1.1685L77.5299 16.2493C75.9716 17.4005 75.0561 19.2392 75.0696 21.1905C75.0832 23.1418 76.0241 24.9674 77.5983 26.0963L95.5005 26.0963C99.5005 26.0963 103.083 26.1179 105.001 23.385Z" fill="white"/>
<path fill-rule="evenodd" clip-rule="evenodd" d="M134.5 22.0881C134.5 18.7375 131.814 16.0214 128.5 16.0214L81 16.0214C77.6863 16.0214 75 18.7375 75 22.0881C75 25.4386 77.6863 28.1548 81 28.1548L128.5 28.1548C131.814 28.1548 134.5 25.4386 134.5 22.0881Z" fill="white"/>
</svg>
