<svg width="145" height="145" viewBox="0 0 145 145" fill="none" xmlns="http://www.w3.org/2000/svg">
<path fill-rule="evenodd" clip-rule="evenodd" d="M72.0198 86.7904C82.5765 86.7904 91.1344 78.2325 91.1344 67.6759C91.1344 57.1192 82.5765 48.5613 72.0198 48.5613C61.4632 48.5613 52.9053 57.1192 52.9053 67.6759C52.9053 78.2325 61.4632 86.7904 72.0198 86.7904ZM72.0198 100.696C90.2562 100.696 105.04 85.9122 105.04 67.6759C105.04 49.4395 90.2562 34.656 72.0198 34.656C53.7835 34.656 39 49.4395 39 67.6759C39 85.9122 53.7835 100.696 72.0198 100.696Z" fill="white"/>
<path fill-rule="evenodd" clip-rule="evenodd" d="M65.3807 118.928C57.3374 118.928 49.6126 122.071 43.8542 127.686C41.1052 130.367 36.7034 130.312 34.0224 127.563C31.3415 124.814 31.3967 120.412 34.1457 117.731C42.5011 109.583 53.7099 105.022 65.3807 105.022H78.4247C90.1499 105.022 101.419 109.567 109.863 117.702C112.629 120.366 112.711 124.767 110.047 127.532C107.383 130.298 102.982 130.38 100.216 127.716C94.3629 122.078 86.552 118.928 78.4247 118.928H65.3807Z" fill="white"/>
<path fill-rule="evenodd" clip-rule="evenodd" d="M104.499 23.1279C102.582 20.425 104.354 17.9386 107.057 16.0215L113.388 16.0707L104.499 10.8452C101.824 8.89034 101.239 5.13657 103.194 2.46088C105.149 -0.214812 108.903 -0.799178 111.579 1.15566L131.97 16.0707C133.528 17.2091 134.444 19.0277 134.43 20.9575C134.417 22.8874 133.476 24.6929 131.902 25.8094H113.999C109.999 25.8094 106.417 25.8307 104.499 23.1279Z" fill="white"/>
<path fill-rule="evenodd" clip-rule="evenodd" d="M104.499 23.1279C102.582 20.425 104.354 17.9386 107.057 16.0215L113.388 16.0707L104.499 10.8452C101.824 8.89034 101.239 5.13657 103.194 2.46088C105.149 -0.214812 108.903 -0.799178 111.579 1.15566L131.97 16.0707C133.528 17.2091 134.444 19.0277 134.43 20.9575C134.417 22.8874 133.476 24.6929 131.902 25.8094H113.999C109.999 25.8094 106.417 25.8307 104.499 23.1279Z" fill="white"/>
<path fill-rule="evenodd" clip-rule="evenodd" d="M75 21.8452C75 18.5315 77.6863 15.8452 81 15.8452H128.5C131.814 15.8452 134.5 18.5315 134.5 21.8452C134.5 25.1589 131.814 27.8452 128.5 27.8452H81C77.6863 27.8452 75 25.1589 75 21.8452Z" fill="white"/>
</svg>
