<svg width="82" height="92" viewBox="0 0 82 92" fill="none" xmlns="http://www.w3.org/2000/svg">
<path fill-rule="evenodd" clip-rule="evenodd" d="M76.0001 0C79.3138 0 82.0001 2.68629 82.0001 6V56C82.0001 75.8822 65.8823 92 46.0001 92H6.00005C3.57328 92 1.38546 90.5381 0.456776 88.2961C-0.47191 86.0541 0.0414248 83.4734 1.75741 81.7574L31.7574 51.7574C34.1006 49.4142 37.8995 49.4142 40.2427 51.7574C42.5858 54.1005 42.5858 57.8995 40.2427 60.2426L20.4853 80H46.0001C59.2549 80 70.0001 69.2548 70.0001 56V6C70.0001 2.68629 72.6863 0 76.0001 0Z" fill="black"/>
</svg>
