<svg width="86" height="86" viewBox="0 0 86 86" fill="none" xmlns="http://www.w3.org/2000/svg">
<path fill-rule="evenodd" clip-rule="evenodd" d="M35.0001 58C47.7026 58 58.0001 47.7025 58.0001 35C58.0001 22.2975 47.7026 12 35.0001 12C22.2975 12 12.0001 22.2975 12.0001 35C12.0001 47.7025 22.2975 58 35.0001 58ZM35.0001 70C54.33 70 70.0001 54.33 70.0001 35C70.0001 15.67 54.33 0 35.0001 0C15.6701 0 6.10352e-05 15.67 6.10352e-05 35C6.10352e-05 54.33 15.6701 70 35.0001 70Z" fill="white"/>
<path fill-rule="evenodd" clip-rule="evenodd" d="M55.7574 55.7574C58.1006 53.4142 61.8996 53.4142 64.2427 55.7574L84.2427 75.7574C86.5859 78.1005 86.5859 81.8995 84.2427 84.2426C81.8996 86.5858 78.1006 86.5858 75.7574 84.2426L55.7574 64.2426C53.4143 61.8995 53.4143 58.1005 55.7574 55.7574Z" fill="white"/>
</svg>
