<svg width="23" height="23" viewBox="0 0 23 23" fill="none" xmlns="http://www.w3.org/2000/svg">
<path fill-rule="evenodd" clip-rule="evenodd" d="M11.485 1.66771C12.337 1.6596 13.0344 2.33352 13.0427 3.17295C13.0509 4.01239 12.3668 4.69946 11.5148 4.70756L11.4999 3.18763L11.485 1.66771ZM11.485 1.66771C11.485 1.66771 11.485 1.66771 11.4999 3.18763C11.5148 4.70756 11.5148 4.70756 11.5148 4.70756L11.2143 4.71022C11.0215 4.71185 10.7433 4.71409 10.401 4.71653C9.71653 4.72142 8.77518 4.72712 7.7481 4.73037C5.70371 4.73685 4.04275 6.36921 4.04275 8.35313V15.8543C4.04275 17.8131 5.65452 19.401 7.64275 19.401H15.357C17.3453 19.401 18.957 17.8131 18.957 15.8543V9.09875C18.957 8.25927 19.6478 7.57875 20.4999 7.57875C21.352 7.57875 22.0427 8.25927 22.0427 9.09875V15.8543C22.0427 19.492 19.0494 22.441 15.357 22.441H7.64275C3.95033 22.441 0.957031 19.492 0.957031 15.8543V8.35313C0.957031 4.66397 4.02421 1.70216 7.73818 1.69039C8.76002 1.68715 9.69705 1.68148 10.3787 1.67661C10.7195 1.67418 10.9963 1.67195 11.1878 1.67033L11.485 1.66771Z" fill="white"/>
<path fill-rule="evenodd" clip-rule="evenodd" d="M20.1399 0.704968C20.8216 1.20865 20.9597 2.16139 20.4485 2.83297L12.7342 12.9663C12.2229 13.6379 11.2559 13.774 10.5742 13.2703C9.8925 12.7666 9.75434 11.8139 10.2656 11.1423L17.9799 1.00897C18.4911 0.33739 19.4582 0.201285 20.1399 0.704968Z" fill="white"/>
<path d="M9.95841 12.0543H11.4933V13.5743H9.95841V12.0543Z" fill="white"/>
</svg>
