<svg width="19" height="23" viewBox="0 0 19 23" fill="none" xmlns="http://www.w3.org/2000/svg">
<path fill-rule="evenodd" clip-rule="evenodd" d="M9.19346 12.512C11.5913 12.512 13.5351 10.5682 13.5351 8.17041C13.5351 5.77261 11.5913 3.82881 9.19346 3.82881C6.79566 3.82881 4.85186 5.77261 4.85186 8.17041C4.85186 10.5682 6.79566 12.512 9.19346 12.512ZM9.19346 15.6704C13.3356 15.6704 16.6935 12.3125 16.6935 8.17041C16.6935 4.02827 13.3356 0.67041 9.19346 0.67041C5.05132 0.67041 1.69346 4.02827 1.69346 8.17041C1.69346 12.3125 5.05132 15.6704 9.19346 15.6704Z" fill="white"/>
<path fill-rule="evenodd" clip-rule="evenodd" d="M7.68548 19.8115C5.85856 19.8115 4.10396 20.5255 2.79603 21.801C2.17163 22.4099 1.17182 22.3974 0.562881 21.773C-0.0460536 21.1486 -0.0335149 20.1488 0.590887 19.5398C2.48869 17.689 5.03461 16.6531 7.68548 16.6531H10.6482C13.3115 16.6531 15.871 17.6854 17.7891 19.5331C18.4172 20.1382 18.4359 21.1379 17.8308 21.766C17.2257 22.3941 16.226 22.4128 15.5979 21.8077C14.2684 20.5271 12.4942 19.8115 10.6482 19.8115H7.68548Z" fill="white"/>
</svg>
