<svg width="91" height="90" viewBox="0 0 91 90" fill="none" xmlns="http://www.w3.org/2000/svg">
<path fill-rule="evenodd" clip-rule="evenodd" d="M4.96322 20.3452C8.22708 19.7726 11.3372 21.9543 11.9098 25.2181L20.4585 73.9461C20.7942 75.8594 22.4559 77.2549 24.3984 77.2549H57.6017C59.5442 77.2549 61.2058 75.8594 61.5415 73.9461L70.0903 25.2181C70.6629 21.9543 73.773 19.7726 77.0368 20.3452C80.3007 20.9178 82.4824 24.0278 81.9098 27.2917L73.361 76.0197C72.0184 83.6727 65.3716 89.2549 57.6017 89.2549H24.3984C16.6285 89.2549 9.98169 83.6727 8.63905 76.0197L0.0902784 27.2917C-0.482329 24.0278 1.69936 20.9178 4.96322 20.3452Z" fill="#CC556A"/>
<path fill-rule="evenodd" clip-rule="evenodd" d="M31 30C34.3137 30 37 32.6863 37 36V66C37 69.3137 34.3137 72 31 72C27.6863 72 25 69.3137 25 66V36C25 32.6863 27.6863 30 31 30ZM51 30C54.3137 30 57 32.6863 57 36V66C57 69.3137 54.3137 72 51 72C47.6863 72 45 69.3137 45 66V36C45 32.6863 47.6863 30 51 30Z" fill="#CC556A"/>
<path fill-rule="evenodd" clip-rule="evenodd" d="M35.8039 3.00003C37.4607 0.13027 41.1303 -0.852981 44 0.803873L87.3013 25.8039C90.171 27.4607 91.1543 31.1303 89.4974 34C87.8406 36.8698 84.171 37.853 81.3013 36.1962L38 11.1962C35.1303 9.53932 34.147 5.86978 35.8039 3.00003Z" fill="#CC556A"/>
</svg>
