<svg width="46" height="47" viewBox="0 0 46 47" fill="none" xmlns="http://www.w3.org/2000/svg">
<path fill-rule="evenodd" clip-rule="evenodd" d="M8.94942 15.6939C12.0042 9.8051 20.2479 9.74104 23.3901 15.5817L23.5292 15.8402L23.6683 15.5817C26.8106 9.74105 35.0543 9.8051 38.109 15.6939C38.7351 16.9008 39.0624 18.2456 39.0624 19.6111V20.9428C39.0624 25.1892 37.1376 29.1968 33.8488 31.798L24.7703 38.9787C24.0398 39.5565 23.0187 39.5565 22.2881 38.9787L13.2096 31.798C9.92084 29.1968 7.99609 25.1892 7.99609 20.9428V19.6111C7.99609 18.2456 8.32338 16.9008 8.94942 15.6939ZM12.5306 17.6289C12.2138 18.2396 12.0482 18.9201 12.0482 19.6111V20.9428C12.0482 23.9105 13.3934 26.7113 15.6918 28.5293L23.5292 34.7283L31.3666 28.5293C33.6651 26.7113 35.0102 23.9105 35.0102 20.9428V19.6111C35.0102 18.9201 34.8446 18.2396 34.5278 17.6289C32.982 14.6489 28.8103 14.6165 27.2202 17.5721L25.3052 21.1317C24.9493 21.7932 24.2686 22.2043 23.5292 22.2043C22.7898 22.2043 22.1091 21.7932 21.7533 21.1317L19.8382 17.5721C18.2481 14.6165 14.0765 14.6489 12.5306 17.6289Z" fill="#CC556A"/>
</svg>
