<svg width="82" height="87" viewBox="0 0 82 87" fill="none" xmlns="http://www.w3.org/2000/svg">
<path fill-rule="evenodd" clip-rule="evenodd" d="M40.9421 5.00027C44.2557 4.96826 46.9678 7.62848 46.9998 10.942C47.0318 14.2556 44.3716 16.9677 41.058 16.9997L41.0001 11L40.9421 5.00027ZM40.9421 5.00027C40.9421 5.00027 40.9421 5.00027 41.0001 11C41.058 16.9997 41.058 16.9997 41.058 16.9997L39.8893 17.0102C39.1398 17.0166 38.0579 17.0255 36.7267 17.0351C34.0648 17.0544 30.404 17.0769 26.4098 17.0897C18.4594 17.1153 12.0001 23.5588 12.0001 31.3901V61C12.0001 68.732 18.2681 75 26.0001 75H56.0001C63.732 75 70.0001 68.732 70.0001 61V34.3333C70.0001 31.0196 72.6864 28.3333 76.0001 28.3333C79.3138 28.3333 82.0001 31.0196 82.0001 34.3333V61C82.0001 75.3594 70.3595 87 56.0001 87H26.0001C11.6407 87 6.10352e-05 75.3594 6.10352e-05 61V31.3901C6.10352e-05 16.8276 11.928 5.13625 26.3712 5.0898C30.345 5.07702 33.989 5.05463 36.6398 5.03543C37.965 5.02583 39.0415 5.01703 39.7863 5.01063L40.9421 5.00027Z" fill="white"/>
<path fill-rule="evenodd" clip-rule="evenodd" d="M74.6001 1.19999C77.251 3.18821 77.7883 6.94902 75.8001 9.59999L45.8001 49.6C43.8118 52.251 40.051 52.7882 37.4001 50.8C34.7491 48.8118 34.2118 45.051 36.2001 42.4L66.2001 2.39999C68.1883 -0.25098 71.9491 -0.788238 74.6001 1.19999Z" fill="white"/>
<path d="M35.0054 46H40.9743V52H35.0054V46Z" fill="white"/>
</svg>
