<svg width="82" height="92" viewBox="0 0 82 92" fill="none" xmlns="http://www.w3.org/2000/svg">
<path fill-rule="evenodd" clip-rule="evenodd" d="M76 0C79.3137 0 82 2.68629 82 6V56C82 75.8822 65.8822 92 46 92H5.99999C3.57322 92 1.3854 90.5381 0.456715 88.2961C-0.471971 86.0541 0.0413637 83.4734 1.75735 81.7574L31.7574 51.7574C34.1005 49.4142 37.8995 49.4142 40.2426 51.7574C42.5858 54.1005 42.5858 57.8995 40.2426 60.2426L20.4853 80H46C59.2548 80 70 69.2548 70 56V6C70 2.68629 72.6863 0 76 0Z" fill="white"/>
</svg>
