<svg width="1920" height="1080" viewBox="0 0 1920 1080" fill="none" xmlns="http://www.w3.org/2000/svg">
<g clip-path="url(#clip0_1553_229)">
<rect width="1920" height="1080" fill="#FCF9F6"/>
<g filter="url(#filter0_d_1553_229)">
<rect x="621.347" y="605.572" width="506.274" height="636.798" transform="rotate(-19.0895 621.347 605.572)" fill="white"/>
<rect x="666.124" y="638.208" width="442.99" height="474.632" transform="rotate(-19.0895 666.124 638.208)" fill="#454545"/>
</g>
<path d="M0 110.995L1920 110.994" stroke="#FF999E" stroke-width="6" stroke-dasharray="20 20"/>
<path fill-rule="evenodd" clip-rule="evenodd" d="M1446.74 546.724C1456.7 536.767 1472.85 536.767 1482.8 546.724C1492.76 556.681 1492.76 572.825 1482.8 582.783L1456.23 609.352L1420.17 573.294L1446.74 546.724ZM1408.79 561.907L1435.36 535.337C1451.6 519.091 1477.94 519.091 1494.19 535.337C1510.44 551.583 1510.44 577.923 1494.19 594.17L1461.96 626.401L1461.94 626.378C1461.35 630.564 1459.45 634.601 1456.23 637.82L1422.07 671.981C1418.4 675.649 1412.46 675.649 1408.79 671.981L1338.57 601.761C1323.37 586.563 1323.37 561.922 1338.57 546.724C1353.77 531.526 1378.41 531.526 1393.61 546.724L1408.79 561.907ZM1344.26 552.417C1356.32 540.364 1375.86 540.364 1387.91 552.417L1450.54 615.046C1455.26 619.762 1455.26 627.41 1450.54 632.126L1416.38 666.287C1415.85 666.811 1415.01 666.811 1414.48 666.287L1344.26 596.067C1332.21 584.014 1332.21 564.471 1344.26 552.417ZM1375.58 617.893C1380.82 623.133 1389.31 623.133 1394.55 617.893C1394.88 617.564 1395.19 617.222 1395.48 616.869L1439.31 625.636C1441.49 626.072 1443.61 624.658 1444.05 622.478C1444.49 620.297 1443.07 618.176 1440.89 617.74L1398.46 609.254C1398.69 605.542 1397.39 601.751 1394.55 598.914C1391.72 596.078 1387.93 594.776 1384.21 595.011L1375.73 552.577C1375.29 550.396 1373.17 548.983 1370.99 549.419C1368.81 549.855 1367.4 551.976 1367.83 554.156L1376.6 597.99C1376.25 598.277 1375.9 598.585 1375.58 598.914C1370.34 604.155 1370.34 612.652 1375.58 617.893ZM1377.93 604.659C1376.34 607.697 1376.82 611.542 1379.37 614.097C1381.93 616.651 1385.77 617.131 1388.81 615.535L1388.81 615.535C1389.51 615.166 1390.17 614.687 1390.76 614.097C1391.94 612.918 1392.67 611.464 1392.97 609.941C1393.08 609.362 1393.13 608.773 1393.11 608.185C1393.06 606.198 1392.28 604.227 1390.76 602.71C1387.61 599.566 1382.52 599.566 1379.37 602.71C1379.22 602.857 1379.08 603.009 1378.95 603.165C1378.55 603.631 1378.21 604.133 1377.93 604.659Z" fill="#FF8CA1"/>
<path d="M1563.93 577.626V551.46H1568.09L1573.17 563.472L1578.25 551.418H1582.41V577.626H1578.29V559.356L1574.18 568.974H1571.87L1568 559.398V577.626H1563.93ZM1610.93 578.088C1609.05 578.088 1607.37 577.696 1605.89 576.912C1604.43 576.128 1603.28 574.98 1602.44 573.468C1601.6 571.956 1601.18 570.136 1601.18 568.008C1601.18 565.824 1601.59 563.962 1602.4 562.422C1603.24 560.882 1604.35 559.706 1605.72 558.894C1607.12 558.054 1608.67 557.634 1610.38 557.634C1611.89 557.634 1613.28 557.984 1614.54 558.684C1615.83 559.384 1616.85 560.448 1617.6 561.876C1618.39 563.276 1618.78 565.026 1618.78 567.126C1618.78 567.406 1618.77 567.742 1618.74 568.134C1618.74 568.526 1618.72 568.862 1618.7 569.142H1605.76C1605.82 570.374 1606.11 571.382 1606.64 572.166C1607.17 572.922 1607.83 573.482 1608.62 573.846C1609.4 574.21 1610.24 574.392 1611.14 574.392C1612 574.392 1612.83 574.252 1613.61 573.972C1614.4 573.692 1615.13 573.216 1615.8 572.544L1618.23 574.896C1617.28 576.016 1616.19 576.828 1614.96 577.332C1613.73 577.836 1612.38 578.088 1610.93 578.088ZM1605.84 565.572H1614.16C1614.16 564.2 1613.81 563.15 1613.11 562.422C1612.41 561.694 1611.43 561.33 1610.17 561.33C1609.08 561.33 1608.13 561.68 1607.31 562.38C1606.5 563.052 1606.01 564.116 1605.84 565.572ZM1637.76 577.626V558.096H1641.75V559.524C1642.23 558.852 1642.76 558.376 1643.35 558.096C1643.94 557.788 1644.54 557.634 1645.16 557.634C1645.86 557.634 1646.5 557.816 1647.09 558.18C1647.7 558.544 1648.17 559.146 1648.47 559.986C1649.34 558.418 1650.71 557.634 1652.59 557.634C1654.02 557.634 1655.04 558.138 1655.66 559.146C1656.3 560.126 1656.61 561.484 1656.58 563.22V577.626H1652.46V564.228C1652.46 562.968 1652.37 562.128 1652.17 561.708C1651.97 561.26 1651.68 561.036 1651.29 561.036C1650.73 561.036 1650.22 561.414 1649.78 562.17C1649.33 562.898 1649.1 563.878 1649.1 565.11V577.626H1645.24V564.354C1645.24 563.01 1645.14 562.114 1644.95 561.666C1644.75 561.218 1644.39 560.994 1643.85 560.994C1643.35 560.994 1642.89 561.33 1642.47 562.002C1642.08 562.646 1641.88 563.598 1641.88 564.858V577.626H1637.76ZM1683.92 578.046C1682.19 578.046 1680.6 577.626 1679.18 576.786C1677.78 575.918 1676.67 574.728 1675.86 573.216C1675.05 571.676 1674.64 569.884 1674.64 567.84C1674.64 565.908 1675.05 564.172 1675.86 562.632C1676.67 561.092 1677.78 559.874 1679.18 558.978C1680.6 558.082 1682.19 557.634 1683.92 557.634C1685.69 557.634 1687.27 558.082 1688.67 558.978C1690.1 559.874 1691.22 561.092 1692.03 562.632C1692.87 564.172 1693.29 565.908 1693.29 567.84C1693.29 569.856 1692.87 571.634 1692.03 573.174C1691.22 574.714 1690.1 575.918 1688.67 576.786C1687.27 577.626 1685.69 578.046 1683.92 578.046ZM1683.92 574.266C1685.27 574.266 1686.37 573.678 1687.24 572.502C1688.11 571.298 1688.54 569.744 1688.54 567.84C1688.54 565.88 1688.11 564.326 1687.24 563.178C1686.37 562.03 1685.27 561.456 1683.92 561.456C1682.63 561.456 1681.56 562.03 1680.69 563.178C1679.82 564.326 1679.39 565.88 1679.39 567.84C1679.39 569.744 1679.81 571.298 1680.65 572.502C1681.51 573.678 1682.61 574.266 1683.92 574.266ZM1714.16 558.096H1719.08L1719.03 561.246C1719.57 560.126 1720.35 559.244 1721.39 558.6C1722.42 557.956 1723.51 557.634 1724.66 557.634C1726.85 557.634 1728.65 558.376 1730.08 559.86L1728.06 563.85L1727.94 564.186L1727.56 564.018C1727.48 563.794 1727.39 563.57 1727.31 563.346C1727.22 563.094 1727.01 562.814 1726.68 562.506C1726.29 562.198 1725.87 561.96 1725.42 561.792C1725 561.624 1724.54 561.54 1724.03 561.54C1722.69 561.54 1721.51 562.002 1720.5 562.926C1719.5 563.85 1718.99 565.334 1718.99 567.378V577.626H1714.16V558.096ZM1752.68 585.018C1751.72 585.018 1750.88 584.864 1750.16 584.556C1749.43 584.248 1748.71 583.8 1748.01 583.212L1749.65 579.936L1749.82 579.558L1750.2 579.726C1750.28 579.95 1750.38 580.16 1750.49 580.356C1750.6 580.552 1750.86 580.776 1751.25 581.028C1751.67 581.252 1752.14 581.364 1752.68 581.364C1753.52 581.364 1754.19 581.014 1754.69 580.314C1755.22 579.614 1755.76 578.508 1756.29 576.996L1748.69 558.096H1753.43L1758.43 570.99L1760.53 565.026C1760.95 563.822 1761.3 562.66 1761.58 561.54C1761.86 560.42 1762.04 559.272 1762.13 558.096H1766.54C1766.42 559.356 1766.13 560.686 1765.65 562.086C1765.18 563.486 1764.7 564.816 1764.23 566.076L1759.4 579.348C1758.61 581.42 1757.66 582.876 1756.54 583.716C1755.45 584.584 1754.16 585.018 1752.68 585.018ZM1574.26 642.13C1572.36 642.13 1570.65 641.696 1569.14 640.828C1567.62 639.96 1566.42 638.77 1565.52 637.258C1564.66 635.718 1564.22 633.968 1564.22 632.008C1564.22 630.076 1564.66 628.326 1565.52 626.758C1566.42 625.19 1567.62 623.944 1569.14 623.02C1570.65 622.096 1572.37 621.634 1574.3 621.634C1576.09 621.634 1577.66 621.97 1579.01 622.642C1580.35 623.314 1581.41 624.238 1582.2 625.414L1579.55 628.312L1579.3 628.606L1578.96 628.354C1578.96 628.102 1578.94 627.878 1578.88 627.682C1578.82 627.458 1578.64 627.164 1578.33 626.8C1577.8 626.296 1577.2 625.946 1576.53 625.75C1575.88 625.554 1575.16 625.456 1574.34 625.456C1573.42 625.456 1572.55 625.708 1571.74 626.212C1570.93 626.716 1570.27 627.458 1569.77 628.438C1569.29 629.418 1569.05 630.608 1569.05 632.008C1569.05 633.268 1569.3 634.374 1569.81 635.326C1570.31 636.25 1570.97 636.978 1571.78 637.51C1572.62 638.014 1573.52 638.266 1574.47 638.266C1575.34 638.266 1576.19 638.084 1577.03 637.72C1577.87 637.356 1578.66 636.726 1579.38 635.83L1582.03 638.854C1580.99 640.002 1579.79 640.842 1578.42 641.374C1577.05 641.878 1575.66 642.13 1574.26 642.13ZM1607.86 642.13C1605.7 642.13 1604.02 641.626 1602.82 640.618C1601.64 639.61 1601.06 638.28 1601.06 636.628C1601.06 634.556 1601.98 632.848 1603.83 631.504C1605.7 630.132 1608.42 629.446 1611.98 629.446C1612.17 629.446 1612.42 629.446 1612.73 629.446C1613.07 629.446 1613.42 629.46 1613.78 629.488C1613.59 627.864 1613.12 626.772 1612.4 626.212C1611.67 625.624 1610.69 625.33 1609.46 625.33C1608.56 625.33 1607.72 625.484 1606.94 625.792C1606.15 626.072 1605.37 626.604 1604.58 627.388L1601.98 624.532C1603.1 623.496 1604.32 622.754 1605.63 622.306C1606.95 621.858 1608.29 621.634 1609.67 621.634C1611.29 621.634 1612.77 621.9 1614.12 622.432C1615.46 622.936 1616.53 623.832 1617.31 625.12C1618.09 626.38 1618.49 628.13 1618.49 630.37V641.626H1613.57V639.526C1612.84 640.506 1612 641.192 1611.05 641.584C1610.1 641.948 1609.04 642.13 1607.86 642.13ZM1605.8 636.04C1605.8 636.936 1606.08 637.566 1606.64 637.93C1607.23 638.266 1607.94 638.434 1608.78 638.434C1610.3 638.434 1611.47 637.986 1612.31 637.09C1613.15 636.166 1613.66 634.724 1613.82 632.764C1613.46 632.764 1613.11 632.764 1612.77 632.764C1612.44 632.736 1612.14 632.722 1611.89 632.722C1609.65 632.722 1608.07 633.03 1607.15 633.646C1606.25 634.262 1605.8 635.06 1605.8 636.04ZM1638.52 648.64L1638.48 622.054H1643.18V624.784C1643.8 623.692 1644.58 622.894 1645.53 622.39C1646.49 621.886 1647.54 621.634 1648.68 621.634C1650.11 621.634 1651.4 622.026 1652.55 622.81C1653.72 623.566 1654.66 624.714 1655.36 626.254C1656.06 627.766 1656.41 629.656 1656.41 631.924C1656.41 634.22 1656.05 636.124 1655.32 637.636C1654.59 639.148 1653.63 640.282 1652.42 641.038C1651.25 641.766 1649.97 642.13 1648.6 642.13C1647.56 642.13 1646.57 641.948 1645.62 641.584C1644.67 641.22 1643.91 640.674 1643.35 639.946V648.64H1638.52ZM1647.3 638.434C1648.11 638.434 1648.85 638.224 1649.52 637.804C1650.2 637.384 1650.73 636.684 1651.12 635.704C1651.51 634.724 1651.71 633.38 1651.71 631.672C1651.71 629.74 1651.33 628.214 1650.57 627.094C1649.85 625.974 1648.84 625.4 1647.55 625.372C1646.21 625.344 1645.16 625.876 1644.4 626.968C1643.67 628.032 1643.31 629.782 1643.31 632.218C1643.36 636.362 1644.69 638.434 1647.3 638.434ZM1684.34 642.088C1682.55 642.088 1680.9 641.85 1679.39 641.374C1677.87 640.898 1676.53 640.1 1675.35 638.98L1677.45 635.116L1677.62 634.78L1677.96 634.99C1678.04 635.186 1678.13 635.41 1678.21 635.662C1678.29 635.886 1678.5 636.152 1678.84 636.46C1679.54 637.048 1680.32 637.51 1681.19 637.846C1682.09 638.182 1683.17 638.35 1684.43 638.35C1685.6 638.35 1686.51 638.154 1687.16 637.762C1687.8 637.37 1688.12 636.852 1688.12 636.208C1688.12 635.564 1687.76 635.046 1687.03 634.654C1686.33 634.262 1685.17 633.828 1683.54 633.352C1681.42 632.792 1679.72 632.036 1678.46 631.084C1677.2 630.132 1676.57 628.858 1676.57 627.262C1676.57 625.666 1677.26 624.336 1678.63 623.272C1680.03 622.18 1681.91 621.634 1684.26 621.634C1687.48 621.634 1690.1 622.628 1692.11 624.616L1689.8 627.85L1689.51 628.186L1689.21 627.934C1689.19 627.71 1689.12 627.5 1689 627.304C1688.92 627.108 1688.71 626.842 1688.37 626.506C1687.81 626.114 1687.17 625.82 1686.44 625.624C1685.74 625.4 1685.04 625.288 1684.34 625.288C1683.39 625.288 1682.56 625.442 1681.86 625.75C1681.19 626.058 1680.86 626.534 1680.86 627.178C1680.86 627.738 1681.22 628.214 1681.95 628.606C1682.68 628.998 1683.92 629.418 1685.69 629.866C1688.04 630.454 1689.75 631.238 1690.81 632.218C1691.87 633.17 1692.41 634.402 1692.41 635.914C1692.41 637.034 1692.1 638.07 1691.48 639.022C1690.87 639.946 1689.96 640.688 1688.75 641.248C1687.58 641.808 1686.11 642.088 1684.34 642.088ZM1719.33 642.13C1717.34 642.13 1715.7 641.458 1714.41 640.114C1713.13 638.77 1712.48 636.586 1712.48 633.562V622.096H1717.27V633.562C1717.27 635.298 1717.55 636.53 1718.11 637.258C1718.7 637.958 1719.43 638.308 1720.29 638.308C1721.47 638.308 1722.42 637.888 1723.15 637.048C1723.91 636.208 1724.28 634.934 1724.28 633.226V622.096H1729.03V638.518C1729.03 639.134 1729.04 639.694 1729.07 640.198C1729.13 640.674 1729.25 641.15 1729.45 641.626H1725.12C1724.9 641.206 1724.77 640.786 1724.75 640.366C1724.72 639.946 1724.7 639.526 1724.7 639.106C1724.12 640.114 1723.33 640.87 1722.35 641.374C1721.4 641.878 1720.39 642.13 1719.33 642.13ZM1750.03 641.626V637.888H1755.53V617.182H1750.28V613.444H1760.32V637.888H1765.78V641.626H1750.03ZM1795.73 642.088C1793.85 642.088 1792.17 641.696 1790.69 640.912C1789.23 640.128 1788.08 638.98 1787.24 637.468C1786.4 635.956 1785.98 634.136 1785.98 632.008C1785.98 629.824 1786.39 627.962 1787.2 626.422C1788.04 624.882 1789.15 623.706 1790.52 622.894C1791.92 622.054 1793.47 621.634 1795.18 621.634C1796.69 621.634 1798.08 621.984 1799.34 622.684C1800.63 623.384 1801.65 624.448 1802.4 625.876C1803.19 627.276 1803.58 629.026 1803.58 631.126C1803.58 631.406 1803.57 631.742 1803.54 632.134C1803.54 632.526 1803.52 632.862 1803.5 633.142H1790.56C1790.62 634.374 1790.91 635.382 1791.44 636.166C1791.97 636.922 1792.63 637.482 1793.42 637.846C1794.2 638.21 1795.04 638.392 1795.94 638.392C1796.8 638.392 1797.63 638.252 1798.41 637.972C1799.2 637.692 1799.93 637.216 1800.6 636.544L1803.03 638.896C1802.08 640.016 1800.99 640.828 1799.76 641.332C1798.53 641.836 1797.18 642.088 1795.73 642.088ZM1790.64 629.572H1798.96C1798.96 628.2 1798.61 627.15 1797.91 626.422C1797.21 625.694 1796.23 625.33 1794.97 625.33C1793.88 625.33 1792.93 625.68 1792.11 626.38C1791.3 627.052 1790.81 628.116 1790.64 629.572Z" fill="#FF8CA1"/>
<g filter="url(#filter1_d_1553_229)">
<rect x="1714.63" y="-259.845" width="479.33" height="523.187" transform="rotate(40.2641 1714.63 -259.845)" fill="#FAFAFA"/>
<rect x="1713.34" y="-211.966" width="419.413" height="389.953" transform="rotate(40.2641 1713.34 -211.966)" fill="#454545"/>
</g>
<g style="mix-blend-mode:multiply" opacity="0.15" filter="url(#filter2_f_1553_229)">
<path d="M1363.82 89.3852L1559.82 -404.615L2227.82 189.385L2059.82 683.385L1363.82 89.3852Z" fill="#858585"/>
</g>
<rect x="2317.57" y="-39.9915" width="528.213" height="742.535" rx="10" transform="rotate(130.645 2317.57 -39.9915)" fill="#969696"/>
<rect x="2227.82" y="19.9028" width="258.728" height="502.1" rx="18" transform="rotate(130.645 2227.82 19.9028)" fill="#747474"/>
<path d="M2150.21 139.607C2154.4 143.205 2154.88 149.518 2151.28 153.709L1982.35 350.495C1978.75 354.685 1972.44 355.166 1968.24 351.569L1809.95 215.677C1808.6 214.514 1807.58 213.01 1807 211.321L1797.39 183.185C1796.82 181.496 1795.8 179.991 1794.44 178.829L1705.76 102.698L1617.08 26.5668C1615.73 25.404 1614.09 24.625 1612.33 24.3106L1583.06 19.074C1581.31 18.7596 1579.67 17.9806 1578.31 16.8179L1420.02 -119.074C1415.83 -122.672 1415.35 -128.985 1418.94 -133.175L1587.88 -329.962C1591.48 -334.152 1597.79 -334.633 1601.98 -331.036L2150.21 139.607Z" fill="#FFE8E8"/>
<mask id="mask0_1553_229" style="mask-type:alpha" maskUnits="userSpaceOnUse" x="1416" y="-334" width="738" height="688">
<path d="M2150.21 139.607C2154.4 143.205 2154.88 149.518 2151.28 153.709L1982.35 350.495C1978.75 354.685 1972.44 355.166 1968.24 351.569L1809.95 215.677C1808.6 214.514 1807.58 213.01 1807 211.321L1797.39 183.185C1796.82 181.496 1795.8 179.991 1794.44 178.829L1705.76 102.698L1617.08 26.5668C1615.73 25.404 1614.09 24.625 1612.33 24.3106L1583.06 19.074C1581.31 18.7596 1579.67 17.9806 1578.31 16.8179L1420.02 -119.074C1415.83 -122.672 1415.35 -128.985 1418.94 -133.175L1587.88 -329.962C1591.48 -334.152 1597.79 -334.633 1601.98 -331.036L2150.21 139.607Z" fill="#FFEBE8"/>
</mask>
<g mask="url(#mask0_1553_229)">
<path d="M1428.67 -71.9364L1461.93 -149.814C1463.89 -154.391 1468.91 -156.834 1473.72 -155.546L1485.07 -152.503C1486.4 -152.148 1487.64 -151.524 1488.71 -150.67L1973.16 234.66C1974.63 235.831 1975.75 237.395 1976.37 239.171L2018.33 358.598C2020.88 365.865 2014.6 373.169 2007.03 371.738L1891.48 349.89C1889.69 349.551 1888.02 348.729 1886.66 347.512L1431.19 -60.5602C1428 -63.4198 1426.98 -67.9954 1428.67 -71.9364Z" fill="#F7AAAA"/>
</g>
<rect x="1841.98" y="145.285" width="97.5221" height="262.197" transform="rotate(130.645 1841.98 145.285)" fill="#FFFAF9"/>
<rect x="1784.03" y="212.789" width="8.55476" height="262.197" transform="rotate(130.645 1784.03 212.789)" fill="#252525"/>
<path d="M1860.26 168.239L1826.65 179.973L1611.07 -5.09444L1617.58 -40.0932L1860.26 168.239Z" fill="#F56F6F"/>
<rect x="1960.46" y="271.022" width="7.27124" height="139.405" transform="rotate(130.645 1960.46 271.022)" fill="#969696"/>
<rect x="2143.26" y="134.818" width="222.418" height="705.752" rx="10" transform="rotate(130.645 2143.26 134.818)" fill="#FFFAF9"/>
</g>
<defs>
<filter id="filter0_d_1553_229" x="617.347" y="435.998" width="694.695" height="775.354" filterUnits="userSpaceOnUse" color-interpolation-filters="sRGB">
<feFlood flood-opacity="0" result="BackgroundImageFix"/>
<feColorMatrix in="SourceAlpha" type="matrix" values="0 0 0 0 0 0 0 0 0 0 0 0 0 0 0 0 0 0 127 0" result="hardAlpha"/>
<feOffset/>
<feGaussianBlur stdDeviation="2"/>
<feComposite in2="hardAlpha" operator="out"/>
<feColorMatrix type="matrix" values="0 0 0 0 0 0 0 0 0 0 0 0 0 0 0 0 0 0 0.25 0"/>
<feBlend mode="normal" in2="BackgroundImageFix" result="effect1_dropShadow_1553_229"/>
<feBlend mode="normal" in="SourceGraphic" in2="effect1_dropShadow_1553_229" result="shape"/>
</filter>
<filter id="filter1_d_1553_229" x="1372.49" y="-260.845" width="711.906" height="717.027" filterUnits="userSpaceOnUse" color-interpolation-filters="sRGB">
<feFlood flood-opacity="0" result="BackgroundImageFix"/>
<feColorMatrix in="SourceAlpha" type="matrix" values="0 0 0 0 0 0 0 0 0 0 0 0 0 0 0 0 0 0 127 0" result="hardAlpha"/>
<feOffset dy="3"/>
<feGaussianBlur stdDeviation="2"/>
<feComposite in2="hardAlpha" operator="out"/>
<feColorMatrix type="matrix" values="0 0 0 0 0 0 0 0 0 0 0 0 0 0 0 0 0 0 0.15 0"/>
<feBlend mode="normal" in2="BackgroundImageFix" result="effect1_dropShadow_1553_229"/>
<feBlend mode="normal" in="SourceGraphic" in2="effect1_dropShadow_1553_229" result="shape"/>
</filter>
<filter id="filter2_f_1553_229" x="1339.82" y="-428.615" width="912" height="1136" filterUnits="userSpaceOnUse" color-interpolation-filters="sRGB">
<feFlood flood-opacity="0" result="BackgroundImageFix"/>
<feBlend mode="normal" in="SourceGraphic" in2="BackgroundImageFix" result="shape"/>
<feGaussianBlur stdDeviation="12" result="effect1_foregroundBlur_1553_229"/>
</filter>
<clipPath id="clip0_1553_229">
<rect width="1920" height="1080" fill="white"/>
</clipPath>
</defs>
</svg>
