<svg width="92" height="87" viewBox="0 0 92 87" fill="none" xmlns="http://www.w3.org/2000/svg">
<path fill-rule="evenodd" clip-rule="evenodd" d="M16 12C13.7909 12 12 13.7909 12 16V80.9895C12 84.3032 9.31371 86.9895 6 86.9895C2.68629 86.9895 0 84.3032 0 80.9895V16C0 7.16344 7.16345 0 16 0H76C84.8366 0 92 7.16344 92 16V80.9895C92 84.3032 89.3137 86.9895 86 86.9895C82.6863 86.9895 80 84.3032 80 80.9895V16C80 13.7909 78.2091 12 76 12H16Z" fill="white"/>
<path fill-rule="evenodd" clip-rule="evenodd" d="M42.0125 46.9144C43.782 46.6935 45.558 47.2712 46.859 48.4907L53.8324 55.0273L60.1093 51.9427C62.7646 50.6378 65.9748 51.4633 67.6713 53.8872L77.6713 68.1751C79.5713 70.89 78.9109 74.6311 76.196 76.5312C73.4812 78.4313 69.7401 77.7708 67.84 75.056L60.7879 64.9799L55.4019 67.6268C53.1615 68.7277 50.4735 68.3265 48.6523 66.6194L43.918 62.1816L35.809 74.8502C34.0226 77.6411 30.3119 78.4554 27.521 76.669C24.73 74.8825 23.9157 71.1718 25.7022 68.3809L37.7022 49.6335C38.6635 48.1317 40.2431 47.1352 42.0125 46.9144Z" fill="white"/>
<path d="M38.4705 34.4598C38.4705 39.1321 34.6829 42.9197 30.0106 42.9197C25.3384 42.9197 21.5508 39.1321 21.5508 34.4598C21.5508 29.7876 25.3384 26 30.0106 26C34.6829 26 38.4705 29.7876 38.4705 34.4598Z" fill="white"/>
</svg>
