<svg width="1920" height="1080" viewBox="0 0 1920 1080" fill="none" xmlns="http://www.w3.org/2000/svg">
<g clip-path="url(#clip0_1461_231)">
<rect width="1920" height="1080" fill="#FCF9F6"/>
<path d="M122.442 1080L122.442 4.79195e-07" stroke="#FF5B9E" stroke-width="6" stroke-dasharray="20 20"/>
<path d="M0 110.995L1920 110.994" stroke="#FF999E" stroke-width="6" stroke-dasharray="20 20"/>
<path d="M1196.97 553.449C1196.97 442.083 1287.25 351.803 1398.62 351.803H1920V755.095H1398.62C1287.25 755.095 1196.97 664.815 1196.97 553.449V553.449Z" fill="url(#paint0_linear_1461_231)"/>
<circle cx="-6.10352e-05" cy="967.256" r="21.5366" fill="#424242"/>
<circle cx="-6.10352e-05" cy="601.037" r="21.5366" fill="#424242"/>
<circle cx="-6.10352e-05" cy="845.183" r="21.5366" fill="#424242"/>
<circle cx="-6.10352e-05" cy="478.963" r="21.5366" fill="#424242"/>
<circle cx="-6.10352e-05" cy="234.817" r="21.5366" fill="#424242"/>
<circle cx="-6.10352e-05" cy="723.11" r="21.5366" fill="#424242"/>
<circle cx="-6.10352e-05" cy="356.89" r="21.5366" fill="#424242"/>
<circle cx="-6.10352e-05" cy="112.744" r="21.5366" fill="#424242"/>
<path d="M1319.4 566.133V524.41H1327.88V566.133H1319.4ZM1330.01 566.133V524.41H1336.37V566.133H1330.01ZM1338.49 566.133V524.41H1340.61V566.133H1338.49Z" fill="white"/>
<path d="M1342.74 566.133V524.41H1344.86V566.133H1342.74ZM1346.98 566.133V524.41H1351.23V566.133H1346.98ZM1355.47 566.133V524.41H1357.59V566.133H1355.47Z" fill="white"/>
<path d="M1366.08 566.133V524.41H1374.57V566.133H1366.08ZM1376.69 566.133V524.41H1383.05V566.133H1376.69ZM1385.18 566.133V524.41H1387.3V566.133H1385.18Z" fill="white"/>
<path d="M1389.42 566.133V524.41H1391.55V566.133H1389.42ZM1397.91 566.133V524.41H1406.4V566.133H1397.91ZM1408.52 566.133V524.41H1410.64V566.133H1408.52Z" fill="white"/>
<path d="M1412.77 566.133V524.41H1414.89V566.133H1412.77ZM1419.13 566.133V524.41H1421.25V566.133H1419.13ZM1425.5 566.133V524.41H1433.98V566.133H1425.5Z" fill="white"/>
<path d="M1436.11 566.133V524.41H1440.35V566.133H1436.11ZM1442.47 566.133V524.41H1446.72V566.133H1442.47ZM1448.84 566.133V524.41H1457.32V566.133H1448.84Z" fill="white"/>
<path d="M1459.45 566.133V524.41H1463.69V566.133H1459.45ZM1465.82 566.133V524.41H1470.06V566.133H1465.82ZM1474.3 566.133V524.41H1478.55V566.133H1474.3Z" fill="white"/>
<path d="M1482.79 566.133V524.41H1484.92V566.133H1482.79ZM1493.4 566.133V524.41H1495.52V566.133H1493.4ZM1497.64 566.133V524.41H1501.89V566.133H1497.64Z" fill="white"/>
<path d="M1506.14 566.133V524.41H1508.26V566.133H1506.14ZM1512.5 566.133V524.41H1514.62V566.133H1512.5ZM1516.74 566.133V524.41H1520.99V566.133H1516.74Z" fill="white"/>
<path d="M1529.48 566.133V524.41H1531.6V566.133H1529.48ZM1533.72 566.133V524.41H1535.84V566.133H1533.72ZM1540.09 566.133V524.41H1548.57V566.133H1540.09Z" fill="white"/>
<path d="M1552.82 566.133V524.41H1554.94V566.133H1552.82ZM1557.06 566.133V524.41H1565.55V566.133H1557.06ZM1569.79 566.133V524.41H1571.91V566.133H1569.79Z" fill="white"/>
<path d="M1576.16 566.133V524.41H1578.28V566.133H1576.16ZM1582.53 566.133V524.41H1591.01V566.133H1582.53ZM1595.26 566.133V524.41H1597.38V566.133H1595.26Z" fill="white"/>
<path d="M1599.5 566.133V524.41H1603.75V566.133H1599.5ZM1607.99 566.133V524.41H1610.11V566.133H1607.99ZM1612.23 566.133V524.41H1614.36V566.133H1612.23Z" fill="white"/>
<path d="M1622.85 566.133V524.41H1624.97V566.133H1622.85ZM1627.09 566.133V524.41H1631.33V566.133H1627.09ZM1635.58 566.133V524.41H1637.7V566.133H1635.58Z" fill="white"/>
<path d="M1321.67 588.864V576.744H1323.42V577.938C1323.7 577.496 1324.06 577.142 1324.51 576.877C1324.95 576.594 1325.41 576.453 1325.88 576.453C1326.42 576.453 1326.88 576.621 1327.26 576.957C1327.67 577.293 1327.93 577.717 1328.03 578.23C1328.26 577.699 1328.63 577.275 1329.12 576.957C1329.62 576.621 1330.16 576.453 1330.76 576.453C1331.6 576.453 1332.2 576.753 1332.57 577.354C1332.96 577.938 1333.13 578.672 1333.1 579.555V588.864H1331.35V580.271C1331.35 579.529 1331.29 578.99 1331.19 578.654C1331.1 578.318 1330.97 578.106 1330.79 578.017C1330.61 577.911 1330.42 577.858 1330.21 577.858C1329.87 577.858 1329.55 578.017 1329.25 578.336C1328.97 578.636 1328.73 579.016 1328.54 579.476C1328.36 579.936 1328.27 580.395 1328.27 580.855V588.864H1326.49V580.431C1326.49 579.423 1326.4 578.751 1326.2 578.415C1326.03 578.079 1325.68 577.911 1325.17 577.911C1324.78 577.911 1324.39 578.168 1324 578.68C1323.61 579.175 1323.42 579.874 1323.42 580.775V588.864H1321.67Z" fill="white"/>
<path d="M1351.21 589.129C1349.44 589.129 1348.01 588.59 1346.91 587.511C1345.84 586.433 1345.3 584.877 1345.3 582.844C1345.3 581.465 1345.54 580.307 1346.04 579.37C1346.55 578.415 1347.22 577.69 1348.05 577.195C1348.9 576.7 1349.84 576.453 1350.87 576.453C1351.79 576.453 1352.62 576.656 1353.36 577.063C1354.1 577.469 1354.69 578.097 1355.14 578.946C1355.58 579.794 1355.8 580.881 1355.8 582.207C1355.8 582.349 1355.79 582.499 1355.77 582.658C1355.77 582.8 1355.76 582.941 1355.75 583.083H1347.13C1347.2 584.638 1347.63 585.779 1348.43 586.503C1349.24 587.228 1350.19 587.591 1351.26 587.591C1352.54 587.591 1353.58 587.14 1354.39 586.238L1355.45 587.273C1354.43 588.51 1353.01 589.129 1351.21 589.129ZM1347.21 581.597H1353.86C1353.86 580.466 1353.57 579.573 1352.99 578.919C1352.42 578.247 1351.67 577.911 1350.73 577.911C1349.9 577.911 1349.15 578.212 1348.48 578.813C1347.81 579.396 1347.38 580.325 1347.21 581.597Z" fill="white"/>
<path d="M1368.34 588.864V576.744H1370.09V577.938C1370.38 577.496 1370.74 577.142 1371.18 576.877C1371.62 576.594 1372.08 576.453 1372.56 576.453C1373.09 576.453 1373.55 576.621 1373.94 576.957C1374.34 577.293 1374.6 577.717 1374.71 578.23C1374.94 577.699 1375.3 577.275 1375.79 576.957C1376.29 576.621 1376.84 576.453 1377.44 576.453C1378.27 576.453 1378.87 576.753 1379.24 577.354C1379.63 577.938 1379.81 578.672 1379.77 579.555V588.864H1378.02V580.271C1378.02 579.529 1377.97 578.99 1377.86 578.654C1377.77 578.318 1377.64 578.106 1377.46 578.017C1377.29 577.911 1377.09 577.858 1376.88 577.858C1376.55 577.858 1376.23 578.017 1375.93 578.336C1375.64 578.636 1375.4 579.016 1375.21 579.476C1375.03 579.936 1374.95 580.395 1374.95 580.855V588.864H1373.17V580.431C1373.17 579.423 1373.07 578.751 1372.88 578.415C1372.7 578.079 1372.36 577.911 1371.84 577.911C1371.45 577.911 1371.06 578.168 1370.68 578.68C1370.29 579.175 1370.09 579.874 1370.09 580.775V588.864H1368.34Z" fill="white"/>
<path d="M1397.3 589.076C1396.2 589.076 1395.23 588.811 1394.38 588.28C1393.55 587.732 1392.9 586.99 1392.42 586.053C1391.94 585.098 1391.71 584.011 1391.71 582.791C1391.71 581.553 1391.94 580.466 1392.42 579.529C1392.9 578.574 1393.55 577.832 1394.38 577.301C1395.23 576.753 1396.2 576.479 1397.3 576.479C1398.4 576.479 1399.36 576.753 1400.19 577.301C1401.04 577.832 1401.7 578.574 1402.18 579.529C1402.66 580.466 1402.9 581.553 1402.9 582.791C1402.9 584.011 1402.66 585.098 1402.18 586.053C1401.7 586.99 1401.04 587.732 1400.19 588.28C1399.36 588.811 1398.4 589.076 1397.3 589.076ZM1397.3 587.485C1398.01 587.485 1398.63 587.281 1399.16 586.875C1399.69 586.468 1400.1 585.911 1400.4 585.204C1400.72 584.497 1400.88 583.684 1400.88 582.764C1400.88 581.385 1400.54 580.263 1399.87 579.396C1399.2 578.512 1398.34 578.07 1397.3 578.07C1396.26 578.07 1395.4 578.512 1394.73 579.396C1394.06 580.263 1393.72 581.385 1393.72 582.764C1393.72 583.684 1393.87 584.497 1394.17 585.204C1394.49 585.911 1394.91 586.468 1395.44 586.875C1395.99 587.281 1396.61 587.485 1397.3 587.485Z" fill="white"/>
<path d="M1417.16 576.744H1419.15L1419.1 578.972C1419.44 578.159 1419.96 577.54 1420.66 577.116C1421.37 576.674 1422.13 576.453 1422.94 576.453C1424.24 576.453 1425.3 576.895 1426.15 577.779L1425.3 579.264L1425.2 579.502L1425.01 579.396C1424.98 579.255 1424.92 579.122 1424.85 578.999C1424.78 578.875 1424.63 578.725 1424.4 578.548C1424.12 578.371 1423.85 578.256 1423.61 578.203C1423.38 578.132 1423.11 578.097 1422.81 578.097C1422.23 578.097 1421.65 578.247 1421.06 578.548C1420.5 578.848 1420.03 579.317 1419.66 579.953C1419.28 580.59 1419.1 581.421 1419.1 582.446V588.89H1417.16V576.744Z" fill="white"/>
<path d="M1440.71 593.478C1439.58 593.478 1438.65 593.133 1437.93 592.444L1438.75 591.144L1438.91 590.906L1439.07 591.012C1439.1 591.153 1439.17 591.268 1439.25 591.356C1439.34 591.463 1439.51 591.595 1439.76 591.754C1440.08 591.86 1440.43 591.913 1440.82 591.913C1441.51 591.913 1442.05 591.666 1442.44 591.171C1442.82 590.693 1443.19 589.951 1443.52 588.943L1438.56 576.744H1440.55L1444.32 586.45L1445.91 581.571C1446.18 580.758 1446.43 579.953 1446.68 579.158C1446.93 578.362 1447.09 577.558 1447.18 576.744H1449.09C1448.97 577.558 1448.77 578.38 1448.51 579.211C1448.24 580.042 1447.96 580.873 1447.66 581.704L1444.64 590.243C1444.21 591.427 1443.66 592.258 1442.99 592.735C1442.34 593.23 1441.58 593.478 1440.71 593.478Z" fill="white"/>
<path d="M1491.58 589.155C1490.41 589.155 1489.37 588.881 1488.45 588.333C1487.53 587.785 1486.8 587.034 1486.27 586.079C1485.76 585.124 1485.5 584.037 1485.5 582.817C1485.5 581.597 1485.76 580.519 1486.27 579.582C1486.8 578.627 1487.52 577.876 1488.42 577.328C1489.34 576.78 1490.38 576.506 1491.55 576.506C1492.54 576.506 1493.42 576.709 1494.2 577.116C1495 577.505 1495.64 578.053 1496.14 578.76L1494.94 579.927L1494.76 580.112L1494.63 579.98C1494.63 579.838 1494.59 579.706 1494.52 579.582C1494.47 579.458 1494.33 579.29 1494.12 579.078C1493.73 578.725 1493.32 578.477 1492.88 578.336C1492.43 578.194 1491.92 578.123 1491.34 578.123C1490.67 578.123 1490.03 578.309 1489.43 578.68C1488.84 579.052 1488.37 579.582 1488 580.271C1487.64 580.943 1487.47 581.748 1487.47 582.685C1487.47 583.586 1487.64 584.4 1488 585.124C1488.37 585.832 1488.87 586.397 1489.51 586.822C1490.14 587.228 1490.87 587.432 1491.68 587.432C1492.9 587.432 1493.95 586.937 1494.84 585.947L1495.95 587.246C1494.77 588.519 1493.31 589.155 1491.58 589.155Z" fill="white"/>
<path d="M1512.95 589.155C1511.57 589.155 1510.51 588.846 1509.77 588.227C1509.03 587.591 1508.65 586.786 1508.65 585.814C1508.65 584.948 1508.93 584.205 1509.48 583.586C1510.02 582.95 1510.76 582.464 1511.68 582.128C1512.61 581.774 1513.64 581.597 1514.75 581.597C1515.16 581.597 1515.58 581.606 1516.03 581.624C1516.49 581.642 1516.97 581.686 1517.48 581.757C1517.38 580.342 1517.01 579.37 1516.37 578.839C1515.75 578.309 1514.86 578.044 1513.69 578.044C1513.11 578.044 1512.53 578.159 1511.97 578.389C1511.4 578.601 1510.89 578.937 1510.43 579.396L1509.5 578.176C1510.07 577.611 1510.72 577.186 1511.46 576.904C1512.21 576.621 1512.99 576.479 1513.83 576.479C1514.9 576.479 1515.84 576.656 1516.64 577.01C1517.43 577.363 1518.05 577.973 1518.49 578.839C1518.93 579.706 1519.16 580.899 1519.16 582.42V588.864H1517.09V587.007C1516.79 587.591 1516.4 588.042 1515.92 588.36C1515.46 588.66 1514.97 588.864 1514.44 588.97C1513.92 589.093 1513.43 589.155 1512.95 589.155ZM1510.56 585.708C1510.56 586.468 1510.81 586.99 1511.31 587.273C1511.8 587.555 1512.41 587.697 1513.14 587.697C1514.44 587.697 1515.48 587.317 1516.24 586.556C1517 585.779 1517.41 584.665 1517.48 583.215C1516.57 583.091 1515.71 583.029 1514.91 583.029C1513.64 583.029 1512.6 583.242 1511.78 583.666C1510.97 584.09 1510.56 584.771 1510.56 585.708Z" fill="white"/>
<path d="M1532.28 593.292V576.744H1534.22V579.131C1534.5 578.212 1534.97 577.54 1535.62 577.116C1536.3 576.691 1537.06 576.479 1537.9 576.479C1538.81 576.479 1539.64 576.709 1540.4 577.169C1541.18 577.611 1541.79 578.291 1542.25 579.211C1542.73 580.13 1542.97 581.297 1542.97 582.711C1542.97 584.126 1542.72 585.319 1542.23 586.291C1541.73 587.246 1541.1 587.971 1540.32 588.466C1539.54 588.943 1538.72 589.182 1537.85 589.182C1537.13 589.182 1536.45 589.014 1535.81 588.678C1535.17 588.342 1534.65 587.874 1534.24 587.273V593.292H1532.28ZM1537.53 587.485C1538.1 587.485 1538.65 587.352 1539.18 587.087C1539.71 586.804 1540.14 586.318 1540.48 585.628C1540.81 584.939 1540.98 583.993 1540.98 582.791C1540.98 581.341 1540.71 580.218 1540.16 579.423C1539.61 578.61 1538.83 578.176 1537.82 578.123C1537.17 578.088 1536.57 578.238 1536.02 578.574C1535.47 578.893 1535.03 579.432 1534.7 580.192C1534.38 580.952 1534.22 581.96 1534.22 583.215C1534.25 584.647 1534.57 585.717 1535.17 586.424C1535.77 587.131 1536.56 587.485 1537.53 587.485Z" fill="white"/>
<path d="M1560.68 589.129C1558.63 589.129 1556.92 588.492 1555.54 587.219L1556.6 585.416L1556.76 585.178L1556.92 585.284C1556.95 585.425 1556.99 585.575 1557.02 585.734C1557.08 585.876 1557.2 586.053 1557.4 586.265C1557.77 586.636 1558.21 586.945 1558.72 587.193C1559.25 587.423 1559.92 587.538 1560.74 587.538C1561.71 587.538 1562.46 587.37 1562.99 587.034C1563.54 586.68 1563.81 586.203 1563.81 585.602C1563.81 585.089 1563.58 584.665 1563.12 584.329C1562.68 583.993 1561.9 583.639 1560.76 583.268C1559.37 582.862 1558.25 582.358 1557.42 581.757C1556.61 581.155 1556.2 580.404 1556.2 579.502C1556.2 578.583 1556.57 577.849 1557.32 577.301C1558.08 576.736 1559.19 576.453 1560.66 576.453C1561.79 576.453 1562.73 576.612 1563.47 576.93C1564.21 577.248 1564.88 577.726 1565.48 578.362L1564.4 579.688L1564.21 579.9L1564.08 579.768C1564.06 579.626 1564.02 579.494 1563.95 579.37C1563.89 579.228 1563.77 579.06 1563.57 578.866C1563.17 578.548 1562.71 578.309 1562.2 578.15C1561.68 577.973 1561.19 577.885 1560.71 577.885C1560 577.885 1559.39 578.009 1558.88 578.256C1558.37 578.504 1558.11 578.884 1558.11 579.396C1558.11 579.662 1558.2 579.927 1558.38 580.192C1558.57 580.439 1558.92 580.696 1559.41 580.961C1559.91 581.208 1560.61 581.465 1561.53 581.73C1563.05 582.19 1564.12 582.694 1564.74 583.242C1565.38 583.772 1565.7 584.47 1565.7 585.337C1565.7 586.008 1565.51 586.636 1565.14 587.219C1564.79 587.803 1564.24 588.271 1563.5 588.625C1562.75 588.961 1561.82 589.129 1560.68 589.129Z" fill="white"/>
<path d="M1583.23 589.155C1582.02 589.155 1581.02 588.705 1580.23 587.803C1579.43 586.901 1579.04 585.469 1579.06 583.507L1579.09 576.744H1580.94V583.507C1580.94 585.045 1581.21 586.115 1581.74 586.716C1582.29 587.317 1582.94 587.617 1583.7 587.617C1584.27 587.617 1584.8 587.467 1585.29 587.166C1585.79 586.866 1586.19 586.406 1586.49 585.787C1586.81 585.169 1586.96 584.382 1586.96 583.427V576.744H1588.82V586.981C1588.82 587.299 1588.83 587.617 1588.85 587.935C1588.88 588.236 1588.96 588.545 1589.09 588.864H1587.26C1587.13 588.563 1587.05 588.254 1587.02 587.935C1587 587.617 1586.99 587.308 1586.99 587.007C1586.6 587.679 1586.07 588.21 1585.4 588.598C1584.75 588.97 1584.02 589.155 1583.23 589.155Z" fill="white"/>
<path d="M1602.8 588.864V587.326H1606.38V572.767H1602.96V571.229H1608.31V587.326H1611.87V588.864H1602.8Z" fill="white"/>
<path d="M1631.25 589.129C1629.48 589.129 1628.05 588.59 1626.96 587.511C1625.88 586.433 1625.34 584.877 1625.34 582.844C1625.34 581.465 1625.59 580.307 1626.08 579.37C1626.59 578.415 1627.26 577.69 1628.1 577.195C1628.94 576.7 1629.88 576.453 1630.91 576.453C1631.83 576.453 1632.66 576.656 1633.4 577.063C1634.14 577.469 1634.73 578.097 1635.18 578.946C1635.62 579.794 1635.84 580.881 1635.84 582.207C1635.84 582.349 1635.83 582.499 1635.81 582.658C1635.81 582.8 1635.8 582.941 1635.79 583.083H1627.17C1627.24 584.638 1627.67 585.779 1628.47 586.503C1629.28 587.228 1630.23 587.591 1631.3 587.591C1632.58 587.591 1633.62 587.14 1634.43 586.238L1635.49 587.273C1634.47 588.51 1633.05 589.129 1631.25 589.129ZM1627.25 581.597H1633.9C1633.9 580.466 1633.61 579.573 1633.03 578.919C1632.46 578.247 1631.71 577.911 1630.77 577.911C1629.94 577.911 1629.19 578.212 1628.52 578.813C1627.85 579.396 1627.42 580.325 1627.25 581.597Z" fill="white"/>
<path d="M1735.41 760.59L1735.41 351.803L1767.36 351.803L1767.36 760.59L1735.41 760.59Z" fill="white"/>
<g filter="url(#filter0_d_1461_231)">
<rect x="-122.239" y="215.32" width="479.33" height="523.187" transform="rotate(-49.7359 -122.239 215.32)" fill="#FAFAFA"/>
<rect x="-74.3604" y="216.613" width="419.413" height="389.953" transform="rotate(-49.7359 -74.3604 216.613)" fill="#454545"/>
</g>
<g style="mix-blend-mode:multiply" opacity="0.15" filter="url(#filter1_f_1461_231)">
<path d="M226.991 566.133L-267.009 370.133L326.991 -297.867L820.991 -129.867L226.991 566.133Z" fill="#858585"/>
</g>
<rect x="97.6143" y="-387.618" width="528.213" height="742.535" rx="10" transform="rotate(40.6455 97.6143 -387.618)" fill="#969696"/>
<rect x="157.509" y="-297.867" width="258.728" height="502.1" rx="18" transform="rotate(40.6455 157.509 -297.867)" fill="#747474"/>
<path d="M277.213 -220.256C280.811 -224.447 287.124 -224.928 291.315 -221.33L488.101 -52.3927C492.291 -48.7953 492.772 -42.4819 489.175 -38.2914L353.283 120.002C352.12 121.356 350.616 122.375 348.927 122.952L320.791 132.559C319.101 133.136 317.597 134.155 316.435 135.509L240.304 224.19L164.173 312.871C163.01 314.225 162.231 315.866 161.917 317.623L156.68 346.89C156.366 348.647 155.587 350.288 154.424 351.642L18.5319 509.936C14.9344 514.126 8.62102 514.607 4.43053 511.009L-192.356 342.072C-196.546 338.474 -197.027 332.161 -193.43 327.971L277.213 -220.256Z" fill="#FFE8E8"/>
<mask id="mask0_1461_231" style="mask-type:alpha" maskUnits="userSpaceOnUse" x="-196" y="-224" width="688" height="738">
<path d="M277.213 -220.256C280.811 -224.447 287.124 -224.928 291.315 -221.33L488.101 -52.3926C492.291 -48.7951 492.772 -42.4818 489.175 -38.2913L353.283 120.002C352.12 121.357 350.616 122.375 348.927 122.952L320.791 132.559C319.101 133.136 317.597 134.155 316.435 135.509L240.304 224.19L164.173 312.871C163.01 314.225 162.231 315.866 161.917 317.624L156.68 346.89C156.366 348.647 155.587 350.288 154.424 351.642L18.5319 509.936C14.9344 514.126 8.62102 514.607 4.43053 511.009L-192.356 342.072C-196.546 338.474 -197.027 332.161 -193.43 327.971L277.213 -220.256Z" fill="#FFEBE8"/>
</mask>
<g mask="url(#mask0_1461_231)">
<path d="M65.6696 501.287L-12.2085 468.021C-16.785 466.066 -19.2276 461.043 -17.9396 456.236L-14.8967 444.88C-14.5416 443.555 -13.9176 442.317 -13.0636 441.243L372.266 -43.2072C373.437 -44.6805 375.001 -45.7931 376.777 -46.417L496.204 -88.3714C503.471 -90.9245 510.775 -84.6477 509.344 -77.0789L487.496 38.4756C487.157 40.2674 486.335 41.9325 485.118 43.2906L77.0458 498.763C74.1862 501.955 69.6106 502.97 65.6696 501.287Z" fill="#F7AAAA"/>
</g>
<rect x="282.891" y="87.9696" width="97.5221" height="262.197" transform="rotate(40.6455 282.891 87.9696)" fill="#FFFAF9"/>
<rect x="350.396" y="145.921" width="8.55476" height="262.197" transform="rotate(40.6455 350.396 145.921)" fill="#252525"/>
<path d="M305.845 69.6948L317.579 103.304L132.512 318.88L97.5128 312.37L305.845 69.6948Z" fill="#F56F6F"/>
<rect x="66.1084" y="374.831" width="7.27124" height="74.853" transform="rotate(40.6455 66.1084 374.831)" fill="#FF644E"/>
<rect x="64.4912" y="367.522" width="7.27124" height="83.835" transform="rotate(40.6455 64.4912 367.522)" fill="#969696"/>
<rect x="98.7979" y="324.818" width="11.9231" height="88.5401" transform="rotate(40.6455 98.7979 324.818)" fill="#FF8787"/>
<rect x="408.628" y="-30.5054" width="7.27124" height="139.405" transform="rotate(40.6455 408.628 -30.5054)" fill="#969696"/>
<rect x="272.424" y="-213.308" width="222.418" height="705.752" rx="10" transform="rotate(40.6455 272.424 -213.308)" fill="#FFFAF9"/>
<g filter="url(#filter2_d_1461_231)">
<rect x="1163.59" y="-244.203" width="353.944" height="445.196" transform="rotate(15 1163.59 -244.203)" fill="white"/>
<rect x="1176.73" y="-207.761" width="309.701" height="331.823" transform="rotate(15 1176.73 -207.761)" fill="#454545"/>
</g>
<g filter="url(#filter3_d_1461_231)">
<rect x="1345.09" y="866.719" width="361.035" height="454.115" transform="rotate(-16.7384 1345.09 866.719)" fill="white"/>
<rect x="1376.04" y="891.283" width="315.906" height="338.471" transform="rotate(-16.7384 1376.04 891.283)" fill="#454545"/>
</g>
<rect width="306" height="403" transform="matrix(-1 8.74228e-08 8.74228e-08 1 2071 352)" fill="url(#paint1_linear_1461_231)"/>
<circle cx="1918.17" cy="558.944" r="53.0972" fill="white"/>
</g>
<defs>
<filter id="filter0_d_1461_231" x="-126.239" y="-151.444" width="717.027" height="711.906" filterUnits="userSpaceOnUse" color-interpolation-filters="sRGB">
<feFlood flood-opacity="0" result="BackgroundImageFix"/>
<feColorMatrix in="SourceAlpha" type="matrix" values="0 0 0 0 0 0 0 0 0 0 0 0 0 0 0 0 0 0 127 0" result="hardAlpha"/>
<feOffset dy="3"/>
<feGaussianBlur stdDeviation="2"/>
<feComposite in2="hardAlpha" operator="out"/>
<feColorMatrix type="matrix" values="0 0 0 0 0 0 0 0 0 0 0 0 0 0 0 0 0 0 0.15 0"/>
<feBlend mode="normal" in2="BackgroundImageFix" result="effect1_dropShadow_1461_231"/>
<feBlend mode="normal" in="SourceGraphic" in2="effect1_dropShadow_1461_231" result="shape"/>
</filter>
<filter id="filter1_f_1461_231" x="-291.009" y="-321.867" width="1136" height="912" filterUnits="userSpaceOnUse" color-interpolation-filters="sRGB">
<feFlood flood-opacity="0" result="BackgroundImageFix"/>
<feBlend mode="normal" in="SourceGraphic" in2="BackgroundImageFix" result="shape"/>
<feGaussianBlur stdDeviation="12" result="effect1_foregroundBlur_1461_231"/>
</filter>
<filter id="filter2_d_1461_231" x="1044.37" y="-248.203" width="465.109" height="529.634" filterUnits="userSpaceOnUse" color-interpolation-filters="sRGB">
<feFlood flood-opacity="0" result="BackgroundImageFix"/>
<feColorMatrix in="SourceAlpha" type="matrix" values="0 0 0 0 0 0 0 0 0 0 0 0 0 0 0 0 0 0 127 0" result="hardAlpha"/>
<feOffset/>
<feGaussianBlur stdDeviation="2"/>
<feComposite in2="hardAlpha" operator="out"/>
<feColorMatrix type="matrix" values="0 0 0 0 0 0 0 0 0 0 0 0 0 0 0 0 0 0 0.25 0"/>
<feBlend mode="normal" in2="BackgroundImageFix" result="effect1_dropShadow_1461_231"/>
<feBlend mode="normal" in="SourceGraphic" in2="effect1_dropShadow_1461_231" result="shape"/>
</filter>
<filter id="filter3_d_1461_231" x="1341.09" y="758.74" width="484.525" height="546.853" filterUnits="userSpaceOnUse" color-interpolation-filters="sRGB">
<feFlood flood-opacity="0" result="BackgroundImageFix"/>
<feColorMatrix in="SourceAlpha" type="matrix" values="0 0 0 0 0 0 0 0 0 0 0 0 0 0 0 0 0 0 127 0" result="hardAlpha"/>
<feOffset/>
<feGaussianBlur stdDeviation="2"/>
<feComposite in2="hardAlpha" operator="out"/>
<feColorMatrix type="matrix" values="0 0 0 0 0 0 0 0 0 0 0 0 0 0 0 0 0 0 0.25 0"/>
<feBlend mode="normal" in2="BackgroundImageFix" result="effect1_dropShadow_1461_231"/>
<feBlend mode="normal" in="SourceGraphic" in2="effect1_dropShadow_1461_231" result="shape"/>
</filter>
<linearGradient id="paint0_linear_1461_231" x1="1558.49" y1="755.095" x2="1558.49" y2="351.803" gradientUnits="userSpaceOnUse">
<stop stop-color="#FF5A9E"/>
<stop offset="1" stop-color="#FF9E9E"/>
</linearGradient>
<linearGradient id="paint1_linear_1461_231" x1="153" y1="403" x2="153" y2="-1.84011e-07" gradientUnits="userSpaceOnUse">
<stop stop-color="#FF5A9E"/>
<stop offset="1" stop-color="#FF9E9E"/>
</linearGradient>
<clipPath id="clip0_1461_231">
<rect width="1920" height="1080" fill="white"/>
</clipPath>
</defs>
</svg>
