<svg width="1920" height="1080" viewBox="0 0 1920 1080" fill="none" xmlns="http://www.w3.org/2000/svg">
<g clip-path="url(#clip0_1730_230)">
<rect width="1920" height="1080" fill="#FCF9F6"/>
<circle cx="144.677" cy="144.677" r="144.677" transform="matrix(4.37114e-08 -1 -1 -4.37114e-08 1372.17 703.925)" fill="#FFC7C7"/>
<circle cx="109.995" cy="109.995" r="109.995" transform="matrix(4.37114e-08 -1 -1 -4.37114e-08 1978.49 414.342)" fill="#BC4A6C"/>
<circle cx="1641.45" cy="745.133" r="460.29" fill="url(#paint0_linear_1730_230)"/>
<g filter="url(#filter0_d_1730_230)">
<rect x="109.575" y="639.093" width="506.274" height="636.798" transform="rotate(-19.0895 109.575 639.093)" fill="white"/>
<rect x="154.352" y="671.729" width="442.99" height="474.632" transform="rotate(-19.0895 154.352 671.729)" fill="#454545"/>
</g>
<path d="M0 110.995L1920 110.994" stroke="#FF999E" stroke-width="6" stroke-dasharray="20 20"/>
<circle cx="109.995" cy="109.995" r="109.995" transform="matrix(4.37114e-08 -1 -1 -4.37114e-08 1978.49 414.342)" fill="#BC4A6C"/>
<circle cx="242.601" cy="242.601" r="242.601" transform="matrix(4.37114e-08 -1 -1 -4.37114e-08 1666.36 1281.5)" fill="#FFC7C7"/>
<path fill-rule="evenodd" clip-rule="evenodd" d="M1371.62 607.628C1376.89 612.918 1385.42 612.918 1390.68 607.628C1391.01 607.296 1391.32 606.951 1391.61 606.595L1435.64 615.444C1437.83 615.884 1439.96 614.457 1440.4 612.256C1440.84 610.055 1439.42 607.914 1437.23 607.474L1394.6 598.908C1394.84 595.161 1393.53 591.335 1390.68 588.472C1387.83 585.609 1384.03 584.295 1380.3 584.531L1371.77 541.7C1371.34 539.499 1369.21 538.072 1367.02 538.512C1364.83 538.952 1363.41 541.093 1363.84 543.294L1372.65 587.538C1372.3 587.828 1371.95 588.14 1371.62 588.472C1366.36 593.762 1366.36 602.338 1371.62 607.628ZM1373.99 594.271C1372.39 597.338 1372.87 601.218 1375.43 603.797C1378.59 606.971 1383.71 606.971 1386.87 603.797C1390.03 600.623 1390.03 595.477 1386.87 592.303C1384.9 590.319 1382.16 589.575 1379.61 590.071C1379.29 590.134 1378.97 590.217 1378.65 590.319C1377.48 590.703 1376.37 591.364 1375.43 592.303C1374.84 592.898 1374.36 593.563 1373.99 594.271Z" fill="white"/>
<path fill-rule="evenodd" clip-rule="evenodd" d="M1404.98 551.118L1431.67 524.299C1447.99 507.9 1474.44 507.9 1490.76 524.299C1507.08 540.697 1507.08 567.284 1490.76 583.683L1458.39 616.216L1458.36 616.192C1457.78 620.418 1455.87 624.493 1452.64 627.742L1418.32 662.223C1414.64 665.926 1408.66 665.926 1404.98 662.223L1334.45 591.345C1319.18 576.005 1319.18 551.133 1334.45 535.792C1349.71 520.452 1374.46 520.452 1389.73 535.792L1404.98 551.118ZM1443.11 535.793C1453.11 525.742 1469.32 525.742 1479.32 535.793C1489.33 545.843 1489.33 562.139 1479.32 572.189L1452.64 599.008L1416.42 562.611L1443.11 535.793ZM1340.17 541.539C1352.27 529.373 1371.9 529.373 1384.01 541.539L1446.92 604.754C1451.65 609.515 1451.65 617.234 1446.92 621.995L1412.6 656.476C1412.08 657.005 1411.23 657.005 1410.7 656.476L1340.17 585.598C1328.06 573.432 1328.06 553.706 1340.17 541.539Z" fill="white"/>
<path d="M1556.46 566V539.834H1560.62L1565.7 551.846L1570.79 539.792H1574.94V566H1570.83V547.73L1566.71 557.348H1564.4L1560.54 547.772V566H1556.46Z" fill="white"/>
<path d="M1603.46 566.462C1601.59 566.462 1599.91 566.07 1598.42 565.286C1596.97 564.502 1595.82 563.354 1594.98 561.842C1594.14 560.33 1593.72 558.51 1593.72 556.382C1593.72 554.198 1594.12 552.336 1594.94 550.796C1595.78 549.256 1596.88 548.08 1598.25 547.268C1599.65 546.428 1601.21 546.008 1602.92 546.008C1604.43 546.008 1605.81 546.358 1607.07 547.058C1608.36 547.758 1609.38 548.822 1610.14 550.25C1610.92 551.65 1611.32 553.4 1611.32 555.5C1611.32 555.78 1611.3 556.116 1611.27 556.508C1611.27 556.9 1611.26 557.236 1611.23 557.516H1598.3C1598.35 558.748 1598.65 559.756 1599.18 560.54C1599.71 561.296 1600.37 561.856 1601.15 562.22C1601.94 562.584 1602.78 562.766 1603.67 562.766C1604.54 562.766 1605.37 562.626 1606.15 562.346C1606.93 562.066 1607.66 561.59 1608.33 560.918L1610.77 563.27C1609.82 564.39 1608.73 565.202 1607.49 565.706C1606.26 566.21 1604.92 566.462 1603.46 566.462ZM1598.38 553.946H1606.7C1606.7 552.574 1606.35 551.524 1605.65 550.796C1604.95 550.068 1603.97 549.704 1602.71 549.704C1601.61 549.704 1600.66 550.054 1599.85 550.754C1599.04 551.426 1598.55 552.49 1598.38 553.946Z" fill="white"/>
<path d="M1630.3 566V546.47H1634.29V547.898C1634.77 547.226 1635.3 546.75 1635.89 546.47C1636.47 546.162 1637.08 546.008 1637.69 546.008C1638.39 546.008 1639.04 546.19 1639.62 546.554C1640.24 546.918 1640.7 547.52 1641.01 548.36C1641.88 546.792 1643.25 546.008 1645.13 546.008C1646.55 546.008 1647.58 546.512 1648.19 547.52C1648.84 548.5 1649.14 549.858 1649.12 551.594V566H1645V552.602C1645 551.342 1644.9 550.502 1644.71 550.082C1644.51 549.634 1644.22 549.41 1643.82 549.41C1643.26 549.41 1642.76 549.788 1642.31 550.544C1641.86 551.272 1641.64 552.252 1641.64 553.484V566H1637.78V552.728C1637.78 551.384 1637.68 550.488 1637.48 550.04C1637.29 549.592 1636.92 549.368 1636.39 549.368C1635.89 549.368 1635.42 549.704 1635 550.376C1634.61 551.02 1634.42 551.972 1634.42 553.232V566H1630.3Z" fill="white"/>
<path d="M1676.46 566.42C1674.72 566.42 1673.14 566 1671.71 565.16C1670.31 564.292 1669.21 563.102 1668.39 561.59C1667.58 560.05 1667.18 558.258 1667.18 556.214C1667.18 554.282 1667.58 552.546 1668.39 551.006C1669.21 549.466 1670.31 548.248 1671.71 547.352C1673.14 546.456 1674.72 546.008 1676.46 546.008C1678.22 546.008 1679.8 546.456 1681.2 547.352C1682.63 548.248 1683.75 549.466 1684.56 551.006C1685.4 552.546 1685.82 554.282 1685.82 556.214C1685.82 558.23 1685.4 560.008 1684.56 561.548C1683.75 563.088 1682.63 564.292 1681.2 565.16C1679.8 566 1678.22 566.42 1676.46 566.42ZM1676.46 562.64C1677.8 562.64 1678.91 562.052 1679.78 560.876C1680.64 559.672 1681.08 558.118 1681.08 556.214C1681.08 554.254 1680.64 552.7 1679.78 551.552C1678.91 550.404 1677.8 549.83 1676.46 549.83C1675.17 549.83 1674.09 550.404 1673.22 551.552C1672.36 552.7 1671.92 554.254 1671.92 556.214C1671.92 558.118 1672.34 559.672 1673.18 560.876C1674.05 562.052 1675.14 562.64 1676.46 562.64Z" fill="white"/>
<path d="M1706.7 546.47H1711.61L1711.57 549.62C1712.1 548.5 1712.89 547.618 1713.92 546.974C1714.96 546.33 1716.05 546.008 1717.2 546.008C1719.38 546.008 1721.19 546.75 1722.62 548.234L1720.6 552.224L1720.47 552.56L1720.1 552.392C1720.01 552.168 1719.93 551.944 1719.84 551.72C1719.76 551.468 1719.55 551.188 1719.21 550.88C1718.82 550.572 1718.4 550.334 1717.95 550.166C1717.53 549.998 1717.07 549.914 1716.57 549.914C1715.22 549.914 1714.05 550.376 1713.04 551.3C1712.03 552.224 1711.53 553.708 1711.53 555.752V566H1706.7V546.47Z" fill="white"/>
<path d="M1745.21 573.392C1744.26 573.392 1743.42 573.238 1742.69 572.93C1741.96 572.622 1741.25 572.174 1740.55 571.586L1742.19 568.31L1742.36 567.932L1742.73 568.1C1742.82 568.324 1742.92 568.534 1743.03 568.73C1743.14 568.926 1743.39 569.15 1743.78 569.402C1744.2 569.626 1744.68 569.738 1745.21 569.738C1746.05 569.738 1746.72 569.388 1747.23 568.688C1747.76 567.988 1748.29 566.882 1748.82 565.37L1741.22 546.47H1745.97L1750.97 559.364L1753.07 553.4C1753.49 552.196 1753.84 551.034 1754.12 549.914C1754.4 548.794 1754.58 547.646 1754.66 546.47H1759.07C1758.96 547.73 1758.67 549.06 1758.19 550.46C1757.71 551.86 1757.24 553.19 1756.76 554.45L1751.93 567.722C1751.15 569.794 1750.2 571.25 1749.08 572.09C1747.98 572.958 1746.7 573.392 1745.21 573.392Z" fill="white"/>
<path d="M1566.8 631.504C1564.89 631.504 1563.18 631.07 1561.67 630.202C1560.16 629.334 1558.96 628.144 1558.06 626.632C1557.19 625.092 1556.76 623.342 1556.76 621.382C1556.76 619.45 1557.19 617.7 1558.06 616.132C1558.96 614.564 1560.16 613.318 1561.67 612.394C1563.18 611.47 1564.91 611.008 1566.84 611.008C1568.63 611.008 1570.2 611.344 1571.54 612.016C1572.89 612.688 1573.95 613.612 1574.73 614.788L1572.09 617.686L1571.84 617.98L1571.5 617.728C1571.5 617.476 1571.47 617.252 1571.42 617.056C1571.36 616.832 1571.18 616.538 1570.87 616.174C1570.34 615.67 1569.74 615.32 1569.06 615.124C1568.42 614.928 1567.69 614.83 1566.88 614.83C1565.96 614.83 1565.09 615.082 1564.28 615.586C1563.46 616.09 1562.81 616.832 1562.3 617.812C1561.83 618.792 1561.59 619.982 1561.59 621.382C1561.59 622.642 1561.84 623.748 1562.34 624.7C1562.85 625.624 1563.51 626.352 1564.32 626.884C1565.16 627.388 1566.05 627.64 1567.01 627.64C1567.87 627.64 1568.73 627.458 1569.57 627.094C1570.41 626.73 1571.19 626.1 1571.92 625.204L1574.57 628.228C1573.53 629.376 1572.33 630.216 1570.95 630.748C1569.58 631.252 1568.2 631.504 1566.8 631.504Z" fill="white"/>
<path d="M1600.4 631.504C1598.24 631.504 1596.56 631 1595.36 629.992C1594.18 628.984 1593.59 627.654 1593.59 626.002C1593.59 623.93 1594.52 622.222 1596.36 620.878C1598.24 619.506 1600.96 618.82 1604.51 618.82C1604.71 618.82 1604.96 618.82 1605.27 618.82C1605.6 618.82 1605.95 618.834 1606.32 618.862C1606.12 617.238 1605.66 616.146 1604.93 615.586C1604.2 614.998 1603.22 614.704 1601.99 614.704C1601.1 614.704 1600.26 614.858 1599.47 615.166C1598.69 615.446 1597.9 615.978 1597.12 616.762L1594.52 613.906C1595.64 612.87 1596.85 612.128 1598.17 611.68C1599.49 611.232 1600.83 611.008 1602.2 611.008C1603.83 611.008 1605.31 611.274 1606.65 611.806C1608 612.31 1609.06 613.206 1609.85 614.494C1610.63 615.754 1611.02 617.504 1611.02 619.744V631H1606.11V628.9C1605.38 629.88 1604.54 630.566 1603.59 630.958C1602.64 631.322 1601.57 631.504 1600.4 631.504ZM1598.34 625.414C1598.34 626.31 1598.62 626.94 1599.18 627.304C1599.77 627.64 1600.48 627.808 1601.32 627.808C1602.83 627.808 1604.01 627.36 1604.85 626.464C1605.69 625.54 1606.19 624.098 1606.36 622.138C1606 622.138 1605.65 622.138 1605.31 622.138C1604.97 622.11 1604.68 622.096 1604.43 622.096C1602.19 622.096 1600.61 622.404 1599.68 623.02C1598.79 623.636 1598.34 624.434 1598.34 625.414Z" fill="white"/>
<path d="M1631.06 638.014L1631.01 611.428H1635.72V614.158C1636.33 613.066 1637.12 612.268 1638.07 611.764C1639.02 611.26 1640.07 611.008 1641.22 611.008C1642.65 611.008 1643.94 611.4 1645.08 612.184C1646.26 612.94 1647.2 614.088 1647.9 615.628C1648.6 617.14 1648.95 619.03 1648.95 621.298C1648.95 623.594 1648.58 625.498 1647.86 627.01C1647.13 628.522 1646.16 629.656 1644.96 630.412C1643.78 631.14 1642.51 631.504 1641.14 631.504C1640.1 631.504 1639.11 631.322 1638.15 630.958C1637.2 630.594 1636.45 630.048 1635.89 629.32V638.014H1631.06ZM1639.83 627.808C1640.65 627.808 1641.39 627.598 1642.06 627.178C1642.73 626.758 1643.26 626.058 1643.66 625.078C1644.05 624.098 1644.24 622.754 1644.24 621.046C1644.24 619.114 1643.87 617.588 1643.11 616.468C1642.38 615.348 1641.37 614.774 1640.09 614.746C1638.74 614.718 1637.69 615.25 1636.94 616.342C1636.21 617.406 1635.84 619.156 1635.84 621.592C1635.9 625.736 1637.23 627.808 1639.83 627.808Z" fill="white"/>
<path d="M1676.88 631.462C1675.09 631.462 1673.43 631.224 1671.92 630.748C1670.41 630.272 1669.07 629.474 1667.89 628.354L1669.99 624.49L1670.16 624.154L1670.49 624.364C1670.58 624.56 1670.66 624.784 1670.75 625.036C1670.83 625.26 1671.04 625.526 1671.38 625.834C1672.08 626.422 1672.86 626.884 1673.73 627.22C1674.62 627.556 1675.7 627.724 1676.96 627.724C1678.14 627.724 1679.05 627.528 1679.69 627.136C1680.34 626.744 1680.66 626.226 1680.66 625.582C1680.66 624.938 1680.29 624.42 1679.57 624.028C1678.87 623.636 1677.7 623.202 1676.08 622.726C1673.95 622.166 1672.26 621.41 1671 620.458C1669.74 619.506 1669.11 618.232 1669.11 616.636C1669.11 615.04 1669.79 613.71 1671.17 612.646C1672.57 611.554 1674.44 611.008 1676.79 611.008C1680.01 611.008 1682.63 612.002 1684.65 613.99L1682.34 617.224L1682.04 617.56L1681.75 617.308C1681.72 617.084 1681.65 616.874 1681.54 616.678C1681.46 616.482 1681.25 616.216 1680.91 615.88C1680.35 615.488 1679.71 615.194 1678.98 614.998C1678.28 614.774 1677.58 614.662 1676.88 614.662C1675.93 614.662 1675.1 614.816 1674.4 615.124C1673.73 615.432 1673.39 615.908 1673.39 616.552C1673.39 617.112 1673.76 617.588 1674.48 617.98C1675.21 618.372 1676.46 618.792 1678.22 619.24C1680.57 619.828 1682.28 620.612 1683.35 621.592C1684.41 622.544 1684.94 623.776 1684.94 625.288C1684.94 626.408 1684.63 627.444 1684.02 628.396C1683.4 629.32 1682.49 630.062 1681.29 630.622C1680.11 631.182 1678.64 631.462 1676.88 631.462Z" fill="white"/>
<path d="M1711.86 631.504C1709.88 631.504 1708.24 630.832 1706.95 629.488C1705.66 628.144 1705.02 625.96 1705.02 622.936V611.47H1709.81V622.936C1709.81 624.672 1710.09 625.904 1710.65 626.632C1711.23 627.332 1711.96 627.682 1712.83 627.682C1714.01 627.682 1714.96 627.262 1715.69 626.422C1716.44 625.582 1716.82 624.308 1716.82 622.6V611.47H1721.57V627.892C1721.57 628.508 1721.58 629.068 1721.61 629.572C1721.66 630.048 1721.79 630.524 1721.99 631H1717.66C1717.44 630.58 1717.31 630.16 1717.28 629.74C1717.25 629.32 1717.24 628.9 1717.24 628.48C1716.65 629.488 1715.87 630.244 1714.89 630.748C1713.94 631.252 1712.93 631.504 1711.86 631.504Z" fill="white"/>
<path d="M1742.57 631V627.262H1748.07V606.556H1742.82V602.818H1752.86V627.262H1758.32V631H1742.57Z" fill="white"/>
<path d="M1788.26 631.462C1786.39 631.462 1784.71 631.07 1783.22 630.286C1781.77 629.502 1780.62 628.354 1779.78 626.842C1778.94 625.33 1778.52 623.51 1778.52 621.382C1778.52 619.198 1778.92 617.336 1779.74 615.796C1780.58 614.256 1781.68 613.08 1783.05 612.268C1784.45 611.428 1786.01 611.008 1787.72 611.008C1789.23 611.008 1790.61 611.358 1791.87 612.058C1793.16 612.758 1794.18 613.822 1794.94 615.25C1795.72 616.65 1796.12 618.4 1796.12 620.5C1796.12 620.78 1796.1 621.116 1796.07 621.508C1796.07 621.9 1796.06 622.236 1796.03 622.516H1783.1C1783.15 623.748 1783.45 624.756 1783.98 625.54C1784.51 626.296 1785.17 626.856 1785.95 627.22C1786.74 627.584 1787.58 627.766 1788.47 627.766C1789.34 627.766 1790.17 627.626 1790.95 627.346C1791.73 627.066 1792.46 626.59 1793.13 625.918L1795.57 628.27C1794.62 629.39 1793.53 630.202 1792.29 630.706C1791.06 631.21 1789.72 631.462 1788.26 631.462ZM1783.18 618.946H1791.5C1791.5 617.574 1791.15 616.524 1790.45 615.796C1789.75 615.068 1788.77 614.704 1787.51 614.704C1786.41 614.704 1785.46 615.054 1784.65 615.754C1783.84 616.426 1783.35 617.49 1783.18 618.946Z" fill="white"/>
</g>
<defs>
<filter id="filter0_d_1730_230" x="105.575" y="469.519" width="694.694" height="775.354" filterUnits="userSpaceOnUse" color-interpolation-filters="sRGB">
<feFlood flood-opacity="0" result="BackgroundImageFix"/>
<feColorMatrix in="SourceAlpha" type="matrix" values="0 0 0 0 0 0 0 0 0 0 0 0 0 0 0 0 0 0 127 0" result="hardAlpha"/>
<feOffset/>
<feGaussianBlur stdDeviation="2"/>
<feComposite in2="hardAlpha" operator="out"/>
<feColorMatrix type="matrix" values="0 0 0 0 0 0 0 0 0 0 0 0 0 0 0 0 0 0 0.25 0"/>
<feBlend mode="normal" in2="BackgroundImageFix" result="effect1_dropShadow_1730_230"/>
<feBlend mode="normal" in="SourceGraphic" in2="effect1_dropShadow_1730_230" result="shape"/>
</filter>
<linearGradient id="paint0_linear_1730_230" x1="1641.45" y1="1205.42" x2="1641.45" y2="284.843" gradientUnits="userSpaceOnUse">
<stop stop-color="#FF5A9E"/>
<stop offset="1" stop-color="#FF9E9E"/>
</linearGradient>
<clipPath id="clip0_1730_230">
<rect width="1920" height="1080" fill="white"/>
</clipPath>
</defs>
</svg>
