<svg width="152" height="86" viewBox="0 0 152 86" fill="none" xmlns="http://www.w3.org/2000/svg">
<path fill-rule="evenodd" clip-rule="evenodd" d="M75.9805 36.0861C83.2875 36.0861 89.2111 30.1626 89.2111 22.8555C89.2111 15.5485 83.2875 9.62493 75.9805 9.62493C68.6734 9.62493 62.7499 15.5485 62.7499 22.8555C62.7499 30.1626 68.6734 36.0861 75.9805 36.0861ZM75.9805 45.7111C88.6032 45.7111 98.836 35.4783 98.836 22.8555C98.836 10.2328 88.6032 0 75.9805 0C63.3577 0 53.125 10.2328 53.125 22.8555C53.125 35.4783 63.3577 45.7111 75.9805 45.7111Z" fill="white"/>
<path fill-rule="evenodd" clip-rule="evenodd" d="M71.3851 58.3307C65.8177 58.3307 60.4707 60.5064 56.485 64.3934C54.5821 66.2491 51.5353 66.2109 49.6796 64.3081C47.824 62.4053 47.8622 59.3584 49.765 57.5027C55.5484 51.8626 63.3068 48.7058 71.3851 48.7058H80.4138C88.5297 48.7058 96.3297 51.8516 102.175 57.4821C104.089 59.3261 104.146 62.3726 102.302 64.2868C100.458 66.201 97.4115 66.2579 95.4973 64.414C91.4458 60.5112 86.0393 58.3307 80.4138 58.3307H71.3851Z" fill="white"/>
<path fill-rule="evenodd" clip-rule="evenodd" d="M124.105 56.1381C131.412 56.1381 137.335 50.2146 137.335 42.9075C137.335 35.6005 131.412 29.6769 124.105 29.6769C116.797 29.6769 110.874 35.6005 110.874 42.9075C110.874 50.2146 116.797 56.1381 124.105 56.1381ZM124.105 65.7631C136.727 65.7631 146.96 55.5303 146.96 42.9075C146.96 30.2848 136.727 20.052 124.105 20.052C111.482 20.052 101.249 30.2848 101.249 42.9075C101.249 55.5303 111.482 65.7631 124.105 65.7631Z" fill="white"/>
<path fill-rule="evenodd" clip-rule="evenodd" d="M119.509 78.3827C113.942 78.3827 108.595 80.5584 104.609 84.4454C102.706 86.3011 99.6593 86.2629 97.8037 84.3601C95.948 82.4573 95.9862 79.4104 97.889 77.5547C103.672 71.9146 111.431 68.7578 119.509 68.7578H128.538C136.654 68.7578 144.454 71.9036 150.299 77.5341C152.213 79.3781 152.27 82.4246 150.426 84.3388C148.582 86.253 145.535 86.3099 143.621 84.466C139.57 80.5632 134.163 78.3827 128.538 78.3827H119.509Z" fill="white"/>
<path fill-rule="evenodd" clip-rule="evenodd" d="M27.8555 56.1381C35.1625 56.1381 41.0861 50.2146 41.0861 42.9075C41.0861 35.6005 35.1625 29.6769 27.8555 29.6769C20.5484 29.6769 14.6249 35.6005 14.6249 42.9075C14.6249 50.2146 20.5484 56.1381 27.8555 56.1381ZM27.8555 65.7631C40.4782 65.7631 50.711 55.5303 50.711 42.9075C50.711 30.2848 40.4782 20.052 27.8555 20.052C15.2327 20.052 4.99997 30.2848 4.99997 42.9075C4.99997 55.5303 15.2327 65.7631 27.8555 65.7631Z" fill="white"/>
<path fill-rule="evenodd" clip-rule="evenodd" d="M23.2601 78.3827C17.6927 78.3827 12.3457 80.5584 8.35995 84.4454C6.45715 86.3011 3.4103 86.2629 1.55464 84.3601C-0.301033 82.4573 -0.262823 79.4104 1.63998 77.5547C7.42335 71.9146 15.1818 68.7578 23.2601 68.7578H32.2888C40.4047 68.7578 48.2047 71.9036 54.0497 77.5341C55.9639 79.3781 56.0209 82.4246 54.1769 84.3388C52.333 86.253 49.2865 86.3099 47.3723 84.466C43.3208 80.5632 37.9143 78.3827 32.2888 78.3827H23.2601Z" fill="white"/>
</svg>
