<svg width="1920" height="1080" viewBox="0 0 1920 1080" fill="none" xmlns="http://www.w3.org/2000/svg">
<g clip-path="url(#clip0_1785_268)">
<rect width="1920" height="1080" fill="#FCF9F6"/>
<g filter="url(#filter0_d_1785_268)">
<rect x="1436.16" y="701.449" width="433.902" height="545.767" transform="rotate(-19.0895 1436.16 701.449)" fill="white"/>
<rect x="1474.54" y="729.419" width="379.664" height="406.783" transform="rotate(-19.0895 1474.54 729.419)" fill="#454545"/>
</g>
<path d="M0 110.995L1920 110.994" stroke="#FF999E" stroke-width="6" stroke-dasharray="20 20"/>
<g filter="url(#filter1_d_1785_268)">
<rect x="154.065" y="18.7883" width="694.551" height="981.355" transform="rotate(15 154.065 18.7883)" fill="white"/>
</g>
<path fill-rule="evenodd" clip-rule="evenodd" d="M197.07 96.118C198.702 98.9617 202.323 99.932 205.158 98.2851C205.336 98.1817 205.506 98.0705 205.67 97.9521L223.343 106.714C224.222 107.149 225.289 106.786 225.725 105.901C226.161 105.017 225.802 103.947 224.923 103.511L207.813 95.0295C208.339 93.4659 208.22 91.6933 207.337 90.154C206.453 88.6148 204.987 87.6245 203.379 87.3009L204.634 68.1515C204.698 67.1676 203.956 66.3196 202.977 66.2574C201.998 66.1953 201.152 66.9425 201.088 67.9264L199.791 87.7075C199.608 87.7904 199.427 87.8835 199.249 87.9869C196.414 89.6338 195.438 93.2742 197.07 96.118ZM199.594 90.7178C198.565 91.8373 198.328 93.539 199.123 94.9252C200.103 96.6314 202.275 97.2136 203.976 96.2254C205.677 95.2373 206.262 93.0531 205.283 91.3468C204.671 90.2804 203.593 89.6531 202.455 89.5738C202.311 89.5638 202.167 89.5625 202.021 89.5703C201.479 89.5993 200.934 89.7542 200.431 90.0466C200.112 90.232 199.832 90.4592 199.594 90.7178Z" fill="url(#paint0_linear_1785_268)"/>
<path fill-rule="evenodd" clip-rule="evenodd" d="M217.651 75.9239L232.024 67.5743C240.812 62.4689 252.037 65.4766 257.096 74.2923C262.154 83.108 259.13 94.3932 250.342 99.4986L232.906 109.627L232.899 109.615C232.17 111.341 230.896 112.854 229.155 113.866L210.676 124.601C208.691 125.754 206.156 125.074 205.014 123.084L183.151 84.9806C178.419 76.7337 181.247 66.1766 189.469 61.4006C197.69 56.6245 208.191 59.4383 212.923 67.6852L217.651 75.9239ZM235.569 73.7532C240.956 70.6241 247.836 72.4675 250.936 77.8707C254.036 83.2738 252.183 90.1906 246.796 93.3197L232.423 101.669L221.196 82.1028L235.569 73.7532ZM191.242 64.49C197.762 60.7021 206.09 62.9337 209.843 69.4744L229.343 103.458C230.812 106.018 229.934 109.294 227.382 110.776L208.903 121.511C208.619 121.676 208.257 121.579 208.094 121.295L186.231 83.1915C182.478 76.6508 184.721 68.2779 191.242 64.49Z" fill="url(#paint1_linear_1785_268)"/>
<path d="M280.229 99.4623L283.205 88.3558L284.969 88.8285L285.759 94.5049L289.286 89.9661L291.051 90.4388L288.07 101.563L286.323 101.095L288.401 93.3403L285.561 96.9549L284.581 96.6922L284.031 92.1883L281.958 99.9254L280.229 99.4623Z" fill="url(#paint2_linear_1785_268)"/>
<path d="M300.117 105.001C299.321 104.788 298.653 104.431 298.112 103.929C297.584 103.431 297.227 102.813 297.043 102.076C296.858 101.339 296.887 100.518 297.129 99.615C297.377 98.688 297.761 97.9438 298.281 97.3824C298.813 96.8242 299.416 96.4508 300.09 96.2621C300.78 96.0647 301.487 96.0631 302.211 96.2573C302.853 96.4292 303.401 96.7353 303.856 97.1757C304.323 97.6192 304.636 98.187 304.794 98.8791C304.967 99.5625 304.935 100.35 304.696 101.241C304.664 101.36 304.62 101.501 304.563 101.664C304.519 101.831 304.475 101.972 304.431 102.087L298.942 100.617C298.826 101.146 298.836 101.607 298.973 102.001C299.112 102.382 299.328 102.695 299.619 102.938C299.91 103.182 300.246 103.355 300.626 103.456C300.995 103.555 301.361 103.59 301.725 103.56C302.09 103.53 302.453 103.411 302.814 103.202L303.58 104.477C303.049 104.844 302.493 105.065 301.913 105.139C301.333 105.213 300.735 105.167 300.117 105.001ZM299.384 99.111L302.912 100.056C303.068 99.474 303.039 98.9886 302.825 98.6C302.611 98.2114 302.237 97.9455 301.702 97.8022C301.239 97.6781 300.795 97.7184 300.371 97.9232C299.95 98.1162 299.621 98.5121 299.384 99.111Z" fill="url(#paint3_linear_1785_268)"/>
<path d="M311.556 107.856L313.777 99.5665L315.47 100.02L315.308 100.626C315.586 100.395 315.866 100.254 316.147 100.202C316.432 100.138 316.705 100.141 316.966 100.211C317.263 100.29 317.516 100.441 317.724 100.662C317.944 100.887 318.071 101.195 318.106 101.586C318.653 101.019 319.324 100.843 320.12 101.056C320.726 101.218 321.102 101.548 321.249 102.046C321.411 102.535 321.387 103.147 321.178 103.881L319.539 109.995L317.793 109.527L319.317 103.84C319.46 103.306 319.514 102.938 319.479 102.737C319.446 102.525 319.347 102.396 319.181 102.352C318.943 102.288 318.686 102.391 318.41 102.661C318.137 102.919 317.931 103.31 317.791 103.833L316.367 109.145L314.728 108.706L316.237 103.073C316.39 102.502 316.451 102.111 316.418 101.898C316.386 101.686 316.257 101.549 316.032 101.489C315.818 101.432 315.583 101.522 315.329 101.759C315.089 101.988 314.898 102.37 314.755 102.905L313.302 108.324L311.556 107.856Z" fill="url(#paint4_linear_1785_268)"/>
<path d="M331.092 113.282C330.356 113.085 329.732 112.727 329.222 112.208C328.726 111.68 328.393 111.049 328.22 110.315C328.051 109.569 328.082 108.762 328.315 107.895C328.534 107.075 328.904 106.384 329.424 105.823C329.943 105.261 330.551 104.87 331.247 104.649C331.955 104.431 332.677 104.421 333.414 104.618C334.162 104.818 334.782 105.188 335.274 105.728C335.778 106.271 336.115 106.915 336.284 107.661C336.466 108.41 336.446 109.195 336.227 110.015C335.997 110.87 335.617 111.577 335.085 112.136C334.566 112.697 333.954 113.081 333.249 113.287C332.559 113.484 331.841 113.483 331.092 113.282ZM331.522 111.678C332.092 111.83 332.628 111.706 333.13 111.306C333.636 110.894 333.996 110.283 334.213 109.475C334.436 108.643 334.429 107.934 334.191 107.348C333.953 106.762 333.549 106.393 332.979 106.24C332.432 106.094 331.91 106.215 331.411 106.603C330.912 106.992 330.551 107.602 330.328 108.434C330.112 109.242 330.113 109.95 330.333 110.556C330.567 111.154 330.964 111.528 331.522 111.678Z" fill="url(#paint5_linear_1785_268)"/>
<path d="M346.191 108.252L348.276 108.81L347.9 110.143C348.253 109.728 348.686 109.443 349.199 109.287C349.712 109.131 350.212 109.119 350.699 109.249C351.625 109.498 352.307 110.018 352.744 110.81L351.435 112.275L351.343 112.403L351.202 112.289C351.192 112.184 351.182 112.079 351.172 111.975C351.165 111.858 351.107 111.716 351 111.547C350.869 111.371 350.717 111.223 350.547 111.1C350.387 110.981 350.201 110.893 349.987 110.836C349.417 110.683 348.865 110.745 348.333 111.023C347.8 111.301 347.417 111.873 347.185 112.741L346.019 117.091L343.97 116.542L346.191 108.252Z" fill="url(#paint6_linear_1785_268)"/>
<path d="M359.47 124.058C359.066 123.949 358.727 123.789 358.453 123.575C358.179 123.362 357.927 123.09 357.697 122.761L358.765 121.557L358.879 121.415L359.02 121.53C359.031 121.634 359.048 121.735 359.073 121.831C359.099 121.926 359.18 122.05 359.318 122.202C359.471 122.345 359.66 122.446 359.885 122.507C360.242 122.602 360.567 122.53 360.86 122.29C361.166 122.054 361.517 121.645 361.915 121.063L360.839 112.177L362.853 112.716L363.507 118.757L365.076 116.465C365.391 116.001 365.672 115.548 365.918 115.104C366.164 114.661 366.372 114.194 366.541 113.705L368.412 114.206C368.221 114.728 367.945 115.259 367.584 115.799C367.223 116.339 366.87 116.85 366.525 117.331L362.966 122.415C362.398 123.205 361.828 123.715 361.257 123.944C360.695 124.189 360.1 124.226 359.47 124.058Z" fill="url(#paint7_linear_1785_268)"/>
<path d="M277.163 128.441C276.355 128.224 275.68 127.846 275.137 127.306C274.594 126.765 274.219 126.123 274.01 125.38C273.817 124.627 273.832 123.835 274.055 123.003C274.275 122.183 274.658 121.49 275.205 120.923C275.763 120.359 276.416 119.967 277.162 119.747C277.909 119.527 278.692 119.526 279.512 119.746C280.272 119.95 280.899 120.27 281.393 120.708C281.887 121.147 282.233 121.66 282.432 122.248L280.98 123.177L280.839 123.273L280.725 123.128C280.754 123.021 280.768 122.923 280.766 122.833C280.768 122.732 280.724 122.587 280.635 122.397C280.466 122.123 280.251 121.906 279.988 121.746C279.737 121.59 279.439 121.465 279.095 121.373C278.703 121.268 278.306 121.276 277.904 121.398C277.502 121.519 277.139 121.76 276.813 122.118C276.5 122.48 276.264 122.958 276.104 123.552C275.961 124.087 275.942 124.585 276.048 125.047C276.156 125.496 276.353 125.88 276.637 126.198C276.936 126.508 277.287 126.716 277.691 126.825C278.06 126.923 278.443 126.943 278.84 126.884C279.238 126.825 279.642 126.647 280.053 126.349L280.832 127.934C280.262 128.303 279.655 128.523 279.013 128.593C278.373 128.651 277.757 128.6 277.163 128.441Z" fill="url(#paint8_linear_1785_268)"/>
<path d="M291.418 132.261C290.504 132.016 289.848 131.611 289.452 131.046C289.068 130.484 288.97 129.853 289.157 129.152C289.393 128.272 289.979 127.652 290.916 127.292C291.868 126.923 293.099 126.94 294.607 127.345C294.691 127.367 294.797 127.396 294.928 127.431C295.071 127.469 295.218 127.515 295.369 127.568C295.47 126.856 295.399 126.34 295.153 126.02C294.911 125.687 294.529 125.451 294.006 125.311C293.626 125.209 293.252 125.179 292.885 125.221C292.52 125.25 292.127 125.387 291.705 125.631L290.925 124.123C291.518 123.81 292.119 123.634 292.729 123.593C293.338 123.553 293.934 123.61 294.516 123.766C295.205 123.951 295.804 124.232 296.314 124.611C296.827 124.978 297.176 125.479 297.362 126.115C297.552 126.739 297.519 127.526 297.264 128.477L295.984 133.255L293.899 132.696L294.138 131.805C293.718 132.138 293.283 132.334 292.835 132.392C292.39 132.438 291.917 132.394 291.418 132.261ZM291.238 129.442C291.136 129.822 291.183 130.121 291.379 130.339C291.591 130.549 291.874 130.701 292.231 130.797C292.872 130.969 293.422 130.912 293.881 130.627C294.342 130.331 294.72 129.776 295.014 128.963C294.86 128.922 294.711 128.882 294.569 128.844C294.429 128.794 294.306 128.754 294.199 128.726C293.249 128.471 292.543 128.422 292.08 128.578C291.63 128.738 291.349 129.026 291.238 129.442Z" fill="url(#paint9_linear_1785_268)"/>
<path d="M303.686 138.509L306.692 127.22L308.688 127.755L308.378 128.914C308.763 128.52 309.187 128.27 309.648 128.165C310.109 128.059 310.583 128.071 311.07 128.202C311.676 128.364 312.178 128.677 312.576 129.14C312.989 129.595 313.256 130.189 313.378 130.922C313.503 131.644 313.437 132.486 313.179 133.448C312.918 134.423 312.547 135.19 312.066 135.749C311.585 136.308 311.046 136.679 310.449 136.863C309.868 137.038 309.286 137.048 308.703 136.892C308.264 136.774 307.863 136.584 307.5 136.321C307.138 136.059 306.879 135.741 306.724 135.368L305.736 139.059L303.686 138.509ZM308.571 135.175C308.916 135.268 309.255 135.263 309.588 135.161C309.92 135.059 310.226 134.822 310.504 134.451C310.781 134.08 311.017 133.531 311.212 132.806C311.431 131.986 311.444 131.296 311.251 130.734C311.07 130.176 310.707 129.818 310.164 129.66C309.597 129.495 309.091 129.601 308.646 129.979C308.216 130.348 307.863 131.049 307.586 132.083C307.138 133.849 307.467 134.879 308.571 135.175Z" fill="url(#paint10_linear_1785_268)"/>
<path d="M323.873 140.938C323.112 140.734 322.439 140.445 321.851 140.071C321.264 139.697 320.784 139.206 320.413 138.597L321.743 137.195L321.853 137.072L321.971 137.199C321.985 137.292 321.995 137.396 322.002 137.513C322.012 137.618 322.071 137.754 322.178 137.923C322.409 138.252 322.689 138.538 323.019 138.779C323.361 139.023 323.799 139.217 324.334 139.361C324.832 139.494 325.241 139.515 325.559 139.421C325.877 139.328 326.072 139.145 326.145 138.872C326.219 138.598 326.123 138.337 325.859 138.088C325.606 137.842 325.163 137.526 324.528 137.139C323.689 136.659 323.056 136.146 322.63 135.598C322.203 135.051 322.081 134.439 322.262 133.761C322.444 133.084 322.886 132.597 323.589 132.302C324.308 131.997 325.166 131.979 326.163 132.246C327.53 132.612 328.527 133.332 329.157 134.405L327.809 135.515L327.646 135.624L327.55 135.484C327.563 135.385 327.557 135.288 327.532 135.192C327.519 135.1 327.46 134.963 327.356 134.782C327.163 134.552 326.923 134.354 326.636 134.188C326.365 134.013 326.08 133.886 325.784 133.807C325.38 133.698 325.012 133.67 324.68 133.721C324.359 133.775 324.163 133.939 324.09 134.213C324.026 134.45 324.126 134.694 324.39 134.943C324.655 135.192 325.136 135.512 325.833 135.903C326.764 136.42 327.4 136.947 327.74 137.484C328.083 138.009 328.168 138.592 327.996 139.234C327.869 139.709 327.62 140.114 327.251 140.448C326.884 140.77 326.414 140.982 325.839 141.082C325.277 141.186 324.621 141.138 323.873 140.938Z" fill="url(#paint11_linear_1785_268)"/>
<path d="M338.712 144.933C337.868 144.707 337.25 144.235 336.856 143.519C336.463 142.802 336.438 141.801 336.782 140.518L338.086 135.651L340.117 136.195L338.813 141.062C338.616 141.799 338.594 142.354 338.749 142.726C338.919 143.09 339.188 143.322 339.556 143.42C340.055 143.554 340.507 143.484 340.911 143.21C341.328 142.94 341.633 142.442 341.827 141.717L343.093 136.993L345.107 137.532L343.239 144.503C343.169 144.764 343.111 145.003 343.066 145.221C343.035 145.429 343.035 145.645 343.064 145.87L341.228 145.378C341.181 145.174 341.175 144.982 341.211 144.8C341.247 144.619 341.289 144.439 341.337 144.26C340.972 144.621 340.554 144.853 340.081 144.956C339.619 145.061 339.163 145.054 338.712 144.933Z" fill="url(#paint12_linear_1785_268)"/>
<path d="M351.795 148.209L352.22 146.623L354.555 147.248L356.91 138.459L354.682 137.862L355.107 136.276L359.366 137.417L356.586 147.792L358.903 148.413L358.478 150L351.795 148.209Z" fill="url(#paint13_linear_1785_268)"/>
<path d="M371.13 153.6C370.335 153.387 369.666 153.03 369.126 152.528C368.597 152.03 368.241 151.412 368.056 150.675C367.872 149.938 367.901 149.117 368.143 148.214C368.391 147.287 368.775 146.543 369.295 145.981C369.826 145.423 370.429 145.05 371.104 144.861C371.793 144.664 372.5 144.662 373.225 144.856C373.867 145.028 374.415 145.334 374.87 145.775C375.337 146.218 375.649 146.786 375.808 147.478C375.981 148.162 375.948 148.949 375.709 149.84C375.678 149.959 375.633 150.1 375.577 150.263C375.532 150.43 375.488 150.571 375.445 150.686L369.956 149.216C369.84 149.745 369.85 150.206 369.986 150.6C370.126 150.981 370.342 151.294 370.633 151.537C370.924 151.781 371.26 151.954 371.64 152.055C372.008 152.154 372.375 152.189 372.739 152.159C373.104 152.129 373.467 152.01 373.828 151.801L374.594 153.076C374.063 153.443 373.507 153.664 372.927 153.738C372.347 153.812 371.748 153.766 371.13 153.6ZM370.398 147.71L373.926 148.655C374.082 148.073 374.053 147.588 373.839 147.199C373.625 146.81 373.25 146.544 372.716 146.401C372.252 146.277 371.809 146.317 371.384 146.522C370.964 146.715 370.635 147.111 370.398 147.71Z" fill="url(#paint14_linear_1785_268)"/>
<line x1="704.421" y1="399.996" x2="156.556" y2="253.196" stroke="#FFB4BF" stroke-width="2"/>
<line x1="666.658" y1="540.931" x2="118.793" y2="394.131" stroke="#FFB4BF" stroke-width="2"/>
<line x1="628.867" y1="681.966" x2="81.0018" y2="535.166" stroke="#FFB4BF" stroke-width="2"/>
<line x1="591.077" y1="823.001" x2="43.2118" y2="676.201" stroke="#FFB4BF" stroke-width="2"/>
<line x1="695" y1="435.155" x2="147.135" y2="288.355" stroke="#FFB4BF" stroke-width="2"/>
<line x1="657.211" y1="576.19" x2="109.346" y2="429.39" stroke="#FFB4BF" stroke-width="2"/>
<line x1="619.42" y1="717.225" x2="71.5545" y2="570.425" stroke="#FFB4BF" stroke-width="2"/>
<line x1="581.63" y1="858.26" x2="33.7645" y2="711.46" stroke="#FFB4BF" stroke-width="2"/>
<line x1="685.553" y1="470.414" x2="137.687" y2="323.614" stroke="#FFB4BF" stroke-width="2"/>
<line x1="647.764" y1="611.449" x2="99.8983" y2="464.648" stroke="#FFB4BF" stroke-width="2"/>
<line x1="609.973" y1="752.484" x2="62.1073" y2="605.683" stroke="#FFB4BF" stroke-width="2"/>
<line x1="572.183" y1="893.518" x2="24.3172" y2="746.718" stroke="#FFB4BF" stroke-width="2"/>
<line x1="676.105" y1="505.672" x2="128.24" y2="358.872" stroke="#FFB4BF" stroke-width="2"/>
<line x1="638.314" y1="646.707" x2="90.4491" y2="499.907" stroke="#FFB4BF" stroke-width="2"/>
<line x1="600.525" y1="787.742" x2="52.66" y2="640.942" stroke="#FFB4BF" stroke-width="2"/>
<line x1="562.735" y1="928.777" x2="14.87" y2="781.977" stroke="#FFB4BF" stroke-width="2"/>
<g filter="url(#filter2_d_1785_268)">
<rect x="1442.49" y="-313" width="351.646" height="442.305" transform="rotate(39.8613 1442.49 -313)" fill="white"/>
<rect x="1439.11" y="-274.663" width="307.69" height="329.668" transform="rotate(39.8613 1439.11 -274.663)" fill="#454545"/>
</g>
<g filter="url(#filter3_d_1785_268)">
<path d="M238.077 299.582C239.431 298.035 241.547 297.672 242.802 298.771L260.075 313.895C261.33 314.994 261.249 317.139 259.895 318.687L-168.405 807.82C-169.759 809.367 -171.875 809.731 -173.13 808.632L-190.403 793.507C-191.658 792.408 -191.577 790.263 -190.223 788.716L238.077 299.582Z" fill="url(#paint15_linear_1785_268)"/>
<path d="M283.597 266.968C285.39 265.695 287.238 267.314 286.213 269.259L262.704 313.875C262.018 315.176 260.419 315.681 259.509 314.884L241.897 299.463C240.986 298.666 241.276 297.014 242.476 296.162L283.597 266.968Z" fill="url(#paint16_linear_1785_268)"/>
<path d="M249.627 309.161C250.983 307.613 253.064 307.218 254.276 308.279L260.42 313.659C261.632 314.72 261.516 316.836 260.16 318.384L-168.403 807.818C-169.758 809.367 -171.84 809.761 -173.052 808.7L-179.196 803.32C-180.408 802.259 -180.291 800.144 -178.936 798.596L249.627 309.161Z" fill="#AD90EB"/>
<path d="M245.114 305.208C246.469 303.66 247.989 302.774 248.509 303.228L255.656 309.487C256.175 309.942 255.498 311.565 254.142 313.113L-174.421 802.548C-175.777 804.096 -177.297 804.983 -177.816 804.528L-184.963 798.27C-185.483 797.815 -184.805 796.191 -183.449 794.643L245.114 305.208Z" fill="#D8C7F6"/>
<path d="M286.086 264.542C287.371 263.648 289.005 265.079 288.289 266.471L284.516 273.802C284.07 274.669 282.926 274.882 282.19 274.237L279.193 271.613C278.456 270.968 278.517 269.806 279.317 269.25L286.086 264.542Z" fill="#454545"/>
<path d="M286.398 265.414C286.989 264.884 287.844 265.635 287.395 266.29L283.462 272.025C282.976 272.733 281.962 272.812 281.378 272.187L281.154 271.948C280.642 271.4 280.683 270.536 281.243 270.034L286.398 265.414Z" fill="#747474"/>
</g>
<g filter="url(#filter4_d_1785_268)">
<path d="M1471.7 231.591C1469.73 231.007 1468.51 229.237 1468.98 227.638L1475.5 205.624C1475.97 204.024 1477.96 203.2 1479.93 203.784L2103.33 388.331C2105.31 388.915 2106.52 390.685 2106.05 392.285L2099.53 414.299C2099.06 415.898 2097.07 416.722 2095.1 416.138L1471.7 231.591Z" fill="url(#paint17_linear_1785_268)"/>
<path d="M1423.04 203.878C1421.13 202.781 1421.83 200.425 1424.02 200.543L1474.38 203.244C1475.85 203.323 1476.98 204.564 1476.64 205.724L1469.99 228.171C1469.65 229.331 1468.03 229.759 1466.75 229.025L1423.04 203.878Z" fill="url(#paint18_linear_1785_268)"/>
<path d="M1475.57 217.094C1473.59 216.51 1472.37 214.784 1472.82 213.239L1475.14 205.409C1475.6 203.864 1477.57 203.086 1479.54 203.67L2103.33 388.33C2105.3 388.915 2106.53 390.64 2106.08 392.185L2103.76 400.016C2103.3 401.56 2101.33 402.339 2099.36 401.755L1475.57 217.094Z" fill="#FFB4BF"/>
<path d="M1473.86 222.847C1471.89 222.263 1470.45 221.253 1470.65 220.591L1473.34 211.481C1473.54 210.82 1475.3 210.756 1477.27 211.341L2101.06 396.001C2103.03 396.586 2104.47 397.596 2104.28 398.258L2101.58 407.367C2101.39 408.029 2099.63 408.092 2097.65 407.508L1473.86 222.847Z" fill="#FFDADF"/>
<path d="M1419.79 202.63C1418.44 201.837 1419.06 199.755 1420.62 199.823L1428.86 200.185C1429.83 200.228 1430.51 201.177 1430.23 202.117L1429.1 205.935C1428.82 206.875 1427.74 207.305 1426.9 206.811L1419.79 202.63Z" fill="#454545"/>
<path d="M1420.45 201.984C1419.73 201.668 1420.05 200.577 1420.83 200.711L1427.69 201.887C1428.53 202.032 1429.03 202.92 1428.71 203.712L1428.58 204.015C1428.3 204.709 1427.5 205.033 1426.81 204.734L1420.45 201.984Z" fill="#747474"/>
</g>
</g>
<defs>
<filter id="filter0_d_1785_268" x="1432.16" y="555.544" width="596.531" height="665.66" filterUnits="userSpaceOnUse" color-interpolation-filters="sRGB">
<feFlood flood-opacity="0" result="BackgroundImageFix"/>
<feColorMatrix in="SourceAlpha" type="matrix" values="0 0 0 0 0 0 0 0 0 0 0 0 0 0 0 0 0 0 127 0" result="hardAlpha"/>
<feOffset/>
<feGaussianBlur stdDeviation="2"/>
<feComposite in2="hardAlpha" operator="out"/>
<feColorMatrix type="matrix" values="0 0 0 0 0 0 0 0 0 0 0 0 0 0 0 0 0 0 0.25 0"/>
<feBlend mode="normal" in2="BackgroundImageFix" result="effect1_dropShadow_1785_268"/>
<feBlend mode="normal" in="SourceGraphic" in2="effect1_dropShadow_1785_268" result="shape"/>
</filter>
<filter id="filter1_d_1785_268" x="-103.928" y="14.7883" width="932.878" height="1135.68" filterUnits="userSpaceOnUse" color-interpolation-filters="sRGB">
<feFlood flood-opacity="0" result="BackgroundImageFix"/>
<feColorMatrix in="SourceAlpha" type="matrix" values="0 0 0 0 0 0 0 0 0 0 0 0 0 0 0 0 0 0 127 0" result="hardAlpha"/>
<feOffset/>
<feGaussianBlur stdDeviation="2"/>
<feComposite in2="hardAlpha" operator="out"/>
<feColorMatrix type="matrix" values="0 0 0 0 0 0 0 0 0 0 0 0 0 0 0 0 0 0 0.25 0"/>
<feBlend mode="normal" in2="BackgroundImageFix" result="effect1_dropShadow_1785_268"/>
<feBlend mode="normal" in="SourceGraphic" in2="effect1_dropShadow_1785_268" result="shape"/>
</filter>
<filter id="filter2_d_1785_268" x="1155" y="-317" width="561.41" height="572.893" filterUnits="userSpaceOnUse" color-interpolation-filters="sRGB">
<feFlood flood-opacity="0" result="BackgroundImageFix"/>
<feColorMatrix in="SourceAlpha" type="matrix" values="0 0 0 0 0 0 0 0 0 0 0 0 0 0 0 0 0 0 127 0" result="hardAlpha"/>
<feOffset/>
<feGaussianBlur stdDeviation="2"/>
<feComposite in2="hardAlpha" operator="out"/>
<feColorMatrix type="matrix" values="0 0 0 0 0 0 0 0 0 0 0 0 0 0 0 0 0 0 0.25 0"/>
<feBlend mode="normal" in2="BackgroundImageFix" result="effect1_dropShadow_1785_268"/>
<feBlend mode="normal" in="SourceGraphic" in2="effect1_dropShadow_1785_268" result="shape"/>
</filter>
<filter id="filter3_d_1785_268" x="-191.294" y="264.265" width="486.758" height="552.031" filterUnits="userSpaceOnUse" color-interpolation-filters="sRGB">
<feFlood flood-opacity="0" result="BackgroundImageFix"/>
<feColorMatrix in="SourceAlpha" type="matrix" values="0 0 0 0 0 0 0 0 0 0 0 0 0 0 0 0 0 0 127 0" result="hardAlpha"/>
<feOffset dx="5" dy="5"/>
<feGaussianBlur stdDeviation="1"/>
<feComposite in2="hardAlpha" operator="out"/>
<feColorMatrix type="matrix" values="0 0 0 0 0 0 0 0 0 0 0 0 0 0 0 0 0 0 0.15 0"/>
<feBlend mode="normal" in2="BackgroundImageFix" result="effect1_dropShadow_1785_268"/>
<feBlend mode="normal" in="SourceGraphic" in2="effect1_dropShadow_1785_268" result="shape"/>
</filter>
<filter id="filter4_d_1785_268" x="1419.05" y="199.822" width="694.121" height="223.504" filterUnits="userSpaceOnUse" color-interpolation-filters="sRGB">
<feFlood flood-opacity="0" result="BackgroundImageFix"/>
<feColorMatrix in="SourceAlpha" type="matrix" values="0 0 0 0 0 0 0 0 0 0 0 0 0 0 0 0 0 0 127 0" result="hardAlpha"/>
<feOffset dx="5" dy="5"/>
<feGaussianBlur stdDeviation="1"/>
<feComposite in2="hardAlpha" operator="out"/>
<feColorMatrix type="matrix" values="0 0 0 0 0 0 0 0 0 0 0 0 0 0 0 0 0 0 0.15 0"/>
<feBlend mode="normal" in2="BackgroundImageFix" result="effect1_dropShadow_1785_268"/>
<feBlend mode="normal" in="SourceGraphic" in2="effect1_dropShadow_1785_268" result="shape"/>
</filter>
<linearGradient id="paint0_linear_1785_268" x1="270.282" y1="141.836" x2="287.684" y2="76.893" gradientUnits="userSpaceOnUse">
<stop stop-color="#FF5A9E"/>
<stop offset="1" stop-color="#FF9E9E"/>
</linearGradient>
<linearGradient id="paint1_linear_1785_268" x1="270.282" y1="141.836" x2="287.684" y2="76.893" gradientUnits="userSpaceOnUse">
<stop stop-color="#FF5A9E"/>
<stop offset="1" stop-color="#FF9E9E"/>
</linearGradient>
<linearGradient id="paint2_linear_1785_268" x1="270.282" y1="141.836" x2="287.684" y2="76.893" gradientUnits="userSpaceOnUse">
<stop stop-color="#FF5A9E"/>
<stop offset="1" stop-color="#FF9E9E"/>
</linearGradient>
<linearGradient id="paint3_linear_1785_268" x1="270.282" y1="141.836" x2="287.684" y2="76.893" gradientUnits="userSpaceOnUse">
<stop stop-color="#FF5A9E"/>
<stop offset="1" stop-color="#FF9E9E"/>
</linearGradient>
<linearGradient id="paint4_linear_1785_268" x1="270.282" y1="141.836" x2="287.684" y2="76.893" gradientUnits="userSpaceOnUse">
<stop stop-color="#FF5A9E"/>
<stop offset="1" stop-color="#FF9E9E"/>
</linearGradient>
<linearGradient id="paint5_linear_1785_268" x1="270.282" y1="141.836" x2="287.684" y2="76.893" gradientUnits="userSpaceOnUse">
<stop stop-color="#FF5A9E"/>
<stop offset="1" stop-color="#FF9E9E"/>
</linearGradient>
<linearGradient id="paint6_linear_1785_268" x1="270.282" y1="141.836" x2="287.684" y2="76.893" gradientUnits="userSpaceOnUse">
<stop stop-color="#FF5A9E"/>
<stop offset="1" stop-color="#FF9E9E"/>
</linearGradient>
<linearGradient id="paint7_linear_1785_268" x1="270.282" y1="141.836" x2="287.684" y2="76.893" gradientUnits="userSpaceOnUse">
<stop stop-color="#FF5A9E"/>
<stop offset="1" stop-color="#FF9E9E"/>
</linearGradient>
<linearGradient id="paint8_linear_1785_268" x1="270.282" y1="141.836" x2="287.684" y2="76.893" gradientUnits="userSpaceOnUse">
<stop stop-color="#FF5A9E"/>
<stop offset="1" stop-color="#FF9E9E"/>
</linearGradient>
<linearGradient id="paint9_linear_1785_268" x1="270.282" y1="141.836" x2="287.684" y2="76.893" gradientUnits="userSpaceOnUse">
<stop stop-color="#FF5A9E"/>
<stop offset="1" stop-color="#FF9E9E"/>
</linearGradient>
<linearGradient id="paint10_linear_1785_268" x1="270.282" y1="141.836" x2="287.684" y2="76.893" gradientUnits="userSpaceOnUse">
<stop stop-color="#FF5A9E"/>
<stop offset="1" stop-color="#FF9E9E"/>
</linearGradient>
<linearGradient id="paint11_linear_1785_268" x1="270.282" y1="141.836" x2="287.684" y2="76.893" gradientUnits="userSpaceOnUse">
<stop stop-color="#FF5A9E"/>
<stop offset="1" stop-color="#FF9E9E"/>
</linearGradient>
<linearGradient id="paint12_linear_1785_268" x1="270.282" y1="141.836" x2="287.684" y2="76.893" gradientUnits="userSpaceOnUse">
<stop stop-color="#FF5A9E"/>
<stop offset="1" stop-color="#FF9E9E"/>
</linearGradient>
<linearGradient id="paint13_linear_1785_268" x1="270.282" y1="141.836" x2="287.684" y2="76.893" gradientUnits="userSpaceOnUse">
<stop stop-color="#FF5A9E"/>
<stop offset="1" stop-color="#FF9E9E"/>
</linearGradient>
<linearGradient id="paint14_linear_1785_268" x1="270.282" y1="141.836" x2="287.684" y2="76.893" gradientUnits="userSpaceOnUse">
<stop stop-color="#FF5A9E"/>
<stop offset="1" stop-color="#FF9E9E"/>
</linearGradient>
<linearGradient id="paint15_linear_1785_268" x1="270.691" y1="268.389" x2="290.832" y2="285.556" gradientUnits="userSpaceOnUse">
<stop stop-color="#C3ABF0"/>
<stop offset="1" stop-color="#9A7ADE"/>
</linearGradient>
<linearGradient id="paint16_linear_1785_268" x1="270.691" y1="268.389" x2="290.832" y2="285.556" gradientUnits="userSpaceOnUse">
<stop stop-color="#C3ABF0"/>
<stop offset="1" stop-color="#9A7ADE"/>
</linearGradient>
<linearGradient id="paint17_linear_1785_268" x1="1421.99" y1="201.755" x2="2102.79" y2="403.292" gradientUnits="userSpaceOnUse">
<stop stop-color="#FFD2D1"/>
<stop offset="0.286458" stop-color="#FFBBB9"/>
<stop offset="1" stop-color="#FF827E"/>
</linearGradient>
<linearGradient id="paint18_linear_1785_268" x1="1421.99" y1="201.755" x2="2102.79" y2="403.292" gradientUnits="userSpaceOnUse">
<stop stop-color="#FFD2D1"/>
<stop offset="0.286458" stop-color="#FFBBB9"/>
<stop offset="1" stop-color="#FF827E"/>
</linearGradient>
<clipPath id="clip0_1785_268">
<rect width="1920" height="1080" fill="white"/>
</clipPath>
</defs>
</svg>
