<svg width="69" height="82" viewBox="0 0 69 82" fill="none" xmlns="http://www.w3.org/2000/svg">
<path fill-rule="evenodd" clip-rule="evenodd" d="M34.4954 44.9908C43.6056 44.9908 50.9908 37.6056 50.9908 28.4954C50.9908 19.3853 43.6056 12 34.4954 12C25.3853 12 18 19.3853 18 28.4954C18 37.6056 25.3853 44.9908 34.4954 44.9908ZM34.4954 56.9908C50.233 56.9908 62.9908 44.233 62.9908 28.4954C62.9908 12.7578 50.233 0 34.4954 0C18.7578 0 6 12.7578 6 28.4954C6 44.233 18.7578 56.9908 34.4954 56.9908Z" fill="#CC556A"/>
<path fill-rule="evenodd" clip-rule="evenodd" d="M28.766 72.7246C21.8248 72.7246 15.1584 75.4371 10.1891 80.2833C7.81676 82.5969 4.01807 82.5492 1.70449 80.1769C-0.609085 77.8046 -0.561446 74.0059 1.8109 71.6923C9.02139 64.6604 18.6943 60.7246 28.766 60.7246H40.0227C50.1413 60.7246 59.866 64.6466 67.1535 71.6666C69.54 73.9655 69.611 77.7639 67.312 80.1504C65.0131 82.5369 61.2148 82.6079 58.8282 80.309C53.777 75.4431 47.0364 72.7246 40.0227 72.7246H28.766Z" fill="#CC556A"/>
</svg>
