<svg width="27" height="28" viewBox="0 0 27 28" fill="none" xmlns="http://www.w3.org/2000/svg">
<path fill-rule="evenodd" clip-rule="evenodd" d="M13.4023 2.45732C14.4405 2.44737 15.2903 3.27394 15.3003 4.30349C15.3103 5.33305 14.4768 6.17574 13.4386 6.18569L13.4204 4.3215L13.4023 2.45732ZM13.4023 2.45732C13.4023 2.45732 13.4023 2.45732 13.4204 4.3215C13.4386 6.18568 13.4386 6.18569 13.4386 6.18569L13.0724 6.18894C12.8376 6.19094 12.4986 6.19369 12.0815 6.19669C11.2475 6.20268 10.1005 6.20967 8.84898 6.21366C6.35794 6.2216 4.33409 8.22368 4.33409 10.6569V19.8571C4.33409 22.2595 6.298 24.207 8.72061 24.207H18.1203C20.5429 24.207 22.5068 22.2595 22.5068 19.8571V11.5714C22.5068 10.5418 23.3485 9.70717 24.3867 9.70717C25.425 9.70717 26.2667 10.5418 26.2667 11.5714V19.8571C26.2667 24.3187 22.6194 27.9356 18.1203 27.9356H8.72061C4.22148 27.9356 0.574219 24.3187 0.574219 19.8571V10.6569C0.574219 6.13221 4.3115 2.49957 8.83689 2.48514C10.082 2.48117 11.2237 2.47421 12.0543 2.46824C12.4695 2.46526 12.8068 2.46253 13.0401 2.46054L13.4023 2.45732Z" fill="white"/>
<path fill-rule="evenodd" clip-rule="evenodd" d="M23.9481 1.27653C24.7787 1.89429 24.947 3.06282 24.3241 3.88651L14.9244 16.315C14.3014 17.1387 13.1231 17.3056 12.2925 16.6878C11.4619 16.0701 11.2935 14.9015 11.9165 14.0778L21.3162 1.64938C21.9391 0.825696 23.1175 0.658763 23.9481 1.27653Z" fill="white"/>
<path d="M11.5422 15.1964H13.4124V17.0607H11.5422V15.1964Z" fill="white"/>
</svg>
