<svg width="754" height="918" viewBox="0 0 754 918" fill="none" xmlns="http://www.w3.org/2000/svg">
<g filter="url(#filter0_d_2278_394)">
<rect x="208.845" y="4" width="560.152" height="791.458" transform="rotate(15 208.845 4)" fill="white"/>
</g>
<path fill-rule="evenodd" clip-rule="evenodd" d="M243.527 66.366C244.843 68.6595 247.763 69.442 250.049 68.1138C250.193 68.0304 250.331 67.9407 250.462 67.8453L264.716 74.9113C265.425 75.2628 266.285 74.9695 266.636 74.2563C266.988 73.5431 266.699 72.6801 265.99 72.3286L252.191 65.4882C252.615 64.2272 252.519 62.7975 251.807 61.5561C251.094 60.3148 249.912 59.5161 248.615 59.2551L249.627 43.8112C249.678 43.0177 249.08 42.3338 248.291 42.2837C247.501 42.2335 246.819 42.8362 246.767 43.6297L245.721 59.583C245.573 59.6499 245.427 59.725 245.284 59.8084C242.997 61.1366 242.211 64.0725 243.527 66.366ZM245.562 62.0108C244.732 62.9137 244.541 64.2861 245.183 65.404C245.972 66.7801 247.724 67.2496 249.096 66.4527C250.468 65.6558 250.94 63.8942 250.151 62.5181C249.657 61.6581 248.788 61.1521 247.87 61.0882C247.754 61.0801 247.637 61.0791 247.52 61.0853C247.082 61.1087 246.643 61.2337 246.237 61.4695C245.98 61.619 245.754 61.8023 245.562 62.0108Z" fill="url(#paint0_linear_2278_394)"/>
<path fill-rule="evenodd" clip-rule="evenodd" d="M260.125 50.0796L271.717 43.3457C278.805 39.2282 287.858 41.6539 291.937 48.7637C296.017 55.8735 293.578 64.975 286.49 69.0925L272.428 77.2612L272.422 77.251C271.834 78.6437 270.807 79.8637 269.403 80.6795L254.499 89.3373C252.899 90.2671 250.855 89.7193 249.933 88.1139L232.301 57.3838C228.484 50.7327 230.766 42.2184 237.396 38.3666C244.027 34.5148 252.496 36.784 256.312 43.4351L260.125 50.0796ZM274.576 48.3289C278.92 45.8053 284.469 47.2921 286.969 51.6497C289.47 56.0073 287.975 61.5856 283.631 64.1092L272.039 70.8431L262.984 55.0628L274.576 48.3289ZM238.826 40.8582C244.085 37.8033 250.802 39.6031 253.828 44.8781L269.555 72.286C270.739 74.3501 270.031 76.9925 267.973 78.1879L253.07 86.8457C252.841 86.9785 252.549 86.9003 252.417 86.6709L234.785 55.9409C231.758 50.6659 233.567 43.9131 238.826 40.8582Z" fill="url(#paint1_linear_2278_394)"/>
<path d="M310.594 69.0632L312.994 60.1059L314.417 60.4871L315.054 65.0651L317.899 61.4046L319.321 61.7858L316.917 70.7575L315.509 70.3802L317.185 64.1259L314.894 67.041L314.104 66.8292L313.66 63.1968L311.988 69.4367L310.594 69.0632Z" fill="url(#paint2_linear_2278_394)"/>
<path d="M326.633 73.5304C325.991 73.3584 325.452 73.0702 325.017 72.6657C324.59 72.2639 324.303 71.7656 324.154 71.171C324.005 70.5764 324.029 69.9148 324.224 69.1864C324.424 68.4387 324.734 67.8385 325.153 67.3858C325.582 66.9356 326.068 66.6345 326.612 66.4823C327.168 66.3231 327.738 66.3218 328.323 66.4784C328.84 66.617 329.282 66.8639 329.649 67.2191C330.026 67.5768 330.278 68.0347 330.405 68.5929C330.545 69.144 330.519 69.779 330.326 70.4979C330.301 70.5938 330.265 70.7075 330.219 70.8391C330.183 70.9733 330.148 71.0871 330.113 71.1803L325.686 69.9943C325.592 70.4212 325.6 70.7932 325.711 71.1104C325.823 71.4179 325.997 71.67 326.232 71.8665C326.467 72.0629 326.738 72.2023 327.044 72.2844C327.341 72.364 327.637 72.3918 327.931 72.3678C328.225 72.3439 328.517 72.2477 328.809 72.0792L329.427 73.1077C328.998 73.4039 328.55 73.5817 328.082 73.6413C327.614 73.7009 327.131 73.6639 326.633 73.5304ZM326.042 68.7799L328.888 69.5424C329.014 69.0727 328.99 68.6811 328.818 68.3678C328.645 68.0544 328.343 67.8399 327.912 67.7244C327.538 67.6243 327.18 67.6568 326.838 67.822C326.499 67.9776 326.233 68.2969 326.042 68.7799Z" fill="url(#paint3_linear_2278_394)"/>
<path d="M335.859 75.8329L337.65 69.1473L339.016 69.5131L338.885 70.0019C339.109 69.8155 339.335 69.7014 339.562 69.6594C339.791 69.6079 340.011 69.6104 340.222 69.6669C340.462 69.731 340.665 69.8524 340.833 70.0309C341.011 70.212 341.113 70.4604 341.142 70.7762C341.583 70.319 342.124 70.1765 342.766 70.3485C343.255 70.4794 343.558 70.7456 343.676 71.1472C343.807 71.5417 343.788 72.0348 343.619 72.6265L342.297 77.5581L340.889 77.1807L342.118 72.5942C342.234 72.1629 342.277 71.8663 342.249 71.7046C342.223 71.5333 342.142 71.4296 342.008 71.3937C341.817 71.3423 341.61 71.4255 341.387 71.6432C341.167 71.8514 341 72.1663 340.887 72.5881L339.739 76.8726L338.417 76.5184L339.635 71.975C339.758 71.5149 339.806 71.1992 339.78 71.0279C339.755 70.8565 339.65 70.7465 339.468 70.6977C339.296 70.6515 339.107 70.7242 338.902 70.9157C338.709 71.1002 338.554 71.4081 338.439 71.8395L337.267 76.2103L335.859 75.8329Z" fill="url(#paint4_linear_2278_394)"/>
<path d="M351.615 80.2087C351.021 80.0496 350.518 79.7608 350.106 79.3423C349.707 78.9168 349.438 78.408 349.298 77.816C349.162 77.2143 349.187 76.5636 349.375 75.8639C349.552 75.2026 349.85 74.6455 350.269 74.1928C350.688 73.74 351.179 73.4245 351.74 73.2461C352.311 73.0703 352.893 73.062 353.487 73.2212C354.091 73.3829 354.591 73.6813 354.988 74.1164C355.394 74.5541 355.666 75.0737 355.802 75.6753C355.948 76.2795 355.933 76.9123 355.756 77.5737C355.571 78.2638 355.264 78.834 354.835 79.2841C354.416 79.7369 353.922 80.0463 353.354 80.2126C352.798 80.3718 352.218 80.3705 351.615 80.2087ZM351.961 78.9148C352.421 79.038 352.854 78.9381 353.259 78.6151C353.666 78.2825 353.957 77.7903 354.132 77.1385C354.311 76.4676 354.306 75.8958 354.114 75.4232C353.922 74.9507 353.596 74.6528 353.136 74.5295C352.696 74.4115 352.274 74.5091 351.872 74.8225C351.47 75.1359 351.179 75.6281 350.999 76.2991C350.824 76.9509 350.825 77.5213 351.002 78.0105C351.191 78.4927 351.511 78.7941 351.961 78.9148Z" fill="url(#paint5_linear_2278_394)"/>
<path d="M363.792 76.1519L365.474 76.6025L365.17 77.6769C365.455 77.3423 365.804 77.1123 366.218 76.9868C366.631 76.8613 367.034 76.8512 367.427 76.9565C368.175 77.1567 368.725 77.5763 369.077 78.2152L368.021 79.3963L367.947 79.4998L367.833 79.4076C367.825 79.3232 367.817 79.2388 367.809 79.1544C367.803 79.0605 367.757 78.9454 367.67 78.8091C367.564 78.6677 367.442 78.5478 367.305 78.4492C367.176 78.3532 367.026 78.282 366.853 78.2358C366.394 78.1126 365.949 78.1629 365.519 78.3868C365.089 78.6107 364.781 79.0725 364.593 79.7722L363.653 83.2804L362.001 82.8376L363.792 76.1519Z" fill="url(#paint6_linear_2278_394)"/>
<path d="M374.501 88.8992C374.175 88.812 373.902 88.6822 373.681 88.51C373.46 88.3379 373.257 88.119 373.072 87.8536L373.933 86.8823L374.025 86.7683L374.139 86.8604C374.147 86.9448 374.161 87.0257 374.182 87.1031C374.202 87.1804 374.268 87.2802 374.379 87.4024C374.502 87.5176 374.654 87.5996 374.836 87.6484C375.124 87.7254 375.386 87.6672 375.623 87.4738C375.869 87.2829 376.152 86.9531 376.473 86.4843L375.605 79.3173L377.229 79.7524L377.757 84.6246L379.022 82.7755C379.277 82.4019 379.503 82.0362 379.702 81.6785C379.9 81.3207 380.068 80.9444 380.204 80.5495L381.713 80.9539C381.559 81.3749 381.337 81.8033 381.045 82.2389C380.754 82.6745 380.469 83.0862 380.191 83.4739L377.321 87.5744C376.862 88.2118 376.403 88.6229 375.943 88.8078C375.49 89.0048 375.009 89.0353 374.501 88.8992Z" fill="url(#paint7_linear_2278_394)"/>
<path d="M308.121 92.4343C307.469 92.2597 306.925 91.9545 306.487 91.5188C306.049 91.083 305.746 90.5652 305.579 89.9655C305.423 89.3587 305.435 88.7199 305.615 88.0489C305.792 87.3875 306.101 86.8282 306.542 86.3711C306.992 85.9164 307.518 85.6003 308.121 85.4226C308.723 85.2449 309.354 85.2447 310.015 85.4218C310.629 85.5861 311.134 85.8449 311.532 86.1981C311.931 86.5514 312.21 86.9653 312.37 87.4397L311.199 88.1892L311.086 88.2667L310.994 88.1497C311.017 88.0634 311.028 87.9842 311.027 87.9119C311.028 87.8301 310.993 87.7128 310.921 87.5599C310.785 87.3386 310.611 87.1636 310.399 87.0349C310.197 86.9088 309.957 86.8085 309.679 86.734C309.363 86.6493 309.043 86.656 308.719 86.7541C308.395 86.8521 308.101 87.0458 307.839 87.3351C307.586 87.6269 307.396 88.0125 307.267 88.4917C307.152 88.9231 307.137 89.3248 307.222 89.6969C307.309 90.0594 307.468 90.369 307.697 90.6255C307.938 90.8751 308.221 91.0435 308.547 91.1308C308.844 91.2104 309.153 91.2264 309.474 91.1788C309.795 91.1312 310.121 90.9874 310.452 90.7474L311.08 92.0252C310.62 92.3232 310.131 92.5004 309.613 92.5567C309.097 92.6034 308.6 92.5626 308.121 92.4343Z" fill="url(#paint8_linear_2278_394)"/>
<path d="M319.618 95.5149C318.88 95.3173 318.352 94.9907 318.032 94.5352C317.722 94.0823 317.643 93.5731 317.795 93.0076C317.985 92.2983 318.457 91.7983 319.213 91.5077C319.981 91.21 320.973 91.2242 322.19 91.5502C322.257 91.5682 322.343 91.5913 322.449 91.6195C322.564 91.6504 322.682 91.6872 322.804 91.7302C322.886 91.1563 322.828 90.7401 322.63 90.4817C322.435 90.2136 322.127 90.0231 321.705 89.9102C321.399 89.828 321.097 89.8037 320.801 89.8373C320.507 89.8612 320.19 89.9715 319.849 90.168L319.22 88.9515C319.699 88.6996 320.183 88.5572 320.675 88.5245C321.166 88.4918 321.647 88.5384 322.116 88.6642C322.672 88.8131 323.155 89.0402 323.566 89.3455C323.98 89.6413 324.262 90.0456 324.412 90.5584C324.565 91.0616 324.538 91.6966 324.333 92.4634L323.3 96.3167L321.619 95.8661L321.811 95.1472C321.472 95.416 321.122 95.5738 320.76 95.6207C320.401 95.658 320.021 95.6228 319.618 95.5149ZM319.473 93.2415C319.39 93.5482 319.428 93.7895 319.587 93.9655C319.757 94.1344 319.986 94.2574 320.273 94.3344C320.791 94.473 321.234 94.4275 321.604 94.1978C321.976 93.9585 322.281 93.5111 322.518 92.8555C322.393 92.8221 322.274 92.79 322.159 92.7592C322.046 92.7188 321.947 92.6871 321.861 92.664C321.094 92.4586 320.525 92.419 320.152 92.5452C319.789 92.6739 319.562 92.906 319.473 93.2415Z" fill="url(#paint9_linear_2278_394)"/>
<path d="M329.512 100.555L331.936 91.4496L333.546 91.8809L333.296 92.8155C333.607 92.4981 333.948 92.2968 334.32 92.2116C334.692 92.1263 335.074 92.1363 335.467 92.2416C335.956 92.3725 336.361 92.6248 336.681 92.9984C337.015 93.3651 337.23 93.8441 337.328 94.4354C337.429 95.0172 337.376 95.6963 337.168 96.4727C336.957 97.2587 336.658 97.8771 336.27 98.3279C335.882 98.7788 335.448 99.0784 334.966 99.2268C334.497 99.3682 334.028 99.376 333.558 99.2502C333.204 99.1552 332.88 99.0018 332.588 98.7899C332.296 98.578 332.087 98.3218 331.962 98.0212L331.165 100.997L329.512 100.555ZM333.452 97.8656C333.73 97.9401 334.003 97.9362 334.271 97.854C334.54 97.7719 334.786 97.581 335.01 97.2815C335.234 96.9819 335.424 96.5398 335.581 95.9551C335.758 95.2938 335.769 94.7367 335.613 94.284C335.467 93.8338 335.174 93.5449 334.736 93.4172C334.279 93.2844 333.871 93.3703 333.512 93.6748C333.165 93.9723 332.88 94.538 332.657 95.3719C332.296 96.7956 332.561 97.6269 333.452 97.8656Z" fill="url(#paint10_linear_2278_394)"/>
<path d="M345.792 102.513C345.179 102.349 344.636 102.116 344.162 101.814C343.688 101.512 343.302 101.116 343.002 100.625L344.075 99.4947L344.163 99.395L344.259 99.4977C344.27 99.5725 344.278 99.6569 344.284 99.7509C344.292 99.8353 344.339 99.9456 344.426 100.082C344.612 100.347 344.837 100.577 345.104 100.772C345.379 100.969 345.733 101.125 346.164 101.241C346.566 101.349 346.896 101.365 347.152 101.29C347.408 101.215 347.566 101.067 347.625 100.847C347.684 100.626 347.607 100.415 347.394 100.214C347.19 100.016 346.833 99.761 346.321 99.4492C345.644 99.0623 345.134 98.6482 344.79 98.2068C344.446 97.7654 344.347 97.2715 344.494 96.7251C344.64 96.1788 344.997 95.7864 345.564 95.548C346.143 95.3025 346.835 95.2876 347.64 95.5032C348.742 95.7985 349.546 96.3788 350.054 97.2442L348.967 98.1394L348.835 98.2275L348.758 98.1143C348.769 98.035 348.764 97.9567 348.744 97.8794C348.733 97.8046 348.685 97.6943 348.601 97.5484C348.446 97.3629 348.252 97.2032 348.021 97.0694C347.802 96.9285 347.573 96.826 347.333 96.7618C347.008 96.6745 346.711 96.6515 346.443 96.6928C346.185 96.7366 346.026 96.8687 345.967 97.0892C345.916 97.2809 345.997 97.4772 346.21 97.6781C346.423 97.8791 346.811 98.1371 347.373 98.4522C348.124 98.8691 348.637 99.2941 348.911 99.7271C349.188 100.151 349.257 100.621 349.118 101.139C349.015 101.522 348.815 101.849 348.517 102.118C348.221 102.378 347.842 102.548 347.378 102.63C346.925 102.714 346.396 102.675 345.792 102.513Z" fill="url(#paint11_linear_2278_394)"/>
<path d="M357.76 105.735C357.08 105.553 356.581 105.173 356.263 104.594C355.946 104.016 355.926 103.209 356.203 102.174L357.255 98.2491L358.893 98.6881L357.842 102.613C357.682 103.208 357.665 103.655 357.79 103.956C357.927 104.249 358.144 104.436 358.441 104.515C358.843 104.623 359.208 104.567 359.534 104.346C359.87 104.127 360.116 103.726 360.272 103.141L361.293 99.3312L362.917 99.7664L361.411 105.388C361.355 105.599 361.308 105.792 361.271 105.967C361.247 106.135 361.246 106.31 361.27 106.491L359.789 106.094C359.751 105.93 359.747 105.774 359.776 105.628C359.805 105.482 359.838 105.336 359.877 105.193C359.583 105.484 359.246 105.671 358.864 105.753C358.492 105.839 358.124 105.833 357.76 105.735Z" fill="url(#paint12_linear_2278_394)"/>
<path d="M368.312 108.377L368.655 107.098L370.537 107.602L372.436 100.514L370.64 100.033L370.983 98.7531L374.418 99.6734L372.176 108.041L374.044 108.542L373.701 109.821L368.312 108.377Z" fill="url(#paint13_linear_2278_394)"/>
<path d="M383.905 112.725C383.264 112.553 382.725 112.265 382.289 111.861C381.862 111.459 381.575 110.96 381.426 110.366C381.277 109.771 381.301 109.11 381.496 108.381C381.696 107.634 382.006 107.033 382.425 106.581C382.854 106.13 383.34 105.829 383.884 105.677C384.44 105.518 385.01 105.517 385.595 105.673C386.112 105.812 386.554 106.059 386.921 106.414C387.298 106.772 387.55 107.23 387.678 107.788C387.817 108.339 387.791 108.974 387.598 109.693C387.573 109.789 387.537 109.902 387.492 110.034C387.456 110.168 387.42 110.282 387.385 110.375L382.958 109.189C382.864 109.616 382.873 109.988 382.983 110.305C383.095 110.613 383.269 110.865 383.504 111.061C383.739 111.258 384.01 111.397 384.316 111.479C384.613 111.559 384.909 111.587 385.203 111.563C385.497 111.539 385.789 111.443 386.081 111.274L386.699 112.303C386.27 112.599 385.822 112.777 385.354 112.836C384.887 112.896 384.404 112.859 383.905 112.725ZM383.315 107.975L386.16 108.737C386.286 108.268 386.262 107.876 386.09 107.563C385.917 107.249 385.615 107.035 385.184 106.919C384.81 106.819 384.452 106.852 384.11 107.017C383.771 107.172 383.506 107.492 383.315 107.975Z" fill="url(#paint14_linear_2278_394)"/>
<line x1="652.652" y1="311.629" x2="210.802" y2="193.235" stroke="#FFB4BF" stroke-width="2"/>
<line x1="622.197" y1="425.293" x2="180.347" y2="306.899" stroke="#FFB4BF" stroke-width="2"/>
<line x1="591.719" y1="539.036" x2="149.868" y2="420.643" stroke="#FFB4BF" stroke-width="2"/>
<line x1="561.241" y1="652.78" x2="119.391" y2="534.387" stroke="#FFB4BF" stroke-width="2"/>
<line x1="645.055" y1="339.985" x2="203.204" y2="221.591" stroke="#FFB4BF" stroke-width="2"/>
<line x1="614.578" y1="453.728" x2="172.727" y2="335.335" stroke="#FFB4BF" stroke-width="2"/>
<line x1="584.1" y1="567.473" x2="142.249" y2="449.079" stroke="#FFB4BF" stroke-width="2"/>
<line x1="553.622" y1="681.216" x2="111.771" y2="562.823" stroke="#FFB4BF" stroke-width="2"/>
<line x1="637.436" y1="368.421" x2="195.585" y2="250.027" stroke="#FFB4BF" stroke-width="2"/>
<line x1="606.959" y1="482.164" x2="165.108" y2="363.771" stroke="#FFB4BF" stroke-width="2"/>
<line x1="576.48" y1="595.909" x2="134.63" y2="477.515" stroke="#FFB4BF" stroke-width="2"/>
<line x1="546.003" y1="709.652" x2="104.152" y2="591.259" stroke="#FFB4BF" stroke-width="2"/>
<line x1="629.816" y1="396.857" x2="187.966" y2="278.463" stroke="#FFB4BF" stroke-width="2"/>
<line x1="599.338" y1="510.6" x2="157.487" y2="392.207" stroke="#FFB4BF" stroke-width="2"/>
<line x1="568.861" y1="624.345" x2="127.011" y2="505.951" stroke="#FFB4BF" stroke-width="2"/>
<line x1="538.384" y1="738.088" x2="96.5331" y2="619.695" stroke="#FFB4BF" stroke-width="2"/>
<g filter="url(#filter1_d_2278_394)">
<path d="M599.376 298.289C600.522 296.981 602.312 296.673 603.374 297.603L617.984 310.397C619.046 311.326 618.978 313.141 617.832 314.45L255.531 728.211C254.385 729.52 252.595 729.827 251.533 728.897L236.922 716.104C235.861 715.174 235.929 713.359 237.075 712.05L599.376 298.289Z" fill="url(#paint15_linear_2278_394)"/>
<path d="M637.882 270.7C639.398 269.624 640.962 270.993 640.095 272.638L620.208 310.379C619.628 311.48 618.276 311.908 617.505 311.233L602.608 298.188C601.837 297.514 602.083 296.117 603.097 295.396L637.882 270.7Z" fill="url(#paint16_linear_2278_394)"/>
<path d="M609.147 306.392C610.294 305.082 612.055 304.748 613.08 305.646L618.277 310.197C619.302 311.094 619.204 312.884 618.057 314.193L255.533 728.209C254.386 729.519 252.625 729.853 251.6 728.955L246.403 724.404C245.378 723.507 245.476 721.717 246.623 720.408L609.147 306.392Z" fill="#AD90EB"/>
<path d="M605.329 303.048C606.476 301.739 607.761 300.989 608.201 301.374L614.247 306.668C614.686 307.052 614.113 308.426 612.966 309.735L250.442 723.751C249.295 725.061 248.009 725.811 247.57 725.426L241.524 720.132C241.085 719.747 241.658 718.374 242.805 717.064L605.329 303.048Z" fill="#D8C7F6"/>
<path d="M639.988 268.648C641.075 267.892 642.457 269.103 641.851 270.28L638.66 276.482C638.283 277.215 637.315 277.395 636.692 276.849L634.157 274.63C633.534 274.084 633.585 273.102 634.262 272.631L639.988 268.648Z" fill="#454545"/>
<path d="M640.251 269.386C640.751 268.938 641.475 269.573 641.095 270.127L637.768 274.978C637.357 275.577 636.499 275.644 636.005 275.116L635.816 274.913C635.383 274.45 635.417 273.719 635.891 273.294L640.251 269.386Z" fill="#747474"/>
</g>
<defs>
<filter id="filter0_d_2278_394" x="0" y="0" width="753.91" height="917.468" filterUnits="userSpaceOnUse" color-interpolation-filters="sRGB">
<feFlood flood-opacity="0" result="BackgroundImageFix"/>
<feColorMatrix in="SourceAlpha" type="matrix" values="0 0 0 0 0 0 0 0 0 0 0 0 0 0 0 0 0 0 127 0" result="hardAlpha"/>
<feOffset/>
<feGaussianBlur stdDeviation="2"/>
<feComposite in2="hardAlpha" operator="out"/>
<feColorMatrix type="matrix" values="0 0 0 0 0 0 0 0 0 0 0 0 0 0 0 0 0 0 0.25 0"/>
<feBlend mode="normal" in2="BackgroundImageFix" result="effect1_dropShadow_2278_394"/>
<feBlend mode="normal" in="SourceGraphic" in2="effect1_dropShadow_2278_394" result="shape"/>
</filter>
<filter id="filter1_d_2278_394" x="236.169" y="268.414" width="412.83" height="468.045" filterUnits="userSpaceOnUse" color-interpolation-filters="sRGB">
<feFlood flood-opacity="0" result="BackgroundImageFix"/>
<feColorMatrix in="SourceAlpha" type="matrix" values="0 0 0 0 0 0 0 0 0 0 0 0 0 0 0 0 0 0 127 0" result="hardAlpha"/>
<feOffset dx="5" dy="5"/>
<feGaussianBlur stdDeviation="1"/>
<feComposite in2="hardAlpha" operator="out"/>
<feColorMatrix type="matrix" values="0 0 0 0 0 0 0 0 0 0 0 0 0 0 0 0 0 0 0.15 0"/>
<feBlend mode="normal" in2="BackgroundImageFix" result="effect1_dropShadow_2278_394"/>
<feBlend mode="normal" in="SourceGraphic" in2="effect1_dropShadow_2278_394" result="shape"/>
</filter>
<linearGradient id="paint0_linear_2278_394" x1="302.572" y1="103.237" x2="316.606" y2="50.8612" gradientUnits="userSpaceOnUse">
<stop stop-color="#FF5A9E"/>
<stop offset="1" stop-color="#FF9E9E"/>
</linearGradient>
<linearGradient id="paint1_linear_2278_394" x1="302.572" y1="103.237" x2="316.606" y2="50.8612" gradientUnits="userSpaceOnUse">
<stop stop-color="#FF5A9E"/>
<stop offset="1" stop-color="#FF9E9E"/>
</linearGradient>
<linearGradient id="paint2_linear_2278_394" x1="302.572" y1="103.237" x2="316.606" y2="50.8612" gradientUnits="userSpaceOnUse">
<stop stop-color="#FF5A9E"/>
<stop offset="1" stop-color="#FF9E9E"/>
</linearGradient>
<linearGradient id="paint3_linear_2278_394" x1="302.572" y1="103.237" x2="316.606" y2="50.8612" gradientUnits="userSpaceOnUse">
<stop stop-color="#FF5A9E"/>
<stop offset="1" stop-color="#FF9E9E"/>
</linearGradient>
<linearGradient id="paint4_linear_2278_394" x1="302.572" y1="103.237" x2="316.606" y2="50.8612" gradientUnits="userSpaceOnUse">
<stop stop-color="#FF5A9E"/>
<stop offset="1" stop-color="#FF9E9E"/>
</linearGradient>
<linearGradient id="paint5_linear_2278_394" x1="302.572" y1="103.237" x2="316.606" y2="50.8612" gradientUnits="userSpaceOnUse">
<stop stop-color="#FF5A9E"/>
<stop offset="1" stop-color="#FF9E9E"/>
</linearGradient>
<linearGradient id="paint6_linear_2278_394" x1="302.572" y1="103.237" x2="316.606" y2="50.8612" gradientUnits="userSpaceOnUse">
<stop stop-color="#FF5A9E"/>
<stop offset="1" stop-color="#FF9E9E"/>
</linearGradient>
<linearGradient id="paint7_linear_2278_394" x1="302.572" y1="103.237" x2="316.606" y2="50.8612" gradientUnits="userSpaceOnUse">
<stop stop-color="#FF5A9E"/>
<stop offset="1" stop-color="#FF9E9E"/>
</linearGradient>
<linearGradient id="paint8_linear_2278_394" x1="302.572" y1="103.237" x2="316.606" y2="50.8612" gradientUnits="userSpaceOnUse">
<stop stop-color="#FF5A9E"/>
<stop offset="1" stop-color="#FF9E9E"/>
</linearGradient>
<linearGradient id="paint9_linear_2278_394" x1="302.572" y1="103.237" x2="316.606" y2="50.8612" gradientUnits="userSpaceOnUse">
<stop stop-color="#FF5A9E"/>
<stop offset="1" stop-color="#FF9E9E"/>
</linearGradient>
<linearGradient id="paint10_linear_2278_394" x1="302.572" y1="103.237" x2="316.606" y2="50.8612" gradientUnits="userSpaceOnUse">
<stop stop-color="#FF5A9E"/>
<stop offset="1" stop-color="#FF9E9E"/>
</linearGradient>
<linearGradient id="paint11_linear_2278_394" x1="302.572" y1="103.237" x2="316.606" y2="50.8612" gradientUnits="userSpaceOnUse">
<stop stop-color="#FF5A9E"/>
<stop offset="1" stop-color="#FF9E9E"/>
</linearGradient>
<linearGradient id="paint12_linear_2278_394" x1="302.572" y1="103.237" x2="316.606" y2="50.8612" gradientUnits="userSpaceOnUse">
<stop stop-color="#FF5A9E"/>
<stop offset="1" stop-color="#FF9E9E"/>
</linearGradient>
<linearGradient id="paint13_linear_2278_394" x1="302.572" y1="103.237" x2="316.606" y2="50.8612" gradientUnits="userSpaceOnUse">
<stop stop-color="#FF5A9E"/>
<stop offset="1" stop-color="#FF9E9E"/>
</linearGradient>
<linearGradient id="paint14_linear_2278_394" x1="302.572" y1="103.237" x2="316.606" y2="50.8612" gradientUnits="userSpaceOnUse">
<stop stop-color="#FF5A9E"/>
<stop offset="1" stop-color="#FF9E9E"/>
</linearGradient>
<linearGradient id="paint15_linear_2278_394" x1="626.964" y1="271.902" x2="644.002" y2="286.425" gradientUnits="userSpaceOnUse">
<stop stop-color="#C3ABF0"/>
<stop offset="1" stop-color="#9A7ADE"/>
</linearGradient>
<linearGradient id="paint16_linear_2278_394" x1="626.964" y1="271.902" x2="644.002" y2="286.425" gradientUnits="userSpaceOnUse">
<stop stop-color="#C3ABF0"/>
<stop offset="1" stop-color="#9A7ADE"/>
</linearGradient>
</defs>
</svg>
