<svg width="1920" height="1084" viewBox="0 0 1920 1084" fill="none" xmlns="http://www.w3.org/2000/svg">
<g clip-path="url(#clip0_2210_262)">
<rect width="1920" height="1084" fill="#FCF9F6"/>
<g filter="url(#filter0_d_2210_262)">
<rect x="2105.86" y="1161.05" width="592.721" height="745.532" transform="rotate(-149.15 2105.86 1161.05)" fill="white"/>
<rect x="2101.36" y="1096.33" width="518.631" height="555.676" transform="rotate(-149.15 2101.36 1096.33)" fill="#454545"/>
</g>
<g filter="url(#filter1_d_2210_262)">
<rect x="175.622" y="80.9102" width="602.175" height="850.833" transform="rotate(15 175.622 80.9102)" fill="white"/>
</g>
<path fill-rule="evenodd" clip-rule="evenodd" d="M212.906 147.955C214.321 150.42 217.46 151.262 219.918 149.834C220.073 149.744 220.221 149.648 220.362 149.545L235.685 157.141C236.447 157.519 237.372 157.204 237.75 156.437C238.128 155.67 237.817 154.743 237.054 154.365L222.221 147.011C222.677 145.656 222.573 144.119 221.807 142.784C221.042 141.45 219.771 140.591 218.376 140.311L219.464 123.708C219.52 122.855 218.877 122.12 218.028 122.066C217.179 122.012 216.445 122.66 216.389 123.513L215.266 140.663C215.107 140.735 214.95 140.816 214.795 140.905C212.337 142.333 211.492 145.489 212.906 147.955ZM215.095 143.273C214.202 144.244 213.997 145.719 214.687 146.921C215.535 148.4 217.419 148.905 218.894 148.048C220.369 147.191 220.876 145.298 220.027 143.818C219.497 142.894 218.562 142.35 217.575 142.281C217.451 142.272 217.325 142.271 217.199 142.278C216.729 142.303 216.256 142.438 215.82 142.691C215.543 142.852 215.301 143.049 215.095 143.273Z" fill="url(#paint0_linear_2210_262)"/>
<path fill-rule="evenodd" clip-rule="evenodd" d="M230.75 130.447L243.211 123.208C250.831 118.781 260.563 121.389 264.949 129.032C269.334 136.675 266.712 146.46 259.093 150.886L243.976 159.667L243.97 159.656C243.338 161.154 242.234 162.465 240.724 163.342L224.702 172.65C222.982 173.649 220.784 173.06 219.794 171.334L200.838 138.299C196.736 131.149 199.188 121.996 206.316 117.855C213.444 113.714 222.548 116.154 226.651 123.304L230.75 130.447ZM246.285 128.565C250.955 125.852 256.92 127.45 259.608 132.135C262.296 136.819 260.689 142.816 256.019 145.529L243.557 152.768L233.824 135.804L246.285 128.565ZM207.853 120.534C213.506 117.249 220.727 119.184 223.981 124.855L240.887 154.319C242.16 156.538 241.399 159.379 239.187 160.664L223.165 169.971C222.919 170.114 222.605 170.03 222.464 169.783L203.508 136.748C200.255 131.077 202.2 123.818 207.853 120.534Z" fill="url(#paint1_linear_2210_262)"/>
<path d="M285.005 150.854L287.585 141.225L289.115 141.635L289.8 146.556L292.858 142.621L294.387 143.031L291.803 152.676L290.289 152.27L292.09 145.547L289.628 148.68L288.778 148.453L288.301 144.548L286.504 151.256L285.005 150.854Z" fill="url(#paint2_linear_2210_262)"/>
<path d="M302.248 155.657C301.557 155.472 300.978 155.162 300.51 154.727C300.051 154.295 299.742 153.76 299.582 153.12C299.422 152.481 299.447 151.77 299.657 150.987C299.873 150.183 300.206 149.538 300.656 149.051C301.117 148.567 301.64 148.243 302.224 148.08C302.822 147.909 303.435 147.907 304.064 148.076C304.62 148.225 305.095 148.49 305.49 148.872C305.894 149.256 306.165 149.749 306.303 150.349C306.453 150.941 306.425 151.624 306.218 152.397C306.19 152.5 306.152 152.622 306.103 152.764C306.064 152.908 306.026 153.03 305.988 153.13L301.229 151.855C301.129 152.314 301.137 152.714 301.256 153.055C301.377 153.386 301.564 153.657 301.816 153.868C302.069 154.079 302.36 154.229 302.689 154.317C303.009 154.403 303.326 154.433 303.642 154.407C303.958 154.381 304.273 154.278 304.586 154.097L305.251 155.202C304.79 155.521 304.308 155.712 303.805 155.776C303.302 155.84 302.783 155.8 302.248 155.657ZM301.612 150.55L304.671 151.37C304.807 150.865 304.781 150.444 304.596 150.107C304.41 149.77 304.085 149.539 303.622 149.415C303.22 149.308 302.836 149.342 302.468 149.52C302.103 149.687 301.818 150.031 301.612 150.55Z" fill="url(#paint3_linear_2210_262)"/>
<path d="M312.165 158.132L314.091 150.945L315.559 151.338L315.418 151.864C315.659 151.663 315.902 151.54 316.146 151.495C316.393 151.44 316.629 151.443 316.856 151.503C317.113 151.572 317.332 151.703 317.513 151.895C317.703 152.089 317.814 152.356 317.844 152.696C318.318 152.204 318.9 152.051 319.59 152.236C320.116 152.377 320.442 152.663 320.569 153.095C320.709 153.519 320.689 154.049 320.507 154.685L319.087 159.987L317.573 159.581L318.894 154.65C319.018 154.187 319.065 153.868 319.034 153.694C319.006 153.51 318.92 153.398 318.776 153.36C318.57 153.305 318.347 153.394 318.108 153.628C317.871 153.852 317.692 154.19 317.571 154.644L316.337 159.25L314.915 158.869L316.224 153.985C316.357 153.49 316.409 153.151 316.381 152.966C316.353 152.782 316.241 152.664 316.046 152.612C315.86 152.562 315.657 152.64 315.436 152.846C315.229 153.044 315.063 153.375 314.938 153.839L313.679 158.538L312.165 158.132Z" fill="url(#paint4_linear_2210_262)"/>
<path d="M329.103 162.836C328.465 162.665 327.924 162.355 327.482 161.905C327.052 161.447 326.763 160.9 326.613 160.264C326.466 159.617 326.494 158.918 326.695 158.165C326.886 157.454 327.206 156.855 327.657 156.369C328.107 155.882 328.634 155.543 329.238 155.351C329.851 155.162 330.477 155.153 331.116 155.324C331.765 155.498 332.303 155.819 332.729 156.287C333.166 156.757 333.458 157.316 333.605 157.963C333.762 158.612 333.745 159.292 333.555 160.003C333.356 160.745 333.026 161.358 332.565 161.842C332.115 162.329 331.584 162.662 330.973 162.84C330.375 163.011 329.752 163.01 329.103 162.836ZM329.476 161.445C329.97 161.578 330.435 161.47 330.87 161.123C331.308 160.765 331.621 160.236 331.809 159.536C332.002 158.814 331.996 158.2 331.79 157.692C331.584 157.184 331.233 156.863 330.739 156.731C330.265 156.604 329.812 156.709 329.38 157.046C328.947 157.383 328.634 157.912 328.441 158.633C328.253 159.334 328.254 159.947 328.445 160.473C328.648 160.991 328.992 161.315 329.476 161.445Z" fill="url(#paint5_linear_2210_262)"/>
<path d="M342.194 158.475L344.002 158.959L343.676 160.114C343.982 159.755 344.357 159.507 344.802 159.372C345.246 159.238 345.68 159.227 346.102 159.34C346.905 159.555 347.497 160.006 347.875 160.693L346.74 161.963L346.661 162.074L346.538 161.975C346.53 161.884 346.521 161.793 346.512 161.703C346.506 161.602 346.456 161.478 346.363 161.331C346.249 161.179 346.118 161.051 345.97 160.945C345.832 160.841 345.67 160.765 345.485 160.715C344.991 160.583 344.513 160.637 344.051 160.878C343.589 161.118 343.257 161.615 343.055 162.367L342.045 166.138L340.268 165.662L342.194 158.475Z" fill="url(#paint6_linear_2210_262)"/>
<path d="M353.707 172.179C353.356 172.085 353.063 171.945 352.825 171.76C352.588 171.575 352.369 171.34 352.17 171.054L353.095 170.01L353.194 169.888L353.317 169.987C353.326 170.078 353.341 170.164 353.363 170.248C353.385 170.331 353.455 170.438 353.575 170.569C353.707 170.693 353.871 170.781 354.067 170.834C354.376 170.917 354.658 170.854 354.912 170.646C355.177 170.441 355.482 170.086 355.826 169.582L354.894 161.878L356.639 162.346L357.206 167.583L358.567 165.595C358.84 165.194 359.084 164.801 359.297 164.416C359.51 164.032 359.691 163.627 359.837 163.202L361.46 163.637C361.294 164.09 361.055 164.55 360.742 165.019C360.429 165.487 360.122 165.929 359.823 166.346L356.738 170.754C356.245 171.44 355.751 171.882 355.256 172.08C354.769 172.292 354.252 172.325 353.707 172.179Z" fill="url(#paint7_linear_2210_262)"/>
<path d="M282.346 175.979C281.646 175.791 281.061 175.463 280.59 174.995C280.119 174.526 279.794 173.97 279.613 173.325C279.446 172.673 279.459 171.986 279.652 171.264C279.843 170.553 280.175 169.952 280.649 169.461C281.133 168.972 281.699 168.632 282.346 168.441C282.993 168.25 283.672 168.25 284.383 168.44C285.042 168.617 285.586 168.895 286.014 169.275C286.442 169.655 286.742 170.1 286.915 170.61L285.656 171.415L285.534 171.499L285.435 171.373C285.46 171.28 285.472 171.195 285.471 171.117C285.472 171.029 285.434 170.903 285.357 170.739C285.211 170.501 285.024 170.313 284.796 170.174C284.578 170.039 284.32 169.931 284.022 169.851C283.682 169.76 283.337 169.767 282.989 169.872C282.641 169.978 282.325 170.186 282.043 170.497C281.772 170.811 281.567 171.225 281.429 171.74C281.305 172.204 281.288 172.636 281.38 173.036C281.474 173.426 281.644 173.759 281.89 174.034C282.15 174.303 282.455 174.484 282.805 174.578C283.124 174.663 283.456 174.68 283.801 174.629C284.146 174.578 284.496 174.423 284.853 174.165L285.528 175.539C285.033 175.859 284.508 176.05 283.95 176.11C283.396 176.161 282.861 176.117 282.346 175.979Z" fill="url(#paint8_linear_2210_262)"/>
<path d="M294.706 179.291C293.913 179.078 293.345 178.727 293.001 178.237C292.668 177.751 292.583 177.203 292.746 176.595C292.95 175.833 293.458 175.295 294.271 174.983C295.096 174.663 296.163 174.678 297.471 175.028C297.543 175.048 297.636 175.073 297.749 175.103C297.873 175.136 298 175.176 298.131 175.222C298.219 174.605 298.157 174.158 297.944 173.88C297.734 173.592 297.403 173.387 296.95 173.265C296.62 173.177 296.296 173.151 295.977 173.187C295.661 173.213 295.32 173.331 294.955 173.542L294.278 172.235C294.793 171.964 295.314 171.811 295.842 171.776C296.37 171.741 296.887 171.791 297.392 171.926C297.989 172.086 298.509 172.33 298.95 172.658C299.395 172.976 299.698 173.411 299.86 173.962C300.024 174.503 299.995 175.186 299.774 176.01L298.665 180.152L296.857 179.668L297.064 178.895C296.7 179.184 296.323 179.354 295.934 179.404C295.548 179.444 295.139 179.406 294.706 179.291ZM294.55 176.847C294.461 177.176 294.502 177.436 294.672 177.625C294.855 177.806 295.101 177.939 295.41 178.021C295.967 178.171 296.443 178.122 296.841 177.875C297.241 177.617 297.568 177.136 297.824 176.432C297.69 176.396 297.561 176.361 297.437 176.328C297.316 176.285 297.21 176.251 297.117 176.226C296.293 176.005 295.681 175.962 295.28 176.098C294.89 176.236 294.646 176.486 294.55 176.847Z" fill="url(#paint9_linear_2210_262)"/>
<path d="M305.342 184.708L307.949 174.92L309.679 175.384L309.41 176.389C309.744 176.047 310.111 175.831 310.511 175.739C310.911 175.648 311.322 175.659 311.744 175.772C312.269 175.912 312.705 176.184 313.05 176.585C313.408 176.979 313.639 177.494 313.745 178.13C313.853 178.755 313.796 179.486 313.572 180.32C313.346 181.165 313.024 181.83 312.607 182.315C312.19 182.799 311.723 183.121 311.206 183.281C310.701 183.433 310.197 183.441 309.692 183.306C309.311 183.204 308.963 183.039 308.649 182.811C308.335 182.583 308.111 182.308 307.976 181.985L307.119 185.184L305.342 184.708ZM309.578 181.818C309.876 181.898 310.17 181.893 310.459 181.805C310.747 181.717 311.012 181.512 311.253 181.19C311.494 180.868 311.698 180.392 311.867 179.764C312.057 179.053 312.069 178.454 311.901 177.967C311.744 177.483 311.429 177.173 310.958 177.035C310.467 176.893 310.028 176.985 309.642 177.312C309.27 177.632 308.963 178.24 308.723 179.137C308.335 180.667 308.62 181.561 309.578 181.818Z" fill="url(#paint10_linear_2210_262)"/>
<path d="M322.844 186.814C322.185 186.637 321.601 186.386 321.091 186.062C320.582 185.738 320.166 185.312 319.844 184.784L320.998 183.569L321.093 183.462L321.196 183.572C321.207 183.653 321.216 183.743 321.222 183.844C321.231 183.935 321.282 184.054 321.375 184.2C321.575 184.485 321.817 184.733 322.104 184.942C322.4 185.154 322.78 185.322 323.243 185.446C323.676 185.562 324.03 185.58 324.306 185.499C324.581 185.418 324.751 185.259 324.814 185.022C324.878 184.785 324.795 184.559 324.566 184.343C324.347 184.129 323.962 183.855 323.412 183.52C322.684 183.104 322.136 182.659 321.766 182.184C321.396 181.71 321.29 181.179 321.448 180.592C321.605 180.004 321.989 179.582 322.598 179.326C323.221 179.062 323.965 179.046 324.83 179.278C326.014 179.595 326.879 180.219 327.425 181.15L326.256 182.112L326.115 182.207L326.032 182.085C326.044 182 326.039 181.916 326.017 181.832C326.005 181.752 325.954 181.633 325.864 181.477C325.696 181.277 325.488 181.105 325.24 180.962C325.005 180.81 324.758 180.7 324.501 180.631C324.15 180.537 323.831 180.512 323.543 180.557C323.266 180.604 323.095 180.746 323.032 180.983C322.977 181.189 323.064 181.4 323.293 181.616C323.522 181.832 323.939 182.109 324.544 182.448C325.351 182.896 325.902 183.353 326.196 183.819C326.494 184.274 326.568 184.78 326.419 185.336C326.309 185.748 326.093 186.099 325.773 186.389C325.455 186.668 325.047 186.852 324.549 186.939C324.061 187.029 323.493 186.987 322.844 186.814Z" fill="url(#paint11_linear_2210_262)"/>
<path d="M335.709 190.277C334.978 190.081 334.442 189.673 334.101 189.051C333.759 188.43 333.738 187.562 334.036 186.449L335.167 182.23L336.928 182.702L335.797 186.921C335.626 187.56 335.607 188.041 335.742 188.364C335.889 188.68 336.122 188.88 336.442 188.966C336.874 189.082 337.266 189.021 337.616 188.784C337.977 188.549 338.242 188.118 338.41 187.489L339.508 183.393L341.254 183.861L339.634 189.904C339.574 190.131 339.524 190.339 339.484 190.527C339.458 190.707 339.457 190.895 339.482 191.09L337.891 190.663C337.85 190.486 337.845 190.32 337.876 190.162C337.907 190.005 337.944 189.849 337.985 189.694C337.669 190.007 337.306 190.208 336.896 190.297C336.496 190.389 336.101 190.382 335.709 190.277Z" fill="url(#paint12_linear_2210_262)"/>
<path d="M347.053 193.118L347.421 191.742L349.445 192.285L351.487 184.665L349.556 184.147L349.924 182.772L353.617 183.761L351.206 192.757L353.215 193.295L352.846 194.67L347.053 193.118Z" fill="url(#paint13_linear_2210_262)"/>
<path d="M363.816 197.792C363.126 197.607 362.547 197.297 362.078 196.862C361.62 196.43 361.311 195.895 361.151 195.256C360.991 194.616 361.016 193.905 361.226 193.122C361.441 192.318 361.774 191.673 362.225 191.186C362.686 190.702 363.208 190.379 363.793 190.215C364.391 190.044 365.004 190.043 365.632 190.211C366.189 190.36 366.664 190.625 367.058 191.007C367.463 191.392 367.734 191.884 367.871 192.484C368.022 193.077 367.993 193.759 367.786 194.532C367.759 194.635 367.72 194.757 367.671 194.899C367.633 195.043 367.595 195.165 367.557 195.266L362.798 193.991C362.697 194.45 362.706 194.849 362.824 195.19C362.946 195.521 363.132 195.792 363.385 196.003C363.637 196.214 363.928 196.364 364.258 196.453C364.577 196.538 364.895 196.568 365.211 196.542C365.527 196.516 365.842 196.413 366.155 196.232L366.819 197.338C366.359 197.656 365.877 197.847 365.374 197.911C364.871 197.975 364.352 197.936 363.816 197.792ZM363.181 192.685L366.24 193.505C366.375 193 366.35 192.579 366.164 192.242C365.979 191.905 365.654 191.675 365.191 191.55C364.789 191.443 364.404 191.478 364.037 191.655C363.672 191.823 363.386 192.166 363.181 192.685Z" fill="url(#paint14_linear_2210_262)"/>
<line x1="652.744" y1="411.544" x2="177.746" y2="284.269" stroke="#FFB4BF" stroke-width="2"/>
<line x1="620.003" y1="533.734" x2="145.005" y2="406.459" stroke="#FFB4BF" stroke-width="2"/>
<line x1="587.239" y1="656.012" x2="112.241" y2="528.736" stroke="#FFB4BF" stroke-width="2"/>
<line x1="554.475" y1="778.288" x2="79.4768" y2="651.013" stroke="#FFB4BF" stroke-width="2"/>
<line x1="644.576" y1="442.027" x2="169.578" y2="314.752" stroke="#FFB4BF" stroke-width="2"/>
<line x1="611.812" y1="564.304" x2="136.814" y2="437.028" stroke="#FFB4BF" stroke-width="2"/>
<line x1="579.048" y1="686.58" x2="104.05" y2="559.305" stroke="#FFB4BF" stroke-width="2"/>
<line x1="546.284" y1="808.858" x2="71.2859" y2="681.582" stroke="#FFB4BF" stroke-width="2"/>
<line x1="636.385" y1="472.597" x2="161.387" y2="345.321" stroke="#FFB4BF" stroke-width="2"/>
<line x1="603.622" y1="594.873" x2="128.623" y2="467.598" stroke="#FFB4BF" stroke-width="2"/>
<line x1="570.857" y1="717.15" x2="95.8591" y2="589.874" stroke="#FFB4BF" stroke-width="2"/>
<line x1="538.094" y1="839.427" x2="63.0954" y2="712.151" stroke="#FFB4BF" stroke-width="2"/>
<line x1="628.194" y1="503.166" x2="153.196" y2="375.891" stroke="#FFB4BF" stroke-width="2"/>
<line x1="595.43" y1="625.442" x2="120.432" y2="498.167" stroke="#FFB4BF" stroke-width="2"/>
<line x1="562.666" y1="747.719" x2="87.6682" y2="620.443" stroke="#FFB4BF" stroke-width="2"/>
<line x1="529.902" y1="869.996" x2="54.904" y2="742.721" stroke="#FFB4BF" stroke-width="2"/>
<g filter="url(#filter2_d_2210_262)">
<path d="M248.459 324.359C249.634 323.017 251.468 322.702 252.557 323.655L267.532 336.768C268.62 337.721 268.55 339.581 267.375 340.922L-103.959 765C-105.134 766.341 -106.968 766.656 -108.056 765.704L-123.032 752.591C-124.12 751.638 -124.05 749.778 -122.875 748.437L248.459 324.359Z" fill="url(#paint15_linear_2210_262)"/>
<path d="M287.925 296.082C289.48 294.978 291.082 296.382 290.194 298.068L269.811 336.75C269.217 337.878 267.83 338.317 267.041 337.625L251.771 324.255C250.982 323.564 251.233 322.132 252.273 321.393L287.925 296.082Z" fill="url(#paint16_linear_2210_262)"/>
<path d="M258.473 332.664C259.649 331.321 261.453 330.979 262.504 331.899L267.831 336.564C268.882 337.484 268.781 339.318 267.605 340.66L-103.958 764.999C-105.133 766.341 -106.938 766.684 -107.989 765.764L-113.316 761.099C-114.366 760.179 -114.265 758.345 -113.09 757.003L258.473 332.664Z" fill="#AD90EB"/>
<path d="M254.56 329.236C255.735 327.894 257.053 327.125 257.503 327.52L263.7 332.946C264.15 333.34 263.563 334.748 262.387 336.09L-109.176 760.429C-110.352 761.771 -111.669 762.54 -112.12 762.145L-118.316 756.719C-118.767 756.325 -118.179 754.917 -117.004 753.575L254.56 329.236Z" fill="#D8C7F6"/>
<path d="M290.083 293.978C291.197 293.203 292.614 294.444 291.993 295.65L288.722 302.007C288.335 302.758 287.344 302.943 286.705 302.384L284.107 300.109C283.468 299.55 283.521 298.542 284.214 298.06L290.083 293.978Z" fill="#454545"/>
<path d="M290.353 294.734C290.865 294.275 291.607 294.926 291.218 295.494L287.807 300.466C287.386 301.08 286.507 301.149 286 300.607L285.807 300.4C285.363 299.925 285.398 299.176 285.884 298.74L290.353 294.734Z" fill="#747474"/>
</g>
</g>
<defs>
<filter id="filter0_d_2210_262" x="1593" y="217.056" width="899.159" height="951.991" filterUnits="userSpaceOnUse" color-interpolation-filters="sRGB">
<feFlood flood-opacity="0" result="BackgroundImageFix"/>
<feColorMatrix in="SourceAlpha" type="matrix" values="0 0 0 0 0 0 0 0 0 0 0 0 0 0 0 0 0 0 127 0" result="hardAlpha"/>
<feOffset dy="4"/>
<feGaussianBlur stdDeviation="2"/>
<feComposite in2="hardAlpha" operator="out"/>
<feColorMatrix type="matrix" values="0 0 0 0 0 0 0 0 0 0 0 0 0 0 0 0 0 0 0.15 0"/>
<feBlend mode="normal" in2="BackgroundImageFix" result="effect1_dropShadow_2210_262"/>
<feBlend mode="normal" in="SourceGraphic" in2="effect1_dropShadow_2210_262" result="shape"/>
</filter>
<filter id="filter1_d_2210_262" x="-48.5903" y="76.9102" width="809.868" height="985.696" filterUnits="userSpaceOnUse" color-interpolation-filters="sRGB">
<feFlood flood-opacity="0" result="BackgroundImageFix"/>
<feColorMatrix in="SourceAlpha" type="matrix" values="0 0 0 0 0 0 0 0 0 0 0 0 0 0 0 0 0 0 127 0" result="hardAlpha"/>
<feOffset/>
<feGaussianBlur stdDeviation="2"/>
<feComposite in2="hardAlpha" operator="out"/>
<feColorMatrix type="matrix" values="0 0 0 0 0 0 0 0 0 0 0 0 0 0 0 0 0 0 0.25 0"/>
<feBlend mode="normal" in2="BackgroundImageFix" result="effect1_dropShadow_2210_262"/>
<feBlend mode="normal" in="SourceGraphic" in2="effect1_dropShadow_2210_262" result="shape"/>
</filter>
<filter id="filter2_d_2210_262" x="-123.804" y="293.737" width="422.949" height="479.543" filterUnits="userSpaceOnUse" color-interpolation-filters="sRGB">
<feFlood flood-opacity="0" result="BackgroundImageFix"/>
<feColorMatrix in="SourceAlpha" type="matrix" values="0 0 0 0 0 0 0 0 0 0 0 0 0 0 0 0 0 0 127 0" result="hardAlpha"/>
<feOffset dx="5" dy="5"/>
<feGaussianBlur stdDeviation="1"/>
<feComposite in2="hardAlpha" operator="out"/>
<feColorMatrix type="matrix" values="0 0 0 0 0 0 0 0 0 0 0 0 0 0 0 0 0 0 0.15 0"/>
<feBlend mode="normal" in2="BackgroundImageFix" result="effect1_dropShadow_2210_262"/>
<feBlend mode="normal" in="SourceGraphic" in2="effect1_dropShadow_2210_262" result="shape"/>
</filter>
<linearGradient id="paint0_linear_2210_262" x1="276.381" y1="187.592" x2="291.468" y2="131.287" gradientUnits="userSpaceOnUse">
<stop stop-color="#FF5A9E"/>
<stop offset="1" stop-color="#FF9E9E"/>
</linearGradient>
<linearGradient id="paint1_linear_2210_262" x1="276.381" y1="187.592" x2="291.468" y2="131.287" gradientUnits="userSpaceOnUse">
<stop stop-color="#FF5A9E"/>
<stop offset="1" stop-color="#FF9E9E"/>
</linearGradient>
<linearGradient id="paint2_linear_2210_262" x1="276.381" y1="187.592" x2="291.468" y2="131.287" gradientUnits="userSpaceOnUse">
<stop stop-color="#FF5A9E"/>
<stop offset="1" stop-color="#FF9E9E"/>
</linearGradient>
<linearGradient id="paint3_linear_2210_262" x1="276.381" y1="187.592" x2="291.468" y2="131.287" gradientUnits="userSpaceOnUse">
<stop stop-color="#FF5A9E"/>
<stop offset="1" stop-color="#FF9E9E"/>
</linearGradient>
<linearGradient id="paint4_linear_2210_262" x1="276.381" y1="187.592" x2="291.468" y2="131.287" gradientUnits="userSpaceOnUse">
<stop stop-color="#FF5A9E"/>
<stop offset="1" stop-color="#FF9E9E"/>
</linearGradient>
<linearGradient id="paint5_linear_2210_262" x1="276.381" y1="187.592" x2="291.468" y2="131.287" gradientUnits="userSpaceOnUse">
<stop stop-color="#FF5A9E"/>
<stop offset="1" stop-color="#FF9E9E"/>
</linearGradient>
<linearGradient id="paint6_linear_2210_262" x1="276.381" y1="187.592" x2="291.468" y2="131.287" gradientUnits="userSpaceOnUse">
<stop stop-color="#FF5A9E"/>
<stop offset="1" stop-color="#FF9E9E"/>
</linearGradient>
<linearGradient id="paint7_linear_2210_262" x1="276.381" y1="187.592" x2="291.468" y2="131.287" gradientUnits="userSpaceOnUse">
<stop stop-color="#FF5A9E"/>
<stop offset="1" stop-color="#FF9E9E"/>
</linearGradient>
<linearGradient id="paint8_linear_2210_262" x1="276.381" y1="187.592" x2="291.468" y2="131.287" gradientUnits="userSpaceOnUse">
<stop stop-color="#FF5A9E"/>
<stop offset="1" stop-color="#FF9E9E"/>
</linearGradient>
<linearGradient id="paint9_linear_2210_262" x1="276.381" y1="187.592" x2="291.468" y2="131.287" gradientUnits="userSpaceOnUse">
<stop stop-color="#FF5A9E"/>
<stop offset="1" stop-color="#FF9E9E"/>
</linearGradient>
<linearGradient id="paint10_linear_2210_262" x1="276.381" y1="187.592" x2="291.468" y2="131.287" gradientUnits="userSpaceOnUse">
<stop stop-color="#FF5A9E"/>
<stop offset="1" stop-color="#FF9E9E"/>
</linearGradient>
<linearGradient id="paint11_linear_2210_262" x1="276.381" y1="187.592" x2="291.468" y2="131.287" gradientUnits="userSpaceOnUse">
<stop stop-color="#FF5A9E"/>
<stop offset="1" stop-color="#FF9E9E"/>
</linearGradient>
<linearGradient id="paint12_linear_2210_262" x1="276.381" y1="187.592" x2="291.468" y2="131.287" gradientUnits="userSpaceOnUse">
<stop stop-color="#FF5A9E"/>
<stop offset="1" stop-color="#FF9E9E"/>
</linearGradient>
<linearGradient id="paint13_linear_2210_262" x1="276.381" y1="187.592" x2="291.468" y2="131.287" gradientUnits="userSpaceOnUse">
<stop stop-color="#FF5A9E"/>
<stop offset="1" stop-color="#FF9E9E"/>
</linearGradient>
<linearGradient id="paint14_linear_2210_262" x1="276.381" y1="187.592" x2="291.468" y2="131.287" gradientUnits="userSpaceOnUse">
<stop stop-color="#FF5A9E"/>
<stop offset="1" stop-color="#FF9E9E"/>
</linearGradient>
<linearGradient id="paint15_linear_2210_262" x1="276.736" y1="297.314" x2="294.198" y2="312.198" gradientUnits="userSpaceOnUse">
<stop stop-color="#C3ABF0"/>
<stop offset="1" stop-color="#9A7ADE"/>
</linearGradient>
<linearGradient id="paint16_linear_2210_262" x1="276.736" y1="297.314" x2="294.198" y2="312.198" gradientUnits="userSpaceOnUse">
<stop stop-color="#C3ABF0"/>
<stop offset="1" stop-color="#9A7ADE"/>
</linearGradient>
<clipPath id="clip0_2210_262">
<rect width="1920" height="1084" fill="white"/>
</clipPath>
</defs>
</svg>
