<svg width="1920" height="1084" viewBox="0 0 1920 1084" fill="none" xmlns="http://www.w3.org/2000/svg">
<g clip-path="url(#clip0_2210_262)">
<rect width="1920" height="1084" fill="#FCF9F6"/>
<g filter="url(#filter0_d_2210_262)">
<rect x="1540" y="914.899" width="592.721" height="745.532" transform="rotate(-76.8902 1540 914.899)" fill="white"/>
<rect x="1600.27" y="890.898" width="518.631" height="555.676" transform="rotate(-76.8902 1600.27 890.898)" fill="#454545"/>
</g>
<g filter="url(#filter1_d_2210_262)">
<rect x="727.372" y="164.215" width="694.551" height="981.355" transform="rotate(75.5412 727.372 164.215)" fill="white"/>
</g>
<path fill-rule="evenodd" clip-rule="evenodd" d="M681.19 239.69C679.516 242.509 680.452 246.139 683.28 247.798C683.458 247.902 683.639 247.996 683.822 248.08L684.885 267.777C684.938 268.757 685.779 269.507 686.764 269.451C687.748 269.396 688.503 268.557 688.45 267.578L687.421 248.509C689.041 248.198 690.526 247.222 691.432 245.696C692.338 244.17 692.479 242.407 691.97 240.847L709.26 232.522C710.149 232.094 710.522 231.031 710.095 230.148C709.667 229.265 708.601 228.896 707.712 229.324L689.851 237.923C689.689 237.804 689.519 237.692 689.341 237.588C686.513 235.93 682.863 236.871 681.19 239.69ZM687.133 239.232C685.652 238.887 684.054 239.517 683.238 240.891C682.234 242.583 682.796 244.761 684.493 245.756C686.19 246.751 688.379 246.187 689.383 244.495C690.011 243.438 690.027 242.19 689.536 241.161C689.474 241.03 689.404 240.904 689.326 240.781C689.034 240.323 688.631 239.925 688.129 239.63C687.811 239.444 687.475 239.312 687.133 239.232Z" fill="url(#paint0_linear_2210_262)"/>
<path fill-rule="evenodd" clip-rule="evenodd" d="M708.895 247.678L723.233 256.087C732.001 261.228 734.902 272.481 729.714 281.221C724.526 289.961 713.213 292.878 704.445 287.737L687.051 277.537L687.059 277.524C685.197 277.739 683.253 277.374 681.516 276.355L663.081 265.544C661.101 264.383 660.446 261.842 661.617 259.869L684.042 222.093C688.895 213.917 699.479 211.188 707.68 215.998C715.882 220.807 718.597 231.334 713.743 239.511L708.895 247.678ZM719.597 262.213C724.971 265.364 726.749 272.261 723.569 277.618C720.389 282.974 713.455 284.762 708.082 281.611L693.743 273.203L705.258 253.804L719.597 262.213ZM705.862 219.061C712.367 222.875 714.52 231.224 710.671 237.709L690.67 271.401C689.164 273.938 685.88 274.785 683.334 273.292L664.899 262.481C664.616 262.316 664.522 261.953 664.69 261.671L687.114 223.895C690.964 217.41 699.357 215.246 705.862 219.061Z" fill="url(#paint1_linear_2210_262)"/>
<path d="M719.175 313.742L730.309 310.871L730.765 312.64L726.211 316.119L731.898 316.958L732.354 318.727L721.202 321.602L720.751 319.852L728.525 317.847L723.981 317.152L723.727 316.169L727.378 313.475L719.622 315.475L719.175 313.742Z" fill="url(#paint2_linear_2210_262)"/>
<path d="M724.133 333.783C723.927 332.985 723.91 332.227 724.081 331.51C724.255 330.805 724.617 330.19 725.169 329.667C725.72 329.144 726.448 328.766 727.354 328.532C728.283 328.293 729.12 328.261 729.864 328.437C730.612 328.626 731.233 328.967 731.729 329.462C732.24 329.965 732.589 330.58 732.777 331.306C732.943 331.949 732.946 332.577 732.786 333.19C732.629 333.815 732.289 334.366 731.764 334.844C731.254 335.331 730.553 335.69 729.659 335.92C729.54 335.951 729.395 335.982 729.225 336.013C729.059 336.056 728.914 336.087 728.792 336.106L727.373 330.604C726.855 330.763 726.458 330.998 726.183 331.311C725.92 331.62 725.754 331.961 725.685 332.335C725.616 332.708 725.631 333.085 725.729 333.466C725.824 333.836 725.974 334.172 726.179 334.474C726.384 334.777 726.667 335.034 727.027 335.247L726.293 336.541C725.712 336.259 725.247 335.883 724.897 335.415C724.547 334.946 724.293 334.402 724.133 333.783ZM728.902 330.248L729.814 333.785C730.397 333.634 730.806 333.37 731.039 332.993C731.272 332.615 731.319 332.158 731.181 331.622C731.061 331.158 730.808 330.791 730.421 330.523C730.046 330.251 729.54 330.16 728.902 330.248Z" fill="url(#paint3_linear_2210_262)"/>
<path d="M727.273 345.147L735.583 343.004L736.021 344.701L735.413 344.858C735.752 344.987 736.012 345.161 736.196 345.38C736.392 345.596 736.523 345.836 736.591 346.098C736.668 346.395 736.661 346.689 736.57 346.979C736.483 347.281 736.277 347.544 735.954 347.767C736.716 347.964 737.2 348.461 737.406 349.259C737.563 349.867 737.46 350.357 737.099 350.729C736.753 351.111 736.208 351.391 735.467 351.569L729.337 353.15L728.885 351.399L734.586 349.929C735.123 349.791 735.469 349.657 735.626 349.528C735.796 349.395 735.859 349.246 735.816 349.079C735.754 348.841 735.538 348.668 735.167 348.56C734.808 348.45 734.367 348.462 733.843 348.597L728.517 349.97L728.093 348.327L733.74 346.871C734.312 346.723 734.683 346.583 734.852 346.451C735.021 346.318 735.077 346.139 735.018 345.912C734.963 345.698 734.769 345.538 734.437 345.433C734.12 345.337 733.694 345.358 733.158 345.497L727.724 346.898L727.273 345.147Z" fill="url(#paint4_linear_2210_262)"/>
<path d="M732.157 364.826C731.966 364.087 731.971 363.368 732.172 362.669C732.388 361.978 732.773 361.377 733.327 360.866C733.894 360.351 734.612 359.982 735.481 359.758C736.304 359.546 737.087 359.528 737.831 359.704C738.575 359.881 739.215 360.218 739.75 360.715C740.288 361.224 740.652 361.848 740.842 362.586C741.036 363.336 741.019 364.058 740.791 364.752C740.566 365.458 740.171 366.068 739.605 366.582C739.041 367.108 738.349 367.477 737.527 367.689C736.669 367.911 735.866 367.927 735.119 367.739C734.374 367.562 733.739 367.218 733.213 366.706C732.702 366.203 732.35 365.576 732.157 364.826ZM733.765 364.411C733.912 364.982 734.284 365.388 734.88 365.628C735.487 365.866 736.196 365.88 737.006 365.671C737.84 365.456 738.454 365.101 738.847 364.605C739.24 364.11 739.363 363.577 739.216 363.005C739.075 362.457 738.712 362.062 738.129 361.819C737.545 361.575 736.836 361.561 736.002 361.776C735.192 361.985 734.577 362.334 734.156 362.824C733.751 363.322 733.621 363.851 733.765 364.411Z" fill="url(#paint5_linear_2210_262)"/>
<path d="M743.962 375.499L744.501 377.589L743.156 377.916C743.691 378.02 744.152 378.257 744.54 378.627C744.928 378.997 745.184 379.426 745.31 379.914C745.55 380.843 745.432 381.692 744.957 382.463L743.038 382.043L742.882 382.026L742.912 381.847C742.998 381.787 743.084 381.726 743.17 381.666C743.268 381.603 743.364 381.483 743.458 381.306C743.546 381.105 743.602 380.901 743.624 380.692C743.649 380.495 743.634 380.289 743.579 380.075C743.432 379.503 743.106 379.053 742.602 378.726C742.099 378.399 741.412 378.347 740.542 378.571L736.182 379.696L735.652 377.641L743.962 375.499Z" fill="url(#paint6_linear_2210_262)"/>
<path d="M736.73 394.834C736.626 394.429 736.599 394.055 736.651 393.711C736.702 393.368 736.814 393.015 736.987 392.653L738.561 392.99L738.74 393.02L738.71 393.199C738.624 393.259 738.546 393.324 738.475 393.393C738.403 393.462 738.336 393.594 738.271 393.789C738.222 393.992 738.227 394.207 738.285 394.433C738.377 394.79 738.6 395.038 738.953 395.175C739.309 395.325 739.838 395.43 740.54 395.49L747.748 390.183L748.269 392.201L743.331 395.742L746.099 395.981C746.657 396.027 747.19 396.049 747.697 396.045C748.204 396.041 748.713 395.993 749.222 395.899L749.706 397.775C749.158 397.866 748.56 397.886 747.912 397.838C747.264 397.789 746.646 397.732 746.057 397.668L739.88 397.07C738.912 396.964 738.188 396.719 737.708 396.334C737.219 395.965 736.893 395.465 736.73 394.834Z" fill="url(#paint7_linear_2210_262)"/>
<path d="M692.435 325.324C692.227 324.514 692.224 323.74 692.427 323.002C692.631 322.263 693.005 321.621 693.55 321.074C694.11 320.535 694.808 320.159 695.642 319.944C696.464 319.732 697.256 319.724 698.018 319.921C698.784 320.131 699.446 320.506 700.005 321.048C700.564 321.589 700.949 322.271 701.161 323.093C701.358 323.855 701.387 324.559 701.248 325.204C701.11 325.85 700.833 326.404 700.419 326.866L698.896 326.059L698.743 325.984L698.813 325.813C698.92 325.785 699.013 325.749 699.09 325.704C699.179 325.655 699.284 325.546 699.405 325.375C699.561 325.093 699.644 324.799 699.654 324.491C699.667 324.196 699.629 323.875 699.54 323.53C699.438 323.137 699.236 322.796 698.932 322.505C698.629 322.215 698.241 322.017 697.769 321.91C697.299 321.815 696.767 321.844 696.171 321.998C695.635 322.136 695.192 322.365 694.842 322.684C694.504 322.999 694.267 323.359 694.129 323.763C694.007 324.175 693.998 324.584 694.103 324.989C694.198 325.358 694.369 325.702 694.616 326.019C694.863 326.336 695.217 326.601 695.678 326.812L694.681 328.269C694.079 327.955 693.59 327.535 693.213 327.009C692.848 326.481 692.589 325.919 692.435 325.324Z" fill="url(#paint8_linear_2210_262)"/>
<path d="M696.12 339.615C695.884 338.698 695.914 337.928 696.211 337.305C696.511 336.695 697.012 336.299 697.715 336.117C698.597 335.89 699.425 336.096 700.2 336.734C700.989 337.382 701.579 338.461 701.969 339.974C701.99 340.057 702.018 340.164 702.052 340.295C702.089 340.438 702.121 340.589 702.149 340.747C702.819 340.485 703.233 340.169 703.391 339.798C703.562 339.424 703.579 338.974 703.444 338.45C703.346 338.069 703.188 337.729 702.971 337.429C702.766 337.127 702.454 336.852 702.034 336.604L702.964 335.183C703.527 335.546 703.977 335.982 704.312 336.493C704.647 337.004 704.889 337.551 705.04 338.134C705.218 338.825 705.267 339.485 705.188 340.115C705.121 340.742 704.857 341.293 704.395 341.768C703.945 342.24 703.243 342.598 702.29 342.844L697.5 344.079L696.961 341.989L697.855 341.759C697.358 341.557 696.974 341.275 696.703 340.913C696.443 340.548 696.249 340.115 696.12 339.615ZM698.486 338.071C698.105 338.17 697.867 338.358 697.774 338.636C697.695 338.923 697.702 339.245 697.794 339.602C697.96 340.246 698.28 340.697 698.753 340.956C699.238 341.211 699.907 341.268 700.76 341.124C700.72 340.969 700.681 340.82 700.645 340.677C700.62 340.531 700.593 340.405 700.566 340.298C700.32 339.345 700.016 338.706 699.652 338.38C699.292 338.067 698.903 337.964 698.486 338.071Z" fill="url(#paint9_linear_2210_262)"/>
<path d="M696.713 353.37L708.021 350.435L708.537 352.436L707.375 352.735C707.907 352.878 708.333 353.123 708.652 353.473C708.971 353.823 709.193 354.242 709.319 354.73C709.476 355.337 709.45 355.928 709.242 356.502C709.05 357.086 708.664 357.61 708.085 358.077C707.519 358.541 706.753 358.897 705.788 359.146C704.811 359.398 703.961 359.452 703.238 359.308C702.514 359.164 701.926 358.878 701.472 358.449C701.033 358.028 700.739 357.527 700.588 356.943C700.475 356.502 700.443 356.06 700.494 355.615C700.544 355.17 700.694 354.788 700.942 354.47L697.242 355.424L696.713 353.37ZM702.018 355.984C702.107 356.329 702.278 356.622 702.53 356.861C702.783 357.101 703.139 357.251 703.599 357.31C704.059 357.369 704.652 357.305 705.379 357.117C706.201 356.905 706.809 356.577 707.203 356.133C707.6 355.7 707.733 355.209 707.604 354.658C707.469 354.083 707.127 353.695 706.579 353.493C706.047 353.3 705.262 353.337 704.226 353.605C702.468 354.083 701.733 354.876 702.018 355.984Z" fill="url(#paint10_linear_2210_262)"/>
<path d="M704.526 372.141C704.33 371.378 704.25 370.65 704.286 369.954C704.323 369.259 704.515 368.6 704.863 367.977L706.737 368.446L706.899 368.481L706.846 368.646C706.772 368.704 706.686 368.764 706.588 368.827C706.502 368.888 706.412 369.006 706.318 369.183C706.144 369.545 706.033 369.929 705.986 370.335C705.941 370.753 705.988 371.23 706.126 371.766C706.255 372.266 706.438 372.632 706.676 372.863C706.913 373.094 707.169 373.174 707.443 373.103C707.717 373.033 707.897 372.821 707.984 372.468C708.074 372.127 708.131 371.586 708.156 370.843C708.161 369.876 708.297 369.073 708.564 368.432C708.831 367.792 709.304 367.384 709.983 367.209C710.662 367.034 711.303 367.18 711.906 367.647C712.524 368.122 712.963 368.86 713.22 369.861C713.574 371.23 713.438 372.453 712.813 373.528L711.183 372.901L711.008 372.813L711.083 372.66C711.175 372.623 711.257 372.571 711.328 372.501C711.402 372.444 711.493 372.326 711.599 372.146C711.704 371.865 711.759 371.558 711.762 371.227C711.781 370.905 711.752 370.595 711.675 370.297C711.57 369.892 711.414 369.558 711.206 369.294C711.002 369.042 710.762 368.951 710.488 369.022C710.25 369.083 710.087 369.29 710 369.643C709.913 369.996 709.871 370.572 709.874 371.371C709.882 372.436 709.736 373.249 709.435 373.809C709.147 374.366 708.681 374.727 708.038 374.893C707.561 375.016 707.086 374.999 706.614 374.841C706.153 374.68 705.738 374.375 705.367 373.924C705 373.485 704.72 372.891 704.526 372.141Z" fill="url(#paint11_linear_2210_262)"/>
<path d="M708.345 387.026C708.127 386.18 708.234 385.41 708.664 384.715C709.095 384.019 709.953 383.506 711.24 383.174L716.119 381.916L716.644 383.952L711.765 385.21C711.027 385.401 710.533 385.655 710.285 385.973C710.051 386.3 709.982 386.648 710.078 387.017C710.206 387.518 710.49 387.876 710.927 388.094C711.367 388.323 711.951 388.344 712.678 388.157L717.414 386.936L717.934 388.954L710.946 390.756C710.684 390.824 710.447 390.891 710.236 390.958C710.04 391.034 709.851 391.14 709.67 391.276L709.195 389.436C709.35 389.294 709.514 389.195 709.69 389.137C709.866 389.079 710.043 389.027 710.222 388.981C709.728 388.841 709.321 388.591 708.999 388.229C708.68 387.879 708.462 387.478 708.345 387.026Z" fill="url(#paint12_linear_2210_262)"/>
<path d="M711.927 400.029L713.517 399.619L714.121 401.959L722.932 399.687L722.356 397.454L723.946 397.044L725.047 401.314L714.646 403.996L715.245 406.318L713.654 406.728L711.927 400.029Z" fill="url(#paint13_linear_2210_262)"/>
<path d="M716.742 419.516C716.536 418.718 716.519 417.96 716.689 417.243C716.863 416.538 717.226 415.924 717.777 415.4C718.329 414.877 719.057 414.499 719.962 414.265C720.892 414.026 721.729 413.994 722.473 414.171C723.22 414.359 723.842 414.7 724.338 415.195C724.849 415.698 725.198 416.313 725.385 417.039C725.551 417.682 725.554 418.31 725.395 418.923C725.238 419.548 724.897 420.099 724.373 420.577C723.863 421.064 723.161 421.423 722.268 421.654C722.149 421.684 722.004 421.715 721.834 421.746C721.667 421.789 721.523 421.82 721.401 421.839L719.982 416.337C719.464 416.496 719.067 416.732 718.792 417.044C718.529 417.353 718.362 417.694 718.294 418.068C718.225 418.441 718.239 418.818 718.338 419.2C718.433 419.569 718.583 419.905 718.788 420.207C718.993 420.51 719.276 420.768 719.635 420.98L718.902 422.274C718.321 421.992 717.855 421.616 717.506 421.148C717.156 420.679 716.902 420.135 716.742 419.516ZM721.51 415.981L722.422 419.518C723.006 419.367 723.415 419.103 723.648 418.726C723.881 418.348 723.928 417.891 723.79 417.356C723.67 416.891 723.417 416.525 723.03 416.256C722.655 415.984 722.148 415.893 721.51 415.981Z" fill="url(#paint14_linear_2210_262)"/>
<line x1="666.114" y1="830.891" x2="524.496" y2="281.664" stroke="#FFB4BF" stroke-width="2"/>
<line x1="524.829" y1="867.322" x2="383.21" y2="318.094" stroke="#FFB4BF" stroke-width="2"/>
<line x1="383.443" y1="903.778" x2="241.824" y2="354.55" stroke="#FFB4BF" stroke-width="2"/>
<line x1="242.058" y1="940.234" x2="100.439" y2="391.007" stroke="#FFB4BF" stroke-width="2"/>
<line x1="630.868" y1="839.979" x2="489.249" y2="290.752" stroke="#FFB4BF" stroke-width="2"/>
<line x1="489.482" y1="876.436" x2="347.864" y2="327.209" stroke="#FFB4BF" stroke-width="2"/>
<line x1="348.097" y1="912.892" x2="206.478" y2="363.665" stroke="#FFB4BF" stroke-width="2"/>
<line x1="206.711" y1="949.348" x2="65.0923" y2="400.121" stroke="#FFB4BF" stroke-width="2"/>
<line x1="595.521" y1="849.093" x2="453.903" y2="299.866" stroke="#FFB4BF" stroke-width="2"/>
<line x1="454.136" y1="885.55" x2="312.518" y2="336.323" stroke="#FFB4BF" stroke-width="2"/>
<line x1="312.75" y1="922.007" x2="171.132" y2="372.779" stroke="#FFB4BF" stroke-width="2"/>
<line x1="171.365" y1="958.463" x2="29.7461" y2="409.235" stroke="#FFB4BF" stroke-width="2"/>
<line x1="560.175" y1="858.208" x2="418.557" y2="308.98" stroke="#FFB4BF" stroke-width="2"/>
<line x1="418.789" y1="894.664" x2="277.171" y2="345.436" stroke="#FFB4BF" stroke-width="2"/>
<line x1="277.404" y1="931.121" x2="135.786" y2="381.893" stroke="#FFB4BF" stroke-width="2"/>
<line x1="136.018" y1="967.577" x2="-5.6001" y2="418.349" stroke="#FFB4BF" stroke-width="2"/>
<g filter="url(#filter2_d_2210_262)">
<path d="M524.198 375.459C526.211 375.878 527.568 377.541 527.228 379.175L522.554 401.652C522.214 403.285 520.307 404.27 518.293 403.852L-118.236 271.482C-120.25 271.063 -121.607 269.4 -121.267 267.766L-116.593 245.289C-116.253 243.655 -114.345 242.671 -112.332 243.089L524.198 375.459Z" fill="url(#paint15_linear_2210_262)"/>
<path d="M574.983 399.054C576.972 399.989 576.472 402.395 574.274 402.459L523.865 403.931C522.395 403.974 521.168 402.83 521.414 401.645L526.181 378.726C526.427 377.542 528.008 376.982 529.339 377.607L574.983 399.054Z" fill="url(#paint16_linear_2210_262)"/>
<path d="M521.538 390.227C523.553 390.646 524.92 392.264 524.592 393.841L522.929 401.837C522.602 403.414 520.702 404.352 518.688 403.934L-118.234 271.482C-120.249 271.063 -121.616 269.445 -121.288 267.868L-119.625 259.873C-119.297 258.295 -117.398 257.357 -115.384 257.776L521.538 390.227Z" fill="#AD90EB"/>
<path d="M522.76 384.352C524.775 384.771 526.294 385.658 526.153 386.334L524.219 395.635C524.078 396.311 522.331 396.519 520.317 396.1L-116.605 263.649C-118.62 263.23 -120.139 262.343 -119.999 261.667L-118.064 252.366C-117.924 251.69 -116.177 251.482 -114.162 251.901L522.76 384.352Z" fill="#D8C7F6"/>
<path d="M578.318 400.028C579.728 400.708 579.286 402.834 577.722 402.895L569.483 403.215C568.509 403.253 567.761 402.362 567.961 401.403L568.771 397.504C568.971 396.545 570.012 396.027 570.89 396.45L578.318 400.028Z" fill="#454545"/>
<path d="M577.712 400.728C578.464 400.982 578.231 402.096 577.44 402.027L570.512 401.423C569.656 401.348 569.089 400.504 569.346 399.688L569.444 399.376C569.669 398.661 570.441 398.271 571.155 398.512L577.712 400.728Z" fill="#747474"/>
</g>
<g filter="url(#filter3_d_2210_262)">
<path d="M1507.05 367.56C1505.58 366.122 1505.34 363.989 1506.5 362.796L1522.56 346.383C1523.72 345.19 1525.86 345.389 1527.33 346.827L1992.14 801.411C1993.61 802.848 1993.85 804.981 1992.69 806.174L1976.63 822.587C1975.47 823.78 1973.33 823.581 1971.86 822.143L1507.05 367.56Z" fill="url(#paint17_linear_2210_262)"/>
<path d="M1476.99 320.313C1475.82 318.453 1477.54 316.696 1479.43 317.826L1522.68 343.757C1523.94 344.513 1524.36 346.138 1523.51 347.003L1507.14 363.739C1506.3 364.604 1504.66 364.224 1503.88 362.979L1476.99 320.313Z" fill="url(#paint18_linear_2210_262)"/>
<path d="M1517.25 356.554C1515.78 355.116 1515.5 353.016 1516.63 351.864L1522.34 346.025C1523.46 344.874 1525.57 345.107 1527.04 346.545L1992.13 801.409C1993.61 802.848 1993.89 804.948 1992.76 806.1L1987.05 811.938C1985.92 813.09 1983.82 812.857 1982.35 811.418L1517.25 356.554Z" fill="#FFB4BF"/>
<path d="M1513.06 360.843C1511.59 359.405 1510.78 357.838 1511.27 357.345L1517.91 350.553C1518.39 350.059 1519.98 350.826 1521.45 352.264L1986.54 807.128C1988.01 808.567 1988.81 810.133 1988.33 810.627L1981.69 817.419C1981.21 817.912 1979.62 817.146 1978.15 815.707L1513.06 360.843Z" fill="#FFDADF"/>
<path d="M1474.71 317.693C1473.89 316.361 1475.41 314.808 1476.76 315.6L1483.87 319.771C1484.71 320.264 1484.86 321.418 1484.17 322.118L1481.39 324.965C1480.71 325.665 1479.55 325.541 1479.04 324.712L1474.71 317.693Z" fill="#454545"/>
<path d="M1475.6 317.431C1475.1 316.812 1475.9 315.999 1476.53 316.483L1482.04 320.727C1482.72 321.251 1482.74 322.268 1482.08 322.817L1481.83 323.026C1481.26 323.507 1480.4 323.42 1479.93 322.832L1475.6 317.431Z" fill="#747474"/>
</g>
</g>
<defs>
<filter id="filter0_d_2210_262" x="1536" y="337.626" width="868.542" height="754.374" filterUnits="userSpaceOnUse" color-interpolation-filters="sRGB">
<feFlood flood-opacity="0" result="BackgroundImageFix"/>
<feColorMatrix in="SourceAlpha" type="matrix" values="0 0 0 0 0 0 0 0 0 0 0 0 0 0 0 0 0 0 127 0" result="hardAlpha"/>
<feOffset dy="4"/>
<feGaussianBlur stdDeviation="2"/>
<feComposite in2="hardAlpha" operator="out"/>
<feColorMatrix type="matrix" values="0 0 0 0 0 0 0 0 0 0 0 0 0 0 0 0 0 0 0.15 0"/>
<feBlend mode="normal" in2="BackgroundImageFix" result="effect1_dropShadow_2210_262"/>
<feBlend mode="normal" in="SourceGraphic" in2="effect1_dropShadow_2210_262" result="shape"/>
</filter>
<filter id="filter1_d_2210_262" x="-226.901" y="160.215" width="1131.69" height="925.581" filterUnits="userSpaceOnUse" color-interpolation-filters="sRGB">
<feFlood flood-opacity="0" result="BackgroundImageFix"/>
<feColorMatrix in="SourceAlpha" type="matrix" values="0 0 0 0 0 0 0 0 0 0 0 0 0 0 0 0 0 0 127 0" result="hardAlpha"/>
<feOffset/>
<feGaussianBlur stdDeviation="2"/>
<feComposite in2="hardAlpha" operator="out"/>
<feColorMatrix type="matrix" values="0 0 0 0 0 0 0 0 0 0 0 0 0 0 0 0 0 0 0.25 0"/>
<feBlend mode="normal" in2="BackgroundImageFix" result="effect1_dropShadow_2210_262"/>
<feBlend mode="normal" in="SourceGraphic" in2="effect1_dropShadow_2210_262" result="shape"/>
</filter>
<filter id="filter2_d_2210_262" x="-121.337" y="242.993" width="707.506" height="168.04" filterUnits="userSpaceOnUse" color-interpolation-filters="sRGB">
<feFlood flood-opacity="0" result="BackgroundImageFix"/>
<feColorMatrix in="SourceAlpha" type="matrix" values="0 0 0 0 0 0 0 0 0 0 0 0 0 0 0 0 0 0 127 0" result="hardAlpha"/>
<feOffset dx="5" dy="5"/>
<feGaussianBlur stdDeviation="1"/>
<feComposite in2="hardAlpha" operator="out"/>
<feColorMatrix type="matrix" values="0 0 0 0 0 0 0 0 0 0 0 0 0 0 0 0 0 0 0.15 0"/>
<feBlend mode="normal" in2="BackgroundImageFix" result="effect1_dropShadow_2210_262"/>
<feBlend mode="normal" in="SourceGraphic" in2="effect1_dropShadow_2210_262" result="shape"/>
</filter>
<filter id="filter3_d_2210_262" x="1474.48" y="315.385" width="525.973" height="514.981" filterUnits="userSpaceOnUse" color-interpolation-filters="sRGB">
<feFlood flood-opacity="0" result="BackgroundImageFix"/>
<feColorMatrix in="SourceAlpha" type="matrix" values="0 0 0 0 0 0 0 0 0 0 0 0 0 0 0 0 0 0 127 0" result="hardAlpha"/>
<feOffset dx="5" dy="5"/>
<feGaussianBlur stdDeviation="1"/>
<feComposite in2="hardAlpha" operator="out"/>
<feColorMatrix type="matrix" values="0 0 0 0 0 0 0 0 0 0 0 0 0 0 0 0 0 0 0.15 0"/>
<feBlend mode="normal" in2="BackgroundImageFix" result="effect1_dropShadow_2210_262"/>
<feBlend mode="normal" in="SourceGraphic" in2="effect1_dropShadow_2210_262" result="shape"/>
</filter>
<linearGradient id="paint0_linear_2210_262" x1="677.388" y1="325.92" x2="742.493" y2="309.133" gradientUnits="userSpaceOnUse">
<stop stop-color="#FF5A9E"/>
<stop offset="1" stop-color="#FF9E9E"/>
</linearGradient>
<linearGradient id="paint1_linear_2210_262" x1="677.388" y1="325.92" x2="742.493" y2="309.133" gradientUnits="userSpaceOnUse">
<stop stop-color="#FF5A9E"/>
<stop offset="1" stop-color="#FF9E9E"/>
</linearGradient>
<linearGradient id="paint2_linear_2210_262" x1="677.388" y1="325.92" x2="742.493" y2="309.133" gradientUnits="userSpaceOnUse">
<stop stop-color="#FF5A9E"/>
<stop offset="1" stop-color="#FF9E9E"/>
</linearGradient>
<linearGradient id="paint3_linear_2210_262" x1="677.388" y1="325.92" x2="742.493" y2="309.133" gradientUnits="userSpaceOnUse">
<stop stop-color="#FF5A9E"/>
<stop offset="1" stop-color="#FF9E9E"/>
</linearGradient>
<linearGradient id="paint4_linear_2210_262" x1="677.388" y1="325.92" x2="742.493" y2="309.133" gradientUnits="userSpaceOnUse">
<stop stop-color="#FF5A9E"/>
<stop offset="1" stop-color="#FF9E9E"/>
</linearGradient>
<linearGradient id="paint5_linear_2210_262" x1="677.388" y1="325.92" x2="742.493" y2="309.133" gradientUnits="userSpaceOnUse">
<stop stop-color="#FF5A9E"/>
<stop offset="1" stop-color="#FF9E9E"/>
</linearGradient>
<linearGradient id="paint6_linear_2210_262" x1="677.388" y1="325.92" x2="742.493" y2="309.133" gradientUnits="userSpaceOnUse">
<stop stop-color="#FF5A9E"/>
<stop offset="1" stop-color="#FF9E9E"/>
</linearGradient>
<linearGradient id="paint7_linear_2210_262" x1="677.388" y1="325.92" x2="742.493" y2="309.133" gradientUnits="userSpaceOnUse">
<stop stop-color="#FF5A9E"/>
<stop offset="1" stop-color="#FF9E9E"/>
</linearGradient>
<linearGradient id="paint8_linear_2210_262" x1="677.388" y1="325.92" x2="742.493" y2="309.133" gradientUnits="userSpaceOnUse">
<stop stop-color="#FF5A9E"/>
<stop offset="1" stop-color="#FF9E9E"/>
</linearGradient>
<linearGradient id="paint9_linear_2210_262" x1="677.388" y1="325.92" x2="742.493" y2="309.133" gradientUnits="userSpaceOnUse">
<stop stop-color="#FF5A9E"/>
<stop offset="1" stop-color="#FF9E9E"/>
</linearGradient>
<linearGradient id="paint10_linear_2210_262" x1="677.388" y1="325.92" x2="742.493" y2="309.133" gradientUnits="userSpaceOnUse">
<stop stop-color="#FF5A9E"/>
<stop offset="1" stop-color="#FF9E9E"/>
</linearGradient>
<linearGradient id="paint11_linear_2210_262" x1="677.388" y1="325.92" x2="742.493" y2="309.133" gradientUnits="userSpaceOnUse">
<stop stop-color="#FF5A9E"/>
<stop offset="1" stop-color="#FF9E9E"/>
</linearGradient>
<linearGradient id="paint12_linear_2210_262" x1="677.388" y1="325.92" x2="742.493" y2="309.133" gradientUnits="userSpaceOnUse">
<stop stop-color="#FF5A9E"/>
<stop offset="1" stop-color="#FF9E9E"/>
</linearGradient>
<linearGradient id="paint13_linear_2210_262" x1="677.388" y1="325.92" x2="742.493" y2="309.133" gradientUnits="userSpaceOnUse">
<stop stop-color="#FF5A9E"/>
<stop offset="1" stop-color="#FF9E9E"/>
</linearGradient>
<linearGradient id="paint14_linear_2210_262" x1="677.388" y1="325.92" x2="742.493" y2="309.133" gradientUnits="userSpaceOnUse">
<stop stop-color="#FF5A9E"/>
<stop offset="1" stop-color="#FF9E9E"/>
</linearGradient>
<linearGradient id="paint15_linear_2210_262" x1="567.398" y1="388.515" x2="562.355" y2="414.496" gradientUnits="userSpaceOnUse">
<stop stop-color="#C3ABF0"/>
<stop offset="1" stop-color="#9A7ADE"/>
</linearGradient>
<linearGradient id="paint16_linear_2210_262" x1="567.398" y1="388.515" x2="562.355" y2="414.496" gradientUnits="userSpaceOnUse">
<stop stop-color="#C3ABF0"/>
<stop offset="1" stop-color="#9A7ADE"/>
</linearGradient>
<linearGradient id="paint17_linear_2210_262" x1="1477.06" y1="317.948" x2="1984.66" y2="814.381" gradientUnits="userSpaceOnUse">
<stop stop-color="#FFD2D1"/>
<stop offset="0.286458" stop-color="#FFBBB9"/>
<stop offset="1" stop-color="#FF827E"/>
</linearGradient>
<linearGradient id="paint18_linear_2210_262" x1="1477.06" y1="317.948" x2="1984.66" y2="814.381" gradientUnits="userSpaceOnUse">
<stop stop-color="#FFD2D1"/>
<stop offset="0.286458" stop-color="#FFBBB9"/>
<stop offset="1" stop-color="#FF827E"/>
</linearGradient>
<clipPath id="clip0_2210_262">
<rect width="1920" height="1084" fill="white"/>
</clipPath>
</defs>
</svg>
