<svg width="636" height="308" viewBox="0 0 636 308" fill="none" xmlns="http://www.w3.org/2000/svg">
<g filter="url(#filter0_d_2153_367)">
<path d="M6.78516 99.9812H629.213L611.834 149.222H24.1642L6.78516 99.9812Z" fill="#FF599F"/>
<path d="M69.8085 274.223C69.8085 271.193 72.2646 268.737 75.2943 268.737H97.397C100.427 268.737 102.883 271.193 102.883 274.223C102.883 277.253 100.427 279.709 97.397 279.709H75.2943C72.2646 279.709 69.8085 277.253 69.8085 274.223Z" fill="#FF8CA1"/>
<path d="M82.3325 268.737H90.3587V279.709H82.3325V268.737Z" fill="white"/>
<path d="M89.1452 274.223C89.1452 275.769 87.8919 277.022 86.3459 277.022C84.7999 277.022 83.5466 275.769 83.5466 274.223C83.5466 272.677 84.7999 271.424 86.3459 271.424C87.8919 271.424 89.1452 272.677 89.1452 274.223Z" fill="#FF8CA1"/>
<path d="M62.0942 194.24C62.4779 191.235 65.2253 189.109 68.2306 189.493L90.1552 192.293C93.1605 192.677 95.2857 195.424 94.9019 198.429C94.5182 201.434 91.7708 203.56 88.7655 203.176L66.8409 200.376C63.8356 199.993 61.7104 197.245 62.0942 194.24Z" fill="#FF8CA1"/>
<path d="M75.2121 190.385L83.1737 191.401L81.784 202.284L73.8224 201.268L75.2121 190.385Z" fill="white"/>
<path d="M81.2751 196.689C81.0793 198.223 79.6773 199.307 78.1438 199.111C76.6102 198.915 75.5258 197.514 75.7216 195.98C75.9174 194.446 77.3194 193.362 78.8529 193.558C80.3865 193.754 81.4709 195.156 81.2751 196.689Z" fill="#FF8CA1"/>
<path d="M52.5772 249.783C50.6603 247.437 51.0083 243.981 53.3545 242.064L70.4705 228.079C72.8167 226.162 76.2726 226.51 78.1895 228.856C80.1064 231.203 79.7585 234.659 77.4123 236.575L60.2962 250.56C57.9501 252.477 54.4942 252.129 52.5772 249.783Z" fill="#FF8CA1"/>
<path d="M58.8048 237.611L65.0202 232.532L71.962 241.029L65.7466 246.107L58.8048 237.611Z" fill="white"/>
<path d="M67.5514 237.548C68.5295 238.746 68.352 240.509 67.1548 241.487C65.9576 242.465 64.1941 242.288 63.2159 241.091C62.2377 239.893 62.4153 238.13 63.6125 237.152C64.8097 236.174 66.5732 236.351 67.5514 237.548Z" fill="#FF8CA1"/>
<path d="M95.7199 258.584C97.4101 256.07 100.819 255.401 103.333 257.092L121.676 269.423C124.191 271.113 124.859 274.521 123.169 277.036C121.478 279.55 118.07 280.218 115.555 278.528L97.2121 266.197C94.6977 264.507 94.0296 261.098 95.7199 258.584Z" fill="#FF599F"/>
<path d="M109.174 261.018L115.835 265.496L109.714 274.601L103.053 270.124L109.174 261.018Z" fill="white"/>
<path d="M111.768 269.372C110.905 270.655 109.166 270.996 107.883 270.133C106.6 269.271 106.259 267.531 107.121 266.248C107.984 264.965 109.723 264.624 111.006 265.487C112.289 266.349 112.63 268.089 111.768 269.372Z" fill="#FF599F"/>
<path d="M77.5338 206.771C78.7043 203.977 81.9185 202.66 84.713 203.831L105.1 212.37C107.894 213.54 109.211 216.754 108.04 219.549C106.87 222.343 103.655 223.66 100.861 222.489L80.4743 213.95C77.6798 212.78 76.3633 209.566 77.5338 206.771Z" fill="#FF599F"/>
<path d="M91.2047 206.55L98.6078 209.65L94.3691 219.77L86.9661 216.669L91.2047 206.55Z" fill="white"/>
<path d="M95.3692 214.242C94.7719 215.667 93.1317 216.339 91.7058 215.742C90.2798 215.145 89.608 213.505 90.2053 212.079C90.8026 210.653 92.4427 209.981 93.8687 210.578C95.2947 211.175 95.9664 212.816 95.3692 214.242Z" fill="#FF599F"/>
<path d="M146.131 251.69C147.097 254.561 145.552 257.672 142.681 258.638L121.732 265.688C118.861 266.654 115.75 265.109 114.784 262.238C113.817 259.366 115.362 256.255 118.233 255.289L139.182 248.24C142.053 247.274 145.164 248.818 146.131 251.69Z" fill="#FF8CA1"/>
<path d="M136.01 260.883L128.403 263.443L124.904 253.044L132.511 250.484L136.01 260.883Z" fill="white"/>
<path d="M127.804 257.857C127.311 256.391 128.099 254.804 129.564 254.311C131.029 253.818 132.617 254.606 133.11 256.071C133.603 257.536 132.815 259.124 131.35 259.617C129.884 260.11 128.297 259.322 127.804 257.857Z" fill="#FF8CA1"/>
<path d="M109.219 236.717C107.677 239.325 104.313 240.19 101.705 238.648L82.6783 227.4C80.0702 225.859 79.2058 222.494 80.7475 219.886C82.2893 217.278 85.6534 216.414 88.2615 217.956L107.288 229.203C109.896 230.745 110.761 234.109 109.219 236.717Z" fill="#FF8CA1"/>
<path d="M95.6463 235.066L88.737 230.982L94.3203 221.537L101.229 225.622L95.6463 235.066Z" fill="white"/>
<path d="M92.5733 226.877C93.36 225.546 95.0767 225.105 96.4075 225.892C97.7384 226.679 98.1795 228.395 97.3927 229.726C96.606 231.057 94.8894 231.498 93.5585 230.711C92.2276 229.925 91.7865 228.208 92.5733 226.877Z" fill="#FF8CA1"/>
<path d="M155.594 210.46C156.329 213.399 154.542 216.378 151.603 217.112L130.16 222.473C127.221 223.208 124.243 221.421 123.508 218.482C122.773 215.543 124.56 212.564 127.499 211.829L148.942 206.469C151.881 205.734 154.86 207.521 155.594 210.46Z" fill="#FF8CA1"/>
<path d="M144.775 218.82L136.988 220.766L134.327 210.122L142.114 208.176L144.775 218.82Z" fill="white"/>
<path d="M136.835 215.15C136.46 213.65 137.372 212.13 138.872 211.755C140.372 211.38 141.892 212.292 142.266 213.792C142.641 215.292 141.73 216.812 140.23 217.187C138.73 217.562 137.21 216.65 136.835 215.15Z" fill="#FF8CA1"/>
<path d="M121.03 251.79C120.149 254.689 117.085 256.325 114.186 255.444L93.0381 249.017C90.1393 248.136 88.5036 245.072 89.3845 242.173C90.2655 239.274 93.3296 237.639 96.2284 238.52L117.376 244.947C120.275 245.828 121.911 248.892 121.03 251.79Z" fill="#CC556A"/>
<path d="M107.452 253.397L99.7723 251.064L102.963 240.566L110.642 242.9L107.452 253.397Z" fill="white"/>
<path d="M102.528 246.168C102.978 244.689 104.542 243.854 106.021 244.303C107.5 244.753 108.335 246.316 107.885 247.796C107.436 249.275 105.872 250.11 104.393 249.66C102.914 249.211 102.079 247.647 102.528 246.168Z" fill="#CC556A"/>
<path d="M74.6635 203.77C76.3554 206.284 75.6895 209.693 73.1762 211.384L54.8408 223.727C52.3275 225.419 48.9186 224.753 47.2267 222.24C45.5348 219.727 46.2007 216.318 48.714 214.626L67.0494 202.283C69.5627 200.591 72.9716 201.257 74.6635 203.77Z" fill="#CC556A"/>
<path d="M67.3376 215.315L60.6794 219.797L54.5526 210.695L61.2108 206.213L67.3376 215.315Z" fill="white"/>
<path d="M58.6227 214.569C57.7593 213.286 58.0991 211.546 59.3816 210.683C60.6641 209.82 62.4037 210.16 63.267 211.442C64.1303 212.725 63.7905 214.464 62.508 215.327C61.2255 216.191 59.486 215.851 58.6227 214.569Z" fill="#CC556A"/>
<path d="M139.854 231.598C139.128 234.54 136.155 236.336 133.214 235.61L111.754 230.316C108.813 229.591 107.016 226.618 107.742 223.676C108.468 220.735 111.441 218.939 114.382 219.664L135.841 224.958C138.783 225.684 140.579 228.657 139.854 231.598Z" fill="#CC556A"/>
<path d="M126.38 233.925L118.588 232.002L121.216 221.35L129.008 223.272L126.38 233.925Z" fill="white"/>
<path d="M121.08 226.967C121.45 225.466 122.967 224.549 124.468 224.919C125.969 225.29 126.886 226.807 126.515 228.308C126.145 229.809 124.628 230.725 123.127 230.355C121.626 229.985 120.709 228.468 121.08 226.967Z" fill="#CC556A"/>
<path d="M87.6796 235.062C89.7118 237.309 89.5376 240.778 87.2906 242.81L70.8975 257.635C68.6504 259.668 65.1814 259.493 63.1492 257.246C61.1171 254.999 61.2912 251.53 63.5383 249.498L79.9314 234.673C82.1784 232.64 85.6475 232.815 87.6796 235.062Z" fill="#CC556A"/>
<path d="M82.0705 247.531L76.1176 252.914L68.7584 244.777L74.7113 239.393L82.0705 247.531Z" fill="white"/>
<path d="M73.338 248.032C72.3011 246.885 72.3899 245.115 73.5366 244.078C74.6832 243.041 76.4534 243.13 77.4904 244.277C78.5274 245.423 78.4385 247.193 77.2919 248.23C76.1452 249.267 74.375 249.178 73.338 248.032Z" fill="#CC556A"/>
<path d="M66.5562 265.46C65.3225 262.693 66.5655 259.45 69.3326 258.216L89.5197 249.215C92.2868 247.982 95.5301 249.225 96.7639 251.992C97.9977 254.759 96.7546 258.002 93.9875 259.236L73.8005 268.237C71.0333 269.47 67.79 268.227 66.5562 265.46Z" fill="#7D5BDF"/>
<path d="M75.7609 255.35L83.0915 252.081L87.5593 262.102L80.2287 265.37L75.7609 255.35Z" fill="white"/>
<path d="M84.217 257.586C84.8466 258.998 84.2123 260.653 82.8003 261.283C81.3883 261.912 79.7332 261.278 79.1037 259.866C78.4741 258.454 79.1084 256.799 80.5204 256.169C81.9324 255.54 83.5875 256.174 84.217 257.586Z" fill="#7D5BDF"/>
<path d="M144.958 219.655C147.94 219.119 150.791 221.103 151.327 224.085L155.233 245.839C155.768 248.821 153.785 251.673 150.803 252.208C147.821 252.744 144.97 250.76 144.434 247.778L140.528 226.024C139.993 223.042 141.976 220.19 144.958 219.655Z" fill="#7D5BDF"/>
<path d="M152.571 231.012L153.989 238.912L143.19 240.851L141.772 232.951L152.571 231.012Z" fill="white"/>
<path d="M148.375 238.687C146.854 238.96 145.398 237.948 145.125 236.426C144.852 234.905 145.864 233.45 147.386 233.177C148.907 232.903 150.362 233.915 150.636 235.437C150.909 236.959 149.897 238.414 148.375 238.687Z" fill="#7D5BDF"/>
<path d="M122.785 217.566C121.111 220.092 117.707 220.783 115.182 219.109L96.7567 206.901C94.2311 205.227 93.5403 201.823 95.2137 199.298C96.8872 196.772 100.291 196.081 102.817 197.755L121.242 209.963C123.767 211.637 124.458 215.041 122.785 217.566Z" fill="#7D5BDF"/>
<path d="M109.315 215.222L102.624 210.788L108.684 201.642L115.375 206.076L109.315 215.222Z" fill="white"/>
<path d="M106.665 206.886C107.519 205.597 109.256 205.244 110.545 206.098C111.834 206.952 112.186 208.689 111.333 209.978C110.479 211.267 108.742 211.619 107.453 210.765C106.164 209.911 105.812 208.174 106.665 206.886Z" fill="#7D5BDF"/>
<path d="M47.9602 250.99C50.4819 249.311 53.8875 249.994 55.5668 252.516L67.818 270.912C69.4973 273.434 68.8144 276.84 66.2927 278.519C63.771 280.198 60.3655 279.515 58.6861 276.994L46.435 258.597C44.7556 256.075 45.4385 252.67 47.9602 250.99Z" fill="#FF599F"/>
<path d="M59.468 258.374L63.9168 265.054L54.785 271.136L50.3361 264.455L59.468 258.374Z" fill="white"/>
<path d="M58.6783 267.085C57.3915 267.942 55.6537 267.593 54.7967 266.307C53.9398 265.02 54.2883 263.282 55.575 262.425C56.8618 261.568 58.5997 261.917 59.4566 263.203C60.3135 264.49 59.965 266.228 58.6783 267.085Z" fill="#FF599F"/>
<path d="M110.499 237.152C111.156 234.195 114.087 232.331 117.044 232.988L138.62 237.785C141.577 238.443 143.442 241.373 142.784 244.331C142.127 247.288 139.196 249.153 136.239 248.495L114.663 243.698C111.705 243.04 109.841 240.11 110.499 237.152Z" fill="#FF599F"/>
<path d="M123.915 234.516L131.749 236.258L129.368 246.968L121.533 245.226L123.915 234.516Z" fill="white"/>
<path d="M129.374 241.349C129.039 242.858 127.543 243.81 126.034 243.474C124.525 243.139 123.574 241.643 123.909 240.134C124.245 238.625 125.74 237.674 127.249 238.009C128.758 238.345 129.71 239.84 129.374 241.349Z" fill="#FF599F"/>
<path d="M50.8974 209.672C48.004 208.774 46.3867 205.7 47.2852 202.807L53.8397 181.698C54.7382 178.805 57.8121 177.188 60.7055 178.086C63.5989 178.984 65.2162 182.058 64.3177 184.952L57.7632 206.06C56.8647 208.954 53.7908 210.571 50.8974 209.672Z" fill="#FF599F"/>
<path d="M49.3724 196.085L51.7526 188.42L62.2305 191.673L59.8504 199.339L49.3724 196.085Z" fill="white"/>
<path d="M56.6317 191.206C58.1081 191.664 58.9334 193.233 58.4749 194.709C58.0165 196.186 56.4479 197.011 54.9714 196.552C53.495 196.094 52.6697 194.525 53.1282 193.049C53.5866 191.572 55.1552 190.747 56.6317 191.206Z" fill="#FF599F"/>
<path d="M154.061 257.455C155.958 259.817 155.581 263.27 153.219 265.167L135.986 279.007C133.624 280.904 130.171 280.527 128.274 278.165C126.377 275.802 126.754 272.35 129.116 270.453L146.349 256.612C148.711 254.715 152.164 255.092 154.061 257.455Z" fill="#7D5BDF"/>
<path d="M147.731 269.574L141.473 274.6L134.603 266.045L140.861 261.02L147.731 269.574Z" fill="white"/>
<path d="M138.985 269.563C138.017 268.357 138.209 266.595 139.414 265.627C140.62 264.659 142.382 264.852 143.35 266.057C144.318 267.262 144.125 269.024 142.92 269.992C141.715 270.96 139.953 270.768 138.985 269.563Z" fill="#7D5BDF"/>
<path d="M74.2934 217.283C76.1906 219.645 75.8135 223.098 73.4513 224.995L56.2181 238.835C53.8559 240.732 50.4031 240.355 48.506 237.993C46.6089 235.63 46.9859 232.178 49.3481 230.28L66.5813 216.44C68.9435 214.543 72.3963 214.92 74.2934 217.283Z" fill="#7D5BDF"/>
<path d="M67.9637 229.402L61.7058 234.428L54.8357 225.873L61.0937 220.848L67.9637 229.402Z" fill="white"/>
<path d="M59.2169 229.391C58.2488 228.185 58.4412 226.423 59.6466 225.455C60.852 224.487 62.614 224.68 63.582 225.885C64.5501 227.09 64.3577 228.852 63.1523 229.82C61.9469 230.788 60.185 230.596 59.2169 229.391Z" fill="#7D5BDF"/>
<path d="M149.889 268.429C149.889 265.4 152.345 262.944 155.374 262.944H177.477C180.507 262.944 182.963 265.4 182.963 268.429C182.963 271.459 180.507 273.915 177.477 273.915H155.374C152.345 273.915 149.889 271.459 149.889 268.429Z" fill="#FF8CA1"/>
<path d="M162.413 262.944H170.439V273.915H162.413V262.944Z" fill="white"/>
<path d="M169.225 268.429C169.225 269.975 167.972 271.229 166.426 271.229C164.88 271.229 163.627 269.975 163.627 268.429C163.627 266.883 164.88 265.63 166.426 265.63C167.972 265.63 169.225 266.883 169.225 268.429Z" fill="#FF8CA1"/>
<path d="M142.174 188.447C142.558 185.441 145.305 183.316 148.311 183.7L170.235 186.499C173.241 186.883 175.366 189.631 174.982 192.636C174.598 195.641 171.851 197.766 168.846 197.383L146.921 194.583C143.916 194.199 141.791 191.452 142.174 188.447Z" fill="#FF8CA1"/>
<path d="M155.292 184.591L163.254 185.608L161.864 196.491L153.903 195.474L155.292 184.591Z" fill="white"/>
<path d="M161.355 190.896C161.159 192.429 159.758 193.514 158.224 193.318C156.69 193.122 155.606 191.72 155.802 190.187C155.998 188.653 157.4 187.569 158.933 187.764C160.467 187.96 161.551 189.362 161.355 190.896Z" fill="#FF8CA1"/>
<path d="M132.658 243.99C130.741 241.643 131.089 238.187 133.435 236.271L150.551 222.286C152.897 220.369 156.353 220.717 158.27 223.063C160.187 225.409 159.839 228.865 157.493 230.782L140.377 244.767C138.031 246.684 134.575 246.336 132.658 243.99Z" fill="#FF8CA1"/>
<path d="M138.886 231.817L145.101 226.739L152.043 235.235L145.827 240.314L138.886 231.817Z" fill="white"/>
<path d="M147.632 231.755C148.61 232.952 148.433 234.716 147.236 235.694C146.038 236.672 144.275 236.494 143.297 235.297C142.318 234.1 142.496 232.337 143.693 231.358C144.89 230.38 146.654 230.558 147.632 231.755Z" fill="#FF8CA1"/>
<path d="M175.801 252.79C177.491 250.276 180.899 249.608 183.414 251.298L201.757 263.629C204.271 265.319 204.939 268.728 203.249 271.242C201.559 273.757 198.15 274.425 195.636 272.735L177.293 260.404C174.778 258.713 174.11 255.305 175.801 252.79Z" fill="#FF599F"/>
<path d="M189.255 255.225L195.916 259.703L189.795 268.808L183.134 264.33L189.255 255.225Z" fill="white"/>
<path d="M191.848 263.578C190.986 264.861 189.247 265.202 187.963 264.34C186.68 263.477 186.339 261.738 187.202 260.455C188.065 259.172 189.804 258.831 191.087 259.693C192.37 260.556 192.711 262.295 191.848 263.578Z" fill="#FF599F"/>
<path d="M157.614 200.978C158.784 198.183 161.999 196.867 164.793 198.037L185.18 206.576C187.974 207.747 189.291 210.961 188.12 213.755C186.95 216.55 183.736 217.866 180.941 216.696L160.555 208.157C157.76 206.986 156.444 203.772 157.614 200.978Z" fill="#FF599F"/>
<path d="M171.285 200.756L178.688 203.857L174.449 213.977L167.046 210.876L171.285 200.756Z" fill="white"/>
<path d="M175.449 208.448C174.852 209.874 173.212 210.546 171.786 209.949C170.36 209.351 169.688 207.711 170.285 206.285C170.883 204.859 172.523 204.187 173.949 204.785C175.375 205.382 176.047 207.022 175.449 208.448Z" fill="#FF599F"/>
<path d="M226.211 245.896C227.177 248.768 225.633 251.879 222.761 252.845L201.813 259.894C198.941 260.861 195.83 259.316 194.864 256.445C193.898 253.573 195.442 250.462 198.314 249.496L219.262 242.447C222.134 241.48 225.245 243.025 226.211 245.896Z" fill="#FF8CA1"/>
<path d="M216.091 255.09L208.484 257.65L204.985 247.251L212.592 244.691L216.091 255.09Z" fill="white"/>
<path d="M207.884 252.063C207.391 250.598 208.179 249.011 209.645 248.517C211.11 248.024 212.697 248.813 213.19 250.278C213.684 251.743 212.895 253.331 211.43 253.824C209.965 254.317 208.377 253.529 207.884 252.063Z" fill="#FF8CA1"/>
<path d="M189.299 230.924C187.757 233.532 184.393 234.396 181.785 232.855L162.758 221.607C160.15 220.065 159.286 216.701 160.828 214.093C162.37 211.485 165.734 210.621 168.342 212.162L187.368 223.41C189.977 224.952 190.841 228.316 189.299 230.924Z" fill="#FF8CA1"/>
<path d="M175.727 229.273L168.817 225.189L174.4 215.744L181.31 219.828L175.727 229.273Z" fill="white"/>
<path d="M172.653 221.084C173.44 219.753 175.157 219.312 176.488 220.099C177.819 220.885 178.26 222.602 177.473 223.933C176.686 225.264 174.97 225.705 173.639 224.918C172.308 224.131 171.867 222.415 172.653 221.084Z" fill="#FF8CA1"/>
<path d="M235.675 204.667C236.41 207.606 234.623 210.584 231.683 211.319L210.241 216.68C207.302 217.415 204.323 215.628 203.588 212.689C202.853 209.749 204.64 206.771 207.58 206.036L229.022 200.675C231.962 199.94 234.94 201.727 235.675 204.667Z" fill="#FF8CA1"/>
<path d="M224.855 213.026L217.069 214.973L214.408 204.329L222.194 202.382L224.855 213.026Z" fill="white"/>
<path d="M216.916 209.357C216.541 207.857 217.453 206.337 218.952 205.962C220.452 205.587 221.972 206.499 222.347 207.999C222.722 209.499 221.81 211.018 220.31 211.393C218.81 211.768 217.291 210.856 216.916 209.357Z" fill="#FF8CA1"/>
<path d="M201.11 245.997C200.229 248.896 197.165 250.532 194.266 249.651L173.118 243.224C170.22 242.343 168.584 239.279 169.465 236.38C170.346 233.481 173.41 231.845 176.309 232.726L197.456 239.153C200.355 240.034 201.991 243.098 201.11 245.997Z" fill="#CC556A"/>
<path d="M187.532 247.604L179.852 245.27L183.043 234.773L190.722 237.107L187.532 247.604Z" fill="white"/>
<path d="M182.609 240.374C183.058 238.895 184.622 238.06 186.101 238.51C187.58 238.96 188.415 240.523 187.965 242.002C187.516 243.482 185.952 244.316 184.473 243.867C182.994 243.417 182.159 241.854 182.609 240.374Z" fill="#CC556A"/>
<path d="M154.745 197.977C156.437 200.491 155.771 203.9 153.257 205.591L134.922 217.934C132.409 219.626 129 218.96 127.308 216.447C125.616 213.934 126.282 210.525 128.795 208.833L147.131 196.49C149.644 194.798 153.053 195.464 154.745 197.977Z" fill="#CC556A"/>
<path d="M147.419 209.522L140.761 214.004L134.634 204.902L141.292 200.42L147.419 209.522Z" fill="white"/>
<path d="M138.704 208.775C137.841 207.493 138.18 205.753 139.463 204.89C140.745 204.027 142.485 204.367 143.348 205.649C144.212 206.932 143.872 208.671 142.589 209.534C141.307 210.398 139.567 210.058 138.704 208.775Z" fill="#CC556A"/>
<path d="M219.935 225.805C219.209 228.747 216.236 230.543 213.295 229.817L191.835 224.523C188.894 223.798 187.098 220.825 187.823 217.883C188.549 214.942 191.522 213.146 194.463 213.871L215.923 219.165C218.864 219.891 220.66 222.864 219.935 225.805Z" fill="#CC556A"/>
<path d="M206.461 228.132L198.669 226.209L201.297 215.557L209.089 217.479L206.461 228.132Z" fill="white"/>
<path d="M201.161 221.174C201.531 219.673 203.048 218.756 204.549 219.126C206.05 219.497 206.967 221.014 206.597 222.515C206.226 224.016 204.709 224.932 203.208 224.562C201.707 224.192 200.791 222.675 201.161 221.174Z" fill="#CC556A"/>
<path d="M167.76 229.268C169.792 231.515 169.618 234.984 167.371 237.017L150.978 251.842C148.731 253.874 145.262 253.7 143.229 251.453C141.197 249.206 141.371 245.737 143.619 243.705L160.012 228.879C162.259 226.847 165.728 227.021 167.76 229.268Z" fill="#CC556A"/>
<path d="M162.151 241.737L156.198 247.121L148.839 238.984L154.791 233.6L162.151 241.737Z" fill="white"/>
<path d="M153.418 242.238C152.381 241.092 152.47 239.322 153.617 238.285C154.763 237.248 156.534 237.337 157.571 238.483C158.608 239.63 158.519 241.4 157.372 242.437C156.225 243.474 154.455 243.385 153.418 242.238Z" fill="#CC556A"/>
<path d="M146.637 259.667C145.403 256.9 146.646 253.656 149.413 252.423L169.6 243.422C172.367 242.188 175.611 243.431 176.845 246.198C178.078 248.965 176.835 252.209 174.068 253.443L153.881 262.443C151.114 263.677 147.871 262.434 146.637 259.667Z" fill="#7D5BDF"/>
<path d="M155.842 249.556L163.172 246.288L167.64 256.309L160.309 259.577L155.842 249.556Z" fill="white"/>
<path d="M164.298 251.793C164.927 253.205 164.293 254.86 162.881 255.489C161.469 256.119 159.814 255.484 159.184 254.072C158.555 252.66 159.189 251.005 160.601 250.376C162.013 249.746 163.668 250.38 164.298 251.793Z" fill="#7D5BDF"/>
<path d="M225.038 213.861C228.02 213.326 230.872 215.309 231.407 218.291L235.313 240.046C235.849 243.028 233.865 245.879 230.883 246.415C227.901 246.95 225.05 244.967 224.514 241.985L220.608 220.23C220.073 217.248 222.056 214.397 225.038 213.861Z" fill="#7D5BDF"/>
<path d="M232.651 225.219L234.069 233.119L223.27 235.058L221.852 227.158L232.651 225.219Z" fill="white"/>
<path d="M228.455 232.894C226.934 233.167 225.479 232.155 225.205 230.633C224.932 229.111 225.944 227.656 227.466 227.383C228.988 227.11 230.443 228.122 230.716 229.644C230.989 231.165 229.977 232.62 228.455 232.894Z" fill="#7D5BDF"/>
<path d="M202.864 211.773C201.191 214.299 197.787 214.989 195.261 213.316L176.836 201.108C174.311 199.434 173.62 196.03 175.293 193.504C176.967 190.979 180.371 190.288 182.896 191.962L201.321 204.17C203.847 205.843 204.538 209.247 202.864 211.773Z" fill="#7D5BDF"/>
<path d="M189.394 209.428L182.703 204.995L188.763 195.849L195.454 200.282L189.394 209.428Z" fill="white"/>
<path d="M186.745 201.092C187.599 199.804 189.336 199.451 190.625 200.305C191.913 201.159 192.266 202.896 191.412 204.185C190.558 205.474 188.821 205.826 187.532 204.972C186.244 204.118 185.891 202.381 186.745 201.092Z" fill="#7D5BDF"/>
<path d="M128.04 245.197C130.561 243.518 133.967 244.201 135.646 246.722L147.897 265.119C149.577 267.641 148.894 271.046 146.372 272.726C143.85 274.405 140.445 273.722 138.765 271.2L126.514 252.804C124.835 250.282 125.518 246.876 128.04 245.197Z" fill="#FF599F"/>
<path d="M139.547 252.58L143.996 259.261L134.864 265.342L130.415 258.662L139.547 252.58Z" fill="white"/>
<path d="M138.758 261.292C137.471 262.148 135.733 261.8 134.876 260.513C134.019 259.226 134.368 257.489 135.654 256.632C136.941 255.775 138.679 256.123 139.536 257.41C140.393 258.697 140.044 260.435 138.758 261.292Z" fill="#FF599F"/>
<path d="M190.579 231.359C191.236 228.402 194.167 226.537 197.124 227.195L218.7 231.992C221.658 232.649 223.522 235.58 222.865 238.537C222.207 241.495 219.276 243.359 216.319 242.702L194.743 237.905C191.786 237.247 189.921 234.317 190.579 231.359Z" fill="#FF599F"/>
<path d="M203.995 228.722L211.83 230.464L209.448 241.174L201.614 239.432L203.995 228.722Z" fill="white"/>
<path d="M209.454 235.556C209.119 237.065 207.624 238.016 206.114 237.681C204.605 237.345 203.654 235.85 203.989 234.341C204.325 232.832 205.82 231.88 207.329 232.216C208.839 232.551 209.79 234.047 209.454 235.556Z" fill="#FF599F"/>
<path d="M130.978 203.879C128.085 202.98 126.467 199.906 127.366 197.013L133.92 175.905C134.819 173.011 137.893 171.394 140.786 172.292C143.68 173.191 145.297 176.265 144.398 179.158L137.844 200.267C136.945 203.16 133.871 204.777 130.978 203.879Z" fill="#FF599F"/>
<path d="M129.453 190.291L131.833 182.626L142.311 185.88L139.931 193.545L129.453 190.291Z" fill="white"/>
<path d="M136.712 185.412C138.189 185.87 139.014 187.439 138.556 188.915C138.097 190.392 136.528 191.217 135.052 190.759C133.576 190.3 132.75 188.732 133.209 187.255C133.667 185.779 135.236 184.953 136.712 185.412Z" fill="#FF599F"/>
<path d="M234.142 251.661C236.039 254.023 235.662 257.476 233.3 259.373L216.066 273.213C213.704 275.111 210.251 274.733 208.354 272.371C206.457 270.009 206.834 266.556 209.196 264.659L226.429 250.819C228.792 248.922 232.245 249.299 234.142 251.661Z" fill="#7D5BDF"/>
<path d="M227.812 263.781L221.554 268.806L214.684 260.252L220.942 255.226L227.812 263.781Z" fill="white"/>
<path d="M219.065 263.769C218.097 262.564 218.289 260.802 219.495 259.834C220.7 258.866 222.462 259.058 223.43 260.264C224.398 261.469 224.206 263.231 223.001 264.199C221.795 265.167 220.033 264.975 219.065 263.769Z" fill="#7D5BDF"/>
<path d="M154.373 211.489C156.27 213.851 155.893 217.304 153.531 219.201L136.298 233.041C133.935 234.938 130.483 234.561 128.585 232.199C126.688 229.837 127.065 226.384 129.428 224.487L146.661 210.647C149.023 208.75 152.476 209.127 154.373 211.489Z" fill="#7D5BDF"/>
<path d="M148.043 223.608L141.785 228.634L134.915 220.08L141.173 215.054L148.043 223.608Z" fill="white"/>
<path d="M139.296 223.597C138.328 222.392 138.521 220.63 139.726 219.662C140.932 218.694 142.693 218.886 143.662 220.091C144.63 221.297 144.437 223.059 143.232 224.027C142.026 224.995 140.264 224.802 139.296 223.597Z" fill="#7D5BDF"/>
<path d="M232.657 274.223C232.657 271.193 235.113 268.737 238.143 268.737H260.246C263.275 268.737 265.731 271.193 265.731 274.223C265.731 277.253 263.275 279.709 260.246 279.709H238.143C235.113 279.709 232.657 277.253 232.657 274.223Z" fill="#FF8CA1"/>
<path d="M245.181 268.737H253.207V279.709H245.181V268.737Z" fill="white"/>
<path d="M251.994 274.223C251.994 275.769 250.741 277.022 249.195 277.022C247.649 277.022 246.395 275.769 246.395 274.223C246.395 272.677 247.649 271.424 249.195 271.424C250.741 271.424 251.994 272.677 251.994 274.223Z" fill="#FF8CA1"/>
<path d="M224.943 194.24C225.327 191.235 228.074 189.109 231.079 189.493L253.004 192.293C256.009 192.677 258.134 195.424 257.751 198.429C257.367 201.434 254.62 203.56 251.614 203.176L229.69 200.376C226.684 199.993 224.559 197.245 224.943 194.24Z" fill="#FF8CA1"/>
<path d="M238.061 190.385L246.022 191.401L244.633 202.284L236.671 201.268L238.061 190.385Z" fill="white"/>
<path d="M244.124 196.689C243.928 198.223 242.526 199.307 240.992 199.111C239.459 198.915 238.374 197.514 238.57 195.98C238.766 194.446 240.168 193.362 241.702 193.558C243.235 193.754 244.32 195.156 244.124 196.689Z" fill="#FF8CA1"/>
<path d="M215.426 249.783C213.509 247.437 213.857 243.981 216.203 242.064L233.319 228.079C235.665 226.162 239.121 226.51 241.038 228.857C242.955 231.203 242.607 234.659 240.261 236.576L223.145 250.56C220.799 252.477 217.343 252.129 215.426 249.783Z" fill="#FF8CA1"/>
<path d="M221.654 237.611L227.869 232.533L234.811 241.029L228.595 246.107L221.654 237.611Z" fill="white"/>
<path d="M230.4 237.548C231.378 238.746 231.201 240.509 230.003 241.487C228.806 242.466 227.043 242.288 226.065 241.091C225.086 239.894 225.264 238.13 226.461 237.152C227.658 236.174 229.422 236.351 230.4 237.548Z" fill="#FF8CA1"/>
<path d="M258.57 258.584C260.26 256.069 263.668 255.401 266.183 257.092L284.526 269.422C287.04 271.113 287.708 274.521 286.018 277.036C284.328 279.55 280.919 280.218 278.405 278.528L260.062 266.197C257.547 264.507 256.879 261.098 258.57 258.584Z" fill="#FF599F"/>
<path d="M272.024 261.018L278.685 265.496L272.564 274.601L265.903 270.124L272.024 261.018Z" fill="white"/>
<path d="M274.617 269.372C273.755 270.655 272.015 270.996 270.732 270.133C269.449 269.271 269.108 267.531 269.971 266.248C270.833 264.965 272.573 264.624 273.856 265.487C275.139 266.349 275.48 268.089 274.617 269.372Z" fill="#FF599F"/>
<path d="M240.383 206.771C241.553 203.977 244.767 202.66 247.562 203.831L267.948 212.37C270.743 213.54 272.059 216.754 270.889 219.549C269.718 222.343 266.504 223.66 263.71 222.489L243.323 213.95C240.529 212.78 239.212 209.566 240.383 206.771Z" fill="#FF599F"/>
<path d="M254.053 206.55L261.456 209.65L257.218 219.77L249.815 216.669L254.053 206.55Z" fill="white"/>
<path d="M258.218 214.242C257.621 215.667 255.98 216.339 254.554 215.742C253.129 215.145 252.457 213.505 253.054 212.079C253.651 210.653 255.291 209.981 256.717 210.578C258.143 211.175 258.815 212.816 258.218 214.242Z" fill="#FF599F"/>
<path d="M308.979 251.69C309.945 254.561 308.401 257.672 305.529 258.639L284.581 265.688C281.71 266.654 278.598 265.11 277.632 262.238C276.666 259.367 278.21 256.255 281.082 255.289L302.03 248.24C304.902 247.274 308.013 248.818 308.979 251.69Z" fill="#FF8CA1"/>
<path d="M298.859 260.883L291.252 263.443L287.753 253.045L295.36 250.485L298.859 260.883Z" fill="white"/>
<path d="M290.652 257.857C290.159 256.391 290.947 254.804 292.413 254.311C293.878 253.818 295.465 254.606 295.958 256.071C296.452 257.536 295.663 259.124 294.198 259.617C292.733 260.11 291.145 259.322 290.652 257.857Z" fill="#FF8CA1"/>
<path d="M272.067 236.717C270.526 239.325 267.161 240.19 264.553 238.648L245.527 227.4C242.918 225.858 242.054 222.494 243.596 219.886C245.138 217.278 248.502 216.414 251.11 217.956L270.137 229.203C272.745 230.745 273.609 234.109 272.067 236.717Z" fill="#FF8CA1"/>
<path d="M258.495 235.066L251.585 230.982L257.169 221.537L264.078 225.622L258.495 235.066Z" fill="white"/>
<path d="M255.422 226.877C256.208 225.546 257.925 225.105 259.256 225.892C260.587 226.679 261.028 228.395 260.241 229.726C259.454 231.057 257.738 231.498 256.407 230.711C255.076 229.925 254.635 228.208 255.422 226.877Z" fill="#FF8CA1"/>
<path d="M318.443 210.46C319.178 213.399 317.391 216.378 314.452 217.112L293.009 222.473C290.07 223.208 287.091 221.421 286.357 218.482C285.622 215.543 287.409 212.564 290.348 211.829L311.791 206.469C314.73 205.734 317.708 207.521 318.443 210.46Z" fill="#FF8CA1"/>
<path d="M307.624 218.82L299.837 220.766L297.176 210.122L304.963 208.176L307.624 218.82Z" fill="white"/>
<path d="M299.684 215.15C299.309 213.65 300.221 212.13 301.721 211.755C303.22 211.38 304.74 212.292 305.115 213.792C305.49 215.292 304.578 216.812 303.078 217.187C301.579 217.562 300.059 216.65 299.684 215.15Z" fill="#FF8CA1"/>
<path d="M283.878 251.79C282.997 254.689 279.933 256.325 277.034 255.444L255.887 249.017C252.988 248.136 251.352 245.072 252.233 242.173C253.114 239.274 256.178 237.639 259.077 238.52L280.225 244.947C283.124 245.828 284.759 248.892 283.878 251.79Z" fill="#CC556A"/>
<path d="M270.3 253.397L262.621 251.064L265.811 240.566L273.491 242.9L270.3 253.397Z" fill="white"/>
<path d="M265.377 246.168C265.827 244.689 267.39 243.854 268.869 244.303C270.349 244.753 271.183 246.316 270.734 247.796C270.284 249.275 268.721 250.11 267.242 249.66C265.762 249.211 264.928 247.647 265.377 246.168Z" fill="#CC556A"/>
<path d="M237.513 203.77C239.205 206.284 238.539 209.693 236.026 211.385L217.69 223.727C215.177 225.419 211.768 224.753 210.076 222.24C208.384 219.727 209.05 216.318 211.564 214.626L229.899 202.283C232.412 200.591 235.821 201.257 237.513 203.77Z" fill="#CC556A"/>
<path d="M230.187 215.315L223.529 219.797L217.402 210.695L224.06 206.213L230.187 215.315Z" fill="white"/>
<path d="M221.472 214.569C220.609 213.286 220.949 211.546 222.231 210.683C223.514 209.82 225.253 210.16 226.117 211.442C226.98 212.725 226.64 214.464 225.358 215.327C224.075 216.191 222.336 215.851 221.472 214.569Z" fill="#CC556A"/>
<path d="M302.702 231.598C301.976 234.54 299.003 236.336 296.062 235.61L274.603 230.316C271.661 229.591 269.865 226.618 270.59 223.676C271.316 220.735 274.289 218.939 277.23 219.664L298.69 224.958C301.631 225.684 303.428 228.657 302.702 231.598Z" fill="#CC556A"/>
<path d="M289.229 233.925L281.436 232.002L284.064 221.35L291.856 223.273L289.229 233.925Z" fill="white"/>
<path d="M283.928 226.967C284.298 225.466 285.815 224.549 287.316 224.92C288.817 225.29 289.734 226.807 289.364 228.308C288.993 229.809 287.476 230.725 285.975 230.355C284.474 229.985 283.558 228.468 283.928 226.967Z" fill="#CC556A"/>
<path d="M250.528 235.062C252.561 237.309 252.386 240.778 250.139 242.81L233.746 257.635C231.499 259.668 228.03 259.493 225.998 257.246C223.966 254.999 224.14 251.53 226.387 249.498L242.78 234.673C245.027 232.64 248.496 232.815 250.528 235.062Z" fill="#CC556A"/>
<path d="M244.919 247.531L238.966 252.914L231.607 244.777L237.56 239.393L244.919 247.531Z" fill="white"/>
<path d="M236.187 248.032C235.15 246.885 235.239 245.115 236.385 244.078C237.532 243.041 239.302 243.13 240.339 244.277C241.376 245.423 241.287 247.193 240.141 248.23C238.994 249.267 237.224 249.178 236.187 248.032Z" fill="#CC556A"/>
<path d="M229.406 265.46C228.172 262.693 229.415 259.45 232.182 258.216L252.369 249.215C255.136 247.981 258.38 249.225 259.614 251.992C260.847 254.759 259.604 258.002 256.837 259.236L236.65 268.236C233.883 269.47 230.64 268.227 229.406 265.46Z" fill="#7D5BDF"/>
<path d="M238.611 255.35L245.941 252.081L250.409 262.102L243.078 265.37L238.611 255.35Z" fill="white"/>
<path d="M247.067 257.586C247.696 258.998 247.062 260.653 245.65 261.282C244.238 261.912 242.583 261.278 241.953 259.866C241.324 258.454 241.958 256.799 243.37 256.169C244.782 255.539 246.437 256.174 247.067 257.586Z" fill="#7D5BDF"/>
<path d="M307.807 219.655C310.789 219.119 313.64 221.103 314.175 224.085L318.082 245.839C318.617 248.821 316.634 251.673 313.652 252.208C310.67 252.744 307.818 250.76 307.283 247.778L303.377 226.024C302.841 223.042 304.825 220.19 307.807 219.655Z" fill="#7D5BDF"/>
<path d="M315.419 231.012L316.838 238.912L306.039 240.851L304.621 232.951L315.419 231.012Z" fill="white"/>
<path d="M311.224 238.687C309.702 238.96 308.247 237.948 307.974 236.426C307.701 234.905 308.713 233.45 310.234 233.177C311.756 232.903 313.211 233.915 313.484 235.437C313.758 236.959 312.746 238.414 311.224 238.687Z" fill="#7D5BDF"/>
<path d="M285.634 217.566C283.96 220.092 280.556 220.783 278.03 219.109L259.605 206.901C257.08 205.227 256.389 201.823 258.062 199.298C259.736 196.772 263.14 196.081 265.666 197.755L284.091 209.963C286.616 211.637 287.307 215.041 285.634 217.566Z" fill="#7D5BDF"/>
<path d="M272.163 215.222L265.473 210.788L271.533 201.642L278.223 206.076L272.163 215.222Z" fill="white"/>
<path d="M269.514 206.886C270.368 205.597 272.105 205.244 273.394 206.098C274.683 206.952 275.035 208.689 274.181 209.978C273.327 211.267 271.59 211.619 270.302 210.765C269.013 209.911 268.66 208.174 269.514 206.886Z" fill="#7D5BDF"/>
<path d="M210.809 250.99C213.33 249.311 216.736 249.994 218.415 252.516L230.666 270.912C232.346 273.434 231.663 276.84 229.141 278.519C226.619 280.198 223.214 279.515 221.534 276.994L209.283 258.597C207.604 256.075 208.287 252.67 210.809 250.99Z" fill="#FF599F"/>
<path d="M222.316 258.374L226.765 265.054L217.633 271.136L213.184 264.455L222.316 258.374Z" fill="white"/>
<path d="M221.527 267.085C220.24 267.942 218.502 267.593 217.645 266.307C216.788 265.02 217.137 263.282 218.423 262.425C219.71 261.568 221.448 261.917 222.305 263.203C223.162 264.49 222.813 266.228 221.527 267.085Z" fill="#FF599F"/>
<path d="M273.347 237.152C274.004 234.195 276.935 232.33 279.892 232.988L301.468 237.785C304.426 238.443 306.29 241.373 305.633 244.331C304.975 247.288 302.045 249.153 299.087 248.495L277.511 243.698C274.554 243.04 272.689 240.11 273.347 237.152Z" fill="#FF599F"/>
<path d="M286.763 234.516L294.598 236.258L292.217 246.967L284.382 245.225L286.763 234.516Z" fill="white"/>
<path d="M292.223 241.349C291.887 242.858 290.392 243.81 288.882 243.474C287.373 243.139 286.422 241.643 286.757 240.134C287.093 238.625 288.588 237.673 290.098 238.009C291.607 238.345 292.558 239.84 292.223 241.349Z" fill="#FF599F"/>
<path d="M213.747 209.672C210.854 208.774 209.236 205.7 210.135 202.807L216.689 181.698C217.588 178.805 220.662 177.188 223.555 178.086C226.448 178.984 228.066 182.058 227.167 184.952L220.613 206.06C219.714 208.954 216.64 210.571 213.747 209.672Z" fill="#FF599F"/>
<path d="M212.222 196.085L214.602 188.42L225.08 191.673L222.7 199.339L212.222 196.085Z" fill="white"/>
<path d="M219.481 191.206C220.958 191.664 221.783 193.233 221.324 194.709C220.866 196.186 219.297 197.011 217.821 196.552C216.344 196.094 215.519 194.525 215.978 193.049C216.436 191.572 218.005 190.747 219.481 191.206Z" fill="#FF599F"/>
<path d="M316.91 257.455C318.807 259.817 318.43 263.27 316.068 265.167L298.835 279.007C296.472 280.904 293.02 280.527 291.122 278.165C289.225 275.802 289.602 272.35 291.965 270.453L309.198 256.612C311.56 254.715 315.013 255.092 316.91 257.455Z" fill="#7D5BDF"/>
<path d="M310.58 269.574L304.322 274.6L297.452 266.045L303.71 261.02L310.58 269.574Z" fill="white"/>
<path d="M301.833 269.563C300.865 268.357 301.058 266.595 302.263 265.627C303.468 264.659 305.23 264.852 306.198 266.057C307.167 267.262 306.974 269.024 305.769 269.992C304.563 270.96 302.801 270.768 301.833 269.563Z" fill="#7D5BDF"/>
<path d="M237.141 217.283C239.038 219.645 238.661 223.098 236.299 224.995L219.066 238.835C216.704 240.732 213.251 240.355 211.354 237.993C209.457 235.63 209.834 232.178 212.196 230.28L229.429 216.44C231.791 214.543 235.244 214.92 237.141 217.283Z" fill="#7D5BDF"/>
<path d="M230.811 229.402L224.553 234.428L217.683 225.873L223.941 220.848L230.811 229.402Z" fill="white"/>
<path d="M222.065 229.391C221.097 228.185 221.289 226.423 222.494 225.455C223.7 224.487 225.462 224.68 226.43 225.885C227.398 227.09 227.205 228.852 226 229.82C224.795 230.788 223.033 230.596 222.065 229.391Z" fill="#7D5BDF"/>
<path d="M322.09 268.429C322.09 265.399 324.546 262.943 327.575 262.943H349.678C352.708 262.943 355.164 265.399 355.164 268.429C355.164 271.459 352.708 273.915 349.678 273.915H327.575C324.546 273.915 322.09 271.459 322.09 268.429Z" fill="#FF8CA1"/>
<path d="M334.614 262.943H342.64V273.915H334.614V262.943Z" fill="white"/>
<path d="M341.426 268.429C341.426 269.975 340.173 271.228 338.627 271.228C337.081 271.228 335.828 269.975 335.828 268.429C335.828 266.883 337.081 265.63 338.627 265.63C340.173 265.63 341.426 266.883 341.426 268.429Z" fill="#FF8CA1"/>
<path d="M314.375 188.446C314.759 185.441 317.506 183.316 320.512 183.7L342.436 186.499C345.442 186.883 347.567 189.63 347.183 192.636C346.799 195.641 344.052 197.766 341.047 197.382L319.122 194.583C316.117 194.199 313.991 191.452 314.375 188.446Z" fill="#FF8CA1"/>
<path d="M327.493 184.591L335.455 185.608L334.065 196.491L326.104 195.474L327.493 184.591Z" fill="white"/>
<path d="M333.556 190.896C333.36 192.429 331.958 193.514 330.425 193.318C328.891 193.122 327.807 191.72 328.003 190.187C328.199 188.653 329.6 187.569 331.134 187.764C332.668 187.96 333.752 189.362 333.556 190.896Z" fill="#FF8CA1"/>
<path d="M304.859 243.989C302.942 241.643 303.29 238.187 305.637 236.27L322.753 222.286C325.099 220.369 328.555 220.717 330.472 223.063C332.388 225.409 332.04 228.865 329.694 230.782L312.578 244.767C310.232 246.684 306.776 246.336 304.859 243.989Z" fill="#FF8CA1"/>
<path d="M311.087 231.817L317.302 226.739L324.244 235.235L318.029 240.313L311.087 231.817Z" fill="white"/>
<path d="M319.833 231.755C320.812 232.952 320.634 234.716 319.437 235.694C318.24 236.672 316.476 236.494 315.498 235.297C314.52 234.1 314.697 232.336 315.895 231.358C317.092 230.38 318.855 230.558 319.833 231.755Z" fill="#FF8CA1"/>
<path d="M348.001 252.79C349.691 250.276 353.1 249.608 355.614 251.298L373.957 263.629C376.472 265.319 377.14 268.728 375.45 271.242C373.759 273.757 370.351 274.425 367.836 272.735L349.493 260.404C346.979 258.713 346.311 255.305 348.001 252.79Z" fill="#FF599F"/>
<path d="M361.455 255.225L368.116 259.703L361.995 268.808L355.334 264.33L361.455 255.225Z" fill="white"/>
<path d="M364.049 263.578C363.186 264.861 361.447 265.202 360.164 264.34C358.881 263.477 358.54 261.738 359.402 260.455C360.265 259.172 362.004 258.831 363.287 259.693C364.57 260.556 364.911 262.295 364.049 263.578Z" fill="#FF599F"/>
<path d="M329.815 200.978C330.985 198.183 334.2 196.867 336.994 198.037L357.381 206.576C360.175 207.747 361.492 210.961 360.321 213.755C359.151 216.55 355.936 217.866 353.142 216.696L332.755 208.157C329.961 206.986 328.644 203.772 329.815 200.978Z" fill="#FF599F"/>
<path d="M343.486 200.756L350.889 203.857L346.65 213.977L339.247 210.876L343.486 200.756Z" fill="white"/>
<path d="M347.65 208.448C347.053 209.874 345.413 210.546 343.987 209.949C342.561 209.351 341.889 207.711 342.486 206.285C343.084 204.859 344.724 204.187 346.15 204.785C347.576 205.382 348.248 207.022 347.65 208.448Z" fill="#FF599F"/>
<path d="M398.412 245.896C399.378 248.768 397.833 251.879 394.962 252.845L374.013 259.894C371.142 260.86 368.031 259.316 367.065 256.444C366.098 253.573 367.643 250.462 370.514 249.496L391.463 242.446C394.334 241.48 397.445 243.025 398.412 245.896Z" fill="#FF8CA1"/>
<path d="M388.291 255.09L380.684 257.649L377.185 247.251L384.792 244.691L388.291 255.09Z" fill="white"/>
<path d="M380.085 252.063C379.592 250.598 380.38 249.01 381.845 248.517C383.31 248.024 384.898 248.812 385.391 250.278C385.884 251.743 385.096 253.33 383.631 253.823C382.165 254.317 380.578 253.528 380.085 252.063Z" fill="#FF8CA1"/>
<path d="M361.5 230.924C359.958 233.532 356.594 234.396 353.986 232.854L334.959 221.607C332.351 220.065 331.487 216.701 333.028 214.093C334.57 211.485 337.934 210.62 340.542 212.162L359.569 223.41C362.177 224.952 363.042 228.316 361.5 230.924Z" fill="#FF8CA1"/>
<path d="M347.927 229.273L341.018 225.188L346.601 215.744L353.51 219.828L347.927 229.273Z" fill="white"/>
<path d="M344.854 221.084C345.641 219.753 347.357 219.312 348.688 220.098C350.019 220.885 350.46 222.602 349.674 223.933C348.887 225.264 347.17 225.705 345.839 224.918C344.508 224.131 344.067 222.415 344.854 221.084Z" fill="#FF8CA1"/>
<path d="M407.875 204.666C408.61 207.606 406.823 210.584 403.884 211.319L382.441 216.68C379.502 217.415 376.524 215.628 375.789 212.688C375.054 209.749 376.841 206.771 379.78 206.036L401.223 200.675C404.162 199.94 407.141 201.727 407.875 204.666Z" fill="#FF8CA1"/>
<path d="M397.056 213.026L389.269 214.973L386.608 204.329L394.395 202.382L397.056 213.026Z" fill="white"/>
<path d="M389.116 209.356C388.741 207.857 389.653 206.337 391.153 205.962C392.653 205.587 394.173 206.499 394.548 207.999C394.923 209.498 394.011 211.018 392.511 211.393C391.011 211.768 389.491 210.856 389.116 209.356Z" fill="#FF8CA1"/>
<path d="M373.311 245.997C372.43 248.896 369.366 250.531 366.467 249.651L345.319 243.224C342.42 242.343 340.785 239.279 341.666 236.38C342.547 233.481 345.611 231.845 348.509 232.726L369.657 239.153C372.556 240.034 374.192 243.098 373.311 245.997Z" fill="#CC556A"/>
<path d="M359.733 247.604L352.053 245.27L355.244 234.773L362.923 237.107L359.733 247.604Z" fill="white"/>
<path d="M354.81 240.374C355.259 238.895 356.823 238.06 358.302 238.51C359.781 238.959 360.616 240.523 360.166 242.002C359.717 243.481 358.153 244.316 356.674 243.867C355.195 243.417 354.36 241.853 354.81 240.374Z" fill="#CC556A"/>
<path d="M326.946 197.977C328.637 200.491 327.971 203.899 325.458 205.591L307.123 217.934C304.61 219.626 301.201 218.96 299.509 216.447C297.817 213.933 298.483 210.525 300.996 208.833L319.331 196.49C321.845 194.798 325.254 195.464 326.946 197.977Z" fill="#CC556A"/>
<path d="M319.62 209.522L312.961 214.004L306.835 204.902L313.493 200.42L319.62 209.522Z" fill="white"/>
<path d="M310.905 208.775C310.041 207.493 310.381 205.753 311.664 204.89C312.946 204.027 314.686 204.366 315.549 205.649C316.412 206.931 316.073 208.671 314.79 209.534C313.508 210.398 311.768 210.058 310.905 208.775Z" fill="#CC556A"/>
<path d="M392.135 225.805C391.41 228.747 388.437 230.543 385.495 229.817L364.036 224.523C361.095 223.798 359.298 220.825 360.024 217.883C360.75 214.942 363.722 213.146 366.664 213.871L388.123 219.165C391.065 219.891 392.861 222.864 392.135 225.805Z" fill="#CC556A"/>
<path d="M378.662 228.132L370.869 226.209L373.497 215.557L381.29 217.479L378.662 228.132Z" fill="white"/>
<path d="M373.362 221.174C373.732 219.673 375.249 218.756 376.75 219.126C378.251 219.497 379.167 221.014 378.797 222.515C378.427 224.016 376.91 224.932 375.409 224.562C373.908 224.192 372.991 222.675 373.362 221.174Z" fill="#CC556A"/>
<path d="M339.961 229.268C341.993 231.515 341.819 234.984 339.572 237.016L323.179 251.842C320.932 253.874 317.463 253.7 315.43 251.453C313.398 249.206 313.572 245.737 315.819 243.705L332.212 228.879C334.46 226.847 337.929 227.021 339.961 229.268Z" fill="#CC556A"/>
<path d="M334.352 241.737L328.399 247.121L321.039 238.984L326.992 233.6L334.352 241.737Z" fill="white"/>
<path d="M325.619 242.238C324.582 241.092 324.671 239.322 325.818 238.285C326.964 237.248 328.734 237.336 329.771 238.483C330.808 239.63 330.72 241.4 329.573 242.437C328.426 243.474 326.656 243.385 325.619 242.238Z" fill="#CC556A"/>
<path d="M318.837 259.667C317.604 256.899 318.847 253.656 321.614 252.422L341.801 243.422C344.568 242.188 347.811 243.431 349.045 246.198C350.279 248.965 349.036 252.209 346.269 253.442L326.082 262.443C323.314 263.677 320.071 262.434 318.837 259.667Z" fill="#7D5BDF"/>
<path d="M328.042 249.556L335.372 246.288L339.84 256.308L332.51 259.577L328.042 249.556Z" fill="white"/>
<path d="M336.498 251.792C337.128 253.204 336.493 254.859 335.081 255.489C333.669 256.118 332.014 255.484 331.385 254.072C330.755 252.66 331.39 251.005 332.802 250.376C334.214 249.746 335.869 250.38 336.498 251.792Z" fill="#7D5BDF"/>
<path d="M397.239 213.861C400.221 213.326 403.072 215.309 403.608 218.291L407.514 240.046C408.049 243.028 406.066 245.879 403.084 246.415C400.102 246.95 397.251 244.967 396.715 241.985L392.809 220.23C392.274 217.248 394.257 214.397 397.239 213.861Z" fill="#7D5BDF"/>
<path d="M404.852 225.219L406.27 233.118L395.471 235.057L394.053 227.158L404.852 225.219Z" fill="white"/>
<path d="M400.656 232.894C399.135 233.167 397.68 232.155 397.406 230.633C397.133 229.111 398.145 227.656 399.667 227.383C401.189 227.11 402.644 228.122 402.917 229.644C403.19 231.165 402.178 232.62 400.656 232.894Z" fill="#7D5BDF"/>
<path d="M375.066 211.773C373.392 214.298 369.988 214.989 367.463 213.316L349.038 201.107C346.512 199.434 345.821 196.03 347.495 193.504C349.168 190.979 352.572 190.288 355.098 191.961L373.523 204.17C376.048 205.843 376.739 209.247 375.066 211.773Z" fill="#7D5BDF"/>
<path d="M361.596 209.428L354.905 204.995L360.965 195.849L367.656 200.282L361.596 209.428Z" fill="white"/>
<path d="M358.947 201.092C359.8 199.804 361.537 199.451 362.826 200.305C364.115 201.159 364.468 202.896 363.614 204.185C362.76 205.473 361.023 205.826 359.734 204.972C358.445 204.118 358.093 202.381 358.947 201.092Z" fill="#7D5BDF"/>
<path d="M300.241 245.197C302.763 243.518 306.169 244.201 307.848 246.722L320.099 265.119C321.778 267.641 321.095 271.046 318.574 272.726C316.052 274.405 312.647 273.722 310.967 271.2L298.716 252.804C297.037 250.282 297.72 246.876 300.241 245.197Z" fill="#FF599F"/>
<path d="M311.749 252.58L316.198 259.261L307.066 265.342L302.617 258.662L311.749 252.58Z" fill="white"/>
<path d="M310.959 261.291C309.673 262.148 307.935 261.8 307.078 260.513C306.221 259.226 306.569 257.489 307.856 256.632C309.143 255.775 310.881 256.123 311.738 257.41C312.595 258.697 312.246 260.435 310.959 261.291Z" fill="#FF599F"/>
<path d="M362.779 231.359C363.437 228.401 366.367 226.537 369.325 227.195L390.901 231.992C393.858 232.649 395.723 235.58 395.065 238.537C394.408 241.495 391.477 243.359 388.52 242.702L366.944 237.905C363.986 237.247 362.122 234.316 362.779 231.359Z" fill="#FF599F"/>
<path d="M376.195 228.722L384.03 230.464L381.649 241.174L373.814 239.432L376.195 228.722Z" fill="white"/>
<path d="M381.655 235.556C381.32 237.065 379.824 238.016 378.315 237.681C376.806 237.345 375.854 235.85 376.19 234.341C376.525 232.831 378.021 231.88 379.53 232.216C381.039 232.551 381.991 234.047 381.655 235.556Z" fill="#FF599F"/>
<path d="M303.178 203.879C300.285 202.98 298.668 199.906 299.566 197.013L306.121 175.904C307.019 173.011 310.093 171.394 312.987 172.292C315.88 173.191 317.497 176.265 316.599 179.158L310.044 200.266C309.146 203.16 306.072 204.777 303.178 203.879Z" fill="#FF599F"/>
<path d="M301.653 190.291L304.034 182.626L314.512 185.88L312.131 193.545L301.653 190.291Z" fill="white"/>
<path d="M308.913 185.412C310.389 185.87 311.214 187.439 310.756 188.915C310.298 190.392 308.729 191.217 307.253 190.758C305.776 190.3 304.951 188.731 305.409 187.255C305.868 185.778 307.436 184.953 308.913 185.412Z" fill="#FF599F"/>
<path d="M406.342 251.661C408.239 254.023 407.862 257.476 405.5 259.373L388.267 273.213C385.905 275.11 382.452 274.733 380.555 272.371C378.658 270.009 379.035 266.556 381.397 264.659L398.63 250.819C400.992 248.922 404.445 249.299 406.342 251.661Z" fill="#7D5BDF"/>
<path d="M400.013 263.78L393.755 268.806L386.885 260.252L393.142 255.226L400.013 263.78Z" fill="white"/>
<path d="M391.266 263.769C390.298 262.564 390.49 260.802 391.695 259.834C392.901 258.866 394.663 259.058 395.631 260.264C396.599 261.469 396.407 263.231 395.201 264.199C393.996 265.167 392.234 264.975 391.266 263.769Z" fill="#7D5BDF"/>
<path d="M326.575 211.489C328.472 213.851 328.095 217.304 325.732 219.201L308.499 233.041C306.137 234.938 302.684 234.561 300.787 232.199C298.89 229.837 299.267 226.384 301.629 224.487L318.862 210.647C321.225 208.75 324.677 209.127 326.575 211.489Z" fill="#7D5BDF"/>
<path d="M320.245 223.608L313.987 228.634L307.117 220.08L313.375 215.054L320.245 223.608Z" fill="white"/>
<path d="M311.498 223.597C310.53 222.392 310.722 220.63 311.928 219.662C313.133 218.694 314.895 218.886 315.863 220.091C316.831 221.297 316.639 223.059 315.433 224.027C314.228 224.995 312.466 224.802 311.498 223.597Z" fill="#7D5BDF"/>
<path d="M417.297 274.223C417.297 271.193 419.753 268.737 422.783 268.737H444.885C447.915 268.737 450.371 271.193 450.371 274.223C450.371 277.252 447.915 279.708 444.885 279.708H422.783C419.753 279.708 417.297 277.252 417.297 274.223Z" fill="#FF8CA1"/>
<path d="M429.821 268.737H437.847V279.708H429.821V268.737Z" fill="white"/>
<path d="M436.634 274.223C436.634 275.769 435.38 277.022 433.834 277.022C432.288 277.022 431.035 275.769 431.035 274.223C431.035 272.677 432.288 271.423 433.834 271.423C435.38 271.423 436.634 272.677 436.634 274.223Z" fill="#FF8CA1"/>
<path d="M409.582 194.24C409.966 191.235 412.714 189.109 415.719 189.493L437.643 192.293C440.649 192.677 442.774 195.424 442.39 198.429C442.007 201.434 439.259 203.56 436.254 203.176L414.329 200.376C411.324 199.993 409.199 197.245 409.582 194.24Z" fill="#FF8CA1"/>
<path d="M422.7 190.385L430.662 191.401L429.272 202.284L421.311 201.268L422.7 190.385Z" fill="white"/>
<path d="M428.763 196.689C428.568 198.223 427.166 199.307 425.632 199.111C424.099 198.915 423.014 197.514 423.21 195.98C423.406 194.446 424.808 193.362 426.341 193.558C427.875 193.754 428.959 195.156 428.763 196.689Z" fill="#FF8CA1"/>
<path d="M400.067 249.783C398.15 247.437 398.498 243.981 400.844 242.064L417.96 228.079C420.306 226.162 423.762 226.51 425.679 228.856C427.596 231.203 427.248 234.659 424.902 236.575L407.786 250.56C405.439 252.477 401.983 252.129 400.067 249.783Z" fill="#FF8CA1"/>
<path d="M406.294 237.611L412.509 232.532L419.451 241.029L413.236 246.107L406.294 237.611Z" fill="white"/>
<path d="M415.041 237.548C416.019 238.746 415.841 240.509 414.644 241.487C413.447 242.465 411.683 242.288 410.705 241.091C409.727 239.893 409.905 238.13 411.102 237.152C412.299 236.174 414.062 236.351 415.041 237.548Z" fill="#FF8CA1"/>
<path d="M443.209 258.584C444.899 256.069 448.308 255.401 450.822 257.091L469.166 269.422C471.68 271.113 472.348 274.521 470.658 277.036C468.968 279.55 465.559 280.218 463.045 278.528L444.701 266.197C442.187 264.507 441.519 261.098 443.209 258.584Z" fill="#FF599F"/>
<path d="M456.663 261.018L463.325 265.496L457.204 274.601L450.543 270.123L456.663 261.018Z" fill="white"/>
<path d="M459.257 269.371C458.394 270.655 456.655 270.995 455.372 270.133C454.089 269.27 453.748 267.531 454.611 266.248C455.473 264.965 457.212 264.624 458.495 265.487C459.779 266.349 460.119 268.088 459.257 269.371Z" fill="#FF599F"/>
<path d="M425.024 206.771C426.195 203.976 429.409 202.66 432.203 203.83L452.59 212.369C455.384 213.54 456.701 216.754 455.53 219.548C454.36 222.343 451.146 223.659 448.351 222.489L427.965 213.95C425.17 212.779 423.854 209.565 425.024 206.771Z" fill="#FF599F"/>
<path d="M438.695 206.549L446.098 209.65L441.859 219.77L434.456 216.669L438.695 206.549Z" fill="white"/>
<path d="M442.859 214.241C442.262 215.667 440.622 216.339 439.196 215.742C437.77 215.144 437.098 213.504 437.696 212.078C438.293 210.652 439.933 209.98 441.359 210.578C442.785 211.175 443.457 212.815 442.859 214.241Z" fill="#FF599F"/>
<path d="M493.62 251.69C494.586 254.561 493.042 257.672 490.17 258.638L469.222 265.688C466.35 266.654 463.239 265.109 462.273 262.238C461.307 259.366 462.851 256.255 465.723 255.289L486.671 248.24C489.543 247.274 492.654 248.818 493.62 251.69Z" fill="#FF8CA1"/>
<path d="M483.5 260.883L475.892 263.443L472.393 253.044L480 250.484L483.5 260.883Z" fill="white"/>
<path d="M475.293 257.857C474.8 256.391 475.588 254.804 477.053 254.311C478.519 253.818 480.106 254.606 480.599 256.071C481.092 257.536 480.304 259.124 478.839 259.617C477.374 260.11 475.786 259.322 475.293 257.857Z" fill="#FF8CA1"/>
<path d="M456.708 236.717C455.167 239.325 451.802 240.189 449.194 238.648L430.168 227.4C427.559 225.858 426.695 222.494 428.237 219.886C429.779 217.278 433.143 216.414 435.751 217.955L454.778 229.203C457.386 230.745 458.25 234.109 456.708 236.717Z" fill="#FF8CA1"/>
<path d="M443.136 235.066L436.226 230.982L441.81 221.537L448.719 225.621L443.136 235.066Z" fill="white"/>
<path d="M440.063 226.877C440.849 225.546 442.566 225.105 443.897 225.892C445.228 226.678 445.669 228.395 444.882 229.726C444.095 231.057 442.379 231.498 441.048 230.711C439.717 229.924 439.276 228.208 440.063 226.877Z" fill="#FF8CA1"/>
<path d="M503.084 210.46C503.819 213.399 502.032 216.378 499.092 217.112L477.65 222.473C474.71 223.208 471.732 221.421 470.997 218.482C470.262 215.543 472.049 212.564 474.988 211.829L496.431 206.469C499.37 205.734 502.349 207.521 503.084 210.46Z" fill="#FF8CA1"/>
<path d="M492.264 218.82L484.478 220.766L481.817 210.122L489.603 208.176L492.264 218.82Z" fill="white"/>
<path d="M484.324 215.15C483.949 213.65 484.861 212.13 486.361 211.755C487.861 211.38 489.381 212.292 489.756 213.792C490.131 215.292 489.219 216.812 487.719 217.187C486.219 217.562 484.699 216.65 484.324 215.15Z" fill="#FF8CA1"/>
<path d="M468.519 251.79C467.638 254.689 464.574 256.325 461.675 255.444L440.527 249.017C437.629 248.136 435.993 245.072 436.874 242.173C437.755 239.274 440.819 237.638 443.718 238.519L464.865 244.946C467.764 245.827 469.4 248.891 468.519 251.79Z" fill="#CC556A"/>
<path d="M454.941 253.397L447.262 251.063L450.452 240.566L458.131 242.9L454.941 253.397Z" fill="white"/>
<path d="M450.018 246.168C450.467 244.688 452.031 243.854 453.51 244.303C454.989 244.753 455.824 246.316 455.374 247.795C454.925 249.275 453.361 250.109 451.882 249.66C450.403 249.21 449.568 247.647 450.018 246.168Z" fill="#CC556A"/>
<path d="M422.153 203.77C423.845 206.284 423.179 209.693 420.665 211.384L402.33 223.727C399.817 225.419 396.408 224.753 394.716 222.24C393.024 219.727 393.69 216.318 396.203 214.626L414.539 202.283C417.052 200.591 420.461 201.257 422.153 203.77Z" fill="#CC556A"/>
<path d="M414.827 215.315L408.169 219.797L402.042 210.695L408.7 206.213L414.827 215.315Z" fill="white"/>
<path d="M406.112 214.569C405.249 213.286 405.588 211.546 406.871 210.683C408.153 209.82 409.893 210.16 410.756 211.442C411.62 212.725 411.28 214.464 409.997 215.327C408.715 216.191 406.975 215.851 406.112 214.569Z" fill="#CC556A"/>
<path d="M487.343 231.598C486.617 234.54 483.644 236.336 480.703 235.61L459.244 230.316C456.302 229.591 454.506 226.618 455.231 223.676C455.957 220.735 458.93 218.939 461.871 219.664L483.331 224.958C486.272 225.684 488.069 228.657 487.343 231.598Z" fill="#CC556A"/>
<path d="M473.87 233.925L466.077 232.002L468.705 221.35L476.497 223.272L473.87 233.925Z" fill="white"/>
<path d="M468.569 226.967C468.939 225.466 470.456 224.549 471.957 224.919C473.458 225.29 474.375 226.807 474.005 228.308C473.634 229.809 472.117 230.725 470.616 230.355C469.115 229.985 468.199 228.468 468.569 226.967Z" fill="#CC556A"/>
<path d="M435.17 235.062C437.202 237.309 437.028 240.778 434.781 242.81L418.388 257.635C416.141 259.668 412.672 259.493 410.64 257.246C408.607 254.999 408.782 251.53 411.029 249.498L427.422 234.673C429.669 232.64 433.138 232.815 435.17 235.062Z" fill="#CC556A"/>
<path d="M429.561 247.531L423.608 252.914L416.249 244.777L422.202 239.393L429.561 247.531Z" fill="white"/>
<path d="M420.828 248.032C419.791 246.885 419.88 245.115 421.027 244.078C422.173 243.041 423.944 243.13 424.981 244.277C426.018 245.423 425.929 247.193 424.782 248.23C423.635 249.267 421.865 249.178 420.828 248.032Z" fill="#CC556A"/>
<path d="M414.045 265.46C412.811 262.693 414.054 259.45 416.821 258.216L437.008 249.215C439.775 247.981 443.018 249.224 444.252 251.992C445.486 254.759 444.243 258.002 441.476 259.236L421.289 268.236C418.522 269.47 415.278 268.227 414.045 265.46Z" fill="#7D5BDF"/>
<path d="M423.249 255.35L430.58 252.081L435.048 262.102L427.717 265.37L423.249 255.35Z" fill="white"/>
<path d="M431.705 257.586C432.335 258.998 431.701 260.653 430.289 261.282C428.877 261.912 427.222 261.278 426.592 259.866C425.962 258.454 426.597 256.798 428.009 256.169C429.421 255.539 431.076 256.174 431.705 257.586Z" fill="#7D5BDF"/>
<path d="M492.447 219.655C495.429 219.119 498.281 221.103 498.816 224.085L502.722 245.839C503.258 248.821 501.274 251.673 498.292 252.208C495.31 252.744 492.459 250.76 491.923 247.778L488.017 226.024C487.482 223.042 489.465 220.19 492.447 219.655Z" fill="#7D5BDF"/>
<path d="M500.06 231.012L501.478 238.912L490.68 240.851L489.261 232.951L500.06 231.012Z" fill="white"/>
<path d="M495.865 238.687C494.343 238.96 492.888 237.948 492.615 236.426C492.341 234.905 493.353 233.45 494.875 233.177C496.397 232.903 497.852 233.915 498.125 235.437C498.398 236.959 497.386 238.414 495.865 238.687Z" fill="#7D5BDF"/>
<path d="M470.274 217.566C468.601 220.092 465.197 220.783 462.671 219.109L444.246 206.901C441.72 205.227 441.03 201.823 442.703 199.298C444.376 196.772 447.78 196.081 450.306 197.755L468.731 209.963C471.257 211.637 471.947 215.041 470.274 217.566Z" fill="#7D5BDF"/>
<path d="M456.804 215.222L450.113 210.788L456.173 201.642L462.864 206.076L456.804 215.222Z" fill="white"/>
<path d="M454.155 206.886C455.009 205.597 456.746 205.244 458.034 206.098C459.323 206.952 459.676 208.689 458.822 209.978C457.968 211.267 456.231 211.619 454.942 210.765C453.653 209.911 453.301 208.174 454.155 206.886Z" fill="#7D5BDF"/>
<path d="M395.449 250.99C397.97 249.311 401.376 249.994 403.055 252.515L415.306 270.912C416.986 273.434 416.303 276.839 413.781 278.519C411.259 280.198 407.854 279.515 406.174 276.993L393.923 258.597C392.244 256.075 392.927 252.669 395.449 250.99Z" fill="#FF599F"/>
<path d="M406.956 258.374L411.405 265.054L402.273 271.135L397.824 264.455L406.956 258.374Z" fill="white"/>
<path d="M406.167 267.085C404.88 267.942 403.142 267.593 402.285 266.306C401.428 265.019 401.777 263.282 403.063 262.425C404.35 261.568 406.088 261.916 406.945 263.203C407.802 264.49 407.453 266.228 406.167 267.085Z" fill="#FF599F"/>
<path d="M457.987 237.152C458.644 234.195 461.575 232.33 464.532 232.988L486.108 237.785C489.066 238.443 490.93 241.373 490.273 244.331C489.615 247.288 486.684 249.152 483.727 248.495L462.151 243.698C459.194 243.04 457.329 240.11 457.987 237.152Z" fill="#FF599F"/>
<path d="M471.403 234.515L479.238 236.257L476.857 246.967L469.022 245.225L471.403 234.515Z" fill="white"/>
<path d="M476.863 241.349C476.527 242.858 475.032 243.81 473.522 243.474C472.013 243.138 471.062 241.643 471.397 240.134C471.733 238.625 473.228 237.673 474.738 238.009C476.247 238.344 477.198 239.84 476.863 241.349Z" fill="#FF599F"/>
<path d="M398.388 209.672C395.494 208.774 393.877 205.7 394.775 202.806L401.33 181.698C402.228 178.805 405.302 177.187 408.196 178.086C411.089 178.984 412.706 182.058 411.808 184.952L405.253 206.06C404.355 208.953 401.281 210.571 398.388 209.672Z" fill="#FF599F"/>
<path d="M396.863 196.085L399.243 188.42L409.721 191.673L407.341 199.338L396.863 196.085Z" fill="white"/>
<path d="M404.122 191.205C405.598 191.664 406.424 193.232 405.965 194.709C405.507 196.185 403.938 197.011 402.462 196.552C400.985 196.094 400.16 194.525 400.618 193.049C401.077 191.572 402.645 190.747 404.122 191.205Z" fill="#FF599F"/>
<path d="M501.55 257.455C503.448 259.817 503.071 263.27 500.708 265.167L483.475 279.007C481.113 280.904 477.66 280.527 475.763 278.165C473.866 275.802 474.243 272.35 476.605 270.453L493.838 256.612C496.2 254.715 499.653 255.092 501.55 257.455Z" fill="#7D5BDF"/>
<path d="M495.221 269.574L488.963 274.6L482.093 266.045L488.351 261.02L495.221 269.574Z" fill="white"/>
<path d="M486.474 269.563C485.506 268.357 485.698 266.595 486.904 265.627C488.109 264.659 489.871 264.852 490.839 266.057C491.807 267.262 491.615 269.024 490.409 269.992C489.204 270.96 487.442 270.768 486.474 269.563Z" fill="#7D5BDF"/>
<path d="M421.783 217.282C423.68 219.645 423.303 223.097 420.941 224.994L403.707 238.835C401.345 240.732 397.892 240.355 395.995 237.992C394.098 235.63 394.475 232.177 396.837 230.28L414.071 216.44C416.433 214.543 419.886 214.92 421.783 217.282Z" fill="#7D5BDF"/>
<path d="M415.453 229.402L409.195 234.427L402.325 225.873L408.583 220.847L415.453 229.402Z" fill="white"/>
<path d="M406.706 229.39C405.738 228.185 405.931 226.423 407.136 225.455C408.341 224.487 410.103 224.679 411.071 225.885C412.039 227.09 411.847 228.852 410.642 229.82C409.436 230.788 407.674 230.596 406.706 229.39Z" fill="#7D5BDF"/>
<path d="M507.844 274.223C507.844 271.193 510.3 268.737 513.329 268.737H535.432C538.462 268.737 540.918 271.193 540.918 274.223C540.918 277.252 538.462 279.708 535.432 279.708H513.329C510.3 279.708 507.844 277.252 507.844 274.223Z" fill="#FF8CA1"/>
<path d="M520.368 268.737H528.394V279.708H520.368V268.737Z" fill="white"/>
<path d="M527.18 274.223C527.18 275.769 525.927 277.022 524.381 277.022C522.835 277.022 521.582 275.769 521.582 274.223C521.582 272.677 522.835 271.423 524.381 271.423C525.927 271.423 527.18 272.677 527.18 274.223Z" fill="#FF8CA1"/>
<path d="M500.129 194.24C500.513 191.235 503.26 189.11 506.266 189.493L528.19 192.293C531.196 192.677 533.321 195.424 532.937 198.429C532.553 201.435 529.806 203.56 526.801 203.176L504.876 200.376C501.871 199.993 499.745 197.245 500.129 194.24Z" fill="#FF8CA1"/>
<path d="M513.247 190.385L521.209 191.401L519.819 202.285L511.857 201.268L513.247 190.385Z" fill="white"/>
<path d="M519.31 196.689C519.114 198.223 517.712 199.307 516.179 199.111C514.645 198.916 513.561 197.514 513.757 195.98C513.952 194.447 515.354 193.362 516.888 193.558C518.421 193.754 519.506 195.156 519.31 196.689Z" fill="#FF8CA1"/>
<path d="M490.612 249.783C488.695 247.437 489.043 243.981 491.389 242.064L508.505 228.08C510.851 226.163 514.307 226.511 516.224 228.857C518.141 231.203 517.793 234.659 515.447 236.576L498.331 250.56C495.984 252.477 492.528 252.129 490.612 249.783Z" fill="#FF8CA1"/>
<path d="M496.839 237.611L503.054 232.533L509.996 241.029L503.781 246.107L496.839 237.611Z" fill="white"/>
<path d="M505.586 237.549C506.564 238.746 506.386 240.509 505.189 241.487C503.992 242.466 502.228 242.288 501.25 241.091C500.272 239.894 500.45 238.13 501.647 237.152C502.844 236.174 504.607 236.351 505.586 237.549Z" fill="#FF8CA1"/>
<path d="M533.755 258.584C535.445 256.069 538.854 255.401 541.368 257.092L559.712 269.423C562.226 271.113 562.894 274.521 561.204 277.036C559.514 279.55 556.105 280.218 553.591 278.528L535.247 266.197C532.733 264.507 532.065 261.098 533.755 258.584Z" fill="#FF599F"/>
<path d="M547.209 261.018L553.87 265.496L547.75 274.601L541.088 270.124L547.209 261.018Z" fill="white"/>
<path d="M549.803 269.372C548.94 270.655 547.201 270.996 545.918 270.133C544.635 269.271 544.294 267.531 545.156 266.248C546.019 264.965 547.758 264.624 549.041 265.487C550.324 266.349 550.665 268.089 549.803 269.372Z" fill="#FF599F"/>
<path d="M515.569 206.771C516.739 203.977 519.954 202.66 522.748 203.831L543.135 212.37C545.929 213.54 547.246 216.754 546.075 219.549C544.905 222.343 541.69 223.66 538.896 222.489L518.509 213.95C515.715 212.78 514.398 209.566 515.569 206.771Z" fill="#FF599F"/>
<path d="M529.24 206.55L536.643 209.651L532.404 219.77L525.001 216.669L529.24 206.55Z" fill="white"/>
<path d="M533.404 214.242C532.807 215.668 531.167 216.339 529.741 215.742C528.315 215.145 527.643 213.505 528.24 212.079C528.838 210.653 530.478 209.981 531.904 210.578C533.33 211.175 534.001 212.816 533.404 214.242Z" fill="#FF599F"/>
<path d="M584.167 251.69C585.133 254.561 583.588 257.672 580.717 258.638L559.769 265.688C556.897 266.654 553.786 265.109 552.82 262.238C551.853 259.366 553.398 256.255 556.269 255.289L577.218 248.24C580.089 247.274 583.2 248.818 584.167 251.69Z" fill="#FF8CA1"/>
<path d="M574.046 260.883L566.439 263.443L562.94 253.044L570.547 250.485L574.046 260.883Z" fill="white"/>
<path d="M565.84 257.857C565.347 256.391 566.135 254.804 567.6 254.311C569.065 253.818 570.653 254.606 571.146 256.071C571.639 257.536 570.851 259.124 569.386 259.617C567.92 260.11 566.333 259.322 565.84 257.857Z" fill="#FF8CA1"/>
<path d="M547.254 236.718C545.712 239.326 542.348 240.19 539.74 238.648L520.713 227.401C518.105 225.859 517.241 222.495 518.783 219.887C520.324 217.279 523.688 216.414 526.297 217.956L545.323 229.204C547.931 230.745 548.796 234.11 547.254 236.718Z" fill="#FF8CA1"/>
<path d="M533.681 235.067L526.772 230.982L532.355 221.538L539.265 225.622L533.681 235.067Z" fill="white"/>
<path d="M530.608 226.877C531.395 225.547 533.112 225.106 534.443 225.892C535.773 226.679 536.215 228.396 535.428 229.726C534.641 231.057 532.924 231.498 531.594 230.712C530.263 229.925 529.822 228.208 530.608 226.877Z" fill="#FF8CA1"/>
<path d="M593.629 210.46C594.364 213.399 592.577 216.378 589.638 217.113L568.195 222.473C565.256 223.208 562.278 221.421 561.543 218.482C560.808 215.543 562.595 212.564 565.534 211.829L586.977 206.469C589.916 205.734 592.895 207.521 593.629 210.46Z" fill="#FF8CA1"/>
<path d="M582.81 218.82L575.023 220.766L572.362 210.122L580.149 208.176L582.81 218.82Z" fill="white"/>
<path d="M574.87 215.15C574.495 213.65 575.407 212.13 576.907 211.755C578.407 211.38 579.927 212.292 580.302 213.792C580.676 215.292 579.765 216.812 578.265 217.187C576.765 217.562 575.245 216.65 574.87 215.15Z" fill="#FF8CA1"/>
<path d="M559.065 251.791C558.184 254.689 555.12 256.325 552.221 255.444L531.073 249.017C528.174 248.136 526.539 245.072 527.42 242.173C528.301 239.275 531.365 237.639 534.263 238.52L555.411 244.947C558.31 245.828 559.946 248.892 559.065 251.791Z" fill="#CC556A"/>
<path d="M545.487 253.398L537.807 251.064L540.998 240.566L548.677 242.9L545.487 253.398Z" fill="white"/>
<path d="M540.563 246.168C541.013 244.689 542.577 243.854 544.056 244.303C545.535 244.753 546.37 246.317 545.92 247.796C545.471 249.275 543.907 250.11 542.428 249.66C540.949 249.211 540.114 247.647 540.563 246.168Z" fill="#CC556A"/>
<path d="M512.7 203.771C514.391 206.284 513.726 209.693 511.212 211.385L492.877 223.727C490.364 225.419 486.955 224.753 485.263 222.24C483.571 219.727 484.237 216.318 486.75 214.626L505.085 202.283C507.599 200.591 511.008 201.257 512.7 203.771Z" fill="#CC556A"/>
<path d="M505.374 215.315L498.715 219.797L492.589 210.696L499.247 206.214L505.374 215.315Z" fill="white"/>
<path d="M496.659 214.569C495.795 213.286 496.135 211.547 497.418 210.683C498.7 209.82 500.44 210.16 501.303 211.442C502.166 212.725 501.827 214.464 500.544 215.328C499.262 216.191 497.522 215.851 496.659 214.569Z" fill="#CC556A"/>
<path d="M577.889 231.598C577.163 234.54 574.19 236.336 571.249 235.611L549.789 230.317C546.848 229.591 545.052 226.618 545.777 223.677C546.503 220.735 549.476 218.939 552.417 219.664L573.877 224.958C576.818 225.684 578.614 228.657 577.889 231.598Z" fill="#CC556A"/>
<path d="M564.415 233.925L556.623 232.002L559.251 221.35L567.043 223.273L564.415 233.925Z" fill="white"/>
<path d="M559.115 226.967C559.485 225.466 561.002 224.549 562.503 224.92C564.004 225.29 564.921 226.807 564.55 228.308C564.18 229.809 562.663 230.726 561.162 230.355C559.661 229.985 558.745 228.468 559.115 226.967Z" fill="#CC556A"/>
<path d="M525.715 235.062C527.747 237.309 527.573 240.778 525.326 242.81L508.933 257.635C506.685 259.668 503.216 259.493 501.184 257.246C499.152 254.999 499.326 251.53 501.573 249.498L517.966 234.673C520.213 232.64 523.682 232.815 525.715 235.062Z" fill="#CC556A"/>
<path d="M520.105 247.531L514.153 252.915L506.793 244.777L512.746 239.394L520.105 247.531Z" fill="white"/>
<path d="M511.373 248.032C510.336 246.885 510.425 245.115 511.572 244.078C512.718 243.041 514.488 243.13 515.525 244.277C516.562 245.423 516.474 247.193 515.327 248.23C514.18 249.267 512.41 249.179 511.373 248.032Z" fill="#CC556A"/>
<path d="M504.591 265.46C503.358 262.693 504.601 259.45 507.368 258.216L527.555 249.215C530.322 247.982 533.565 249.225 534.799 251.992C536.033 254.759 534.79 258.002 532.023 259.236L511.836 268.237C509.069 269.47 505.825 268.227 504.591 265.46Z" fill="#7D5BDF"/>
<path d="M513.796 255.35L521.127 252.081L525.594 262.102L518.264 265.37L513.796 255.35Z" fill="white"/>
<path d="M522.252 257.586C522.882 258.998 522.247 260.653 520.835 261.283C519.423 261.912 517.768 261.278 517.139 259.866C516.509 258.454 517.144 256.799 518.556 256.169C519.968 255.54 521.623 256.174 522.252 257.586Z" fill="#7D5BDF"/>
<path d="M582.993 219.655C585.975 219.119 588.826 221.103 589.362 224.085L593.268 245.839C593.803 248.821 591.82 251.673 588.838 252.208C585.856 252.744 583.005 250.76 582.469 247.778L578.563 226.024C578.028 223.042 580.011 220.19 582.993 219.655Z" fill="#7D5BDF"/>
<path d="M590.606 231.012L592.024 238.912L581.225 240.851L579.807 232.951L590.606 231.012Z" fill="white"/>
<path d="M586.41 238.687C584.889 238.96 583.433 237.948 583.16 236.427C582.887 234.905 583.899 233.45 585.421 233.177C586.943 232.903 588.398 233.915 588.671 235.437C588.944 236.959 587.932 238.414 586.41 238.687Z" fill="#7D5BDF"/>
<path d="M560.82 217.566C559.147 220.092 555.743 220.783 553.217 219.109L534.792 206.901C532.266 205.227 531.576 201.823 533.249 199.298C534.922 196.772 538.326 196.081 540.852 197.755L559.277 209.963C561.803 211.637 562.494 215.041 560.82 217.566Z" fill="#7D5BDF"/>
<path d="M547.35 215.222L540.659 210.788L546.719 201.643L553.41 206.076L547.35 215.222Z" fill="white"/>
<path d="M544.701 206.886C545.555 205.597 547.292 205.245 548.58 206.098C549.869 206.952 550.222 208.689 549.368 209.978C548.514 211.267 546.777 211.619 545.488 210.766C544.199 209.912 543.847 208.175 544.701 206.886Z" fill="#7D5BDF"/>
<path d="M485.995 250.99C488.517 249.311 491.923 249.994 493.602 252.516L505.853 270.912C507.532 273.434 506.85 276.84 504.328 278.519C501.806 280.198 498.401 279.515 496.721 276.994L484.47 258.597C482.791 256.075 483.474 252.67 485.995 250.99Z" fill="#FF599F"/>
<path d="M497.503 258.374L501.952 265.054L492.82 271.136L488.371 264.455L497.503 258.374Z" fill="white"/>
<path d="M496.713 267.085C495.427 267.942 493.689 267.593 492.832 266.307C491.975 265.02 492.323 263.282 493.61 262.425C494.897 261.568 496.635 261.917 497.492 263.203C498.349 264.49 498 266.228 496.713 267.085Z" fill="#FF599F"/>
<path d="M548.534 237.153C549.191 234.195 552.122 232.331 555.079 232.988L576.655 237.785C579.612 238.443 581.477 241.373 580.819 244.331C580.162 247.288 577.231 249.153 574.274 248.495L552.698 243.698C549.74 243.041 547.876 240.11 548.534 237.153Z" fill="#FF599F"/>
<path d="M561.95 234.516L569.784 236.258L567.403 246.968L559.568 245.226L561.95 234.516Z" fill="white"/>
<path d="M567.409 241.349C567.074 242.858 565.578 243.81 564.069 243.474C562.56 243.139 561.609 241.643 561.944 240.134C562.28 238.625 563.775 237.674 565.284 238.009C566.793 238.345 567.745 239.84 567.409 241.349Z" fill="#FF599F"/>
<path d="M488.933 209.672C486.039 208.774 484.422 205.7 485.32 202.807L491.875 181.698C492.773 178.805 495.847 177.188 498.741 178.086C501.634 178.984 503.251 182.058 502.353 184.952L495.798 206.06C494.9 208.954 491.826 210.571 488.933 209.672Z" fill="#FF599F"/>
<path d="M487.408 196.085L489.788 188.42L500.266 191.673L497.885 199.339L487.408 196.085Z" fill="white"/>
<path d="M494.667 191.206C496.143 191.664 496.969 193.233 496.51 194.709C496.052 196.186 494.483 197.011 493.007 196.552C491.53 196.094 490.705 194.525 491.163 193.049C491.622 191.572 493.19 190.747 494.667 191.206Z" fill="#FF599F"/>
<path d="M592.096 257.455C593.993 259.817 593.616 263.27 591.254 265.167L574.021 279.007C571.659 280.904 568.206 280.527 566.309 278.165C564.412 275.803 564.789 272.35 567.151 270.453L584.384 256.613C586.746 254.715 590.199 255.093 592.096 257.455Z" fill="#7D5BDF"/>
<path d="M585.766 269.574L579.509 274.6L572.638 266.045L578.896 261.02L585.766 269.574Z" fill="white"/>
<path d="M577.02 269.563C576.052 268.357 576.244 266.595 577.449 265.627C578.655 264.659 580.417 264.852 581.385 266.057C582.353 267.263 582.16 269.024 580.955 269.993C579.75 270.961 577.988 270.768 577.02 269.563Z" fill="#7D5BDF"/>
<path d="M512.328 217.283C514.225 219.645 513.848 223.098 511.486 224.995L494.252 238.835C491.89 240.732 488.437 240.355 486.54 237.993C484.643 235.63 485.02 232.178 487.382 230.281L504.616 216.44C506.978 214.543 510.431 214.92 512.328 217.283Z" fill="#7D5BDF"/>
<path d="M505.998 229.402L499.74 234.428L492.87 225.873L499.128 220.848L505.998 229.402Z" fill="white"/>
<path d="M497.251 229.391C496.283 228.185 496.475 226.423 497.681 225.455C498.886 224.487 500.648 224.68 501.616 225.885C502.584 227.09 502.392 228.852 501.187 229.82C499.981 230.788 498.219 230.596 497.251 229.391Z" fill="#7D5BDF"/>
<path d="M18.3714 3.93744H617.628L629.214 100.037H6.78537L18.3714 3.93744Z" fill="#FCF9F6"/>
<path d="M18.3915 2.6582L10.8605 51.987H22.3312L28.1242 10.7609H70.0375L71.1961 2.6582H18.3915Z" fill="#FF8CA1"/>
<path d="M617.609 2.6582L625.14 51.987H613.669L607.876 10.7609H565.963L564.804 2.6582H617.609Z" fill="#FF8CA1"/>
<path d="M6.78537 149.222H629.214V300.513H6.78537V149.222Z" fill="#FCF9F6"/>
<path d="M4.0625 301.672V244.948H16.9236V288.811H60.7861V301.672H4.0625Z" fill="#FF8CA1"/>
<path d="M631.938 301.672H575.214V288.811H619.077V244.948H631.938V301.672Z" fill="#FF8CA1"/>
<path d="M349.916 173.516V149.184L286.085 148.945V173.516C286.085 191.143 300.374 205.432 318.001 205.432C335.627 205.432 349.916 191.143 349.916 173.516Z" fill="#FF8CA1"/>
<path d="M349.916 101.699H286.085C289.475 86.8957 302.814 76.3998 318.001 76.3998C333.187 76.3998 346.527 86.8957 349.916 101.699Z" fill="#FF8CA1"/>
<path fill-rule="evenodd" clip-rule="evenodd" d="M349.916 101.699C349.839 101.364 349.757 101.03 349.67 100.699C345.921 86.4252 332.843 76.3998 318.001 76.3998C303.158 76.3998 290.08 86.4252 286.331 100.699C286.244 101.03 286.162 101.364 286.085 101.699H349.916ZM287.366 100.699H348.635C344.914 87.0041 332.305 77.3998 318.001 77.3998C303.696 77.3998 291.087 87.0041 287.366 100.699Z" fill="#FF599F"/>
<path d="M320.389 175.257C324.201 174.211 327.002 170.72 327.002 166.575C327.002 161.604 322.972 157.573 318 157.573C313.028 157.573 308.998 161.604 308.998 166.575C308.998 170.72 311.799 174.211 315.612 175.257V184.278H320.389V175.257Z" fill="#454545"/>
</g>
<path d="M614.5 75.5L574.5 149H63L22 82L112 90.5C110.5 75.6667 112 35.5 112 29.5C112 23.5 125.667 70.6667 154 90.5L196.5 24.5L247 82V29.5L279 57L313 19.5L362 57L379.5 13L396.5 90.5L439 29.5L459.5 90.5L521.5 43L498 96.5L614.5 75.5Z" fill="url(#paint0_linear_2153_367)"/>
<defs>
<filter id="filter0_d_2153_367" x="0.0625" y="0.658203" width="635.875" height="307.014" filterUnits="userSpaceOnUse" color-interpolation-filters="sRGB">
<feFlood flood-opacity="0" result="BackgroundImageFix"/>
<feColorMatrix in="SourceAlpha" type="matrix" values="0 0 0 0 0 0 0 0 0 0 0 0 0 0 0 0 0 0 127 0" result="hardAlpha"/>
<feOffset dy="2"/>
<feGaussianBlur stdDeviation="2"/>
<feComposite in2="hardAlpha" operator="out"/>
<feColorMatrix type="matrix" values="0 0 0 0 0 0 0 0 0 0 0 0 0 0 0 0 0 0 0.25 0"/>
<feBlend mode="normal" in2="BackgroundImageFix" result="effect1_dropShadow_2153_367"/>
<feBlend mode="normal" in="SourceGraphic" in2="effect1_dropShadow_2153_367" result="shape"/>
</filter>
<linearGradient id="paint0_linear_2153_367" x1="324.75" y1="149" x2="324.75" y2="72" gradientUnits="userSpaceOnUse">
<stop offset="0.179506" stop-color="white"/>
<stop offset="1" stop-color="white" stop-opacity="0"/>
</linearGradient>
</defs>
</svg>
