<svg width="636" height="258" viewBox="0 0 636 258" fill="none" xmlns="http://www.w3.org/2000/svg">
<g filter="url(#filter0_d_812_283)">
<path d="M6.95456 99.3031H629.047V250.513H6.95456V99.3031Z" fill="#FCF9F6"/>
<path d="M6.9541 3.25586H629.046L629.047 99.3031H6.95456L6.9541 3.25586Z" fill="#FCF9F6"/>
<path fill-rule="evenodd" clip-rule="evenodd" d="M629.047 99.7964H6.96875V98.7964H629.047V99.7964Z" fill="#AAA7A4"/>
<path d="M4.23261 2.1211V58.814H17.0868V14.9752H60.9255V2.1211H4.23261Z" fill="#FF8CA1"/>
<path d="M631.769 2.1211L575.076 2.12109V14.9752L618.915 14.9752V58.814H631.769V2.1211Z" fill="#FF8CA1"/>
<path d="M4.23242 251.671V194.978H17.0866V238.817H60.9253V251.671H4.23242Z" fill="#FF8CA1"/>
<path d="M631.769 251.671H575.076V238.817H618.915V194.978H631.769V251.671Z" fill="#FF8CA1"/>
<path d="M349.899 123.585V99.2656L286.103 99.0265V123.585C286.103 141.202 300.384 155.483 318.001 155.483C335.618 155.483 349.899 141.202 349.899 123.585Z" fill="#FF8CA1"/>
<path fill-rule="evenodd" clip-rule="evenodd" d="M348.899 100.262L287.103 100.03V123.585C287.103 140.649 300.936 154.483 318.001 154.483C335.066 154.483 348.899 140.649 348.899 123.585V100.262ZM286.103 123.585C286.103 141.202 300.384 155.483 318.001 155.483C335.618 155.483 349.899 141.202 349.899 123.585V99.2656L286.103 99.0265V123.585Z" fill="#FF599F"/>
<path d="M318.824 68.2075H317.178C300.016 68.2075 286.103 82.1205 286.103 99.283H349.899C349.899 82.1205 335.986 68.2075 318.824 68.2075Z" fill="#FF8CA1"/>
<path fill-rule="evenodd" clip-rule="evenodd" d="M318.824 69.2075H317.178C300.902 69.2075 287.646 82.1357 287.119 98.283H348.883C348.356 82.1357 335.1 69.2075 318.824 69.2075ZM349.884 98.283C349.356 81.5833 335.652 68.2075 318.824 68.2075H317.178C300.35 68.2075 286.646 81.5833 286.118 98.283C286.108 98.6151 286.103 98.9484 286.103 99.283H349.899C349.899 98.9484 349.894 98.6151 349.884 98.283Z" fill="#FF599F"/>
<path d="M320.388 125.324C324.198 124.278 326.997 120.79 326.997 116.647C326.997 111.678 322.969 107.65 318 107.65C313.031 107.65 309.003 111.678 309.003 116.647C309.003 120.79 311.803 124.279 315.613 125.325V134.341H320.388V125.324Z" fill="#454545"/>
</g>
<defs>
<filter id="filter0_d_812_283" x="0.232422" y="0.121094" width="635.537" height="257.55" filterUnits="userSpaceOnUse" color-interpolation-filters="sRGB">
<feFlood flood-opacity="0" result="BackgroundImageFix"/>
<feColorMatrix in="SourceAlpha" type="matrix" values="0 0 0 0 0 0 0 0 0 0 0 0 0 0 0 0 0 0 127 0" result="hardAlpha"/>
<feOffset dy="2"/>
<feGaussianBlur stdDeviation="2"/>
<feComposite in2="hardAlpha" operator="out"/>
<feColorMatrix type="matrix" values="0 0 0 0 0 0 0 0 0 0 0 0 0 0 0 0 0 0 0.25 0"/>
<feBlend mode="normal" in2="BackgroundImageFix" result="effect1_dropShadow_812_283"/>
<feBlend mode="normal" in="SourceGraphic" in2="effect1_dropShadow_812_283" result="shape"/>
</filter>
</defs>
</svg>
