<svg width="180" height="179" viewBox="0 0 180 179" fill="none" xmlns="http://www.w3.org/2000/svg">
<path d="M79.9835 166.645L79.952 166.644L79.9206 166.646C56.8551 168.347 42.9751 163.391 34.2106 154.813C15.1825 136.191 8.03935 106.668 11.9112 79.3736C15.7831 52.078 30.6466 27.15 55.4624 17.6191C79.5975 8.34956 109.273 6.36927 133.291 15.7863C148.58 21.7808 161.28 33.4924 167.739 49.0309C180.075 78.7072 171.446 115.971 151.111 140.955C136.817 158.515 113.586 168.401 79.9835 166.645Z" fill="#EB3959" stroke="#CC556A"/>
<path d="M150.228 48.8195C167.337 75.9882 158.488 116.69 134.638 138.184C122.756 148.892 105.459 154.625 82.0831 153.415C62.9208 154.857 51.4214 150.633 44.195 143.27C13.6099 112.106 21.1775 46.4042 61.8076 30.4101C81.7442 22.562 106.324 20.873 126.19 28.8979C136.024 32.8704 144.525 39.7633 150.228 48.8195Z" fill="#AD223B"/>
<path fill-rule="evenodd" clip-rule="evenodd" d="M86.334 141.451C115.665 144.785 142.146 123.71 145.48 94.3789C148.815 65.0476 127.74 38.5669 98.4086 35.2326C69.0773 31.8983 42.5966 52.973 39.2623 82.3043C35.928 111.636 57.0027 138.116 86.334 141.451ZM85.6332 147.615C118.369 151.336 147.923 127.816 151.645 95.0797C155.366 62.3439 131.845 32.7895 99.1094 29.0682C66.3736 25.3468 36.8192 48.8677 33.0979 81.6035C29.3765 114.339 52.8974 143.894 85.6332 147.615Z" fill="#EB3959"/>
<path fill-rule="evenodd" clip-rule="evenodd" d="M107.745 63.5867C97.1932 63.2639 87.6106 66.3735 82.9914 70.4331C70.044 81.812 62.0775 91.0019 58.722 99.2872C57.0623 103.385 56.542 107.238 57.0937 111.033C57.6471 114.841 59.2962 118.704 62.144 122.786C72.1204 137.086 80.54 141.03 88.1081 141.687C91.9886 142.024 95.7636 141.51 99.6599 140.882C100.07 140.816 100.483 140.749 100.897 140.681C104.355 140.115 107.946 139.527 111.568 139.564C112.524 139.574 113.29 140.356 113.28 141.312C113.27 142.267 112.488 143.034 111.532 143.024C108.229 142.99 104.945 143.526 101.445 144.098C101.036 144.164 100.625 144.231 100.21 144.298C96.3034 144.928 92.1551 145.512 87.8087 145.134C78.9231 144.363 69.6752 139.628 59.3063 124.765C56.2325 120.359 54.3188 115.998 53.6696 111.531C53.0186 107.052 53.6558 102.579 55.515 97.9884C59.1973 88.8961 67.7145 79.2529 80.7073 67.8342C86.2016 63.0055 96.76 59.789 107.851 60.1283C119.016 60.4699 131.113 64.4227 139.576 74.4286C140.193 75.1581 140.102 76.2496 139.372 76.8666C138.643 77.4836 137.551 77.3924 136.934 76.6629C129.273 67.6046 118.224 63.9072 107.745 63.5867Z" fill="#EB3959"/>
<path fill-rule="evenodd" clip-rule="evenodd" d="M121.646 56.555C122.399 59.0175 122.447 61.7808 122.056 64.1819C121.903 65.125 121.014 65.765 120.071 65.6114C119.127 65.4578 118.488 64.5688 118.641 63.6258C118.966 61.633 118.904 59.4206 118.337 57.5671C117.773 55.7225 116.773 54.4047 115.326 53.7889C113.859 53.1647 111.522 53.0846 107.91 54.6265C104.303 56.1662 99.6251 59.2453 93.6748 64.5874C92.9638 65.2257 91.8701 65.1667 91.2318 64.4558C90.5935 63.7448 90.6524 62.651 91.3634 62.0127C97.4568 56.5422 102.458 53.192 106.551 51.4444C110.64 49.699 114.022 49.4737 116.681 50.6052C119.359 51.745 120.89 54.0836 121.646 56.555Z" fill="#EB3959"/>
<path fill-rule="evenodd" clip-rule="evenodd" d="M113.354 51.3321C113.798 52.0259 113.595 52.9482 112.901 53.3922C111.733 54.1398 109.941 55.635 108.523 57.2714C107.816 58.0873 107.246 58.8885 106.888 59.6039C106.516 60.3494 106.465 60.8192 106.512 61.0595C106.667 61.8684 106.137 62.6501 105.329 62.8056C104.52 62.9611 103.738 62.4315 103.582 61.6226C103.356 60.4424 103.726 59.2584 104.22 58.2707C104.728 57.2527 105.469 56.2409 106.269 55.3179C107.865 53.4763 109.872 51.7895 111.294 50.8798C111.987 50.4358 112.91 50.6383 113.354 51.3321Z" fill="#EB3959"/>
<path fill-rule="evenodd" clip-rule="evenodd" d="M138.664 77.6289C134.609 77.0254 130.031 77.59 127.165 78.3154C126.239 78.5499 125.298 77.9891 125.063 77.0628C124.829 76.1366 125.39 75.1956 126.316 74.9612C129.492 74.1574 134.546 73.5179 139.173 74.2065C143.748 74.8873 148.529 76.9961 149.923 82.2416C151.409 87.8361 150.981 92.7522 149.154 96.4087C147.317 100.086 144.066 102.443 140.193 102.696C139.24 102.758 138.416 102.036 138.354 101.083C138.292 100.129 139.014 99.3057 139.968 99.2434C142.462 99.0805 144.701 97.581 146.059 94.8623C147.427 92.1234 147.901 88.1055 146.579 83.1302C145.725 79.9199 142.773 78.2403 138.664 77.6289Z" fill="#EB3959"/>
<path fill-rule="evenodd" clip-rule="evenodd" d="M138.269 88.2801C136.958 88.485 135.395 88.6055 134.054 88.0134C133.3 87.6807 132.959 86.8002 133.292 86.0467C133.624 85.2932 134.505 84.952 135.258 85.2846C135.749 85.5011 136.55 85.5296 137.808 85.3331C138.406 85.2396 139.036 85.1087 139.715 84.9666L139.77 84.9553C140.419 84.8194 141.112 84.6743 141.796 84.5636C143.159 84.343 144.741 84.2089 146.155 84.7023C147.714 85.2463 148.841 86.4643 149.381 88.4038C149.602 89.1973 149.137 90.0196 148.344 90.2405C147.55 90.4614 146.728 89.9972 146.507 89.2037C146.194 88.0805 145.692 87.7 145.172 87.5184C144.507 87.2862 143.561 87.2995 142.273 87.5081C141.657 87.6077 141.022 87.7406 140.35 87.8811L140.326 87.8862C139.66 88.0256 138.955 88.1728 138.269 88.2801Z" fill="#EB3959"/>
<path d="M84.5132 102.087C84.4397 99.6917 85.982 99.3372 86.8449 100.725C87.2323 101.348 88.1944 101.853 89.7815 102.023C92.4251 102.305 91.5008 103.766 90.9884 104.34C88.5352 106.182 84.6424 106.303 84.5132 102.087Z" fill="#EB3959"/>
<path fill-rule="evenodd" clip-rule="evenodd" d="M85.3037 99.9327C85.8276 99.7005 86.4568 99.9877 86.8955 100.693C87.2681 101.292 88.2064 101.795 89.7878 101.963C90.4532 102.035 90.9021 102.18 91.1906 102.374C91.4819 102.569 91.6088 102.812 91.6279 103.068C91.6468 103.32 91.5604 103.576 91.4405 103.803C91.3201 104.031 91.1631 104.234 91.0329 104.38C91.0303 104.383 91.0273 104.386 91.0242 104.388C89.7883 105.316 88.1848 105.815 86.8673 105.544C86.207 105.408 85.6183 105.078 85.187 104.513C84.7562 103.948 84.4861 103.152 84.4535 102.089C84.4166 100.884 84.785 100.163 85.3037 99.9327ZM85.3521 100.042C84.9023 100.241 84.5363 100.895 84.5728 102.085C84.6048 103.13 84.8698 103.9 85.2819 104.44C85.6936 104.98 86.2556 105.296 86.8913 105.427C88.1642 105.689 89.7312 105.208 90.9478 104.296C91.073 104.155 91.2217 103.962 91.335 103.748C91.4499 103.53 91.5254 103.297 91.509 103.076C91.4928 102.86 91.3871 102.649 91.1242 102.473C90.8585 102.295 90.4316 102.152 89.7752 102.082C88.1824 101.912 87.1965 101.403 86.7942 100.756C86.37 100.074 85.7967 99.8447 85.3521 100.042Z" fill="#EB3959"/>
<path fill-rule="evenodd" clip-rule="evenodd" d="M86.1866 110.65C88.1572 111.22 90.1478 112.586 91.5921 114.618C91.7243 114.804 91.8104 115.024 91.8576 115.149C91.9179 115.31 91.9793 115.501 92.0402 115.708C92.1626 116.124 92.2978 116.66 92.4329 117.272C92.7033 118.497 92.9834 120.072 93.1633 121.685C93.3421 123.287 93.4282 124.98 93.2874 126.421C93.217 127.141 93.0858 127.844 92.8552 128.459C92.6276 129.066 92.2658 129.686 91.6706 130.103C90.5029 130.921 88.3014 131.698 85.8503 131.722C83.3531 131.746 80.4842 130.989 78.1229 128.579C76.6758 127.103 75.9096 124.263 76.1437 121.245C76.3838 118.149 77.6818 114.635 80.6694 111.679C82.105 110.258 84.2477 110.09 86.1866 110.65ZM85.5237 112.943C84.0632 112.52 82.9459 112.783 82.3478 113.375C79.8035 115.893 78.7226 118.853 78.5228 121.429C78.3169 124.084 79.05 126.116 79.8271 126.909C81.6419 128.761 83.8348 129.355 85.8271 129.336C87.8656 129.316 89.5815 128.653 90.3011 128.149C90.3555 128.111 90.4861 127.981 90.6209 127.621C90.7525 127.27 90.8536 126.791 90.9125 126.189C91.0301 124.985 90.9625 123.479 90.7918 121.949C90.6223 120.429 90.3571 118.938 90.1028 117.787C89.9755 117.21 89.8534 116.73 89.7507 116.381C89.6991 116.205 89.656 116.074 89.6232 115.987C89.6164 115.969 89.6107 115.954 89.6061 115.943C88.4636 114.363 86.9354 113.351 85.5237 112.943Z" fill="#EB3959"/>
<path fill-rule="evenodd" clip-rule="evenodd" d="M113.864 70.4257C108.401 72.5829 102.376 75.9939 98.2875 81.7308C97.1594 83.3138 94.9616 83.6826 93.3785 82.5545C91.7955 81.4264 91.4267 79.2286 92.5548 77.6456C97.7645 70.3349 105.216 66.2721 111.278 63.8783C114.328 62.674 117.103 61.8631 119.134 61.2843C119.301 61.2369 119.46 61.1917 119.612 61.1484C120.421 60.9185 121.037 60.7434 121.516 60.5891C121.793 60.5002 121.943 60.4434 122.009 60.4151C121.925 60.458 121.721 60.575 121.493 60.7827L126.233 65.9868C125.684 66.4878 125.07 66.7619 124.789 66.8823C124.427 67.0376 124.037 67.1729 123.674 67.2896C123.068 67.4849 122.307 67.701 121.506 67.9284C121.36 67.97 121.212 68.0119 121.063 68.0542C119.075 68.6207 116.576 69.3546 113.864 70.4257ZM122.013 60.4136C122.011 60.4141 122.01 60.4146 122.009 60.4151C122.059 60.3895 122.067 60.3902 122.013 60.4136ZM121.77 80.6588C117.038 82.96 112.373 86.0036 109.293 88.5085C107.785 89.7349 105.568 89.5064 104.341 87.9983C103.115 86.4901 103.344 84.2733 104.852 83.0469C108.363 80.1917 113.487 76.8594 118.691 74.3286C121.299 73.0599 123.999 71.9574 126.583 71.2231C129.123 70.5011 131.783 70.067 134.222 70.3443C136.154 70.5638 137.542 72.3075 137.322 74.2389C137.102 76.1704 135.359 77.5581 133.427 77.3385C132.28 77.2081 130.626 77.3921 128.507 77.9942C126.433 78.5839 124.129 79.5115 121.77 80.6588Z" fill="#EB3959"/>
<path fill-rule="evenodd" clip-rule="evenodd" d="M66.207 98.1424C66.7299 98.6909 66.7092 99.5594 66.1608 100.082L63.4673 102.65C62.9188 103.173 62.0503 103.153 61.5274 102.604C61.0045 102.056 61.0252 101.187 61.5737 100.664L64.2672 98.0962C64.8156 97.5733 65.6841 97.594 66.207 98.1424ZM70.3111 99.2713C70.8768 99.7754 70.9267 100.643 70.4226 101.208L66.1554 105.997C65.6512 106.562 64.7839 106.612 64.2182 106.108C63.6525 105.604 63.6026 104.737 64.1067 104.171L68.3739 99.3827C68.8781 98.817 69.7454 98.7671 70.3111 99.2713ZM74.0533 101.804C74.6422 102.281 74.7328 103.145 74.2559 103.734L72.0476 106.46C71.5706 107.049 70.7066 107.139 70.1178 106.662C69.529 106.186 69.4383 105.321 69.9152 104.733L72.1235 102.007C72.6005 101.418 73.4645 101.327 74.0533 101.804ZM109.501 118.07C110.073 118.567 110.134 119.434 109.637 120.006L105.492 124.776C104.995 125.348 104.129 125.409 103.557 124.912C102.985 124.415 102.924 123.549 103.421 122.977L107.566 118.206C108.063 117.634 108.929 117.573 109.501 118.07ZM113.399 120.056C114.035 120.469 114.215 121.319 113.801 121.954L110.891 126.426C110.478 127.062 109.628 127.241 108.993 126.828C108.358 126.415 108.178 125.565 108.591 124.93L111.501 120.457C111.914 119.822 112.764 119.642 113.399 120.056ZM117.754 122.179C118.447 122.484 118.762 123.294 118.457 123.987L116.154 129.219C115.849 129.912 115.039 130.227 114.346 129.922C113.652 129.617 113.337 128.807 113.643 128.113L115.945 122.882C116.25 122.188 117.06 121.873 117.754 122.179Z" fill="#EB3959"/>
<path fill-rule="evenodd" clip-rule="evenodd" d="M83.1766 112.842C83.5046 113.336 83.3699 114.002 82.8758 114.33C82.6735 114.464 82.2457 114.901 81.712 115.699C81.2016 116.462 80.6554 117.461 80.1847 118.611C79.2364 120.926 78.6412 123.73 79.1397 126.357C79.2502 126.939 78.8675 127.501 78.2849 127.612C77.7022 127.722 77.1403 127.34 77.0297 126.757C76.4267 123.579 77.1578 120.335 78.1974 117.797C78.7206 116.519 79.3337 115.391 79.9272 114.504C80.4974 113.653 81.1181 112.919 81.6881 112.541C82.1822 112.213 82.8486 112.347 83.1766 112.842Z" fill="#EB3959"/>
<path fill-rule="evenodd" clip-rule="evenodd" d="M83.983 111.002C84.4652 111.347 84.5761 112.018 84.2308 112.5C83.843 113.041 83.3838 113.907 83.2271 114.717C83.0736 115.51 83.2363 115.977 83.6797 116.269C84.644 116.902 85.9274 117.156 87.0428 116.961C88.1386 116.769 88.9418 116.182 89.2561 115.241C89.4439 114.678 90.0522 114.375 90.6147 114.562C91.1772 114.75 91.481 115.359 91.2932 115.921C90.6682 117.793 89.0761 118.785 87.4129 119.076C85.7693 119.364 83.9299 119.003 82.5 118.063C81.0281 117.095 80.8811 115.536 81.1186 114.309C81.3528 113.098 81.9852 111.947 82.4848 111.249C82.8301 110.767 83.5009 110.656 83.983 111.002Z" fill="#EB3959"/>
<path fill-rule="evenodd" clip-rule="evenodd" d="M49.3923 116.41C51.0922 114.348 53.9178 114.077 55.8143 114.326C56.4023 114.403 56.8163 114.942 56.739 115.53C56.6617 116.118 56.1224 116.532 55.5345 116.455C53.9229 116.243 52.0485 116.564 51.0494 117.776C50.1009 118.926 49.5519 121.382 51.754 126.41C51.9919 126.953 51.7443 127.587 51.2011 127.825C50.6579 128.062 50.0246 127.815 49.7867 127.272C47.4928 122.033 47.6418 118.533 49.3923 116.41Z" fill="#EB3959"/>
<path fill-rule="evenodd" clip-rule="evenodd" d="M39.7568 91.2543C39.748 91.231 39.7398 91.2074 39.7324 91.1834L37.2324 83.0978C36.0153 79.1612 38.2198 74.9833 42.1564 73.7662C46.0929 72.549 50.2708 74.7535 51.488 78.6901L53.988 86.7758C53.9954 86.7999 54.0021 86.8241 54.008 86.8485C54.0282 86.9085 54.0477 86.9689 54.0665 87.0297L56.5387 95.0256C57.7559 98.9622 55.5513 103.14 51.6148 104.357C47.6782 105.574 43.5003 103.37 42.2832 99.4333L39.8109 91.4373C39.7921 91.3764 39.774 91.3154 39.7568 91.2543ZM42.3436 91.615L44.5448 98.734C45.3757 101.422 48.228 102.927 50.9155 102.096C53.603 101.265 55.1081 98.4124 54.2771 95.7249L52.076 88.6058L42.3436 91.615Z" fill="#EB3959"/>
<path fill-rule="evenodd" clip-rule="evenodd" d="M122.397 111.506C119.85 116.888 113.619 119.182 108.48 116.63C103.342 114.079 101.242 107.648 103.79 102.266C106.338 96.8847 112.568 94.5907 117.707 97.1422C122.845 99.6938 124.945 106.125 122.397 111.506ZM109.84 105.269C108.96 106.007 107.721 106.206 106.647 105.672C105.164 104.936 104.557 103.083 105.29 101.533C106.024 99.9841 107.821 99.3252 109.304 100.062C109.718 100.267 110.063 100.56 110.331 100.908C111.78 98.1267 115.095 96.9763 117.845 98.3422C120.664 99.7421 121.824 103.255 120.435 106.188C119.046 109.122 115.635 110.365 112.816 108.965C111.293 108.208 110.254 106.835 109.84 105.269Z" fill="#EB3959"/>
<path fill-rule="evenodd" clip-rule="evenodd" d="M82.1635 97.8395C77.8681 101.173 72.6246 100.688 70.4519 96.7554C68.2791 92.8233 69.9998 86.9335 74.2952 83.6002C78.5906 80.2668 83.8341 80.7522 86.0069 84.6843C88.1797 88.6163 86.4589 94.5062 82.1635 97.8395ZM76.7236 88.1373C75.8743 88.4379 74.9715 88.1947 74.434 87.4249C73.6915 86.3617 73.9267 84.6966 74.9594 83.7058C75.992 82.715 77.431 82.7737 78.1734 83.8368C78.3806 84.1335 78.5117 84.4771 78.5705 84.8399C80.5136 83.1038 83.145 83.2634 84.522 85.2352C85.9331 87.2559 85.4922 90.4148 83.5372 92.2907C81.5821 94.1666 78.8532 94.0492 77.4421 92.0285C76.6794 90.9364 76.4577 89.512 76.7236 88.1373Z" fill="#EB3959"/>
<path fill-rule="evenodd" clip-rule="evenodd" d="M81.6608 44.8846C82.3174 44.6665 83.0265 45.0219 83.2446 45.6785C83.769 47.2574 85.474 48.1121 87.0528 47.5877L87.5343 47.4278C88.1909 47.2097 88.9 47.5651 89.1181 48.2217C89.3362 48.8783 88.9807 49.5874 88.3241 49.8055C86.4794 50.4183 85.4807 52.4105 86.0934 54.2552C86.3115 54.9118 85.956 55.6209 85.2994 55.839C84.6428 56.0571 83.9337 55.7017 83.7156 55.0451C83.1029 53.2003 81.1107 52.2016 79.2659 52.8143C78.6093 53.0324 77.9002 52.677 77.6821 52.0204C77.464 51.3637 77.8195 50.6547 78.4761 50.4366L78.9576 50.2766C80.5364 49.7522 81.3912 48.0472 80.8668 46.4683C80.6487 45.8117 81.0042 45.1027 81.6608 44.8846Z" fill="#EB3959"/>
<path fill-rule="evenodd" clip-rule="evenodd" d="M58.0154 57.5971C58.4569 56.6762 59.5615 56.2875 60.4824 56.7291L61.287 57.1148C63.0696 57.9695 65.2074 57.2172 66.062 55.4347L66.7728 53.9521C67.2144 53.0311 68.3189 52.6425 69.2399 53.084C70.1609 53.5256 70.5495 54.6301 70.1079 55.5511L69.3971 57.0337C68.5425 58.8162 69.2947 60.9541 71.0772 61.8087L72.5599 62.5195C73.4808 62.9611 73.8695 64.0656 73.4279 64.9866C72.9864 65.9076 71.8818 66.2962 70.9609 65.8546L69.4782 65.1438C67.6957 64.2892 65.5579 65.0414 64.7033 66.8239L63.9924 68.3066C63.5509 69.2275 62.4463 69.6162 61.5254 69.1746C60.6044 68.7331 60.2158 67.6285 60.6573 66.7076L61.3682 65.2249C62.2228 63.4424 61.4706 61.3046 59.688 60.45L58.8834 60.0642C57.9625 59.6226 57.5738 58.5181 58.0154 57.5971Z" fill="#EB3959"/>
</svg>
