<svg width="867" height="490" viewBox="0 0 867 490" fill="none" xmlns="http://www.w3.org/2000/svg">
<path d="M0 4C0 1.79086 1.79086 0 4 0H863C865.209 0 867 1.79086 867 4V486C867 488.209 865.209 490 863 490H4.00002C1.79088 490 0 488.209 0 486V4Z" fill="#FCF9F6"/>
<path fill-rule="evenodd" clip-rule="evenodd" d="M2.90199 7.64045C3.65285 6.48176 5.20085 6.15114 6.35955 6.90199L420.676 275.387C428.782 280.64 439.218 280.64 447.324 275.387L861.64 6.90199C862.799 6.15114 864.347 6.48176 865.098 7.64045C865.849 8.79915 865.518 10.3471 864.36 11.098L450.043 279.583C440.283 285.908 427.717 285.908 417.957 279.583L3.64045 11.098C2.48176 10.3471 2.15114 8.79915 2.90199 7.64045Z" fill="#E7E1DB"/>
<path fill-rule="evenodd" clip-rule="evenodd" d="M2.71162 486.768C3.13587 487.48 4.05661 487.713 4.76816 487.288L387.174 259.288C387.885 258.864 388.118 257.943 387.694 257.232C387.27 256.52 386.349 256.287 385.638 256.712L3.23184 484.712C2.52028 485.136 2.28737 486.057 2.71162 486.768ZM864.288 486.768C864.713 486.057 864.48 485.136 863.768 484.712L481.362 256.712C480.651 256.287 479.73 256.52 479.306 257.232C478.882 257.943 479.115 258.864 479.826 259.288L862.232 487.288C862.943 487.713 863.864 487.48 864.288 486.768Z" fill="#E7E1DB"/>
<path d="M427.671 347.176L427.64 347.175L427.608 347.177C404.543 348.878 390.663 343.922 381.898 335.344C362.87 316.722 355.727 287.2 359.599 259.905C363.471 232.609 378.334 207.681 403.15 198.15C427.285 188.881 456.96 186.901 480.978 196.318C496.267 202.312 508.967 214.024 515.427 229.562C527.763 259.238 519.134 296.502 498.798 321.486C484.505 339.046 461.273 348.932 427.671 347.176Z" fill="#EB3959" stroke="#CC556A"/>
<path d="M497.915 229.351C515.025 256.519 506.176 297.221 482.325 318.715C470.443 329.424 453.146 335.156 429.771 333.946C410.608 335.388 399.109 331.164 391.883 323.801C361.297 292.638 368.865 226.935 409.495 210.941V210.941C429.432 203.093 454.012 201.404 473.878 209.429C483.712 213.402 492.212 220.295 497.915 229.351Z" fill="#AD223B"/>
<path fill-rule="evenodd" clip-rule="evenodd" d="M434.022 321.982C463.353 325.316 489.834 304.241 493.168 274.91C496.502 245.579 475.427 219.098 446.096 215.764C416.765 212.43 390.284 233.504 386.95 262.836C383.615 292.167 404.69 318.648 434.022 321.982ZM433.321 328.146C466.057 331.868 495.611 308.347 499.332 275.611C503.054 242.875 479.533 213.321 446.797 209.599C414.061 205.878 384.507 229.399 380.785 262.135C377.064 294.871 400.585 324.425 433.321 328.146Z" fill="#EB3959"/>
<path fill-rule="evenodd" clip-rule="evenodd" d="M455.433 244.118C444.881 243.795 435.298 246.905 430.679 250.964C417.731 262.343 409.765 271.533 406.409 279.818C404.75 283.916 404.23 287.769 404.781 291.564C405.335 295.372 406.984 299.235 409.831 303.317C419.808 317.617 428.228 321.561 435.796 322.219C439.676 322.555 443.451 322.041 447.347 321.414C447.758 321.347 448.17 321.28 448.585 321.212C452.043 320.646 455.634 320.058 459.256 320.095C460.211 320.105 460.978 320.888 460.968 321.843C460.958 322.798 460.175 323.565 459.22 323.555C455.917 323.521 452.632 324.057 449.133 324.629C448.724 324.696 448.312 324.763 447.898 324.83C443.991 325.459 439.843 326.043 435.496 325.666C426.611 324.894 417.363 320.159 406.994 305.297C403.92 300.891 402.006 296.529 401.357 292.062C400.706 287.583 401.343 283.11 403.203 278.52C406.885 269.427 415.402 259.784 428.395 248.365C433.889 243.537 444.447 240.32 455.539 240.66C466.704 241.001 478.801 244.954 487.264 254.96C487.881 255.689 487.789 256.781 487.06 257.398C486.33 258.015 485.239 257.924 484.622 257.194C476.96 248.136 465.911 244.438 455.433 244.118Z" fill="#EB3959"/>
<path fill-rule="evenodd" clip-rule="evenodd" d="M469.333 237.086C470.086 239.549 470.135 242.312 469.744 244.713C469.59 245.656 468.701 246.296 467.758 246.143C466.815 245.989 466.175 245.1 466.329 244.157C466.653 242.164 466.591 239.952 466.024 238.098C465.46 236.254 464.46 234.936 463.013 234.32C461.547 233.696 459.209 233.616 455.597 235.158C451.991 236.697 447.313 239.777 441.362 245.119C440.651 245.757 439.558 245.698 438.919 244.987C438.281 244.276 438.34 243.182 439.051 242.544C445.144 237.073 450.145 233.723 454.239 231.976C458.327 230.23 461.71 230.005 464.368 231.136C467.047 232.276 468.577 234.615 469.333 237.086Z" fill="#EB3959"/>
<path fill-rule="evenodd" clip-rule="evenodd" d="M461.041 231.863C461.485 232.557 461.282 233.479 460.589 233.923C459.42 234.671 457.629 236.166 456.211 237.803C455.504 238.619 454.933 239.42 454.576 240.135C454.203 240.881 454.153 241.35 454.199 241.591C454.355 242.4 453.825 243.181 453.016 243.337C452.207 243.492 451.425 242.963 451.27 242.154C451.043 240.974 451.414 239.79 451.907 238.802C452.416 237.784 453.157 236.772 453.957 235.849C455.553 234.008 457.559 232.321 458.981 231.411C459.675 230.967 460.597 231.17 461.041 231.863Z" fill="#EB3959"/>
<path fill-rule="evenodd" clip-rule="evenodd" d="M486.351 258.16C482.296 257.557 477.719 258.121 474.853 258.847C473.926 259.081 472.985 258.52 472.751 257.594C472.517 256.668 473.077 255.727 474.004 255.492C477.179 254.689 482.233 254.049 486.861 254.738C491.435 255.419 496.216 257.527 497.61 262.773C499.097 268.367 498.669 273.283 496.842 276.94C495.005 280.617 491.754 282.974 487.881 283.227C486.927 283.29 486.104 282.567 486.042 281.614C485.979 280.66 486.702 279.837 487.655 279.775C490.15 279.612 492.388 278.112 493.747 275.394C495.115 272.655 495.588 268.637 494.266 263.661C493.413 260.451 490.46 258.772 486.351 258.16Z" fill="#EB3959"/>
<path fill-rule="evenodd" clip-rule="evenodd" d="M485.956 268.811C484.645 269.016 483.083 269.137 481.741 268.545C480.988 268.212 480.647 267.331 480.979 266.578C481.312 265.824 482.192 265.483 482.946 265.816C483.436 266.032 484.238 266.061 485.495 265.864C486.094 265.771 486.724 265.64 487.403 265.498L487.457 265.487C488.107 265.351 488.8 265.206 489.484 265.095C490.846 264.874 492.429 264.74 493.842 265.234C495.401 265.778 496.528 266.996 497.068 268.935C497.289 269.729 496.825 270.551 496.031 270.772C495.238 270.993 494.416 270.528 494.195 269.735C493.882 268.612 493.38 268.231 492.86 268.05C492.194 267.817 491.248 267.831 489.96 268.039C489.345 268.139 488.71 268.272 488.038 268.412L488.014 268.417C487.347 268.557 486.642 268.704 485.956 268.811Z" fill="#EB3959"/>
<path d="M432.201 282.618C432.127 280.223 433.669 279.868 434.532 281.256C434.92 281.879 435.882 282.385 437.469 282.554C440.113 282.836 439.188 284.297 438.676 284.872C436.223 286.714 432.33 286.834 432.201 282.618Z" fill="#EB3959"/>
<path fill-rule="evenodd" clip-rule="evenodd" d="M432.991 280.464C433.515 280.232 434.144 280.519 434.583 281.224C434.956 281.823 435.894 282.326 437.475 282.495C438.141 282.566 438.59 282.712 438.878 282.905C439.169 283.1 439.296 283.343 439.315 283.599C439.334 283.851 439.248 284.108 439.128 284.335C439.008 284.562 438.851 284.765 438.72 284.911C438.718 284.914 438.715 284.917 438.712 284.919C437.476 285.847 435.872 286.346 434.555 286.075C433.894 285.939 433.306 285.61 432.875 285.044C432.444 284.479 432.174 283.683 432.141 282.62C432.104 281.415 432.472 280.694 432.991 280.464ZM433.04 280.573C432.59 280.772 432.224 281.426 432.26 282.616C432.292 283.661 432.557 284.431 432.969 284.972C433.381 285.512 433.943 285.827 434.579 285.958C435.852 286.22 437.419 285.739 438.635 284.827C438.761 284.686 438.909 284.493 439.023 284.279C439.137 284.062 439.213 283.828 439.196 283.608C439.18 283.391 439.075 283.18 438.812 283.004C438.546 282.826 438.119 282.683 437.463 282.613C435.87 282.443 434.884 281.934 434.482 281.287C434.058 280.605 433.484 280.376 433.04 280.573Z" fill="#EB3959"/>
<path fill-rule="evenodd" clip-rule="evenodd" d="M433.874 291.182C435.845 291.752 437.835 293.118 439.28 295.149C439.412 295.335 439.498 295.555 439.545 295.681C439.605 295.842 439.667 296.032 439.728 296.239C439.85 296.656 439.985 297.191 440.12 297.803C440.391 299.028 440.671 300.603 440.851 302.216C441.03 303.818 441.116 305.511 440.975 306.952C440.905 307.672 440.773 308.375 440.543 308.99C440.315 309.597 439.953 310.217 439.358 310.634C438.19 311.453 435.989 312.229 433.538 312.253C431.041 312.278 428.172 311.52 425.81 309.11C424.363 307.634 423.597 304.794 423.831 301.776C424.071 298.68 425.369 295.166 428.357 292.21C429.793 290.79 431.935 290.621 433.874 291.182ZM433.211 293.474C431.751 293.052 430.633 293.314 430.035 293.906C427.491 296.424 426.41 299.384 426.21 301.961C426.004 304.615 426.737 306.647 427.515 307.44C429.329 309.292 431.522 309.887 433.515 309.867C435.553 309.847 437.269 309.184 437.989 308.68C438.043 308.642 438.174 308.512 438.308 308.153C438.44 307.802 438.541 307.322 438.6 306.72C438.718 305.517 438.65 304.01 438.479 302.48C438.31 300.961 438.045 299.47 437.79 298.318C437.663 297.741 437.541 297.261 437.438 296.912C437.387 296.736 437.343 296.606 437.311 296.518C437.304 296.5 437.298 296.486 437.294 296.474C436.151 294.894 434.623 293.882 433.211 293.474Z" fill="#EB3959"/>
<path fill-rule="evenodd" clip-rule="evenodd" d="M461.551 250.957C456.088 253.114 450.063 256.525 445.975 262.262C444.847 263.845 442.649 264.214 441.066 263.086C439.483 261.958 439.114 259.76 440.242 258.177C445.452 250.866 452.904 246.803 458.966 244.41C462.016 243.205 464.791 242.394 466.822 241.816C466.988 241.768 467.148 241.723 467.3 241.68C468.109 241.45 468.725 241.275 469.204 241.12C469.48 241.031 469.63 240.975 469.697 240.946C469.612 240.989 469.409 241.106 469.181 241.314L473.921 246.518C473.371 247.019 472.757 247.293 472.477 247.414C472.115 247.569 471.724 247.704 471.362 247.821C470.755 248.016 469.994 248.232 469.194 248.46C469.047 248.501 468.899 248.543 468.751 248.585C466.763 249.152 464.263 249.886 461.551 250.957ZM469.7 240.945C469.699 240.945 469.698 240.946 469.697 240.946C469.747 240.921 469.755 240.921 469.7 240.945ZM469.457 261.19C464.726 263.491 460.061 266.535 456.98 269.04C455.472 270.266 453.255 270.038 452.029 268.53C450.803 267.021 451.031 264.805 452.539 263.578C456.05 260.723 461.175 257.391 466.378 254.86C468.987 253.591 471.687 252.489 474.27 251.754C476.811 251.032 479.471 250.598 481.91 250.876C483.841 251.095 485.229 252.839 485.01 254.77C484.79 256.702 483.046 258.089 481.115 257.87C479.967 257.739 478.313 257.923 476.195 258.525C474.12 259.115 471.816 260.043 469.457 261.19Z" fill="#EB3959"/>
<path fill-rule="evenodd" clip-rule="evenodd" d="M413.895 278.674C414.417 279.222 414.397 280.091 413.848 280.614L411.155 283.182C410.606 283.704 409.738 283.684 409.215 283.135C408.692 282.587 408.713 281.718 409.261 281.195L411.955 278.627C412.503 278.105 413.372 278.125 413.895 278.674ZM417.999 279.803C418.564 280.307 418.614 281.174 418.11 281.74L413.843 286.528C413.339 287.094 412.471 287.143 411.906 286.639C411.34 286.135 411.29 285.268 411.794 284.702L416.061 279.914C416.566 279.348 417.433 279.298 417.999 279.803ZM421.741 282.335C422.33 282.812 422.42 283.676 421.943 284.265L419.735 286.991C419.258 287.58 418.394 287.671 417.805 287.194C417.216 286.717 417.126 285.853 417.603 285.264L419.811 282.538C420.288 281.949 421.152 281.858 421.741 282.335ZM457.189 298.602C457.761 299.099 457.822 299.965 457.325 300.537L453.18 305.308C452.683 305.88 451.816 305.941 451.244 305.444C450.672 304.947 450.611 304.08 451.108 303.508L455.253 298.738C455.75 298.166 456.617 298.105 457.189 298.602ZM461.087 300.587C461.722 301 461.902 301.85 461.489 302.485L458.579 306.958C458.165 307.593 457.316 307.773 456.68 307.359C456.045 306.946 455.865 306.096 456.279 305.461L459.189 300.989C459.602 300.354 460.452 300.174 461.087 300.587ZM465.441 302.71C466.135 303.015 466.45 303.825 466.144 304.519L463.842 309.75C463.537 310.443 462.727 310.758 462.033 310.453C461.34 310.148 461.025 309.338 461.33 308.644L463.633 303.413C463.938 302.72 464.748 302.405 465.441 302.71Z" fill="#EB3959"/>
<path fill-rule="evenodd" clip-rule="evenodd" d="M430.864 293.373C431.192 293.867 431.057 294.533 430.563 294.861C430.361 294.995 429.933 295.433 429.399 296.23C428.889 296.993 428.343 297.993 427.872 299.142C426.924 301.457 426.329 304.261 426.827 306.888C426.938 307.471 426.555 308.033 425.972 308.143C425.39 308.254 424.828 307.871 424.717 307.288C424.114 304.11 424.845 300.866 425.885 298.328C426.408 297.05 427.021 295.922 427.615 295.036C428.185 294.184 428.806 293.45 429.376 293.072C429.87 292.744 430.536 292.879 430.864 293.373Z" fill="#EB3959"/>
<path fill-rule="evenodd" clip-rule="evenodd" d="M431.671 291.533C432.153 291.878 432.264 292.549 431.918 293.031C431.53 293.573 431.071 294.438 430.915 295.248C430.761 296.041 430.924 296.508 431.367 296.8C432.331 297.434 433.615 297.687 434.73 297.492C435.826 297.3 436.629 296.714 436.944 295.772C437.131 295.21 437.74 294.906 438.302 295.094C438.865 295.282 439.168 295.89 438.981 296.452C438.356 298.324 436.764 299.317 435.1 299.608C433.457 299.895 431.617 299.534 430.187 298.594C428.716 297.627 428.569 296.068 428.806 294.84C429.04 293.629 429.673 292.478 430.172 291.781C430.518 291.299 431.188 291.188 431.671 291.533Z" fill="#EB3959"/>
<path fill-rule="evenodd" clip-rule="evenodd" d="M397.08 296.941C398.78 294.879 401.605 294.608 403.502 294.857C404.09 294.934 404.504 295.474 404.427 296.062C404.349 296.65 403.81 297.064 403.222 296.986C401.61 296.775 399.736 297.095 398.737 298.307C397.788 299.458 397.239 301.913 399.441 306.941C399.679 307.485 399.432 308.118 398.889 308.356C398.345 308.594 397.712 308.346 397.474 307.803C395.18 302.565 395.329 299.064 397.08 296.941Z" fill="#EB3959"/>
<path fill-rule="evenodd" clip-rule="evenodd" d="M387.444 271.786C387.435 271.762 387.427 271.739 387.42 271.715L384.92 263.629C383.703 259.692 385.907 255.515 389.844 254.297C393.78 253.08 397.958 255.285 399.175 259.221L401.675 267.307C401.683 267.331 401.69 267.355 401.695 267.38C401.716 267.44 401.735 267.5 401.754 267.561L404.226 275.557C405.443 279.493 403.239 283.671 399.302 284.888C395.366 286.106 391.188 283.901 389.971 279.965L387.498 271.969C387.48 271.908 387.462 271.847 387.444 271.786ZM390.031 272.146L392.232 279.265C393.063 281.953 395.916 283.458 398.603 282.627C401.291 281.796 402.796 278.944 401.965 276.256L399.763 269.137L390.031 272.146Z" fill="#EB3959"/>
<path fill-rule="evenodd" clip-rule="evenodd" d="M470.085 292.037C467.537 297.419 461.306 299.713 456.168 297.161C451.03 294.61 448.929 288.179 451.477 282.797C454.025 277.416 460.256 275.122 465.394 277.673C470.533 280.225 472.633 286.656 470.085 292.037ZM457.527 285.8C456.647 286.539 455.409 286.737 454.335 286.204C452.852 285.467 452.244 283.614 452.978 282.065C453.711 280.515 455.508 279.856 456.991 280.593C457.405 280.798 457.751 281.091 458.018 281.44C459.468 278.658 462.782 277.508 465.533 278.874C468.352 280.273 469.511 283.786 468.122 286.72C466.734 289.653 463.323 290.896 460.503 289.496C458.98 288.74 457.941 287.366 457.527 285.8Z" fill="#EB3959"/>
<path fill-rule="evenodd" clip-rule="evenodd" d="M429.851 278.371C425.556 281.704 420.312 281.219 418.139 277.287C415.967 273.355 417.687 267.465 421.983 264.131C426.278 260.798 431.522 261.283 433.694 265.216C435.867 269.148 434.146 275.037 429.851 278.371ZM424.411 268.669C423.562 268.969 422.659 268.726 422.121 267.956C421.379 266.893 421.614 265.228 422.647 264.237C423.679 263.246 425.118 263.305 425.861 264.368C426.068 264.665 426.199 265.008 426.258 265.371C428.201 263.635 430.833 263.795 432.209 265.766C433.621 267.787 433.18 270.946 431.225 272.822C429.27 274.698 426.541 274.58 425.13 272.56C424.367 271.468 424.145 270.043 424.411 268.669Z" fill="#EB3959"/>
<path fill-rule="evenodd" clip-rule="evenodd" d="M429.348 225.416C430.005 225.198 430.714 225.553 430.932 226.21C431.456 227.789 433.162 228.643 434.74 228.119L435.222 227.959C435.878 227.741 436.588 228.096 436.806 228.753C437.024 229.41 436.668 230.119 436.012 230.337C434.167 230.95 433.168 232.942 433.781 234.786C433.999 235.443 433.644 236.152 432.987 236.37C432.33 236.588 431.621 236.233 431.403 235.576C430.79 233.732 428.798 232.733 426.953 233.346C426.297 233.564 425.588 233.208 425.37 232.552C425.152 231.895 425.507 231.186 426.164 230.968L426.645 230.808C428.224 230.283 429.079 228.578 428.554 227C428.336 226.343 428.692 225.634 429.348 225.416Z" fill="#EB3959"/>
<path fill-rule="evenodd" clip-rule="evenodd" d="M405.703 238.128C406.144 237.207 407.249 236.819 408.17 237.26L408.975 237.646C410.757 238.501 412.895 237.748 413.749 235.966L414.46 234.483C414.902 233.562 416.006 233.174 416.927 233.615C417.848 234.057 418.237 235.161 417.795 236.082L417.085 237.565C416.23 239.347 416.982 241.485 418.765 242.34L420.247 243.051C421.168 243.492 421.557 244.597 421.115 245.518C420.674 246.439 419.569 246.827 418.648 246.386L417.166 245.675C415.383 244.82 413.245 245.573 412.391 247.355L411.68 248.838C411.238 249.759 410.134 250.147 409.213 249.706C408.292 249.264 407.903 248.16 408.345 247.239L409.056 245.756C409.91 243.974 409.158 241.836 407.376 240.981L406.571 240.595C405.65 240.154 405.261 239.049 405.703 238.128Z" fill="#EB3959"/>
</svg>
